<svg xmlns="http://www.w3.org/2000/svg" viewBox="0 0 473.46 161.61"><defs><style>.cls-1{fill:#231f20;}</style></defs><g id="Layer_2" data-name="Layer 2"><g id="Layer_1-2" data-name="Layer 1"><path class="cls-1" d="M472.7,23.36l-6.85-3.74-10.08-1.23L440.62,16,419.57,9.25,408,5.93,388.23,2.69l-9.7-1.1-15.38.33-9.93.16L333.64,4,319.23,6.18l-14,3.94-14.49,6.11L273,24l-7.89,3.76-4.14-.53-8.44-.88-14.71-.61-15,.31-15.54.51-8.22.19L194.86,26l-4.94-2.29-9.13-4.25-7.5-3.78L166,12.44l-9.48-4-12-4.12L133.2,2.15,117.12,0,105,.31,95.43.48,77.11,1.77,65,2.79,51.78,6.24,41.87,8.59l-8.5,2-10.24.45-7.26,3L9,15.53,1.71,17.77.24,19.44,0,22.13l.14,3.22.47,6.42,1.64,4.57,2.11,3.31,2.87.23,4.49.34,3.81,1.09,3.64,1.44,5.25,1.38,1.95,3.67,1.22,7.11,0,7.51L28,68l.63,10.18L28.88,84l1.34,6.21,1.67,5.47,2.31,7.6,1.91,6.89,2.08,6.17,4.67,8.56,6.66,9.19,5.79,5.29,7.58,5.74,8.44,4.65,7.14,3.62,8.17,2.67L95,158.21l9.91,1.7,8.78.34h7.88l7.31-.5,8-.35,6.56-1.43,6.8-2.69,6.07-2.89,6.77-3.65,7.16-5.32,5.07-3.81,6.19-5.76,6.59-7.21,4.29-5.67,4.28-5.68,4-6.15,3.09-5.85L206,98.41l1.87-6,1.57-7.69L211,77.44l1.41-6,.31-9.09.3-4.06-.17-3.82,1.79-2.69,3.74-1.6,3.79-.88,9.76-.43,8.1-.13,8.87.8L252.55,52l.36,2.6L252.72,61l2.65,11.34,2.3,8.72,2.92,6.79,2.81,9.66L266,107l4.17,7.69,5.16,9.09,7.84,9.66,8.7,8.21,6.45,5.43,10.25,5,6.08,2.6,10.4,3.12,11.79,2.35,11.26,1.16,14.57.31,9.73-1.14,8.53-1.34L392,155.78l7.26-3.19,6.06-3.36,7.34-6.3,5.08-4,5.93-6,6.88-6.51,3.76-6.37,3.05-6.81,2.79-7,3.16-9.46,2.05-7.48,1.75-8.9,1.31-8.16,1.93-10.35.48-5.28,1.51-3.64,1.76-3.18,2.54-2,3.51-1.58,3.79-.42,5.47-.48,2.08-1.51,1.1-2.21.92-6.24,0-6ZM198.17,68.46,195.79,79.3l-2.52,7.63L189.8,97.46l-3.45,10.89-6.74,9.6-9.24,9.36-6.54,6-10.08,6.88-7,3.53-9.9,2.95-12.08,2-12.5.55-10.77-1-13.37-2.63-12-4.83-10.68-6.69-8.16-6.44-8.95-8.19-5.05-9.08L39.9,98.74l-3.42-21,0-15,.63-10L41,42.5l1.89-5.8,5.33-8.83,7.5-8.56,5.61-2.4,10.95-3.34,12.07-2.34L96.81,10l14.29-.28,12.55.16,15.13,2.55,13.79,4.4,9.09,2.82,9.5,4.58L180,28.82,185.54,34l6.51,9.37L195.93,50l2.95,10.24Zm235.15,8.67-2.33,12-2.44,9.41-3.66,9-2.62,5.6-4.86,8.57-7.06,7.46-7.6,6.31-7.14,5.8-10.73,5.48-10.31,4.52-12,2.92-11.69,0-12.46-1.36-12.52-2.31L313,144.73l-6.38-4-6.75-6.63-5.57-7.15L282.37,111l-4.82-12-3.67-12.71L271.48,70l-.6-8.33,1.21-10.07,1.44-5.31,2-4.39,6.8-7.92,9.58-4.72,9.55-5.2L312.89,19l17.47-4.11L347.41,12l11.45,0,15.05.52,13,2.29,14.47,3.42,10.73,5.25,11.19,10L430,45.54l3.12,11.3.91,9.51Z"/></g></g></svg>