<svg xmlns="http://www.w3.org/2000/svg" viewBox="0 0 510.71 29.58"><defs><style>.cls-1{fill:#fff;}.cls-2{fill:none;stroke:#231f20;stroke-miterlimit:10;stroke-width:15px;}</style></defs><g id="Layer_2" data-name="Layer 2"><g id="Layer_1-2" data-name="Layer 1"><path class="cls-1" d="M3.35,22.87,30.41,9.34c4.92-2.45,13-2.45,17.89,0L66.41,18.4c4.92,2.46,13,2.46,17.89,0l18.11-9.06c4.92-2.45,13-2.45,17.89,0l18.11,9.06c4.92,2.46,13,2.46,17.89,0l18.11-9.06c4.92-2.45,13-2.45,17.89,0l18.11,9.06c4.92,2.46,13,2.46,17.89,0l18.11-9.06c4.92-2.45,13-2.45,17.89,0l18.11,9.06c4.92,2.46,13,2.46,17.89,0l18.11-9.06c4.92-2.45,13-2.45,17.89,0l18.11,9.06c4.92,2.46,13,2.46,17.89,0l18.11-9.06c4.92-2.45,13-2.45,17.89,0l18.11,9.06c4.92,2.46,13,2.46,17.89,0l18.11-9.06c4.92-2.45,13-2.45,17.89,0l27.05,13.53"/><path class="cls-2" d="M3.35,22.87,30.41,9.34c4.92-2.45,13-2.45,17.89,0L66.41,18.4c4.92,2.46,13,2.46,17.89,0l18.11-9.06c4.92-2.45,13-2.45,17.89,0l18.11,9.06c4.92,2.46,13,2.46,17.89,0l18.11-9.06c4.92-2.45,13-2.45,17.89,0l18.11,9.06c4.92,2.46,13,2.46,17.89,0l18.11-9.06c4.92-2.45,13-2.45,17.89,0l18.11,9.06c4.92,2.46,13,2.46,17.89,0l18.11-9.06c4.92-2.45,13-2.45,17.89,0l18.11,9.06c4.92,2.46,13,2.46,17.89,0l18.11-9.06c4.92-2.45,13-2.45,17.89,0l18.11,9.06c4.92,2.46,13,2.46,17.89,0l18.11-9.06c4.92-2.45,13-2.45,17.89,0l27.05,13.53"/></g></g></svg>