<svg xmlns="http://www.w3.org/2000/svg" viewBox="0 0 471.65 564.74"><defs><style>.cls-1{fill:#fff;}</style></defs><g id="Layer_2" data-name="Layer 2"><g id="Robot_Drawing" data-name="Robot Drawing"><path class="cls-1" d="M153.59,522.7a.67.67,0,0,1-.25-.08.52.52,0,0,1-.53-.35l-1.3.49c-1.6-.09-21-1.16-37.9-2-5.59-.28-8.7-.5-11.2-.69-3.6-.26-5.66-.41-11.67-.41-2.73,0-6.28,0-11.16.1-20.23.27-29.83.06-31.65,0a16.1,16.1,0,0,0-5-6.91l-.14-.1H35.56a2.2,2.2,0,0,1-2-1.18,5.92,5.92,0,0,1-.72-1.82h-.06a5.58,5.58,0,0,1-.57-.08l-.33,0-.1,0a7.72,7.72,0,0,0,.93,2.48,3.12,3.12,0,0,0,2.86,1.64h6.83a15.22,15.22,0,0,1,4.71,6.68l.12.31h.33c.09,0,9.44.3,32,0,15.59-.21,17.39-.08,22.74.31,2.51.18,5.63.41,11.23.69,17.49.86,37.79,2,38,2h.1l.1,0c.84-.31,1.78-.67,2.78-1.06A2.53,2.53,0,0,1,153.59,522.7Z"/><path class="cls-1" d="M239.28,376.79c-10.67-7.31-27.57-8.51-39.25,3.35-1.57,1.65-3.44,3.39-5.6,5.41-3.07,2.86-6.55,6.11-10.35,10.18l-.41.44,2.65,1.71c-4.58,2.77-8.27,6.78-9.94,10.85l-.82,12-1,14c-1.9,2-3,6.7-3.48,14.39-1.07,5.49-1.48,13.65-1.75,21.63-.28,3.84-2.55,6.35-7.19,7.93l-21.46,10-13.45-.34c-2.67-2.14-5-3-7-2.54s-3.66,2-5.14,4.75a29.76,29.76,0,0,0-6.37,1.16l-.28.08a7,7,0,0,0-7.46.4h-53l-.14.12c-3.85,3.41-9.3,5.87-11.78,5.94a3.24,3.24,0,0,0-2.51,1.45,5.23,5.23,0,0,1,1.11.24,2.05,2.05,0,0,1,1.42-.69c3-.09,8.59-2.86,12.28-6.06h53l.14-.1a6.08,6.08,0,0,1,6.73-.33l.16.09.65-.17a27.23,27.23,0,0,1,6.42-1.13h.31l.14-.28c1.37-2.66,2.87-4.13,4.59-4.49s3.84.43,6.32,2.45l.13.1,14,.36,21.62-10.12c5-1.67,7.51-4.55,7.82-8.8.27-8,.67-16.07,1.74-21.55.44-7.58,1.55-12.27,3.32-13.93l.14-.13,1.06-14.42.78-11.79c1.69-4,5.49-8,10.19-10.7l.72-.4-3-1.95c3.62-3.85,6.94-7,9.89-9.7,2.17-2,4-3.78,5.63-5.44,11.29-11.46,27.66-10.3,38-3.23,9.22,6.32,16.39,19,8.89,35.66l-10.83,23.22-2.09,4.7A398,398,0,0,1,212,483.38a58,58,0,0,1-17.69,17.19l-12.78,6.78-.13.1a22.08,22.08,0,0,0-4.79,6.57c-.46,1-1,1.61-1.57,1.75a2.35,2.35,0,0,1-1.91-.71,5.36,5.36,0,0,0-3.81-1.47,3.83,3.83,0,0,0-2.67,1.49c-.93,1.42-5,3.63-11.08,6.1a.65.65,0,0,1,0,.31.93.93,0,0,1-.33.55,1.41,1.41,0,0,1-.23.33,1.27,1.27,0,0,1-.37.25c5.06-2,11.39-4.8,12.79-6.94a2.77,2.77,0,0,1,1.95-1.09,4.43,4.43,0,0,1,3.09,1.24,3.26,3.26,0,0,0,2.78.91,3.66,3.66,0,0,0,2.26-2.32,20.74,20.74,0,0,1,4.54-6.23l12.74-6.76a58.79,58.79,0,0,0,18-17.51,401.61,401.61,0,0,0,22.73-42.32l2.08-4.69,10.83-23.22C256.28,396.46,248.83,383.33,239.28,376.79Z"/><path class="cls-1" d="M154.09,523.38a2.12,2.12,0,1,1,2.12-2.12A2.12,2.12,0,0,1,154.09,523.38Zm0-3.24a1.12,1.12,0,1,0,1.12,1.12A1.12,1.12,0,0,0,154.09,520.14Z"/><path class="cls-1" d="M55.87,506.33a1.22,1.22,0,1,1,1.21-1.21A1.21,1.21,0,0,1,55.87,506.33Zm0-1.43a.22.22,0,0,0-.22.22c0,.23.43.23.43,0A.21.21,0,0,0,55.87,504.9Z"/><path class="cls-1" d="M63,506.43a1.22,1.22,0,1,1,1.21-1.22A1.21,1.21,0,0,1,63,506.43ZM63,505a.21.21,0,0,0-.22.21c0,.24.43.24.43,0A.21.21,0,0,0,63,505Z"/><path class="cls-1" d="M71.32,506.82a1.22,1.22,0,1,1,1.22-1.22A1.21,1.21,0,0,1,71.32,506.82Zm0-1.43a.21.21,0,0,0-.21.21c0,.24.43.24.43,0A.21.21,0,0,0,71.32,505.39Z"/><path class="cls-1" d="M32.5,510.46a5.19,5.19,0,0,1-4.64-2.71,6,6,0,0,1,.21-5.9A5.32,5.32,0,0,1,33,499.38l12.85.08a4.58,4.58,0,0,1,3.7,1.81,6.25,6.25,0,0,1-.13,7.43,4.55,4.55,0,0,1-3.65,1.68h-.09Zm.23-10.09a4.28,4.28,0,0,0-3.81,2,5.06,5.06,0,0,0-.18,4.9,4.2,4.2,0,0,0,3.77,2.18l13.13-.08a3.52,3.52,0,0,0,3-1.31,5.27,5.27,0,0,0,.11-6.19,3.6,3.6,0,0,0-2.92-1.42l-12.86-.08Z"/><path class="cls-1" d="M113.68,512.53c-3-3.19-4.43-6-4.29-8.46.12-2.12,1.35-4.14,3.77-6.16l.18-.14v-.22c.07-2-2.29-3.61-3.7-4.41a18.64,18.64,0,0,0-5.29-2,.44.44,0,0,1-.28.19.46.46,0,0,1-.12.12c-.26.13-.54.24-.81.35a.62.62,0,0,1-.14.14,16.59,16.59,0,0,1,6.15,2.06c1.9,1.08,3.07,2.29,3.19,3.29-2.53,2.16-3.82,4.36-4,6.71-.15,2.65,1.19,5.5,4.09,8.69-.68.09-2.08.19-5,.24-6.87.14-8.46-2.39-9.07-4.59l-.11-.37h-.54c-4.16,0-6.09-2.7-6.16-5.4-.07-3,2.08-6.07,6.34-6.21h.27l2.5-3.93a8.09,8.09,0,0,1-.85.06.38.38,0,0,1-.28-.09l-1.94,3a7.06,7.06,0,0,0-7,7.23c.08,3,2.29,6.27,6.95,6.36,1.11,3.38,4.14,5,9.48,5h.47c6.11-.1,6.2-.43,6.32-.85l.08-.4Z"/><path class="cls-1" d="M95.87,509.77a1.26,1.26,0,1,1,1.26-1.26A1.26,1.26,0,0,1,95.87,509.77Zm0-1.52a.25.25,0,0,0-.26.26c0,.28.52.29.52,0A.26.26,0,0,0,95.87,508.25Z"/><path class="cls-1" d="M91.89,500.9a1.26,1.26,0,1,1,1.26-1.26A1.26,1.26,0,0,1,91.89,500.9Zm0-1.52a.25.25,0,0,0-.26.26c0,.28.52.28.52,0A.26.26,0,0,0,91.89,499.38Z"/><path class="cls-1" d="M97.54,497.38a1.27,1.27,0,1,1,1.26-1.26A1.27,1.27,0,0,1,97.54,497.38Zm0-1.53a.27.27,0,0,0-.26.27c0,.28.52.28.52,0A.27.27,0,0,0,97.54,495.85Z"/><path class="cls-1" d="M91.54,506.29a1.26,1.26,0,1,1,0-2.52,1.26,1.26,0,1,1,0,2.52Zm0-1.52a.26.26,0,0,0-.26.26c0,.29.52.29.52,0A.26.26,0,0,0,91.54,504.77Z"/><path class="cls-1" d="M182.21,470.93c-1-1.87-6.4-3.22-9.88-3a2.06,2.06,0,0,0-2,1.29c-.4,1.07.08,2.49,1.24,3.71a3.64,3.64,0,0,0-.72,2.62,2.68,2.68,0,0,0,1.08,1.66l.69,13.88c-.09,5.25-1.57,9.06-4.41,11.32-3.72,3-9.83,3.48-18.67,1.6l-1.43-.34c0,.33-.08.67-.14,1l1.36.32c9.16,1.95,15.54,1.37,19.5-1.79,3.09-2.45,4.7-6.52,4.78-12.12l-.7-14.41-.21-.14a1.75,1.75,0,0,1-.86-1.15,3,3,0,0,1,.79-2.21l.26-.36-.33-.3c-1.23-1.14-1.53-2.29-1.3-2.93a1.13,1.13,0,0,1,1.13-.64c3.34-.22,8.2,1.12,9,2.49.31.53.31.73.29.8-.08.23-.83.53-1.19.67l-.31.12v22c-1.89,10.71-9.88,16.22-17,16.94l-3.17.33c-3.61.38-3.61.38-5.6.12l-1-.13c-3.56-.42-4.67-1.09-4.68-1.09l-.88-.29a7.85,7.85,0,0,1-.26.95l.66.21c.31.18,1.61.8,5,1.22l1,.12a16.12,16.12,0,0,0,2.11.19c.77,0,1.7-.1,3.71-.31l3.17-.33c7.47-.75,15.89-6.53,17.87-17.84V473.69c.71-.3,1.26-.6,1.44-1.14A2,2,0,0,0,182.21,470.93Z"/><path class="cls-1" d="M143.71,509.59l-.37-.12-5-.61c-2.22-.27-8-.5-17.18-.68l-.76,0c-.44-.52-1.21-4.13.4-7a27,27,0,0,0,6.93,1.15c.1,0,9.68.39,11.82.52a12.5,12.5,0,0,1,3.48.68l.95.23c-.06-.28-.15-.54-.23-.81a.62.62,0,0,1,0-.27l-.43-.1a13.15,13.15,0,0,0-3.72-.73c-2.15-.13-11.74-.52-11.82-.52a25,25,0,0,1-7-1.23l-.38-.14-.22.34a9.72,9.72,0,0,0-.77,8.14c.23.47.5.72.87.76l.88,0c9.15.18,14.9.41,17.08.67,3.59.44,4.94.62,4.95.59l.52.17A2.09,2.09,0,0,1,143.71,509.59Z"/><path class="cls-1" d="M120.23,508.48a.55.55,0,0,1-.29-.23s0,0,0-.05c-1.57,1.94-4.9,2.14-10,.54.16.26.31.52.46.78a.53.53,0,0,1,0,.39v0a20.12,20.12,0,0,0,5.36.91c2.34,0,4-.74,5-2.19A6.48,6.48,0,0,0,120.23,508.48Z"/><path class="cls-1" d="M120.55,501.26a.82.82,0,0,1,.19-.09l.09,0a1.64,1.64,0,0,1,.32-.05h.24s0-.06,0-.08a.49.49,0,0,1,.18-.17c-5-1.45-8.65-2.25-10.78-1.83a.52.52,0,0,1-.13.3c-.2.22-.39.45-.57.68s-.2.26-.29.4l.12.11c1.26-1.4,6.8,0,10.4,1A.64.64,0,0,1,120.55,501.26Z"/><path class="cls-1" d="M117.34,497.22c-3.81-3-6.83-5.36-8.58-3.88a.45.45,0,0,1,.43.43.46.46,0,0,1,.21,0,.47.47,0,0,1,.39.2c1.34-.31,4.06,1.83,6.93,4.09,1.2.94,2.51,2,3.88,3a.39.39,0,0,1,.18,0,7.58,7.58,0,0,1,1.83.28.34.34,0,0,1,.17.08v0C120.88,500,119,498.53,117.34,497.22Z"/><path class="cls-1" d="M237.9,434.88a2.63,2.63,0,0,1-2.5.62c-2.41-.49-4.73-3-4.75-3.6a164.31,164.31,0,0,0-.42-19.4,14.6,14.6,0,0,0,3.32-15.93,15.66,15.66,0,0,0-14.43-9.72h-.47l-.74,8.21c0,.68-2.44,3-3.21,3.19l-.11-.05c-2-.77-5.62-5.56-6.86-7.34l-.3-.43-3.49,2.7a2.1,2.1,0,0,0-1.33-.51,2.49,2.49,0,0,0-1.62.57,2.53,2.53,0,0,0-.92,1.45,2.13,2.13,0,0,0,.22,1.44,28.06,28.06,0,0,1-5.12,3.9l-7.77-2.29v0a.34.34,0,0,1,0,.2.32.32,0,0,1-.09.17.35.35,0,0,1-.14.13,1.09,1.09,0,0,0-.23.14l-.22.18,8.59,2.53.19-.11a29,29,0,0,0,5.8-4.45l.31-.32-.28-.34a1.2,1.2,0,0,1-.27-1,1.57,1.57,0,0,1,.56-.87,1.59,1.59,0,0,1,1-.35,1.17,1.17,0,0,1,.92.49l.3.39,3.42-2.64c1.06,1.48,4.61,6.25,6.92,7.24a1,1,0,0,0,.89.09c1.22-.4,3.79-2.93,3.88-4l.65-7.27A14.61,14.61,0,0,1,232.62,397a13.63,13.63,0,0,1-3.26,15l-.16.16,0,.23a164.8,164.8,0,0,1,.43,19.54c0,1.25,2.85,4,5.55,4.59a4.33,4.33,0,0,0,.93.1,3.52,3.52,0,0,0,1.59-.38s0-.06,0-.09A5.74,5.74,0,0,1,237.9,434.88Z"/><path class="cls-1" d="M219.76,395.25a6.7,6.7,0,0,0-1.5.19.5.5,0,0,1,0,.13c-.21.42-.49.8-.71,1.22a5,5,0,0,1,2.25-.54,5.24,5.24,0,1,1-5.24,5.24,5.11,5.11,0,0,1,1-3,3,3,0,0,1-.39.13,3.37,3.37,0,0,1-.62.07.57.57,0,0,1-.26-.08,6.17,6.17,0,0,0-.72,2.88,6.24,6.24,0,1,0,6.24-6.24Z"/><path class="cls-1" d="M219.79,403.49a2,2,0,1,1,2-2A2,2,0,0,1,219.79,403.49Zm0-2.94a1,1,0,1,0,1,1A1,1,0,0,0,219.79,400.55Z"/><path class="cls-1" d="M225.45,450.08a1.72,1.72,0,1,1,1.72-1.72A1.72,1.72,0,0,1,225.45,450.08Zm0-2.44a.72.72,0,1,0,.72.72A.72.72,0,0,0,225.45,447.64Z"/><path class="cls-1" d="M219.61,445.55a1.37,1.37,0,1,1,1.37-1.36A1.36,1.36,0,0,1,219.61,445.55Zm0-1.73a.37.37,0,0,0-.36.37.36.36,0,0,0,.36.36.37.37,0,0,0,.37-.36A.38.38,0,0,0,219.61,443.82Z"/><path class="cls-1" d="M213.89,466.94a1.28,1.28,0,1,1,1.28-1.28A1.28,1.28,0,0,1,213.89,466.94Zm0-1.56a.27.27,0,0,0-.28.28.28.28,0,0,0,.28.28.29.29,0,0,0,.28-.28A.28.28,0,0,0,213.89,465.38Z"/><path class="cls-1" d="M195.5,479.25a1.24,1.24,0,1,1,1.24-1.24A1.24,1.24,0,0,1,195.5,479.25Zm0-1.48a.24.24,0,0,0-.24.24c0,.26.48.26.48,0A.24.24,0,0,0,195.5,477.77Z"/><path class="cls-1" d="M206.89,484.46a1.67,1.67,0,1,1,1.67-1.67A1.68,1.68,0,0,1,206.89,484.46Zm0-2.34a.67.67,0,1,0,0,1.34.67.67,0,1,0,0-1.34Z"/><path class="cls-1" d="M164.76,487.59a1.63,1.63,0,1,1,1.63-1.63A1.63,1.63,0,0,1,164.76,487.59Zm0-2.26a.63.63,0,0,0-.63.63.63.63,0,1,0,1.26,0A.63.63,0,0,0,164.76,485.33Z"/><path class="cls-1" d="M176,435.51v-1a2.51,2.51,0,0,0,2.26-1.32,3.84,3.84,0,0,0,0-3.65,2,2,0,0,0-1.73-1h0v-1h0a2.93,2.93,0,0,1,2.59,1.52,4.83,4.83,0,0,1,0,4.65A3.5,3.5,0,0,1,176,435.51Z"/><path class="cls-1" d="M173.64,449.27h0l0-1s.19,0,.36-.28a3.29,3.29,0,0,0,.09-2.73c-.16-.29-.3-.3-.35-.3l0-1a1.42,1.42,0,0,1,1.2.83,4.35,4.35,0,0,1-.11,3.73A1.43,1.43,0,0,1,173.64,449.27Z"/><path class="cls-1" d="M232,394.29l-7.21,5,.08.16a4.75,4.75,0,0,1,.37.75h0l7.3-5C232.32,394.84,232.14,394.56,232,394.29Z"/><path class="cls-1" d="M231.25,410.47a4,4,0,0,1,.34-.38l-7-5.44a2.77,2.77,0,0,1-.64.77l7,5.46A3,3,0,0,1,231.25,410.47Z"/><path class="cls-1" d="M241.11,416a1.81,1.81,0,1,1,1.8-1.81A1.81,1.81,0,0,1,241.11,416Zm0-2.61a.81.81,0,1,0,.8.8A.8.8,0,0,0,241.11,413.42Z"/><path class="cls-1" d="M196.28,395.51a1.68,1.68,0,1,1,1.67-1.68A1.68,1.68,0,0,1,196.28,395.51Zm0-2.35a.67.67,0,0,0-.67.67.67.67,0,1,0,1.34,0A.67.67,0,0,0,196.28,393.16Z"/><path class="cls-1" d="M233.58,432a1.5,1.5,0,1,1,1.5-1.5A1.5,1.5,0,0,1,233.58,432Zm0-2a.5.5,0,0,0-.5.5.51.51,0,0,0,.5.5.5.5,0,0,0,.5-.5A.5.5,0,0,0,233.58,430Z"/><path class="cls-1" d="M241.37,389a1.55,1.55,0,1,1,0-3.09,1.55,1.55,0,0,1,0,3.09Zm0-2.09a.55.55,0,0,0-.55.54.55.55,0,0,0,.55.55.55.55,0,0,0,.54-.55A.54.54,0,0,0,241.37,386.9Z"/><path class="cls-1" d="M216.8,378.72a1.5,1.5,0,1,1,1.5-1.5A1.5,1.5,0,0,1,216.8,378.72Zm0-2a.51.51,0,0,0-.5.5.5.5,0,0,0,.5.5.5.5,0,0,0,.5-.5A.5.5,0,0,0,216.8,376.72Z"/><path class="cls-1" d="M213.69,466.59a.82.82,0,0,1-.35-.2,1,1,0,0,1-.22-.25.32.32,0,0,1,0-.09c-.15.41-.3.79-.44,1.1A57.57,57.57,0,0,1,206.49,478c-2.5,3.74-5.76,4.73-10,3L182,471l-.29.41a.54.54,0,0,1,.08.66L196,481.92l.1.05a11,11,0,0,0,4.14.89c2.81,0,5.18-1.42,7.08-4.24a60,60,0,0,0,6.25-11.06c.12-.28.26-.61.39-1A.77.77,0,0,1,213.69,466.59Z"/><path class="cls-1" d="M219.84,444.87a.94.94,0,0,1-.64-.07l0,0c-1.93,7.63-4.08,15.54-5.63,20a.65.65,0,0,1,.23-.09,1,1,0,0,1,.43,0h0l.15.06,0,0,.12.1,0,0c1.58-4.63,3.75-12.63,5.68-20.28A1,1,0,0,1,219.84,444.87Z"/><path class="cls-1" d="M224.94,423.06a.7.7,0,0,1-.17-.13l-.1-.14,0,0a1.59,1.59,0,0,1-.07-.2.75.75,0,0,1,0-.21,1,1,0,0,1,0-.17.47.47,0,0,1,.06-.15.05.05,0,0,1,0,0,.64.64,0,0,1,.1-.13l0,0,.14-.1.17-.07a25.6,25.6,0,0,0-2.58-11.43c-1.5-2.31-4-2.47-6.58-2.31a10.67,10.67,0,0,0-6.37,2.64l-6.18,5.22.65.76,6.16-5.21A9.73,9.73,0,0,1,216,408.9c2.57-.17,4.52.08,5.65,1.81a25,25,0,0,1,2.17,14.3c-.3,1.8-2.11,9.65-4.25,18.2a1,1,0,0,1,.25,0,.73.73,0,0,1,.52.22.87.87,0,0,1,.15.24c2.18-8.66,4-16.64,4.32-18.45.11-.67.18-1.37.23-2.07Z"/><rect class="cls-1" x="182.96" y="418.2" width="18.68" height="1" transform="translate(-216.8 206.75) rotate(-37.94)"/><path class="cls-1" d="M156.89,520.9a1.48,1.48,0,0,1-.35.13.44.44,0,0,1-.43.29.66.66,0,0,1-.15,0,6.39,6.39,0,0,1-1,6.89c-7.13.77-15.57.54-25.8-.7a3.51,3.51,0,0,1-1.45-2.45A4.47,4.47,0,0,1,129.3,522l-.13,0a10.38,10.38,0,0,1-1.11-.09,4.86,4.86,0,0,0-1.37,3.23,4.56,4.56,0,0,0,1.92,3.29l.12.09.14,0a143.44,143.44,0,0,0,17.24,1.17,84.15,84.15,0,0,0,9.14-.47l.19,0,.13-.14A7.44,7.44,0,0,0,156.89,520.9Z"/><path class="cls-1" d="M140.29,509.67a12.91,12.91,0,0,0,2.37,3.85l0,0c0-.08.08-.16.13-.24l.25-.3a.43.43,0,0,1,.22-.12h.07a11.88,11.88,0,0,1-2-3.14Z"/><path class="cls-1" d="M163.82,505.12v.05a2.52,2.52,0,0,1,.82-.14l.12,0h.06a12.69,12.69,0,0,0-25.13-2.4h.56a3.8,3.8,0,0,1,.46.05,11.69,11.69,0,0,1,23.11,2.5Z"/><path class="cls-1" d="M161.9,512.57a3.14,3.14,0,0,1-.67-.17,11.61,11.61,0,0,1-15.44,2.53.38.38,0,0,1,0,.1,2.35,2.35,0,0,1-.19.25l-.12.14-.24.19-.13.06a12.65,12.65,0,0,0,17.3-3.11A1.93,1.93,0,0,1,161.9,512.57Z"/><path class="cls-1" d="M146.62,514.61l-.27-.08c-1.83-.57-3-1.31-3.47-3.24l0-.12,0-.12c1.07-4,.85-7.46-.65-10.24l-.14-.27.24-.35c1-1.48,2.07-3,3.92-2.25l.11,0,.08.09c3.08,3.55,2.47,14.46.39,16.35Zm-2.74-3.42c.29,1.17.92,1.76,2.46,2.28,1.45-2,2.06-11.42-.58-14.65-.9-.32-1.46.29-2.51,1.79C144.73,503.54,144.94,507.1,143.88,511.19Z"/><path class="cls-1" d="M143.73,493.3a1.56,1.56,0,0,1-1.47-.86,1.5,1.5,0,0,1,0-1.29,2,2,0,0,1,1-.93,2,2,0,0,1,1.5-.09,1.44,1.44,0,0,1,.85.75,1.5,1.5,0,0,1,0,1.29,2,2,0,0,1-1,.93A2.16,2.16,0,0,1,143.73,493.3Zm.42-2.28a1.12,1.12,0,0,0-.47.11,1,1,0,0,0-.49.46.55.55,0,0,0,0,.43.77.77,0,0,0,1,.17,1,1,0,0,0,.49-.46.48.48,0,0,0,0-.43.44.44,0,0,0-.28-.23A.81.81,0,0,0,144.15,491Z"/><path class="cls-1" d="M155.73,528.53a13.76,13.76,0,0,1-.74-5.93,1.08,1.08,0,0,1-.3.16l-.11,0-.24,0h-.23a.28.28,0,0,1-.13,0,14.49,14.49,0,0,0,.79,6.09.39.39,0,0,1,.18,0l.26,0a1.63,1.63,0,0,0,.3-.07l.07-.05.06,0h0Z"/><path class="cls-1" d="M145.81,514l-.46-.32a1.43,1.43,0,0,1,.13.55,1.33,1.33,0,1,1-1.33-1.33.75.75,0,0,1,.16,0,4.41,4.41,0,0,1-.51-.46.48.48,0,0,1-.11-.53,2.33,2.33,0,1,0,2.79,2.28,2.09,2.09,0,0,0,0-.35A.5.5,0,0,1,145.81,514Z"/><path class="cls-1" d="M44,517.4l-11.22,0a1.75,1.75,0,0,0-1.45.42,2.08,2.08,0,0,0-.07,1.65,40.61,40.61,0,0,1,1.05,7c.1,1.07.2,2.22.36,3.51.49,4.24,2,16.82,2.77,21.37.8,4.74-.46,7.75-3.73,9a29.26,29.26,0,0,1-8,4,4.31,4.31,0,0,1-1.78.44,2.7,2.7,0,0,1-1.1-.22A3.7,3.7,0,0,1,19,562.06c-3.94-11.67-7.22-26.12-9.76-42.94C6.71,508.93,3.91,500.86.69,494.49a3.58,3.58,0,0,1-.53-3.09c.37-1,1.35-1.81,3-2.39,6.13-2,10-2.67,12-2.23a47.57,47.57,0,0,1,7.53-2c1.66-.76,2.92-.87,3.85-.33a3.64,3.64,0,0,1,1.49,3.06l.68,2.3c.36.93.36.93,1.33.61l.21-.07a25.31,25.31,0,0,0,6.21-3l.12-.07a3.66,3.66,0,0,1,3.22.09c1.24.73,2.06,2.36,2.49,5a5.88,5.88,0,0,0,.42,1.24c.52,1.22.15,1.6-1.5,2.38l-1.06.53c-2.12,1.1-4.77,2.47-11,2.78-2.89.7-4.12,3.71-3.8,6.32.26,2,1.57,4.42,4.44,4.42h.43l.12.34c.75,2.22,1.94,3.19,3.7,3.12h6.58l.14.1a11.45,11.45,0,0,1,2.71,2.79M13.83,487.66c-2.11,0-5.58.77-10.37,2.29a3.59,3.59,0,0,0-2.36,1.79A2.69,2.69,0,0,0,1.56,494c3.28,6.47,6.11,14.61,8.67,24.92C12.77,535.73,16,550.13,20,561.75a2.76,2.76,0,0,0,1.3,1.85,2.58,2.58,0,0,0,2.1-.23,28.29,28.29,0,0,0,7.82-4l.13-.07c2.84-1,3.88-3.59,3.16-7.88-.73-4.56-2.29-17.17-2.79-21.41-.15-1.3-.26-2.46-.35-3.54a39.78,39.78,0,0,0-1-6.83,2.82,2.82,0,0,1,.25-2.52,2.65,2.65,0,0,1,2.25-.8h9.49a11.45,11.45,0,0,0-2-1.89H34.11c-2.13.12-3.64-1.06-4.55-3.47-3.11-.14-4.83-2.71-5.15-5.29-.38-3.05,1.1-6.58,4.65-7.43,6.08-.31,8.62-1.62,10.66-2.67.38-.2.73-.38,1.09-.55.89-.42,1.13-.6,1.17-.68a2.86,2.86,0,0,0-.16-.4,7.25,7.25,0,0,1-.48-1.46c-.38-2.3-1.06-3.74-2-4.3a2.64,2.64,0,0,0-2.3-.05,27.21,27.21,0,0,1-6.43,3.08l-.2.06c-1.21.41-1.92.55-2.59-1.23l-.73-2.48c-.1-1.22-.43-2-1-2.33s-1.64-.24-3,.39l-.11,0a46.15,46.15,0,0,0-7.57,2.06l-.15.06-.15,0A5.17,5.17,0,0,0,13.83,487.66Z"/><path class="cls-1" d="M25.8,522.68l0-.26-.18-.17c-5.16-5-11-17.67-12.39-22.64-1-3.62-2-4.55-3.45-5.84a24,24,0,0,1-1.88-1.84l-.74.66a24.28,24.28,0,0,0,2,1.92c1.4,1.26,2.25,2,3.15,5.36,1.37,5,7.25,17.71,12.48,22.92-1.13,8.52-.4,21.08.38,32.2a1.83,1.83,0,0,1-1.36,1.82.63.63,0,0,1-.8-.45c-2.42-7.31-4.88-24-6.57-37.3l-.09,0h-.22l-.53.08a.42.42,0,0,1-.16,0c1.7,13.34,4.17,30.15,6.63,37.56a1.59,1.59,0,0,0,1.54,1.14,2,2,0,0,0,.41,0,2.88,2.88,0,0,0,2.15-2.87C25.38,543.74,24.64,531.11,25.8,522.68Z"/><path class="cls-1" d="M19.84,517.59A11,11,0,0,1,16,518.82l-.41.08c-.68.14-1.19,0-1.3-.43s.14-.81.77-1l.41-.13-.07-.43c-1.23-7-6.5-20.81-9.75-28.41a4.47,4.47,0,0,1-.6.25l-.34.08c3.16,7.4,8.29,20.82,9.63,27.86a1.85,1.85,0,0,0-1,2.05A1.74,1.74,0,0,0,15.11,520a3.07,3.07,0,0,0,.65-.07l.41-.08a12.09,12.09,0,0,0,4.17-1.35Z"/><path class="cls-1" d="M28.13,562.06h0c-1.43-.64-2.43-2.3-3.24-5.41a1.35,1.35,0,0,1-.28.25,1.22,1.22,0,0,1-.65.18c.57,2.15,1.41,4.25,2.95,5.39C27.32,562.32,27.73,562.18,28.13,562.06Z"/><path class="cls-1" d="M22.61,489.54a5.22,5.22,0,0,1-.14-1.39,12.39,12.39,0,0,0-.19-2l1-.2a12.26,12.26,0,0,1,.22,2.22,4.64,4.64,0,0,0,.1,1.12Z"/><path class="cls-1" d="M14.66,499.72l-1-.05a23.53,23.53,0,0,0-1.47-9l.94-.34A24.37,24.37,0,0,1,14.66,499.72Z"/><path class="cls-1" d="M38.63,494.17l-.3-.05a3.81,3.81,0,0,1-3.11-2.25l-.12-.28.19-.24c.85-1,1.6-1.49,2.28-1.43a1.66,1.66,0,0,1,1.28.91,2.25,2.25,0,0,1,0,3.1Zm-2.36-2.42a2.79,2.79,0,0,0,1.92,1.32,1.23,1.23,0,0,0-.15-1.65c-.21-.34-.38-.49-.54-.5S37,491,36.27,491.75Z"/><path class="cls-1" d="M30.37,514.14c-2.1-2-4.11-3-5.86-3a5.87,5.87,0,0,0-4.12,2.2l-.73-.68a6.81,6.81,0,0,1,4.82-2.52c2.1-.08,4.28,1.05,6.59,3.28Z"/><path class="cls-1" d="M184.16,394.24l-.37-.29c-10.55-8.59-13.89-19.67-9.92-32.94-13.05-9.88-22.54-23.56-29-41.81-1.88,0-4-.91-4.58-4.69l-.14-.4c-2.48-6.67-4.63-12.43-3-22.76l.61-12.31.13-.13c5.18-5.32,6.8-23.8,4.82-54.93v-.11a112.34,112.34,0,0,0,1-19.53c-.29-3.51,5.91-12.05,10.85-13.87a109.46,109.46,0,0,1,9.62-7.57,18.57,18.57,0,0,1,10.36-7.44c2.81-.56,5.27-3.13,6.63-5.34,19.72-32.13,53-44,99-35.2,5.1-.85,8.33-.44,9.89,1.27,1.12,1.22,1.35,3.09.7,5.56l-.56,2.82.35-.07c2.66-4.16,5.53-5.38,7.2-4.72,1.31.51,1.89,2.06,1.59,4.19,1.93.77,2.62,2.52,2.06,5.2a3.85,3.85,0,0,1,.89,2.8c-.15,1.68-1.38,3.48-3.75,5.5a46.36,46.36,0,0,1,3.75,3.89c1.77,0,12.34-.1,13.94.12a9.71,9.71,0,0,1,3.14,1.09,5.38,5.38,0,0,1,3.58-2,4.67,4.67,0,0,1,3.39,1.51l2,1.86c2.29,2.09,1.52,5.87-.37,8.37l-2.44,3.23a13.31,13.31,0,0,1,1.13,4.27,11.4,11.4,0,0,1,1.12,3c.85,1.9.56,3.93-.92,6.13a62.44,62.44,0,0,1-7,8.88c-1.89,1.86-4.58,2.95-8.24,3.32a64.18,64.18,0,0,0-4.29,6.61c4.73,12,7.21,24.11,7.19,35.05,0,12.16-7.81,31.62-11,36.23h0a22.88,22.88,0,0,1-5.94,6.43c-.42.33-.86.67-1.34,1.06-.58,2.07-6.89,24.56-7.77,29.2-.24,1.24-.65,3.89-1.17,7.25-2.07,13.32-4,25.4-5.37,27.05-2.18,1.89-6.38,6.4-7.07,7.74-.88,1.58-7.23,2.89-10,3.25a5.9,5.9,0,0,1-1.27,0,4.49,4.49,0,0,0-1.58.07,8.08,8.08,0,0,1-4.16-.08l-7.2-.68a4.2,4.2,0,0,1-3.6-.44l-11.53-.58c.18,1.94-1,3.63-3.52,4.82-.92,1.33-1.82,2-2.75,2.06a2.58,2.58,0,0,1-2-.93l-11-1a3.93,3.93,0,0,1-3.34.71c-1.31-.4-2.4-1.65-3.33-3.82-2.12.89-3.59,1-4.6.44a2.94,2.94,0,0,1-1.31-2.17c-1.37,0-3.22-.27-5-.49-1.5-.18-3.43-.41-4.41-.41,2.25,2,9.74,7.83,16,12.66l.77.58-.92.29A30.28,30.28,0,0,0,198,379.86l-.37.38-.36-.39a97.5,97.5,0,0,0-12.62-11.12c-1.52,7-.16,13.53,4.14,19.85l.23.33Zm-38.57-76.07.12.35c6.42,18.36,15.92,32.07,29,41.9l.29.21-.11.34c-4,13-1,23.46,9.13,31.9l3.72-4.05a25.77,25.77,0,0,1-3.9-21.08l.18-.74.61.47a103.38,103.38,0,0,1,13,11.32A31.54,31.54,0,0,1,209,371.34c-6.64-5.12-14.33-11.19-15.73-12.5A.74.74,0,0,1,193,358c.31-.67,1.39-.61,5.87-.07,2,.24,4,.45,5.34.48h.46l0,.46a2.22,2.22,0,0,0,.87,1.84c.77.45,2.17.21,4.17-.69l.48-.21.19.49c.83,2.13,1.8,3.38,2.88,3.71a3.07,3.07,0,0,0,2.63-.68l.15-.11,11.73,1.08.13.15a1.74,1.74,0,0,0,1.32.75c.61,0,1.32-.64,2.06-1.74l.08-.12.12-.05c1.67-.78,3.54-2.17,3-4.39l-.16-.65,13,.65.1.06a3.32,3.32,0,0,0,3,.41l.12-.05,7.52.7a7.24,7.24,0,0,0,3.73.11,5,5,0,0,1,1.93-.1,5.37,5.37,0,0,0,1.06,0c4.11-.53,8.77-1.91,9.23-2.73.81-1.57,5.17-6.18,7.24-8,1.21-1.51,3.74-17.77,5.09-26.51.53-3.37.94-6,1.18-7.29.93-4.88,7.55-28.43,7.83-29.44l.05-.15.12-.1c.53-.44,1-.81,1.48-1.17a22.06,22.06,0,0,0,5.73-6.2h0c3.1-4.54,10.76-23.69,10.78-35.67,0-10.88-2.47-22.95-7.2-34.91l-.09-.22.11-.2a67,67,0,0,1,4.6-7.1l.14-.18.22,0c3.53-.33,6.1-1.33,7.85-3.06a60.76,60.76,0,0,0,6.84-8.72c1.28-1.9,1.54-3.62.81-5.26a10.36,10.36,0,0,0-1.08-2.88l-.06-.18c-.28-1.74-.56-3.46-1.16-4.23l-.24-.3,2.88-3.83c1.65-2.17,2.28-5.39.5-7l-2-1.87a3.68,3.68,0,0,0-2.66-1.24,4.76,4.76,0,0,0-3.15,2l-.28.32-.36-.23a9.33,9.33,0,0,0-3.11-1.16c-1.64-.22-13.91-.11-14-.11h-.23l-.15-.18a45.22,45.22,0,0,0-4.24-4.37l-.44-.39.46-.37c2.41-2,3.7-3.7,3.83-5.18a3,3,0,0,0-.81-2.26l-.16-.19.06-.24c.75-3.25-.64-4.07-1.75-4.41l-.43-.13.08-.45c.35-1.83,0-3.13-.89-3.49-1.33-.51-3.84.87-6.1,4.5l-.12.19-2.25.45.87-4.32c.56-2.15.41-3.71-.47-4.67-1.3-1.42-4.35-1.74-9.07-.94l-.09,0-.09,0c-45.53-8.73-78.5,3-98,34.73-1.47,2.39-4.16,5.17-7.28,5.79a17.66,17.66,0,0,0-9.76,7.07l-.06.1-.1.07a108.08,108.08,0,0,0-9.68,7.61l-.16.09c-4.84,1.71-10.51,10-10.28,12.88a113.24,113.24,0,0,1-.95,19.71c2,31.57.38,49.73-5,55.49l-.6,12c-1.6,10.13.5,15.78,2.94,22.31l.19.56c.37,2.75,1.61,4,3.91,3.87Z"/><path class="cls-1" d="M217.21,328.55l-1-.16c1-6.35.1-10.74-2.67-13-3.55-2.93-10.27-2.63-20,.89-4.92,2-8.29,2.17-10.3.6s-2.47-4.34-1.84-8.8a113.44,113.44,0,0,0,1.91-19.24v-.32l.3-.13c5.33-2.3,9-7.54,11.37-16,2.1-7.72,6.84-27.73,5.37-46.61-.17-5.63.51-20.78.52-20.93l1,0c0,.15-.69,15.27-.52,20.83,1.48,19-3.29,39.16-5.41,46.93-2.36,8.64-6.16,14.06-11.64,16.55a112.59,112.59,0,0,1-1.92,19.07c-.56,4-.07,6.64,1.48,7.84s4.82,1.07,9.32-.75c10.08-3.65,17.12-3.89,21-.72C217.25,317.12,218.27,321.82,217.21,328.55Z"/><path class="cls-1" d="M193.66,210.65a28.32,28.32,0,0,0-1.13-3.77l-.06-.17,0-.23c1.37-3.79,2.07-13.89,2.14-30.88.25-7.55,2.58-9.2,8.06-10.23l24.71-3.65,26-.7,27.32.17,21.28.17v1l-21.28-.17-27.3-.17-25.9.69-24.63,3.65c-4.95.93-7,2-7.23,9.26-.07,17.08-.75,27-2.14,31a27.43,27.43,0,0,1,1.13,3.82Z"/><path class="cls-1" d="M226.19,345.58a3.2,3.2,0,1,1,3.2-3.2A3.19,3.19,0,0,1,226.19,345.58Zm0-5.39a2.2,2.2,0,1,0,2.2,2.19A2.19,2.19,0,0,0,226.19,340.19Z"/><path class="cls-1" d="M295.78,287.27a.28.28,0,0,1,0-.2.33.33,0,0,1,.06-.19,3,3,0,0,1,.3-.56.39.39,0,0,1,.18-.18l0,0c-.62-5.64-2.29-9.35-5.12-11.27s-6.54-2.09-11.53-.6l-.11,0L269,284.58a23.81,23.81,0,0,1-10.59,7.08l-24,10.11c-4.67,2.44-7.47,5.86-8.34,10.14-2.66,10-4.49,21.74-5.57,35.76-.37,1.72.45,2.89,2.35,3.3,16.54,1.7,40,5.48,43.15,6.54a3.77,3.77,0,0,0,1.2.19c3.39,0,7.59-4,9.72-7.2.91-1.16,1.68-1.73,2.28-1.63s1.05.73,1.49,1.89l.94-.36c-.6-1.56-1.34-2.38-2.28-2.52s-2,.5-3.24,2c-2.61,3.92-7.16,7.53-9.79,6.65-3.31-1.1-26.43-4.84-43.31-6.58-1.33-.28-1.79-.91-1.53-2.16,1.09-14,2.91-25.69,5.56-35.68.82-4.06,3.38-7.16,7.79-9.47l24-10.08a24.71,24.71,0,0,0,11-7.32l10.35-10.09c4.62-1.36,8.08-1.2,10.56.49,2.74,1.87,4.31,5.67,4.81,11.63l.3,0Z"/><path class="cls-1" d="M210.22,288l-6-.13.39-4.53Zm-4.87-1.11,2,0-1.91-1.6Z"/><path class="cls-1" d="M204.73,292.2l-3.45-.11-.09-1.83-2.82-.09.12-3.92,3.26-.09.7-6.13,3.08.22,8.74,7.57-.12,3.45-9.25-.7Zm-2.49-1.08,1.59.05.18-1.67,9.18.7.06-1.94-8.13-7-1.79-.13-.69,6-3.18.09-.06,2,2.75.09Z"/><path class="cls-1" d="M208.3,267.28l-3.57-.36.67-6.39,3.42.37ZM205.83,266l1.56.15.35-4.39-1.45-.16Z"/><path class="cls-1" d="M219.82,245.11l-16.26-1.67.45-4.66,6.58.86.13-3.27-6-1,.45-4.56,14.71,2.24-.23,3.86-4.6-.61-.14,4,4.94.44Zm-15.17-2.56L218.82,244v-2.29l-5-.43.21-6.07,4.62.61.12-1.88L206,232l-.25,2.57,6,1-.21,5.25-6.64-.87Z"/><path class="cls-1" d="M210.51,256a4.9,4.9,0,0,1-.94-.08,4.48,4.48,0,0,1-3.78-5.37l.23-1.71,9.8.76v1.86A5.3,5.3,0,0,1,210.51,256Zm-3.62-6.09-.11.79a3.46,3.46,0,0,0,3,4.24,4.29,4.29,0,0,0,5.09-3.57v-.84Z"/><path class="cls-1" d="M210.08,259.26a7.41,7.41,0,0,1-4.87-1.79c-1.34-1.17-3.41-3.91-2.2-9.11l.67-2.69,15.6,1.48-.42,3.13c-.49,4.11-2.63,7.18-5.86,8.43A8.34,8.34,0,0,1,210.08,259.26Zm-5.64-12.51-.46,1.84c-.81,3.47-.14,6.36,1.89,8.12a6.62,6.62,0,0,0,6.77,1.06c2.88-1.1,4.78-3.88,5.23-7.62l.28-2.1Z"/><path class="cls-1" d="M207.83,280.53l-.7,0a10.71,10.71,0,0,1-5.8-2A5.11,5.11,0,0,1,199,274.2c.18-3.22,4.12-5.64,8.77-5.37a10.63,10.63,0,0,1,5.8,2,5.15,5.15,0,0,1,2.32,4.34l-.5,0,.5,0a5.16,5.16,0,0,1-2.78,4.05A10.47,10.47,0,0,1,207.83,280.53Zm-.75-10.72c-3.81,0-6.93,1.91-7.07,4.44a4.16,4.16,0,0,0,1.92,3.48,10.36,10.36,0,0,0,10.68.59,4.14,4.14,0,0,0,2.29-3.24h0A4.17,4.17,0,0,0,213,271.6a9.67,9.67,0,0,0-5.26-1.77Z"/><path class="cls-1" d="M208.23,277.48c-.31,0-.64,0-1,0-3.1-.28-5.33-1.7-5.19-3.32s2.6-2.63,5.69-2.35a8.86,8.86,0,0,1,3.64,1.06,2.51,2.51,0,0,1,1.54,2.26h0c-.07.82-.75,1.52-1.91,2A8.37,8.37,0,0,1,208.23,277.48Zm-1.41-4.76c-2.11,0-3.67.72-3.74,1.49s1.74,2,4.28,2.23a8,8,0,0,0,3.33-.34c.77-.29,1.23-.69,1.27-1.1h0c0-.42-.35-.89-1.06-1.31a7.83,7.83,0,0,0-3.22-.93C207.39,272.74,207.1,272.72,206.82,272.72Z"/><path class="cls-1" d="M303.48,186.37c-1.89,0-4.94-1.73-6.42-3.68L291,171.27a3.51,3.51,0,0,1,0-3.28c.63-1.09,2-1.79,4.07-2l16.13.13.13.1c1.85,1.32,2.83,2.6,3,3.91a3.56,3.56,0,0,1-.89,2.8L305,185.65a1.5,1.5,0,0,1-1.29.72ZM295.1,167c-1.64.19-2.79.72-3.26,1.52a2.57,2.57,0,0,0,.07,2.35l6,11.31c1.39,1.83,4.33,3.32,5.72,3.22a.59.59,0,0,0,.5-.22l0,0,8.47-12.78a2.66,2.66,0,0,0,.71-2.08c-.13-1-1-2.05-2.47-3.15Z"/><path class="cls-1" d="M293.63,180.43l-.05-.13c-1.78-2.89-3.69-6.23-4.38-9.18-.94-3.26-1.65-4-6.57-4l-38.95-.35v1l39,.35c4.66,0,4.84.63,5.6,3.27.71,3,2.65,6.45,4.46,9.39a28.44,28.44,0,0,1,.75,10.53l-1.58,15.55c.34,0,.67,0,1,0l1.56-15.43A29.17,29.17,0,0,0,293.63,180.43Z"/><path class="cls-1" d="M309.29,178.61c-.23.25-.45.5-.67.76,1.19,1.2,1.72,2.19.58,3.74-3.58,4.23-9.59,15.06-14.54,24h1.14c4.88-8.85,10.71-19.33,14.19-23.44C311.65,181.46,310.56,179.88,309.29,178.61Z"/><path class="cls-1" d="M279.76,135.07c-7.16,7.08-13.05,15-19.29,23.39L258,161.75c.4,0,.8.06,1.2.06l2.06-2.76c6.21-8.35,12.07-16.24,19.18-23.27Z"/><path class="cls-1" d="M245.76,146.85l-1-8.78a189.8,189.8,0,0,1,32.52.8.44.44,0,0,1,.13-.3.52.52,0,0,0,.1-.11c.12-.18.25-.36.38-.53a191,191,0,0,0-33.72-.83l-.52,0L244.89,148l.53-.1c4-.74,9.72-.24,16.4.34,2.2.2,4.48.39,6.79.55a3.64,3.64,0,0,1,.38-.7l.21-.26c-2.48-.17-4.93-.38-7.3-.58C255.44,146.7,249.82,146.22,245.76,146.85Z"/><path class="cls-1" d="M241.17,137.35l-.55.11c-14.73,2.83-29,6.31-42.26,17.79-1.12,1.15-1.46,2.79-1,4.89l2.36,6.5a.73.73,0,0,1,.23-.16,2.42,2.42,0,0,1,1.3-.16l0-.2c1.24-7,1.86-10.54,10.8-13a109,109,0,0,1,29.43-4.93l.53,0ZM211.8,152.16c-9.35,2.57-10.2,6.43-11.43,13.35l-2-5.61c-.38-1.76-.13-3.05.71-3.92,12.85-11.15,26.82-14.65,41.22-17.43l.7,8.66A109.86,109.86,0,0,0,211.8,152.16Z"/><path class="cls-1" d="M192.36,175.6l-.31,0-.12,0-.1-.06a6.67,6.67,0,0,1-3.06-4.3c-.51-2.63.56-5.84,3.27-9.79,1-1.34,1.8-1.85,2.5-1.66s1,1.31,1.09,1.78c1.61,3.15,1.52,5.81-.25,7.92-.12,3-.63,4.79-1.61,5.63A2.12,2.12,0,0,1,192.36,175.6Zm-.08-1a1.11,1.11,0,0,0,.84-.27c.75-.64,1.17-2.35,1.27-5.08v-.18l.12-.14c1.62-1.82,1.68-4.12.19-7l-.06-.16c-.13-.94-.37-1-.37-1s-.39-.07-1.43,1.28c-2.5,3.65-3.55,6.7-3.1,9A5.54,5.54,0,0,0,192.28,174.59Z"/><path class="cls-1" d="M146.52,315.1c-3.57-8.49-3.75-19.36-.55-32.31,4.56-19.14,5.39-32.81,2.78-45.7C146,223.51,150.57,199,159,192.6l.61.79c-8,6.12-12.54,30.47-9.9,43.5s1.8,26.84-2.79,46.13c-3.15,12.75-3,23.41.5,31.69Z"/><path class="cls-1" d="M177.54,309.56l-.61-.79a7.67,7.67,0,0,0,3.29-5.4,22.37,22.37,0,0,0-1.37-8.3l-9-19.78c-2.08-3.7-3.13-8.62-3.18-15l-.87-26.42a17,17,0,0,1,4.47-12.34c4.62-5.07,10.35-12.14,18.59-22.94.89-1,1.6-1.53,2.25-1.3s.78,1.16.88,2.33l0,.27c.19,2.19-.56,9.25-3.45,12.22-3.78,3.79-11.62,13.69-17.7,21.7l-.79-.61c6.09-8,14-18,17.78-21.79,2.64-2.72,3.32-9.69,3.16-11.42l0-.28a5.24,5.24,0,0,0-.25-1.5,7.49,7.49,0,0,0-1.13,1c-8.22,10.78-14,17.87-18.6,22.95a16,16,0,0,0-4.22,11.63l.87,26.45c0,6.21,1.06,11,3.07,14.56l9.06,19.86a23.28,23.28,0,0,1,1.44,8.75A8.74,8.74,0,0,1,177.54,309.56Z"/><path class="cls-1" d="M168.17,218.45l-.57-.26-9.79-4.44a1.28,1.28,0,0,1-.67-.88c-.68-2.47,2.39-10.8,7.51-18.25,2.09-2.92,3-3.82,8.66-3.47l10-.13c1.65,0,2.73.32,3.38,1.09a3.19,3.19,0,0,1,.51,2.76l0,.13-.09.11-4.65,5.25c-6.45,7.24-13.76,15.45-14.15,17.47Zm3.08-26.38c-3.55,0-4.19.9-5.78,3.13-5.3,7.7-7.9,15.46-7.36,17.41,0,.16.09.22.12.23,1.44.67,7.49,3.4,9.28,4.21,1.24-2.82,7.54-9.9,14.18-17.36,1.54-1.73,3.09-3.47,4.56-5.14a2.16,2.16,0,0,0-.32-1.8,3.23,3.23,0,0,0-2.6-.73l-10,.13C172.52,192.1,171.84,192.07,171.25,192.07Z"/><path class="cls-1" d="M153.2,233.66a1.4,1.4,0,0,1-.64-.15c-.66-.34-1-1.18-1-2.71v-4.59a3.83,3.83,0,0,1,1.7-3.37,4.44,4.44,0,0,1,4.37,0,31.49,31.49,0,0,1,3.25,1.43c1.29.62,1.9,1.22,2,2,.09,1-.85,1.91-2.41,3.07l-4.34,3A6.25,6.25,0,0,1,153.2,233.66Zm2-10.36a2.75,2.75,0,0,0-1.46.39,2.82,2.82,0,0,0-1.23,2.52v4.57c.06,1.4.34,1.76.5,1.84.47.25,1.84-.65,2.5-1.09l4.3-3c.56-.41,2.06-1.53,2-2.17,0-.23-.29-.61-1.41-1.14a32.88,32.88,0,0,0-3.19-1.41A4.58,4.58,0,0,0,155.21,223.3Z"/><path class="cls-1" d="M306.74,208.19c-7.46-.67-17.3-.89-26.81-1.1L276.7,207l0-1,3.22.07c9.53.21,19.38.43,26.87,1.1Z"/><path class="cls-1" d="M313.69,184.1l0-1c2.88-.13,6.23-2.57,10.86-7.91l.76.65C320.44,181.41,316.87,184,313.69,184.1Z"/><path class="cls-1" d="M317.26,195.82a1.2,1.2,0,1,1,0-2.39,1.2,1.2,0,0,1,0,2.39Zm0-1.39a.2.2,0,0,0-.2.19c0,.22.39.22.39,0A.19.19,0,0,0,317.26,194.43Z"/><path class="cls-1" d="M317.67,176.93a1.2,1.2,0,1,1,1.2-1.2A1.19,1.19,0,0,1,317.67,176.93Zm0-1.39a.18.18,0,0,0-.19.19c0,.22.39.22.39,0A.19.19,0,0,0,317.67,175.54Z"/><path class="cls-1" d="M282.54,175.19a1.2,1.2,0,1,1,1.2-1.2A1.19,1.19,0,0,1,282.54,175.19Zm0-1.39a.19.19,0,0,0-.19.19c0,.22.39.22.39,0A.2.2,0,0,0,282.54,173.8Z"/><path class="cls-1" d="M186.15,311.88a1.76,1.76,0,1,1,1.76-1.76A1.76,1.76,0,0,1,186.15,311.88Zm0-2.52a.76.76,0,1,0,.76.76A.76.76,0,0,0,186.15,309.36Z"/><path class="cls-1" d="M225.41,265.49a1.76,1.76,0,1,1,1.76-1.76A1.76,1.76,0,0,1,225.41,265.49Zm0-2.52a.76.76,0,1,0,.76.76A.76.76,0,0,0,225.41,263Z"/><path class="cls-1" d="M200.11,174.8a1.76,1.76,0,1,1,1.76-1.76A1.76,1.76,0,0,1,200.11,174.8Zm0-2.52a.76.76,0,1,0,.76.76A.76.76,0,0,0,200.11,172.28Z"/><path class="cls-1" d="M225.9,301.52c-4.88-13.11-.18-25.5,14-36.83l.63.78c-13.79,11-18.39,23-13.67,35.7Z"/><path class="cls-1" d="M213.83,200.28c-6-4-9-7.91-9.09-12-.11-3.81,2.41-7.69,7.5-11.54,2-1.59,5.1-2,9.52-1.14l-.18,1c-4.12-.77-7-.46-8.73.94-4.82,3.65-7.21,7.26-7.11,10.72.11,3.66,3,7.42,8.64,11.17Z"/><path class="cls-1" d="M280.67,150.26c2,.53,3.13,1.38,3.42,2.52.51,2-1.37,5.08-5.57,9.19a6.89,6.89,0,0,1,1.36.06c4.06-4.12,5.76-7.23,5.18-9.5-.39-1.51-1.78-2.6-4.11-3.23-8.12-2.52-13.61,5.09-17.51,12.4h1.14C269.88,152,274.87,148.46,280.67,150.26Z"/><path class="cls-1" d="M283.6,147.94h-.24l-6.68-.52c-.36,0-1.4-.16-1.65-.92s.46-1.46,1-2c3.22-3.25,6.15-5.74,9.18-3.14a3.76,3.76,0,0,1,1,4.53A3,3,0,0,1,283.6,147.94ZM276,146.19s.15.15.78.22l6.71.52c.62.09,1.36-.51,1.77-1.41a2.79,2.79,0,0,0-.69-3.36c-2.19-1.88-4.27-.49-7.84,3.1-.72.66-.73.92-.73.93Z"/><path class="cls-1" d="M300.51,145.05a6.46,6.46,0,0,1-.94-.31.44.44,0,0,1-.15-.12,29,29,0,0,0-7.12,7.74c-1.57,2.29-2.11,4.11-1.71,5.73a6.32,6.32,0,0,0,2.91,3.58l.15,0h1.7c-2.24-1.26-3.46-2.47-3.79-3.79s.17-2.88,1.58-4.93A27.68,27.68,0,0,1,300.51,145.05Z"/><path class="cls-1" d="M303.25,202.53a2.24,2.24,0,0,1-1.34-.46,2.09,2.09,0,0,1-.48-3l6-10.58a2.56,2.56,0,0,1,2.37-1.23,2.82,2.82,0,0,1,2.3,1.57,2.57,2.57,0,0,1-.26,2.62L305,201.62a2.12,2.12,0,0,1-1.54.91Zm6.33-14.28a1.57,1.57,0,0,0-1.32.76l-6,10.63a1.1,1.1,0,0,0,.25,1.63,1.3,1.3,0,0,0,.84.26,1.11,1.11,0,0,0,.8-.49L311,190.89a1.56,1.56,0,0,0,.18-1.63,1.87,1.87,0,0,0-1.48-1Z"/><path class="cls-1" d="M164.31,307l-8.84-.29-.12-.29c-.6-1.32-1-6.16-1.34-11.28-.08-1-.15-2-.23-2.93v-.11c.16-1.1.5-2.6,1.52-2.83.77-.19,1.64.42,2.68,1.92l.06.1Zm-8.15-1.27,6.66.22-5.68-14.23c-1.09-1.55-1.56-1.49-1.6-1.48s-.48.16-.76,1.95c.08.94.15,1.91.22,2.88C155.32,299.3,155.69,304.11,156.16,305.68Z"/><path class="cls-1" d="M230.88,356.13l-.5,0c-6.83-.36-12.93-.54-18.75-.52l-.19,0c-3.69-1.48-10.88-1.92-18.09-2.18l-.5,0,.3-6.63,4.07.37c6.92.64,11.16,1,11.83,1.27l.12,0,.09.09a10.43,10.43,0,0,0,8,3.36l2.91-.13h.06l6.78,1.44-.2,1-6.72-1.42-2.81.13a11.47,11.47,0,0,1-8.64-3.58c-1-.22-6.8-.75-11.49-1.18l-3-.28-.21,4.58c7.08.26,14.06.72,17.83,2.2,5.66,0,11.61.15,18.22.5l.19-2.82,1,.07Z"/><path class="cls-1" d="M193.31,358.89c-15.91-10.25-25.63-21.19-29.72-33.44-2.39-2.16-5.3-2.63-7.79-1.26-2.94,1.6-4.36,5.23-3.64,9.24l-1,.18c-.81-4.44.82-8.48,4.14-10.3,2.87-1.58,6.34-1,9,1.49l.09.09,0,.12c4,12.07,13.6,22.88,29.37,33Z"/><path class="cls-1" d="M186.16,334.52l-.1-.11-.14,0c-7.14-1.79-12.8-1.55-18.27-1.32l0,.69a.43.43,0,0,1,.43.29c5.24-.22,10.68-.4,17.43,1.27,2.44,2.56,3.63,4.94,3.55,7.06a6.72,6.72,0,0,1-2.45,4.66c-2.73.17-7.75-2.13-11.31-3.88l-.23.46a.52.52,0,0,1,.18.63c5.33,2.6,8.81,3.8,11.07,3.8a4.93,4.93,0,0,0,.55,0h.16l.12-.11a7.76,7.76,0,0,0,2.91-5.48C190.18,340,188.86,337.32,186.16,334.52Z"/><polygon class="cls-1" points="184.08 368.27 174.16 361.23 174.75 360.41 184.66 367.46 184.08 368.27"/><path class="cls-1" d="M215.15,339.28a3.24,3.24,0,1,1,3.24-3.24A3.25,3.25,0,0,1,215.15,339.28Zm0-5.48a2.24,2.24,0,1,0,2.24,2.24A2.24,2.24,0,0,0,215.15,333.8Z"/><path class="cls-1" d="M311.59,178.89l-.88-.49c.35-.61.68-1.22,1-1.83a32.79,32.79,0,0,1,3.37-5.38,30.78,30.78,0,0,1,2.57-6.26l.43-.86.9.45-.44.86a29.37,29.37,0,0,0-2.52,6.17l-.11.2a31.73,31.73,0,0,0-3.32,5.3Z"/><path class="cls-1" d="M335.4,91.31c5.3-.86,7.67-4.46,7-10.65,0-9.19-7-17.72-16.65-20.26S307,62.09,301.52,71.77c-1.94,3.39-2.55,6.25-1.87,8.74.6,2.15,2.12,3.92,4.65,5.42-1.72,4.45-3.44,9.61-5.1,15.37a2.85,2.85,0,0,0-3.22,1c-4.39,4.76-6.28,22.77-3.74,26.94l-6.05,36.32c-4,1.33-7.76-.55-11.49-5.73a3.48,3.48,0,0,0-4.63-1.07,4.05,4.05,0,0,0-2.06,4.32c-9.94-2.43-21.2,2.37-31.82,13.59l-.07.1c-3.56,6.15-4.7,11.62-3.39,16.28,1.15,4.1,4.24,7.66,9.19,10.59l-6.83,1.26c-10,1.83-18.62,3.41-21.6,8.66-1.49,2.64-1.44,6,.15,10.22,4.07,10.39,29.1,6.61,39.64,4.51l13-1.92c2.81,2.69,6.15,5.8,9.81,5.8a6.5,6.5,0,0,0,2.83-.65c2.89,1.07,8,.42,13.41-.26l.83-.11c5.39.61,9.31-.07,11.67-2a7.69,7.69,0,0,0,2.65-5.39c5.83-1.45,8.67-8.18,8.45-20-.06-3.62-.73-6.09-2-7.54l5.25-21.44c7.38-7.05,10.75-15.48,10.29-25.79-.59-10.67,2.3-19.81,5.22-27.36l1.13-3.29c1.53-5.72,1.15-10.68-1.14-15.16,0-1,0-2.06-.08-3.11C334.48,96.5,334.33,92.08,335.4,91.31Zm-.3-1-.13,0a2.09,2.09,0,0,0-.84,1,10.3,10.3,0,0,0-.6,3.63c0,.32,0,.66,0,1,0,1.24,0,2.62.08,4,0,1.09.07,2.18.08,3.2v.12l.05.11c2.22,4.28,2.59,9,1.13,14.51l-1.12,3.24c-2.95,7.64-5.88,16.91-5.28,27.76.05,1.13.05,2.24,0,3.33,0,.34,0,.67-.06,1a30.55,30.55,0,0,1-10,20.75l0,0-.1.1-.39,1.58-5.06,20.69.2.2.17.18c.05.06.11.12.16.19a3.19,3.19,0,0,1,.3.42l.21.38.11.22.18.44a2.7,2.7,0,0,1,.14.4c.09.27.17.57.24.88,0,.16.07.32.1.48s.06.31.08.47,0,.2,0,.3.05.4.07.6,0,.35.05.53,0,.23,0,.34a5.44,5.44,0,0,1,0,.57c0,.21,0,.43,0,.65.21,11.5-2.47,17.92-8,19.08h0l-.37.08,0,.37a4.52,4.52,0,0,1-.06.53,6.68,6.68,0,0,1-2.27,4.54c-2.15,1.78-5.84,2.39-11,1.8h-.06l-1,.12c-5.16.66-10.5,1.34-13.11.25l-.22-.08-.2.1c-4,2-7.57-.95-11.86-5h0l-.18-.17-1.21.18-8.9,1.32-2,.29-1.43.21c-21.82,4.34-35.87,2.92-38.54-3.89-1.48-3.94-1.54-7-.21-9.37,2.75-4.85,11.17-6.39,20.91-8.17l9.58-1.76-1.25-.68c-5.4-2.92-8.74-6.51-9.91-10.66-1.23-4.38-.13-9.58,3.27-15.46,10.64-11.24,21.88-15.87,31.64-13l1,.28-.37-.94a3.07,3.07,0,0,1,1.34-4,2.49,2.49,0,0,1,3.34.77c3.81,5.29,7.87,7.4,12.09,6.26q.28-.07.57-.18l.27-.09.26-.1,0-.12,0-.14.15-.88.25-1.48h0l.29-1.75.4-2.43.17-1,.07-.41,4.65-27.94.19-1.15-.12-.16,0,0a6.48,6.48,0,0,1-.81-2.66,21.87,21.87,0,0,1-.2-2.47,40.12,40.12,0,0,1,.11-4.45h0q0-.7.12-1.41c.58-6,2.15-12.43,4.36-14.82,1.12-1.21,2-.91,2.54-.58h0l.55.33.18-.63c0-.12.07-.24.1-.35,1.19-4.13,2.4-8,3.62-11.42.13-.36.26-.71.38-1.06.37-1,.73-2,1.1-2.94l.18-.48.16-.4-.38-.21,0,0h0c-2.49-1.4-4-3-4.5-5-.61-2.2,0-4.88,1.77-8,5.21-9.27,13.86-13.34,23.12-10.9s15.93,10.54,15.91,19.34c.6,5.74-1.46,8.88-6.28,9.62Z"/><path d="M304.73,176.89l-4.14,3.1c-6.47-1.38-13.22-3.54-14.51-9l.77-3.59C288.88,172.43,295.21,175.82,304.73,176.89Z"/><path d="M310.06,172.52c-1.09,1-2.25,2-3.46,3l-.7.52c-10.88-1-17.67-4.94-18.63-10.82l.25-1.48c3.48,6.65,12.41,8.86,20.71,8.86C308.85,172.57,309.46,172.55,310.06,172.52Z"/><path d="M311.67,170.94c-.15.16-.3.32-.48.48h0C302,172,290.8,170,287.81,162l.4-2.43c.18.24.36.48.55.71a21.21,21.21,0,0,0,9.85,6.35c.58.19,1.18.37,1.81.54.41.12.84.22,1.27.32a3.56,3.56,0,0,0,.56,2.73,3.26,3.26,0,0,0,2.39,1.06c.57,0,1.16.05,1.79.05A45.7,45.7,0,0,0,311.67,170.94Z"/><path d="M328.47,152.36c0,.34,0,.67-.06,1a19,19,0,0,0-4.83-.43,47.43,47.43,0,0,1-16.37,23.34l-24.49,18.31q-1,.48-1.92,1l.27-1.28,1.13-.58,17.33-13,1,.21.21-1-.1,0,4.14-3.1c-9.52-1.07-15.85-4.46-17.88-9.5h0l.22-1,0-.12,0-.14h0l.15-.88c1,5.88,7.75,9.82,18.63,10.82l.7-.52c1.21-1,2.37-1.94,3.46-3-.6,0-1.21,0-1.83,0-8.3,0-17.23-2.21-20.71-8.86h0l.29-1.75c3,8,14.2,10,23.38,9.48h0c.18-.16.33-.32.48-.48l.7-.08a7.4,7.4,0,0,1,.82-1.11l-.46.06a44.13,44.13,0,0,0,4.66-6c-.07.3-.16.6-.24.89l.45.12c.18-.15.35-.33.53-.5a.5.5,0,0,1,.27-.46c.27-1,.53-2,.76-3a0,0,0,0,0,0,0,45.89,45.89,0,0,0,3.54-8.43h0l1.55-20.16.13-.13c1.47-1.44,2.11-5.35,2.59-9.36v-.13l.08-.11a25.93,25.93,0,0,0,5.17-16.8l-4.22.68c1.25,6.15-.07,11-3.92,14.3.24,5.92-1.15,9.57-4.15,10.86a5.1,5.1,0,0,1-5.35,2.35c-1.86-.3-3.25-1.36-3.46-2.66v-.08l1.32-8.14c.26-1.73.16-2.8-.31-3.27s-1.58-.45-3-.21l-.8.13.24-.77c.85-2.76,3.43-11.15,1.61-13.4a1.76,1.76,0,0,0-1.66-.57c-4.46.33-4.91,6.41-5,14.32v.51l-2.24-.1c-1.76,7.08-3.6,10.68-5.7,11.24a2.46,2.46,0,0,1-.59.08,2.82,2.82,0,0,1-1.81-.75l.19-1.15-.12-.16a2.78,2.78,0,0,0,1.5,1,1.65,1.65,0,0,1,0-.8,1.43,1.43,0,0,1,.59-.93.76.76,0,0,1,.6-.12.78.78,0,0,1,.5.36,1.23,1.23,0,0,1,.17.52c1.36-1.65,3.07-5.73,4.9-15,1-5.56.12-10.18-2.15-11.49l.55.33.18-.63c0-.12.07-.24.1-.35,2.42,1.74,3.33,6.51,2.31,12.33-.32,1.62-.65,3.11-1,4.49l1,0c.15-8.17.76-14.39,6-14.78a2.74,2.74,0,0,1,2.52.94c1.44,1.78,1.07,6-1.2,13.57,1.4-.17,2.44-.08,3.12.6s.92,2,.59,4.14l-1.28,8c.18.82,1.23,1.53,2.61,1.75a4,4,0,0,0,4.39-2l.09-.17.17-.07c2.72-1.06,4-4.5,3.69-10.19l0-.25.19-.16c3.85-3.23,5.05-7.81,3.66-14l-.11-.52,6.35-1,0,.55A26.83,26.83,0,0,1,328,123c-.55,4.64-1.24,8.07-2.72,9.68L323.75,152A19.08,19.08,0,0,1,328.47,152.36Z"/><path d="M317.88,175.83l-5.06,20.69c-.16.67-1.93,1.46-3.21,2-4.43,1.75-13,1.56-17.77-1.25l18.92-15.55.78-.64Z"/><path d="M335.14,90.33h0a63.24,63.24,0,0,1-30-5.09c-2.49-1.4-4-3-4.5-5-.61-2.2,0-4.88,1.77-8,5.21-9.27,13.86-13.34,23.12-10.9s15.93,10.54,15.91,19.34C342,86.45,340,89.59,335.14,90.33Z"/><path d="M334.13,91.4a10.3,10.3,0,0,0-.6,3.63c-11.59.94-23.2,1.07-29.43-5.72.37-1,.73-2,1.1-2.94a64.09,64.09,0,0,0,25.12,5.15Q332.23,91.52,334.13,91.4Z"/><path d="M333.73,103.52l-.05-.11v-.12c0-1,0-2.11-.08-3.2,0-1.43-.09-2.81-.08-4-3.26.26-6.53.46-9.69.46-8.05,0-15.38-1.3-20.1-6.13-1.22,3.47-2.43,7.29-3.62,11.42,2.42,1.74,3.33,6.51,2.31,12.33-.32,1.62-.65,3.11-1,4.49l1,0c.15-8.17.76-14.39,6-14.78a2.74,2.74,0,0,1,2.52.94c1.44,1.78,1.07,6-1.2,13.57,1.4-.17,2.44-.08,3.12.6s.92,2,.59,4.14l-1.28,8c.18.82,1.23,1.53,2.61,1.75a4,4,0,0,0,4.39-2l.09-.17.17-.07c2.72-1.06,4-4.5,3.69-10.19l0-.25.19-.16c3.85-3.23,5.05-7.81,3.66-14l-.11-.52,6.35-1,0,.55A26.83,26.83,0,0,1,328,123c-.55,4.64-1.24,8.07-2.72,9.68L323.75,152a19.08,19.08,0,0,1,4.72.41c0-1.09,0-2.2,0-3.33-.6-10.85,2.33-20.12,5.28-27.76l1.12-3.24C336.32,112.56,336,107.8,333.73,103.52Zm-16.84,14.61-1-.19,2-10.71,1,.18Zm6-18c-7.26,0-12.44-1.2-15.78-3.66l.59-.8c3.59,2.63,9.5,3.75,18.1,3.4l.05,1C324.87,100.12,323.88,100.14,322.93,100.14Z"/><path d="M299.27,102.44h0c-.55-.33-1.42-.63-2.54.58-2.21,2.39-3.78,8.87-4.36,14.82a1.14,1.14,0,0,1,.4-.46.77.77,0,0,1,.6-.11c.52.11.8.73.64,1.45s-.56,1.07-1,1.07l-.16,0a.76.76,0,0,1-.5-.36,1.09,1.09,0,0,1-.08-.15,40.12,40.12,0,0,0-.11,4.45.76.76,0,0,1,.47,0,1,1,0,0,1,.68,1.07,1.69,1.69,0,0,1,0,.38,1.3,1.3,0,0,1-.91,1.07,6.48,6.48,0,0,0,.81,2.66l0,0a2.78,2.78,0,0,0,1.5,1,1.65,1.65,0,0,1,0-.8,1.43,1.43,0,0,1,.59-.93.76.76,0,0,1,.6-.12.78.78,0,0,1,.5.36,1.23,1.23,0,0,1,.17.52c1.36-1.65,3.07-5.73,4.9-15C302.41,108.37,301.54,103.75,299.27,102.44Zm-1,21.35a1.7,1.7,0,0,1-.35.74.9.9,0,0,1-.67.33h-.17c-.52-.12-.79-.74-.64-1.45s.68-1.17,1.19-1.06a.86.86,0,0,1,.62.63A1.62,1.62,0,0,1,298.31,123.79Z"/><path d="M299.53,180.78l-17.33,13-1.13.58,4.6-21.47C287.79,177.44,293.68,179.47,299.53,180.78Z"/><path d="M332.25,105.66l-4.22.68c1.25,6.15-.07,11-3.92,14.3.24,5.92-1.15,9.57-4.15,10.86a5.1,5.1,0,0,1-5.35,2.35c-1.86-.3-3.25-1.36-3.46-2.66v-.08l1.32-8.14c.26-1.73.16-2.8-.31-3.27s-1.58-.45-3-.21l-.8.13.24-.77c.85-2.76,3.43-11.15,1.61-13.4a1.76,1.76,0,0,0-1.66-.57c-4.46.33-4.91,6.41-5,14.32v.51l-2.24-.1c-1.76,7.08-3.6,10.68-5.7,11.24a2.46,2.46,0,0,1-.59.08,2.82,2.82,0,0,1-1.81-.75l-4.65,27.94-.07.41.24-.16.24.34c2.4,3.43,5.91,5.75,10.93,7.19l.84.24,1.15.28v0l-.23.95-1.13-.27c.41.12.84.22,1.27.32a.49.49,0,0,1,0-.12l.21-.85c1.68-7,3.39-14.83,3.79-21.52.47-3.31,2.6-4.89,6.15-4.59l5.74.44c2.1,0,3.23.25,3.86,1s.61,2.22.22,4a109.82,109.82,0,0,1-2.5,15,45.89,45.89,0,0,0,3.54-8.43h0l1.55-20.16.13-.13c1.47-1.44,2.11-5.35,2.59-9.36v-.13l.08-.11A25.93,25.93,0,0,0,332.25,105.66ZM300,130.29a1,1,0,0,1,.73.16,1.19,1.19,0,0,1,.48.76,1.15,1.15,0,0,1-.18.87.94.94,0,0,1-.62.41l-.17,0a1.1,1.1,0,0,1-1-.93A1.08,1.08,0,0,1,300,130.29Zm-9.14,15,4.11,4-2.31,9.44-3.55-3.31Zm9.59,19.08a.93.93,0,0,1-.52.46,1.68,1.68,0,0,1-.58.09,3.87,3.87,0,0,1-1.51-.37,4,4,0,0,1-1.23-.83c-.54-.58-.46-1-.36-1.25.35-.77,1.6-.64,2.61-.18a4.08,4.08,0,0,1,1.23.83C300.67,163.68,300.59,164.13,300.49,164.35Zm2.59-16.69a.93.93,0,0,1-.52.46,1.68,1.68,0,0,1-.58.09,4.32,4.32,0,0,1-2.74-1.2c-.54-.58-.46-1-.36-1.25.35-.77,1.59-.64,2.61-.18a4.08,4.08,0,0,1,1.23.83A1.13,1.13,0,0,1,303.08,147.66Z"/><path d="M320.17,145.21a1.13,1.13,0,0,1-.23-2.22,1,1,0,0,1,.73.17.92.92,0,0,1,.29.3,1.49,1.49,0,0,0-.28-1c-.4-.49-1.36-.69-3.12-.65l-5.79-.45c-3-.24-4.68,1-5.07,3.7-.42,7-2.27,15.28-4,22.45a2.7,2.7,0,0,0,.35,2,2.25,2.25,0,0,0,1.68.69,42.51,42.51,0,0,0,8-.42,44.13,44.13,0,0,0,4.66-6,108.69,108.69,0,0,0,3.3-18.16c.05-.24.1-.46.13-.67a.93.93,0,0,1-.48.25Zm-10.08-.53a1.08,1.08,0,0,1-1-.93,1.07,1.07,0,0,1,.8-1.28,1,1,0,0,1,.73.16,1.17,1.17,0,0,1,.48.75,1.22,1.22,0,0,1-.13.8,1,1,0,0,1-.67.49Zm2.13,2.51a1,1,0,0,1-.63.41l-.17,0a1.11,1.11,0,0,1-1-.93,1.08,1.08,0,0,1,.81-1.29,1,1,0,0,1,.73.16,1.18,1.18,0,0,1,.47.76A1.14,1.14,0,0,1,312.22,147.19ZM314,144.5l-.17,0a1,1,0,0,1-.56-.18,1.19,1.19,0,0,1-.3-1.63,1,1,0,0,1,.62-.41,1.12,1.12,0,0,1,.41,2.2Zm3.57-.25a1,1,0,0,1-.62.42h-.18a1,1,0,0,1-.56-.18,1.15,1.15,0,0,1-.47-.75,1.14,1.14,0,0,1,.17-.87.95.95,0,0,1,1.36-.25,1.17,1.17,0,0,1,.48.75A1.19,1.19,0,0,1,317.6,144.25Zm1.4,5.17-.17,0a1,1,0,0,1-.63-.24,1.17,1.17,0,0,1-.41-.69,1.22,1.22,0,0,1,.18-.88,1,1,0,0,1,.62-.41l.17,0a1.09,1.09,0,0,1,1,.94A1.07,1.07,0,0,1,319,149.42Z"/><path d="M314.94,203.77c.21,11.5-2.47,17.92-8,19.08l-16.14-.2c-1.84-.06-3.51-.18-5-.37v0h-.23c-4.76-.63-7.8-2-9.41-4-1.35-1.74-1.68-4-1-6.94.33-.3.82-.78,1.47-1.42,2.68-2.66,8.25-8.18,13.86-11.48l.55-.46c3,1.84,7.36,2.69,11.46,2.69a21.29,21.29,0,0,0,7.49-1.18c1.65-.66,2.61-1.51,2.86-2.53l-1-.23c-.16.67-1,1.32-2.24,1.83-4.43,1.75-13,1.56-17.77-1.25l18.92-15.55L307,198.09l1,.23,4-17.18-.38-.09,6.34-5.22-5.06,20.69.2.2C314.25,197.93,314.88,200.24,314.94,203.77Z"/><path d="M281.33,222.4c-3.68.1-7.46.06-8.92-.65a4.3,4.3,0,0,1-2.67-2.71c-.45-1.63.29-3.85,2.19-6.62h0A7.52,7.52,0,0,0,274,212a8.59,8.59,0,0,0,1.38,6.84A11,11,0,0,0,281.33,222.4Z"/><path d="M290.8,223.65a52.58,52.58,0,0,1-5.26-.4l-.64,0c-2,.08-4.14.16-6.17.16-2.89,0-5.48-.17-6.75-.78a5.34,5.34,0,0,1-3.21-3.36c-.49-1.8.12-4,1.88-6.77l-.26,0c-.46,0-.91.06-1.34.11a41.84,41.84,0,0,1-5.64,9.33l3.4,3.52h0c4.29,4.09,7.87,7.06,11.86,5l.2-.1.22.08c2.61,1.09,7.95.41,13.11-.25l1-.12h.06c5.14.59,8.83,0,11-1.8a6.68,6.68,0,0,0,2.27-4.54Zm-18.86,2.91a1.76,1.76,0,0,1-.46.8,1,1,0,0,1-.69.31.83.83,0,0,1-.22,0,.94.94,0,0,1-.63-.72,1.81,1.81,0,0,1,0-.92,1.61,1.61,0,0,1,.71-1,.86.86,0,0,1,.66-.09A1.07,1.07,0,0,1,272,226,2.14,2.14,0,0,1,271.94,226.56Zm12-1.3a1,1,0,0,1-.62.41l-.17,0a1.09,1.09,0,0,1-1-.93,1.08,1.08,0,0,1,.8-1.29,1,1,0,0,1,.73.16,1.19,1.19,0,0,1,.48.76A1.21,1.21,0,0,1,284,225.26Zm7.39,3.45-.28.11-.36-.93.29-.11c3.13-1.21,6.09-2.35,6.14-3.61l1,.05C298.05,226.13,295.09,227.27,291.34,228.71Zm3.2,0-.4-.92c4.81-2.1,5.49-3.09,5.46-3.49l1-.06C300.68,225.54,299,226.79,294.54,228.73Z"/><path d="M280.23,193.71c-2.21-8.37-9.65-12-16-11.87-5.8.11-13.28,3.42-15.28,12.36-.45,5.66,1,9.16,4.42,10.63l.7.3-2.26,2.14a6,6,0,0,1,.43.44l7.14,6.43c7-9.15,13.89-15.55,21.11-19.49Zm-28.33,7.62-.87.5c-2.87-4.93-1.58-12.82,6.49-17.76l.52.86C250.52,189.53,249.26,196.81,251.9,201.33ZM260.27,186a1.81,1.81,0,0,1-.85.23h0a1,1,0,0,1-.84-.46.9.9,0,0,1-.05-.67,1.61,1.61,0,0,1,.82-.9c.71-.38,1.45-.28,1.73.23a.86.86,0,0,1,.09.39A1.45,1.45,0,0,1,260.27,186Zm4.16,13.83a1.65,1.65,0,0,1-.89.83,1,1,0,0,1-.29,0,.82.82,0,0,1-.8-.61,1.6,1.6,0,0,1,.17-1.2c.37-.72,1-1.06,1.55-.79S264.8,199.11,264.43,199.83ZM270,186.11a.94.94,0,0,1-.8.52h-.14a2,2,0,0,1-.77-.17,1.88,1.88,0,0,1-.72-.57,1,1,0,0,1-.14-.95c.24-.53,1-.68,1.71-.34a1.77,1.77,0,0,1,.72.56A1,1,0,0,1,270,186.11Z"/><path d="M328.41,153.37a30.55,30.55,0,0,1-10,20.75l0,0L289.9,197.56c-5.65,3.31-11.29,8.89-14,11.58-.69.69-1.24,1.23-1.54,1.49-.84.72-2.46.82-4,.93-.58,0-1.15.07-1.67.14l-.28,0-.12.26c-4,8.79-8.4,13.53-13.08,14.09-4.19.51-8.81-2.38-13.71-8.6-3.27-3.62-2.17-7.62.24-9.81s6.51-2.9,9.82.75l8,7.19.33-.43c6.9-9.14,13.73-15.55,20.9-19.54l0,.09,0-.12q1-.54,1.92-1l24.49-18.31a47.43,47.43,0,0,0,16.37-23.34A19,19,0,0,1,328.41,153.37Z"/><path d="M273.88,160.44a2.49,2.49,0,0,0-3.34-.77,3.07,3.07,0,0,0-1.34,4l.37.94-1-.28c-9.76-2.82-21,1.81-31.64,13-3.4,5.88-4.5,11.08-3.27,15.46,1.17,4.15,4.51,7.74,9.91,10.66l1.25.68-9.58,1.76c-9.74,1.78-18.16,3.32-20.91,8.17-1.33,2.37-1.27,5.43.21,9.37,2.67,6.81,16.72,8.23,38.54,3.89l1.43-.21h-.3c-4,0-8.13-2.59-12.46-7.71a27,27,0,0,1-8.88.47,22.8,22.8,0,0,1-7.85,2.22l-.09-1a21.73,21.73,0,0,0,7.64-2.19l.14-.06.15,0a25.41,25.41,0,0,0,8.17-.34c-.12-.14-.24-.28-.35-.43-3.72-4.09-2.44-8.67.33-11.19a7.49,7.49,0,0,1,10-.33l1.24-1.18c-3.34-1.8-4.8-5.62-4.34-11.37a16.49,16.49,0,0,1,16.25-13.21,17,17,0,0,1,16.42,10.8L286,166.7C281.75,167.84,277.69,165.73,273.88,160.44Zm-54.78,53.2a12.14,12.14,0,0,0,4.67,4.62l-.46.89a13.06,13.06,0,0,1-5.06-5ZM216.59,223l.18-1a9.66,9.66,0,0,0,5.34-.48l.36.93a10.46,10.46,0,0,1-3.83.72A11,11,0,0,1,216.59,223Zm4.3,3.88-.1-1a3.92,3.92,0,0,0,3-2.35l.88.47A4.86,4.86,0,0,1,220.89,226.86Zm9.7-8.75a13,13,0,0,1-4.07-6.42l1-.25a12,12,0,0,0,3.77,5.93Zm5-.21c-2.46-1.63-2.61-7.45-2.11-9l.95.3c-.48,1.51-.08,6.69,1.71,7.88Z"/><path class="cls-1" d="M335.25,91.33l-1.12.07q-1.9.12-3.81.12a64.09,64.09,0,0,1-25.12-5.15l-.48-.2.4-.91h0a63.24,63.24,0,0,0,30,5.09h.08Z"/><path class="cls-1" d="M334.24,95c0,.25-.08.5-.11.75a.37.37,0,0,0,.06.22l-.68.06c-3.26.26-6.53.46-9.69.46-8.05,0-15.38-1.3-20.1-6.13-.21-.22-.42-.44-.62-.67.13-.37.31-.71.4-1.08q.28.36.6.69C310.33,96.1,321.94,96,333.53,95l.72-.06S334.25,95,334.24,95Z"/><path class="cls-1" d="M302.07,166.51l-.17,1-.21-.05c-.43-.1-.86-.2-1.27-.32-.63-.17-1.23-.35-1.81-.54a21.21,21.21,0,0,1-9.85-6.35c-.19-.23-.37-.47-.55-.71l-.42-.6.22-.43.3-.56.14.19a2.2,2.2,0,0,0,.17.25l.24.34a21.54,21.54,0,0,0,10.93,7.19l.84.24c.38.11.76.21,1.15.3l.13,0Z"/><path class="cls-1" d="M329.27,152.54l-.25,1-.61-.14a19,19,0,0,0-4.83-.43,47.43,47.43,0,0,1-16.37,23.34l-24.49,18.31q-1,.48-1.92,1a.09.09,0,0,0-.06,0c-7.17,4-14,10.4-20.9,19.54l-.33.43-8-7.19c-3.31-3.65-7.41-2.94-9.82-.75s-3.51,6.19-.24,9.81c4.9,6.22,9.52,9.11,13.71,8.6,4.68-.56,9.08-5.3,13.08-14.09l.12-.26.28,0c.52-.07,1.09-.11,1.67-.14,1.57-.11,3.19-.21,4-.93.3-.26.85-.8,1.54-1.49,2.71-2.69,8.35-8.27,14-11.58l28.47-23.41,0,0,.63.77-1.15.94-6.34,5.22-.78.64-18.92,15.55-.82.67-.55.46c-5.61,3.3-11.18,8.82-13.86,11.48-.65.64-1.14,1.12-1.47,1.42l-.13.11a3.51,3.51,0,0,1-1,.6h0a7.52,7.52,0,0,1-2.05.44h0c-.42.06-.84.09-1.27.11h0l-.26,0c-.46,0-.91.06-1.34.11a41.84,41.84,0,0,1-5.64,9.33c-.22.26-.44.51-.67.75a13.26,13.26,0,0,1-6.22,4.1,10.09,10.09,0,0,1-1.22.23,4.87,4.87,0,0,1-.76.06h-.3c-4,0-8.13-2.59-12.46-7.71-.25-.29-.49-.58-.72-.88-.12-.14-.24-.28-.35-.43-3.72-4.09-2.44-8.67.33-11.19a7.49,7.49,0,0,1,10-.33,9,9,0,0,1,.75.67,6,6,0,0,1,.43.44l7.14,6.43c7-9.15,13.89-15.55,21.11-19.49l.59-.32,1.13-.58,17.33-13,1.06-.79,4.14-3.1,1.17-.88.7-.52c1.21-1,2.37-1.94,3.46-3,.39-.36.77-.73,1.13-1.09h0c.18-.16.33-.32.48-.48.37-.37.72-.75,1.06-1.13a44.13,44.13,0,0,0,4.66-6c.64-1,1.23-2,1.77-3a0,0,0,0,0,0,0,45.89,45.89,0,0,0,3.54-8.43h0a.08.08,0,0,1,0,0l.1-.33.35,0a5.42,5.42,0,0,1,.57,0,19.08,19.08,0,0,1,4.72.41C328.74,152.41,329,152.47,329.27,152.54Z"/><path class="cls-1" d="M321.67,145.78a109.82,109.82,0,0,1-2.5,15,0,0,0,0,1,0,0c-.23,1-.49,2-.76,3a.5.5,0,0,0-.27.46c-.18.17-.35.35-.53.5l-.45-.12c.08-.29.17-.59.24-.89a108.69,108.69,0,0,0,3.3-18.16c.05-.24.1-.46.13-.67a6.79,6.79,0,0,0,.14-1.49,1.49,1.49,0,0,0-.28-1c-.4-.49-1.36-.69-3.12-.65l-5.79-.45c-3-.24-4.68,1-5.07,3.7-.42,7-2.27,15.28-4,22.45a2.7,2.7,0,0,0,.35,2,2.25,2.25,0,0,0,1.68.69,42.51,42.51,0,0,0,8-.42l.46-.06a7.4,7.4,0,0,0-.82,1.11l-.7.08a45.7,45.7,0,0,1-5.24.34c-.63,0-1.22,0-1.79-.05a3.26,3.26,0,0,1-2.39-1.06,3.56,3.56,0,0,1-.56-2.73.49.49,0,0,1,0-.12l.21-.85c1.68-7,3.39-14.83,3.79-21.52.47-3.31,2.6-4.89,6.15-4.59l5.74.44c2.1,0,3.23.25,3.86,1S322.06,144,321.67,145.78Z"/><path class="cls-1" d="M313.59,197a1,1,0,0,1-.11.27c-.45.89-2,1.57-3.51,2.17a21.29,21.29,0,0,1-7.49,1.18c-4.1,0-8.51-.85-11.46-2.69l-.2-.12.55-.84.47.29c4.8,2.81,13.34,3,17.77,1.25,1.28-.51,3.05-1.3,3.21-2Z"/><path class="cls-1" d="M287.13,166.07l0,.14,0,.12-.22,1h0l-.77,3.59-.41,1.87h0l-4.6,21.47-.27,1.28,0,.12,0-.09-.26-1-.25-.94c-2.21-8.37-9.65-12-16-11.87-5.8.11-13.28,3.42-15.28,12.36-.45,5.66,1,9.16,4.42,10.63l.7.3-2.26,2.14-.55.52-.69-.72.49-.47,1.24-1.18c-3.34-1.8-4.8-5.62-4.34-11.37a16.49,16.49,0,0,1,16.25-13.21,17,17,0,0,1,16.42,10.8L286,166.7l.18-.84.24,0,.73.16Z"/><path class="cls-1" d="M300.69,180l-.21,1-1-.21c-5.85-1.31-11.74-3.34-13.86-7.92h0a8.87,8.87,0,0,1-.57-1.67l1-.23a0,0,0,0,0,0,0c1.29,5.47,8,7.63,14.51,9Z"/><path class="cls-1" d="M290.9,145.27l-1.75,10.1,3.55,3.31,2.31-9.44Zm1.23,11.52-1.9-1.78,1.34-7.71,2.34,2.26Z"/><polygon points="293.91 149.56 292.13 156.79 290.23 155.01 291.57 147.3 293.91 149.56"/><path class="cls-1" d="M302.72,146.41a4.08,4.08,0,0,0-1.23-.83c-1-.46-2.26-.59-2.61.18-.1.22-.18.67.36,1.25a4.32,4.32,0,0,0,2.74,1.2,1.68,1.68,0,0,0,.58-.09.93.93,0,0,0,.52-.46A1.13,1.13,0,0,0,302.72,146.41Zm-1.84.52a2.73,2.73,0,0,1-1-.72H300a3.06,3.06,0,0,1,1.12.28,2.66,2.66,0,0,1,1,.72A2.72,2.72,0,0,1,300.88,146.93Z"/><path class="cls-1" d="M300.13,163.1a4.08,4.08,0,0,0-1.23-.83c-1-.46-2.26-.59-2.61.18-.1.22-.18.67.36,1.25a4,4,0,0,0,1.23.83,3.87,3.87,0,0,0,1.51.37,1.68,1.68,0,0,0,.58-.09.93.93,0,0,0,.52-.46C300.59,164.13,300.67,163.68,300.13,163.1Zm-1.84.52a2.73,2.73,0,0,1-1-.72h.09a3.06,3.06,0,0,1,1.12.28,2.82,2.82,0,0,1,1,.72A2.73,2.73,0,0,1,298.29,163.62Z"/><path class="cls-1" d="M302.41,114.12c-.32,1.62-.65,3.11-1,4.49-.07.34-.15.67-.23,1-1.76,7.08-3.6,10.68-5.7,11.24a2.46,2.46,0,0,1-.59.08,2.82,2.82,0,0,1-1.81-.75,5.82,5.82,0,0,1-.71-.7l.75-.65,0,0a2.78,2.78,0,0,0,1.5,1,1.22,1.22,0,0,0,.57,0,2.65,2.65,0,0,0,1.28-.95c1.36-1.65,3.07-5.73,4.9-15,1-5.56.12-10.18-2.15-11.49l.5-.87.33.22C302.52,103.53,303.43,108.3,302.41,114.12Z"/><path class="cls-1" d="M242.11,219.37l-.33.06a27,27,0,0,1-8.88.47,22.8,22.8,0,0,1-7.85,2.22l-.09-1a21.73,21.73,0,0,0,7.64-2.19l.14-.06.15,0a25.41,25.41,0,0,0,8.17-.34l.85-.16Z"/><path class="cls-1" d="M222.47,222.45a10.46,10.46,0,0,1-3.83.72,11,11,0,0,1-2-.19l.18-1a9.66,9.66,0,0,0,5.34-.48Z"/><path class="cls-1" d="M236.19,217.07l-.55.83c-2.46-1.63-2.61-7.45-2.11-9l.95.3C234,210.7,234.4,215.88,236.19,217.07Z"/><path class="cls-1" d="M231.26,217.37l-.67.74a13,13,0,0,1-4.07-6.42l1-.25A12,12,0,0,0,231.26,217.37Z"/><path class="cls-1" d="M223.77,218.26l-.46.89a13.06,13.06,0,0,1-5.06-5l.85-.52A12.14,12.14,0,0,0,223.77,218.26Z"/><path class="cls-1" d="M328,123c-.55,4.64-1.24,8.07-2.72,9.68L323.75,152l0,.55-1-.08v-.06h0l1.55-20.16.13-.13c1.47-1.44,2.11-5.35,2.59-9.36v-.13l.08-.11a25.93,25.93,0,0,0,5.17-16.8l-4.22.68c1.25,6.15-.07,11-3.92,14.3.24,5.92-1.15,9.57-4.15,10.86a5.1,5.1,0,0,1-5.35,2.35c-1.86-.3-3.25-1.36-3.46-2.66v-.08l1.32-8.14c.26-1.73.16-2.8-.31-3.27s-1.58-.45-3-.21l-.8.13.24-.77c.85-2.76,3.43-11.15,1.61-13.4a1.76,1.76,0,0,0-1.66-.57c-4.46.33-4.91,6.41-5,14.32v.51l-2.24-.1-.55,0,.05-1,.73,0,1,0c.15-8.17.76-14.39,6-14.78a2.74,2.74,0,0,1,2.52.94c1.44,1.78,1.07,6-1.2,13.57,1.4-.17,2.44-.08,3.12.6s.92,2,.59,4.14l-1.28,8c.18.82,1.23,1.53,2.61,1.75a4,4,0,0,0,4.39-2l.09-.17.17-.07c2.72-1.06,4-4.5,3.69-10.19l0-.25.19-.16c3.85-3.23,5.05-7.81,3.66-14l-.11-.52,6.35-1,0,.55A26.83,26.83,0,0,1,328,123Z"/><path class="cls-1" d="M307,222.85v1h-.55l-15.67-.19a52.58,52.58,0,0,1-5.26-.4,26.49,26.49,0,0,1-4.21-.85,11,11,0,0,1-6-3.58A8.59,8.59,0,0,1,274,212h0a9,9,0,0,1,.2-1.09l1,.23,0,.15c-.65,2.93-.32,5.2,1,6.94,1.61,2.09,4.65,3.42,9.41,4l.23,0c1.5.19,3.17.31,5,.37l16.14.2Z"/><polygon class="cls-1" points="266.82 225.52 266.1 226.22 265.42 225.52 262.74 222.74 262.22 222.2 262.94 221.51 263.41 221.99 266.81 225.51 266.82 225.52"/><ellipse cx="310.05" cy="143.57" rx="0.52" ry="0.62" transform="translate(-20.88 58.56) rotate(-10.44)"/><path class="cls-1" d="M311.06,143.38a1.17,1.17,0,0,0-.48-.75,1,1,0,0,0-.73-.16,1.07,1.07,0,0,0-.8,1.28,1.08,1.08,0,0,0,1,.93h.17a1,1,0,0,0,.67-.49A1.22,1.22,0,0,0,311.06,143.38Zm-1,.19a.16.16,0,0,1,0-.1.19.19,0,0,1,0,.09c0,.05,0,.09,0,.11A.19.19,0,0,1,310,143.57Z"/><ellipse cx="320.14" cy="144.1" rx="0.52" ry="0.62" transform="translate(-20.81 60.4) rotate(-10.44)"/><path class="cls-1" d="M321,143.46a.92.92,0,0,0-.29-.3,1,1,0,0,0-.73-.17,1.13,1.13,0,0,0,.23,2.22h.17a.93.93,0,0,0,.48-.25.8.8,0,0,0,.15-.17,1.19,1.19,0,0,0,.18-.87A1.06,1.06,0,0,0,321,143.46Zm-.84.64a.33.33,0,0,1,0-.1.13.13,0,0,1,0,.09s0,.09,0,.11A.19.19,0,0,1,320.12,144.1Z"/><path class="cls-1" d="M327.44,0a38.41,38.41,0,1,0,38.41,38.41A38.46,38.46,0,0,0,327.44,0Zm32.42,57.05c-.17.3-.34.59-.53.88a37.47,37.47,0,0,1-15.55,14.12l-.79.38a37.34,37.34,0,0,1-34-1.5,0,0,0,0,1,0,0,39.09,39.09,0,0,1-3.36-2.15h0a37.41,37.41,0,0,1-15.42-27c-.05-.56-.09-1.13-.11-1.7s0-1.12,0-1.69a37.26,37.26,0,0,1,7.23-22.09c.26-.35.53-.69.8-1A37.35,37.35,0,0,1,323.91,1.17l.52,0c1-.08,2-.12,3-.12a37.39,37.39,0,0,1,31.23,16.84c.62.94,1.2,1.91,1.74,2.9a37.25,37.25,0,0,1,4.44,17.67q0,1.52-.12,3c0,.52-.09,1-.16,1.56A37.13,37.13,0,0,1,359.86,57.05Z"/><path d="M359.33,57.93a37.47,37.47,0,0,1-15.55,14.12,21.38,21.38,0,0,0,5.09-5.79,30.48,30.48,0,0,0,3.39-8.32c2.78-.81,5.35-1.09,6.6-.41A1.33,1.33,0,0,1,359.33,57.93Z"/><path d="M351.49,58.17a30.22,30.22,0,0,1-3,7.85A20.77,20.77,0,0,1,343,72.43a37.34,37.34,0,0,1-34-1.5,28.35,28.35,0,0,0,7.36,1,29.23,29.23,0,0,0,10.86-2.12,147.65,147.65,0,0,0,16.29-7.92l2.78-1.5A31.53,31.53,0,0,1,351.49,58.17Z"/><path d="M352.73,49.05a51.37,51.37,0,0,1-.64,6.18c-.1.61-.22,1.21-.35,1.82a32.62,32.62,0,0,0-5.95,2.44L343,61a144.92,144.92,0,0,1-16.19,7.87,28,28,0,0,1-21.22-.09h0a37.41,37.41,0,0,1-15.42-27c4.4,4.7,14.42,8.19,27.84,9.59a111.22,111.22,0,0,0,11.4.58A85.27,85.27,0,0,0,352.73,49.05Z"/><path d="M364.57,43a37.13,37.13,0,0,1-4.71,14.08,2.06,2.06,0,0,0-.52-.4c-1.42-.76-4-.57-6.8.17.11-.49.22-1,.31-1.46a48.73,48.73,0,0,0,.77-6.59A28.71,28.71,0,0,0,364.57,43Z"/><path d="M364.85,38.41q0,1.52-.12,3c-2.47,2.66-6.35,4.74-11.07,6.26a57,57,0,0,0-.49-9,10.68,10.68,0,0,0,3.33-1.88c3.94-3.28,5.29-9.11,3.91-16.1A37.25,37.25,0,0,1,364.85,38.41Z"/><path d="M355.86,36.07A9.53,9.53,0,0,1,353,37.7q-.4-2.75-1-5.45a59,59,0,0,0-3.88-11,44.26,44.26,0,0,0-6.24-9.82A32.36,32.36,0,0,0,332.94,4a26.61,26.61,0,0,0-8.51-2.92c1-.08,2-.12,3-.12a37.39,37.39,0,0,1,31.23,16.84C361.06,25.83,360.06,32.57,355.86,36.07Z"/><path d="M352.77,48c-9.85,3-23,3.66-34.66,2.45-14-1.46-24.47-5.34-28.05-10.3,0-.56,0-1.12,0-1.69a37.26,37.26,0,0,1,7.23-22.09c1.87-.14,4.52,0,9.13,1.69,13.93,5.45,18.74,8.78,24.3,12.64,2.72,1.88,5.53,3.83,9.64,6.19a17.74,17.74,0,0,0,8.77,2.55,12.22,12.22,0,0,0,3.16-.4A56,56,0,0,1,352.77,48Z"/><path d="M352.11,38c-3.35.91-7.38.24-11.29-2-4.08-2.34-6.87-4.28-9.57-6.15-5.61-3.9-10.46-7.26-24.51-12.76a23.87,23.87,0,0,0-8.69-1.78A37.35,37.35,0,0,1,323.91,1.17a26.2,26.2,0,0,1,8.79,3.3A32,32,0,0,1,341.27,12,51.88,51.88,0,0,1,351,32.49C351.46,34.3,351.83,36.14,352.11,38Z"/><path class="cls-1" d="M353.66,47.67c0,.37,0,.73,0,1.1a48.73,48.73,0,0,1-.77,6.59c-.09.49-.2,1-.31,1.46s-.17.75-.28,1.12a30.48,30.48,0,0,1-3.39,8.32,21.38,21.38,0,0,1-5.09,5.79,16.83,16.83,0,0,1-3.3,2A16.87,16.87,0,0,0,343,72.43,20.77,20.77,0,0,0,348.45,66a30.22,30.22,0,0,0,3-7.85c.09-.38.18-.75.25-1.12.13-.61.25-1.21.35-1.82a51.37,51.37,0,0,0,.64-6.18c0-.36,0-.73,0-1.1a56,56,0,0,0-.52-9c0-.33-.09-.67-.14-1-.28-1.85-.65-3.69-1.1-5.5A51.88,51.88,0,0,0,341.27,12a32,32,0,0,0-8.57-7.49,26.2,26.2,0,0,0-8.79-3.3c-.67-.14-1.36-.24-2-.32a22,22,0,0,1,2.56.27A26.61,26.61,0,0,1,332.94,4a32.36,32.36,0,0,1,8.92,7.43,44.26,44.26,0,0,1,6.24,9.82,59,59,0,0,1,3.88,11q.64,2.7,1,5.45c.05.34.1.68.14,1A57,57,0,0,1,353.66,47.67Z"/><path class="cls-1" d="M365.33,41.85a.48.48,0,0,0,.1.28,11.36,11.36,0,0,1-.86.84,28.71,28.71,0,0,1-10.95,5.8l-.89.28A85.27,85.27,0,0,1,329.41,52a111.22,111.22,0,0,1-11.4-.58c-13.42-1.4-23.44-4.89-27.84-9.59-.23-.24-.45-.5-.65-.75,0-.3.05-.59.07-.89a7,7,0,0,0,0-.79,6.54,6.54,0,0,0,.48.73c3.58,5,14.06,8.84,28.05,10.3,11.63,1.21,24.81.52,34.66-2.45l.89-.28c4.72-1.52,8.6-3.6,11.07-6.26a10.78,10.78,0,0,0,.77-.9A8.77,8.77,0,0,0,365.33,41.85Z"/><path class="cls-1" d="M356.5,36.84a10.68,10.68,0,0,1-3.33,1.88,7.45,7.45,0,0,1-.92.27,12.22,12.22,0,0,1-3.16.4,17.74,17.74,0,0,1-8.77-2.55c-4.11-2.36-6.92-4.31-9.64-6.19-5.56-3.86-10.37-7.19-24.3-12.64-4.61-1.68-7.26-1.83-9.13-1.69l-.43,0c.06-.09.12-.17.17-.26a6.11,6.11,0,0,1,.35-.67.42.42,0,0,0,0-.12l.68,0a23.87,23.87,0,0,1,8.69,1.78c14.05,5.5,18.9,8.86,24.51,12.76,2.7,1.87,5.49,3.81,9.57,6.15,3.91,2.25,7.94,2.92,11.29,2a6.13,6.13,0,0,0,.92-.29,9.53,9.53,0,0,0,2.83-1.63c4.2-3.5,5.2-10.24,2.81-18.23-.12-.38-.24-.77-.37-1.16l.31.27a5.49,5.49,0,0,1,.52.44l.22.24,0,.06s.06.1.09.15a.5.5,0,0,0,.29.22c.26.91.47,1.8.64,2.68C361.79,27.73,360.44,33.56,356.5,36.84Z"/><path class="cls-1" d="M360.34,57.7h0c0,.06-.07.11-.1.16l-.29.33c-.07.1-.15.19-.21.29a.67.67,0,0,0-.06.12h-.09a1.2,1.2,0,0,0-.25-.68,1.33,1.33,0,0,0-.47-.4c-1.25-.68-3.82-.4-6.6.41l-.77.23a31.53,31.53,0,0,0-5.23,2.2l-2.78,1.5a147.65,147.65,0,0,1-16.29,7.92,29.23,29.23,0,0,1-10.86,2.12,28.35,28.35,0,0,1-7.36-1,0,0,0,0,1,0,0,29.34,29.34,0,0,1-3.33-1.08,3.45,3.45,0,0,1-.26-.28.86.86,0,0,1-.07-.1.35.35,0,0,0-.1-.11.61.61,0,0,0-.11-.21A10.43,10.43,0,0,0,303.85,68c.58.28,1.16.54,1.74.77h0a28,28,0,0,0,21.22.09A144.92,144.92,0,0,0,343,61l2.78-1.5a32.62,32.62,0,0,1,5.95-2.44c.27-.09.54-.16.8-.23,2.8-.74,5.38-.93,6.8-.17a2.63,2.63,0,0,1,1,1.05Z"/><path class="cls-1" d="M358.15,433.28l.15,0a6.77,6.77,0,0,0,.78,0l.09,0-.37-1.65-2.18-4.25-7.22-5.54a10.09,10.09,0,0,0-.18-6.59l-.07-.17L349,415a27.12,27.12,0,0,0-8.75-2.64l-15-12.72c-1.93-1.26-4.55-2.74-10.62-4.95l-6-1.87c-6-1.86-15.14-3.5-23.94-5.08l-.41-.08-.08-4.41c-.5-4.49-3.05-7.41-7.59-8.69l-.32-5.46.06-3.1,0-.08a4.7,4.7,0,0,0-4.12-3.14,2.8,2.8,0,0,0-3.44-.15l-5.31-.08-28.52,4.26-.17.06a2.81,2.81,0,0,0,.41,5.33l30.23,3,.21-5.43-.37-.12c-.88-.27-2-1-1.57-4.5l-1-.12c-.14,1.1-.54,4.37,1.9,5.44l-.14,3.63-29-2.89a1.82,1.82,0,0,1-.3-3.47l28.35-4.24,5.56.09.13-.1a1.85,1.85,0,0,1,2.49.12l.11.09h.13a3.79,3.79,0,0,1,3.41,2.42l-.06,2.94.37,6.24.35.09c4.38,1.12,6.73,3.71,7.19,7.87l.09,5.19,1.22.22c8.77,1.58,17.85,3.21,23.82,5.06l6,1.86c5.95,2.17,8.52,3.61,10.35,4.8L339.7,413.2l.12.1H340a25.82,25.82,0,0,1,8.4,2.48,9.68,9.68,0,0,1,0,6.09l-.09.33,7.53,5.7,2,4Z"/><path class="cls-1" d="M360.28,438.21l-.7-3.11a.32.32,0,0,1-.14,0h-.14l-.2.1-.18,0a.92.92,0,0,1-.29,0h0l.69,3.09c1.16,7.26-4.53,12.32-9.74,14.46-5.75,2.35-13.76,2.31-17.81-3.37-8.51-10.41-15.85-19.4-26.7-16.61l-39.65,7.56-.13,1,40-7.6c10.27-2.63,17.42,6.13,25.68,16.24,2.68,3.75,6.94,5.23,11.24,5.23a20.74,20.74,0,0,0,7.74-1.54C355.48,451.5,361.53,446.07,360.28,438.21Z"/><path class="cls-1" d="M339.31,421a1.78,1.78,0,1,1,1.77-1.77A1.78,1.78,0,0,1,339.31,421Zm0-2.55a.78.78,0,1,0,.77.78A.78.78,0,0,0,339.31,418.43Z"/><path class="cls-1" d="M324.83,434.81A1.78,1.78,0,1,1,326.6,433,1.78,1.78,0,0,1,324.83,434.81Zm0-2.55a.78.78,0,1,0,.77.77A.77.77,0,0,0,324.83,432.26Z"/><path class="cls-1" d="M306.18,422.81A1.78,1.78,0,1,1,308,421,1.78,1.78,0,0,1,306.18,422.81Zm0-2.55a.78.78,0,1,0,.77.77A.77.77,0,0,0,306.18,420.26Z"/><path class="cls-1" d="M311.92,430.24a1.78,1.78,0,1,1,1.77-1.77A1.78,1.78,0,0,1,311.92,430.24Zm0-2.55a.78.78,0,1,0,.77.78A.78.78,0,0,0,311.92,427.69Z"/><path class="cls-1" d="M299.4,432.46a1.78,1.78,0,1,1,1.77-1.78A1.78,1.78,0,0,1,299.4,432.46Zm0-2.55a.78.78,0,1,0,.77.77A.78.78,0,0,0,299.4,429.91Z"/><path class="cls-1" d="M309.31,398.15a1.77,1.77,0,1,1,1.77-1.77A1.78,1.78,0,0,1,309.31,398.15Zm0-2.54a.77.77,0,1,0,.77.77A.77.77,0,0,0,309.31,395.61Z"/><path class="cls-1" d="M358.89,435.64a1.49,1.49,0,1,1,1.48-1.48A1.49,1.49,0,0,1,358.89,435.64Zm0-2a.49.49,0,1,0,0,1,.49.49,0,0,0,0-1Z"/><path class="cls-1" d="M259.14,443.51l-20.68-1,0-1,20.53,1c6.7-1.67,14-5,17.7-16.61A159.21,159.21,0,0,0,283.29,388l1,.05a160.8,160.8,0,0,1-6.59,38.12c-3.85,12.15-11.51,15.56-18.49,17.3Z"/><polygon class="cls-1" points="301.42 413.92 297.21 410.43 308.14 400.06 321.65 413.04 320.96 413.76 308.13 401.44 298.71 410.38 302.06 413.15 301.42 413.92"/><path class="cls-1" d="M338.67,418.36a2.73,2.73,0,0,1,.55-.52l-17.06-15.12-.66.75,17,15.1C338.58,418.5,338.61,418.43,338.67,418.36Z"/><path class="cls-1" d="M340.57,419s0,0,0,.08a.64.64,0,0,1-.06.18l-.44.65,12.46,11,.67-.75Z"/><path class="cls-1" d="M241,440.37l-.15-1c14.18-2.14,24.29-9.35,31.82-22.71a58.49,58.49,0,0,0,3.08-26.34l-4.82-5.82c-5.08-.62-9.31,1.21-12.92,5.59l-.77-.63c3.83-4.67,8.55-6.66,14-5.92l.2,0,5.26,6.36,0,.15a59.25,59.25,0,0,1-3.16,27C265.84,430.82,255.5,438.19,241,440.37Z"/><path class="cls-1" d="M425.49,522l-.56.78,0,0a27.08,27.08,0,0,0-9.12-4.37,22.18,22.18,0,0,0-2.32-.48,29.84,29.84,0,0,0-3.06-.33h-.18l-.14-.13L377.28,486.3l-5.53-4.95c-3.79.62-4.81-3.14-5.17-4.63l-4.09-3.65c-2.66.9-4.29.2-5.19-.57-1.4-1.18-2-3.35-1.58-5.83L338,450.56l0,0,.63-.7,2,1.83,16.09,14.65-.05.28c-.43,2.24,0,4.17,1.19,5.16s2.59,1,4.48.29l.28-.1,4.77,4.26,0,.15c.78,3.25,2.06,4.45,4.29,4l.25-.05,5.91,5.29,32.69,31a26.36,26.36,0,0,1,12,3.53A32.73,32.73,0,0,1,425.49,522Z"/><path class="cls-1" d="M435.45,544.58,431,541.21l-6.1-2.39L422.22,533l-2.73-4.21.84-.54,2.76,4.27,2.54,5.55,5.9,2.33,4.22,3.19,6.83-.54,28-59.86L469,479.87l-3.62-.67-8.65,3.48-14.59,23.26a30.62,30.62,0,0,1,1.52,12.18c-.57,4-3.37,11-5.85,17.16l-.93-.37c2.46-6.13,5.24-13.07,5.79-16.91a29.86,29.86,0,0,0-1.55-12l-.07-.22,15-23.93,9.23-3.71,4.41.82,2,4.17L443.24,544Z"/><path class="cls-1" d="M431.73,514.24l-.06.07-.24.25-.38.41a16.07,16.07,0,0,1-2-2.25,12.91,12.91,0,0,1-2.54-7.48,10.32,10.32,0,0,1,0-1.11,17,17,0,0,1,.53-3.42c.65-2,.93-3.25-1.13-5.27l-19.36-17.86-.77-.7-2.5-2.31L381,453.13l-21.14-19.3-4.72-4.3-.06-.06-.72-.66-.07-.06.15-.17L355,428l.62.56,18.35,16.76.74.67,7,6.4L404,473.84l22.63,20.88c2.36,2.3,2.11,4.06,1.46,6.08L428,501c-.11.42-.2.84-.27,1.25a14.35,14.35,0,0,0-.24,3.41,9.73,9.73,0,0,0,.13,1.21h0a12.46,12.46,0,0,0,4.05,7.31Z"/><path class="cls-1" d="M356,438.4a12,12,0,0,0-4.68-8,11.81,11.81,0,0,0-2.31-1.37H349a10.3,10.3,0,0,0-2.51-.84h0a11.88,11.88,0,0,0-4-.12,12.07,12.07,0,0,0-5.62,21.57,10.43,10.43,0,0,0,1.28.84,11.36,11.36,0,0,0,2.64,1.13,11.71,11.71,0,0,0,3.33.48,12.17,12.17,0,0,0,7.57-2.66h0a10,10,0,0,0,.78-.68l.54-.55c.23-.25.46-.52.67-.8l.08-.1A12,12,0,0,0,356,438.4Zm-3.13,8.33c-.15.2-.31.39-.47.58l-.17.2c-.23.25-.46.48-.71.71l-.08.08a11.07,11.07,0,0,1-14.07.58,11.06,11.06,0,0,1,5.16-19.78,11.39,11.39,0,0,1,1.54-.11,11.09,11.09,0,0,1,10.51,7.65,11.91,11.91,0,0,1,.43,1.9,9.32,9.32,0,0,1,.09,1A11,11,0,0,1,352.9,446.73Z"/><path d="M352.9,446.73c-.15.2-.31.39-.47.58a.81.81,0,0,0-.27.11l-5.39-4.71a1.46,1.46,0,0,0,.16-.19,5.14,5.14,0,1,0-4.1,2,4.17,4.17,0,0,0,.71-.05,4.87,4.87,0,0,0,2.51-1.09l5.46,4.77a.28.28,0,0,0,0,.12,11.07,11.07,0,0,1-14.07.58,11.06,11.06,0,0,1,5.16-19.78,11.39,11.39,0,0,1,1.54-.11,11.09,11.09,0,0,1,10.51,7.65,1.78,1.78,0,0,0-1.76,3.05,1.79,1.79,0,0,0,1.07.36,1.77,1.77,0,0,0,1.21-.47A11,11,0,0,1,352.9,446.73Z"/><path class="cls-1" d="M345.93,435.33a5.12,5.12,0,0,0-7.18,1,5.12,5.12,0,0,0,4.08,8.22,4.17,4.17,0,0,0,.71-.05,4.87,4.87,0,0,0,2.51-1.09,4,4,0,0,0,.72-.7,1.46,1.46,0,0,0,.16-.19,5.13,5.13,0,0,0-1-7.19Zm.2,6.58a4.13,4.13,0,0,1-5.78.81,4.13,4.13,0,1,1,5-6.59,4.12,4.12,0,0,1,.8,5.78Z"/><path d="M346.93,438.85a4.08,4.08,0,0,0-1.6-2.72,4.13,4.13,0,0,0-5,6.59,4.14,4.14,0,0,0,6.58-3.87Zm-2.25,1.88a2.19,2.19,0,0,1-1.75.87,2.16,2.16,0,0,1-1.32-.44,2.2,2.2,0,1,1,3.51-1.75A2.16,2.16,0,0,1,344.68,440.73Z"/><path class="cls-1" d="M360.51,433.11l-.65.72,0,0c-3.46-3.14-7-4.72-10.8-4.78H349a14.2,14.2,0,0,0-2.5.17l-.15-1,.12,0h0a15.12,15.12,0,0,1,7.76.89c.28.1.56.22.84.35l.07,0A21,21,0,0,1,360.51,433.11Z"/><path class="cls-1" d="M386.45,465.38l-14.93-11.73a5.13,5.13,0,0,0-4.54-1.11c-3,.78-5,4.26-6.24,7.08-1.69,5-.57,8.88,3.28,11.42l11.36,9a6.18,6.18,0,0,0,4,1.76,5.24,5.24,0,0,0,3.89-2l3.75-5.26C389.35,470.9,389.16,467.65,386.45,465.38Zm-.3,8.6-3.7,5.19c-2,2.19-4,2.23-6.43.12l-11.41-9.06c-3.51-2.32-4.47-5.68-2.94-10.25,1.58-3.65,3.56-6,5.57-6.47a3.48,3.48,0,0,1,.9-.12,4.6,4.6,0,0,1,2.77,1.05l0,0,1.65,1.29L383.09,464l1.43,1.13,1.29,1C388.72,468.59,387.6,471.76,386.15,474Z"/><path class="cls-1" d="M383.47,466.07a1,1,0,0,1-.64-.22,1.07,1.07,0,0,1-.21-1.49,1,1,0,0,1,.71-.41,1,1,0,0,1,.78.21,1.05,1.05,0,0,1,.42.7,1.07,1.07,0,0,1-.21.79A1.08,1.08,0,0,1,383.47,466.07Zm0-1.13h0l0,.12.08-.11Z"/><path class="cls-1" d="M379.43,480a1,1,0,0,1-.64-.22,1.06,1.06,0,1,1,.64.22Zm0-1.13-.06,0,.51.38-.4-.3,0-.09Z"/><path class="cls-1" d="M364.37,459.45a1.1,1.1,0,0,1-.69-.23,1.14,1.14,0,0,1-.45-.77,1.17,1.17,0,0,1,.22-.85,1.14,1.14,0,0,1,.77-.45,1.17,1.17,0,0,1,.85.22h0a1.16,1.16,0,0,1-.71,2.08Zm0-1.31a.16.16,0,0,0-.13.06.18.18,0,0,0,0,.22.16.16,0,1,0,.19-.25A.12.12,0,0,0,364.38,458.14Z"/><path class="cls-1" d="M402.38,491.77a1.06,1.06,0,1,0-1.28,1.7,1,1,0,0,0,.64.21h.15a1,1,0,0,0,.7-.41A1.07,1.07,0,0,0,402.38,491.77Zm-.63.91-.06-.1a.05.05,0,0,1,.05,0h0Z"/><path class="cls-1" d="M408.39,497.51a1.06,1.06,0,0,0-1.28,1.7,1,1,0,0,0,.64.22,1.05,1.05,0,0,0,1.06-1.06A1.06,1.06,0,0,0,408.39,497.51Zm-.59.89-.1-.08.05,0h0l.3-.4Z"/><path class="cls-1" d="M413.09,502.26a1.08,1.08,0,0,0-1.5.21,1.07,1.07,0,0,0-.2.79,1.07,1.07,0,0,0,1.05.92,1.07,1.07,0,0,0,.65-1.92Zm-.7.81.06,0h0l0,.09Z"/><polygon class="cls-1" points="352.96 448.12 352.86 448.23 352.4 448.75 352.3 448.87 351.55 448.22 351.51 448.18 346.05 443.41 345.74 443.14 346.39 442.38 346.77 442.71 352.16 447.42 352.26 447.51 352.96 448.12"/><path class="cls-1" d="M355,436.86a2.08,2.08,0,0,0-.38-.22,1.78,1.78,0,0,0-1.76,3.05,1.79,1.79,0,0,0,1.07.36,1.77,1.77,0,0,0,1.21-.47,1.51,1.51,0,0,0,.21-.23,1.76,1.76,0,0,0,.36-1.06A1.79,1.79,0,0,0,355,436.86Zm-.45,1.88a.77.77,0,0,1-1.23-.93.77.77,0,0,1,.62-.31.74.74,0,0,1,.46.16A.77.77,0,0,1,354.54,438.74Z"/><path d="M354.54,438.74a.77.77,0,0,1-1.23-.93.77.77,0,0,1,.62-.31.74.74,0,0,1,.46.16A.77.77,0,0,1,354.54,438.74Z"/><path class="cls-1" d="M433,517.23a5.42,5.42,0,0,0-.68-2,4.84,4.84,0,0,0-.69-.94l-.14-.15a6,6,0,0,0-.6-.53,5.33,5.33,0,0,0-1.89-.91,5.19,5.19,0,0,0-2.15-.14,5.44,5.44,0,0,0-4.27,7.54,5.28,5.28,0,0,0,1.72,2.22c.19.14.39.27.59.39a5.38,5.38,0,0,0,2.69.71,6.33,6.33,0,0,0,.76-.05,5.45,5.45,0,0,0,4.66-6.16Zm-1.85,3.44a4.46,4.46,0,0,1-7.11-5.37,4.46,4.46,0,0,1,6.24-.87A4.46,4.46,0,0,1,431.19,520.67Z"/><path class="cls-1" d="M427.74,520a1.87,1.87,0,0,1-1.11-.37,1.83,1.83,0,0,1-.71-1.21,1.73,1.73,0,0,1,.34-1.28,1.71,1.71,0,0,1,1.18-.68,1.92,1.92,0,0,1,1.32.36h0a1.79,1.79,0,0,1,.37,2.5A1.74,1.74,0,0,1,428,520Zm-.09-2.55h-.1a.71.71,0,0,0-.5.28.77.77,0,0,0,.19,1.09.85.85,0,0,0,.59.17.76.76,0,0,0,.51-.29.78.78,0,0,0-.19-1.09h0A.84.84,0,0,0,427.65,517.42Z"/><path d="M426.5,505.24a28.31,28.31,0,0,1-6.82-5l-12.41-11.68c-3.5-3.21-4-7.13-1.49-11.66l-2.5-2.31L381,453.13l-21.14-19.3,0,0c-3.46-3.14-7-4.72-10.8-4.78a11.81,11.81,0,0,1,2.31,1.37,12.05,12.05,0,0,1,2.35,16.9l-.08.1a.6.6,0,0,1,.15.09,1.46,1.46,0,0,1,.59,1.18,1.49,1.49,0,0,1-.3.89,1.47,1.47,0,0,1-2.07.29,1.3,1.3,0,0,1-.36-.42h0a12.17,12.17,0,0,1-7.57,2.66,11.71,11.71,0,0,1-3.33-.48l16.09,14.65-.05.28c-.43,2.24,0,4.17,1.19,5.16s2.59,1,4.48.29l.28-.1,4.77,4.26,0,.15c.78,3.25,2.06,4.45,4.29,4l.25-.05,5.91,5.29,32.69,31a26.36,26.36,0,0,1,12,3.53,5.44,5.44,0,0,1,4.27-7.54,5.19,5.19,0,0,1,2.15.14A12.91,12.91,0,0,1,426.5,505.24ZM387,474.54l-3.75,5.26a5.24,5.24,0,0,1-3.89,2,6.18,6.18,0,0,1-4-1.76L364,471c-3.85-2.54-5-6.39-3.28-11.42,1.22-2.82,3.28-6.3,6.24-7.08a5.13,5.13,0,0,1,4.54,1.11l14.93,11.73C389.16,467.65,389.35,470.9,387,474.54Zm15.61,18.72a1,1,0,0,1-.7.41h-.15a1,1,0,0,1-.64-.21,1.06,1.06,0,1,1,1.49-.21Zm6,5.75a1.08,1.08,0,0,1-.85.42,1,1,0,0,1-.64-.22,1.06,1.06,0,1,1,1.7-.84A1.09,1.09,0,0,1,408.6,499Zm4.69,4.75a1.07,1.07,0,0,1-.85.42,1.07,1.07,0,0,1-1.05-.92,1.07,1.07,0,0,1,.2-.79,1.07,1.07,0,1,1,1.7,1.29Z"/><path class="cls-1" d="M427.09,504.42l-.43.9-.16-.08a28.31,28.31,0,0,1-6.82-5l-12.41-11.68c-3.5-3.21-4-7.13-1.49-11.66.06-.11.12-.23.19-.34l.87.51-.29.53c-2.17,4-1.71,7.37,1.4,10.22l12.42,11.69a28.27,28.27,0,0,0,6.14,4.64Z"/><path class="cls-1" d="M441,536.12l-.93-.37a602.24,602.24,0,0,1,25.8-57.19l.89.46A600.62,600.62,0,0,0,441,536.12Z"/><path class="cls-1" d="M445.51,538.45a26.63,26.63,0,0,0-8.25-2.86,32.21,32.21,0,0,0-13.06.69l-.23-1a33.09,33.09,0,0,1,13.46-.7,27.33,27.33,0,0,1,8.55,3Z"/><path class="cls-1" d="M447.33,519.22a4.5,4.5,0,0,0-4-.67l-.27-1a5.41,5.41,0,0,1,4.87.82Z"/><path class="cls-1" d="M425.15,538.92c-1.81-.42-3.73-1-4.22-2.34a2.89,2.89,0,0,1,.73-2.73c.91-1.59,1.64-3.05,2.23-4.23l.27-.55c-4.68.19-7.41-.52-8.57-2.22-.85-1.25-.76-3,.27-5.21.61-1.21-.09-2.29-2.4-3.72l.53-.85c1.2.75,4,2.5,2.77,5-.86,1.86-1,3.28-.34,4.22,1,1.44,3.85,2,8.55,1.74l.88,0-.41.78-.66,1.31c-.59,1.19-1.33,2.66-2.29,4.33-.59.79-.78,1.39-.62,1.83.33.9,2.15,1.4,3.5,1.71Z"/><path class="cls-1" d="M439.81,511.13a8.42,8.42,0,0,1-3.56-1.06c-5.22-3.78-8.12-6.63-9.18-9l.91-.41c1,2.2,3.85,5,8.78,8.59,1.81.88,3.19,1.14,3.95.7.54-.31.84-1,.9-2.16l1,.05a3.39,3.39,0,0,1-1.4,3A2.72,2.72,0,0,1,439.81,511.13Z"/><path class="cls-1" d="M426.31,535.46c-.75-1.16-2-3.09,1.3-5.86a3.38,3.38,0,0,1,3.17-.89c2,.61,3.28,3.44,4,5.71l-1,.3c-.88-2.88-2.05-4.67-3.31-5.05a2.39,2.39,0,0,0-2.23.7c-2.64,2.2-1.83,3.44-1.11,4.54Z"/><path class="cls-1" d="M378.73,441.24,374.67,446l-.06.07-.76-.65.08-.09,3.49-4.09c-1.57-1.85-3.05-3.56-4.44-5.15l-1.32-1.49c-5.09-5.69-9-9.48-11.74-11.5l-4.34,5.47-.18.23-.25.7v0L355,430l-.94-.33.21-.56.12-.31.08-.23.13-.34,5.15-6.5.38.27c3.85,2.66,9.86,8.85,18.35,18.91Z"/><path class="cls-1" d="M374.52,444.27l-1,.28c-1.18-4.07-1.89-4.44-2.08-4.46s-.32,0-.79.91l-.89-.46c.2-.38.8-1.55,1.78-1.45S373.48,440.69,374.52,444.27Z"/><path class="cls-1" d="M372.68,434.74a1,1,0,0,0-.78-.21.73.73,0,0,0-.24.07,1,1,0,0,0-.47.35,1.05,1.05,0,0,0-.2.79,1,1,0,0,0,.41.7,1.09,1.09,0,0,0,.64.21,1.06,1.06,0,0,0,.85-.42.67.67,0,0,0,.09-.14A1.05,1.05,0,0,0,372.68,434.74Zm-.68.9,0-.11h0l0,0Z"/><path d="M373,436.09a.67.67,0,0,1-.09.14,1.06,1.06,0,0,1-.85.42,1.09,1.09,0,0,1-.64-.21,1,1,0,0,1-.41-.7,1.05,1.05,0,0,1,.2-.79,1,1,0,0,1,.47-.35c-5.09-5.69-9-9.48-11.74-11.5l-4.34,5.47,18.35,16.76,3.49-4.09C375.85,439.39,374.37,437.68,373,436.09Zm.58,8.46c-1.18-4.07-1.89-4.44-2.08-4.46s-.32,0-.79.91l-.89-.46c.2-.38.8-1.55,1.78-1.45s1.9,1.6,2.94,5.18Z"/></g></g></svg>