<svg xmlns="http://www.w3.org/2000/svg" xmlns:xlink="http://www.w3.org/1999/xlink" viewBox="0 0 589.39 465.19"><defs><style>.cls-1,.cls-2,.cls-5{fill:none;}.cls-2{stroke:#231f20;stroke-width:5.04px;}.cls-3{fill:#fff;}.cls-4{fill:url(#_10_lpi_70_);}.cls-5{stroke:#fff;stroke-miterlimit:10;stroke-width:1.5px;}.cls-6{fill:url(#_10_lpi_70_3);}.cls-7{fill:url(#_10_lpi_70_5);}.cls-8{fill:url(#_10_lpi_70_7);}.cls-9{fill:url(#_10_lpi_70_9);}.cls-10{fill:url(#_10_lpi_70_11);}.cls-11{fill:url(#_10_lpi_70_13);}.cls-12{fill:url(#_10_lpi_70_15);}</style><pattern id="_10_lpi_70_" data-name="10 lpi 70%" width="72" height="72" patternTransform="translate(-32.61 68.45) rotate(-45)" patternUnits="userSpaceOnUse" viewBox="0 0 72 72"><rect class="cls-1" width="72" height="72"/><line class="cls-2" x1="71.75" y1="68.4" x2="144.25" y2="68.4"/><line class="cls-2" x1="71.75" y1="54" x2="144.25" y2="54"/><line class="cls-2" x1="71.75" y1="39.6" x2="144.25" y2="39.6"/><line class="cls-2" x1="71.75" y1="25.2" x2="144.25" y2="25.2"/><line class="cls-2" x1="71.75" y1="10.8" x2="144.25" y2="10.8"/><line class="cls-2" x1="71.75" y1="61.2" x2="144.25" y2="61.2"/><line class="cls-2" x1="71.75" y1="46.8" x2="144.25" y2="46.8"/><line class="cls-2" x1="71.75" y1="32.4" x2="144.25" y2="32.4"/><line class="cls-2" x1="71.75" y1="18" x2="144.25" y2="18"/><line class="cls-2" x1="71.75" y1="3.6" x2="144.25" y2="3.6"/><line class="cls-2" x1="-0.25" y1="68.4" x2="72.25" y2="68.4"/><line class="cls-2" x1="-0.25" y1="54" x2="72.25" y2="54"/><line class="cls-2" x1="-0.25" y1="39.6" x2="72.25" y2="39.6"/><line class="cls-2" x1="-0.25" y1="25.2" x2="72.25" y2="25.2"/><line class="cls-2" x1="-0.25" y1="10.8" x2="72.25" y2="10.8"/><line class="cls-2" x1="-0.25" y1="61.2" x2="72.25" y2="61.2"/><line class="cls-2" x1="-0.25" y1="46.8" x2="72.25" y2="46.8"/><line class="cls-2" x1="-0.25" y1="32.4" x2="72.25" y2="32.4"/><line class="cls-2" x1="-0.25" y1="18" x2="72.25" y2="18"/><line class="cls-2" x1="-0.25" y1="3.6" x2="72.25" y2="3.6"/><line class="cls-2" x1="-72.25" y1="68.4" x2="0.25" y2="68.4"/><line class="cls-2" x1="-72.25" y1="54" x2="0.25" y2="54"/><line class="cls-2" x1="-72.25" y1="39.6" x2="0.25" y2="39.6"/><line class="cls-2" x1="-72.25" y1="25.2" x2="0.25" y2="25.2"/><line class="cls-2" x1="-72.25" y1="10.8" x2="0.25" y2="10.8"/><line class="cls-2" x1="-72.25" y1="61.2" x2="0.25" y2="61.2"/><line class="cls-2" x1="-72.25" y1="46.8" x2="0.25" y2="46.8"/><line class="cls-2" x1="-72.25" y1="32.4" x2="0.25" y2="32.4"/><line class="cls-2" x1="-72.25" y1="18" x2="0.25" y2="18"/><line class="cls-2" x1="-72.25" y1="3.6" x2="0.25" y2="3.6"/></pattern><pattern id="_10_lpi_70_3" data-name="10 lpi 70%" width="72" height="72" patternTransform="translate(25.35 28.84) rotate(-45)" patternUnits="userSpaceOnUse" viewBox="0 0 72 72"><rect class="cls-1" width="72" height="72"/><line class="cls-2" x1="71.75" y1="68.4" x2="144.25" y2="68.4"/><line class="cls-2" x1="71.75" y1="54" x2="144.25" y2="54"/><line class="cls-2" x1="71.75" y1="39.6" x2="144.25" y2="39.6"/><line class="cls-2" x1="71.75" y1="25.2" x2="144.25" y2="25.2"/><line class="cls-2" x1="71.75" y1="10.8" x2="144.25" y2="10.8"/><line class="cls-2" x1="71.75" y1="61.2" x2="144.25" y2="61.2"/><line class="cls-2" x1="71.75" y1="46.8" x2="144.25" y2="46.8"/><line class="cls-2" x1="71.75" y1="32.4" x2="144.25" y2="32.4"/><line class="cls-2" x1="71.75" y1="18" x2="144.25" y2="18"/><line class="cls-2" x1="71.75" y1="3.6" x2="144.25" y2="3.6"/><line class="cls-2" x1="-0.25" y1="68.4" x2="72.25" y2="68.4"/><line class="cls-2" x1="-0.25" y1="54" x2="72.25" y2="54"/><line class="cls-2" x1="-0.25" y1="39.6" x2="72.25" y2="39.6"/><line class="cls-2" x1="-0.25" y1="25.2" x2="72.25" y2="25.2"/><line class="cls-2" x1="-0.25" y1="10.8" x2="72.25" y2="10.8"/><line class="cls-2" x1="-0.25" y1="61.2" x2="72.25" y2="61.2"/><line class="cls-2" x1="-0.25" y1="46.8" x2="72.25" y2="46.8"/><line class="cls-2" x1="-0.25" y1="32.4" x2="72.25" y2="32.4"/><line class="cls-2" x1="-0.25" y1="18" x2="72.25" y2="18"/><line class="cls-2" x1="-0.25" y1="3.6" x2="72.25" y2="3.6"/><line class="cls-2" x1="-72.25" y1="68.4" x2="0.25" y2="68.4"/><line class="cls-2" x1="-72.25" y1="54" x2="0.25" y2="54"/><line class="cls-2" x1="-72.25" y1="39.6" x2="0.25" y2="39.6"/><line class="cls-2" x1="-72.25" y1="25.2" x2="0.25" y2="25.2"/><line class="cls-2" x1="-72.25" y1="10.8" x2="0.25" y2="10.8"/><line class="cls-2" x1="-72.25" y1="61.2" x2="0.25" y2="61.2"/><line class="cls-2" x1="-72.25" y1="46.8" x2="0.25" y2="46.8"/><line class="cls-2" x1="-72.25" y1="32.4" x2="0.25" y2="32.4"/><line class="cls-2" x1="-72.25" y1="18" x2="0.25" y2="18"/><line class="cls-2" x1="-72.25" y1="3.6" x2="0.25" y2="3.6"/></pattern><pattern id="_10_lpi_70_5" data-name="10 lpi 70%" width="72" height="72" patternTransform="translate(23.59 37.67) rotate(-45)" patternUnits="userSpaceOnUse" viewBox="0 0 72 72"><rect class="cls-1" width="72" height="72"/><line class="cls-2" x1="71.75" y1="68.4" x2="144.25" y2="68.4"/><line class="cls-2" x1="71.75" y1="54" x2="144.25" y2="54"/><line class="cls-2" x1="71.75" y1="39.6" x2="144.25" y2="39.6"/><line class="cls-2" x1="71.75" y1="25.2" x2="144.25" y2="25.2"/><line class="cls-2" x1="71.75" y1="10.8" x2="144.25" y2="10.8"/><line class="cls-2" x1="71.75" y1="61.2" x2="144.25" y2="61.2"/><line class="cls-2" x1="71.75" y1="46.8" x2="144.25" y2="46.8"/><line class="cls-2" x1="71.75" y1="32.4" x2="144.25" y2="32.4"/><line class="cls-2" x1="71.75" y1="18" x2="144.25" y2="18"/><line class="cls-2" x1="71.75" y1="3.6" x2="144.25" y2="3.6"/><line class="cls-2" x1="-0.25" y1="68.4" x2="72.25" y2="68.4"/><line class="cls-2" x1="-0.25" y1="54" x2="72.25" y2="54"/><line class="cls-2" x1="-0.25" y1="39.6" x2="72.25" y2="39.6"/><line class="cls-2" x1="-0.25" y1="25.2" x2="72.25" y2="25.2"/><line class="cls-2" x1="-0.25" y1="10.8" x2="72.25" y2="10.8"/><line class="cls-2" x1="-0.25" y1="61.2" x2="72.25" y2="61.2"/><line class="cls-2" x1="-0.25" y1="46.8" x2="72.25" y2="46.8"/><line class="cls-2" x1="-0.25" y1="32.4" x2="72.25" y2="32.4"/><line class="cls-2" x1="-0.25" y1="18" x2="72.25" y2="18"/><line class="cls-2" x1="-0.25" y1="3.6" x2="72.25" y2="3.6"/><line class="cls-2" x1="-72.25" y1="68.4" x2="0.25" y2="68.4"/><line class="cls-2" x1="-72.25" y1="54" x2="0.25" y2="54"/><line class="cls-2" x1="-72.25" y1="39.6" x2="0.25" y2="39.6"/><line class="cls-2" x1="-72.25" y1="25.2" x2="0.25" y2="25.2"/><line class="cls-2" x1="-72.25" y1="10.8" x2="0.25" y2="10.8"/><line class="cls-2" x1="-72.25" y1="61.2" x2="0.25" y2="61.2"/><line class="cls-2" x1="-72.25" y1="46.8" x2="0.25" y2="46.8"/><line class="cls-2" x1="-72.25" y1="32.4" x2="0.25" y2="32.4"/><line class="cls-2" x1="-72.25" y1="18" x2="0.25" y2="18"/><line class="cls-2" x1="-72.25" y1="3.6" x2="0.25" y2="3.6"/></pattern><pattern id="_10_lpi_70_7" data-name="10 lpi 70%" width="72" height="72" patternTransform="translate(-2.99 30.48) rotate(-45)" patternUnits="userSpaceOnUse" viewBox="0 0 72 72"><rect class="cls-1" width="72" height="72"/><line class="cls-2" x1="71.75" y1="68.4" x2="144.25" y2="68.4"/><line class="cls-2" x1="71.75" y1="54" x2="144.25" y2="54"/><line class="cls-2" x1="71.75" y1="39.6" x2="144.25" y2="39.6"/><line class="cls-2" x1="71.75" y1="25.2" x2="144.25" y2="25.2"/><line class="cls-2" x1="71.75" y1="10.8" x2="144.25" y2="10.8"/><line class="cls-2" x1="71.75" y1="61.2" x2="144.25" y2="61.2"/><line class="cls-2" x1="71.75" y1="46.8" x2="144.25" y2="46.8"/><line class="cls-2" x1="71.75" y1="32.4" x2="144.25" y2="32.4"/><line class="cls-2" x1="71.75" y1="18" x2="144.25" y2="18"/><line class="cls-2" x1="71.75" y1="3.6" x2="144.25" y2="3.6"/><line class="cls-2" x1="-0.25" y1="68.4" x2="72.25" y2="68.4"/><line class="cls-2" x1="-0.25" y1="54" x2="72.25" y2="54"/><line class="cls-2" x1="-0.25" y1="39.6" x2="72.25" y2="39.6"/><line class="cls-2" x1="-0.25" y1="25.2" x2="72.25" y2="25.2"/><line class="cls-2" x1="-0.25" y1="10.8" x2="72.25" y2="10.8"/><line class="cls-2" x1="-0.25" y1="61.2" x2="72.25" y2="61.2"/><line class="cls-2" x1="-0.25" y1="46.8" x2="72.25" y2="46.8"/><line class="cls-2" x1="-0.25" y1="32.4" x2="72.25" y2="32.4"/><line class="cls-2" x1="-0.25" y1="18" x2="72.25" y2="18"/><line class="cls-2" x1="-0.25" y1="3.6" x2="72.25" y2="3.6"/><line class="cls-2" x1="-72.25" y1="68.4" x2="0.25" y2="68.4"/><line class="cls-2" x1="-72.25" y1="54" x2="0.25" y2="54"/><line class="cls-2" x1="-72.25" y1="39.6" x2="0.25" y2="39.6"/><line class="cls-2" x1="-72.25" y1="25.2" x2="0.25" y2="25.2"/><line class="cls-2" x1="-72.25" y1="10.8" x2="0.25" y2="10.8"/><line class="cls-2" x1="-72.25" y1="61.2" x2="0.25" y2="61.2"/><line class="cls-2" x1="-72.25" y1="46.8" x2="0.25" y2="46.8"/><line class="cls-2" x1="-72.25" y1="32.4" x2="0.25" y2="32.4"/><line class="cls-2" x1="-72.25" y1="18" x2="0.25" y2="18"/><line class="cls-2" x1="-72.25" y1="3.6" x2="0.25" y2="3.6"/></pattern><pattern id="_10_lpi_70_9" data-name="10 lpi 70%" width="72" height="72" patternTransform="translate(1.27 31.39) rotate(-45)" patternUnits="userSpaceOnUse" viewBox="0 0 72 72"><rect class="cls-1" width="72" height="72"/><line class="cls-2" x1="71.75" y1="68.4" x2="144.25" y2="68.4"/><line class="cls-2" x1="71.75" y1="54" x2="144.25" y2="54"/><line class="cls-2" x1="71.75" y1="39.6" x2="144.25" y2="39.6"/><line class="cls-2" x1="71.75" y1="25.2" x2="144.25" y2="25.2"/><line class="cls-2" x1="71.75" y1="10.8" x2="144.25" y2="10.8"/><line class="cls-2" x1="71.75" y1="61.2" x2="144.25" y2="61.2"/><line class="cls-2" x1="71.75" y1="46.8" x2="144.25" y2="46.8"/><line class="cls-2" x1="71.75" y1="32.4" x2="144.25" y2="32.4"/><line class="cls-2" x1="71.75" y1="18" x2="144.25" y2="18"/><line class="cls-2" x1="71.75" y1="3.6" x2="144.25" y2="3.6"/><line class="cls-2" x1="-0.25" y1="68.4" x2="72.25" y2="68.4"/><line class="cls-2" x1="-0.25" y1="54" x2="72.25" y2="54"/><line class="cls-2" x1="-0.25" y1="39.6" x2="72.25" y2="39.6"/><line class="cls-2" x1="-0.25" y1="25.2" x2="72.25" y2="25.2"/><line class="cls-2" x1="-0.25" y1="10.8" x2="72.25" y2="10.8"/><line class="cls-2" x1="-0.25" y1="61.2" x2="72.25" y2="61.2"/><line class="cls-2" x1="-0.25" y1="46.8" x2="72.25" y2="46.8"/><line class="cls-2" x1="-0.25" y1="32.4" x2="72.25" y2="32.4"/><line class="cls-2" x1="-0.25" y1="18" x2="72.25" y2="18"/><line class="cls-2" x1="-0.25" y1="3.6" x2="72.25" y2="3.6"/><line class="cls-2" x1="-72.25" y1="68.4" x2="0.25" y2="68.4"/><line class="cls-2" x1="-72.25" y1="54" x2="0.25" y2="54"/><line class="cls-2" x1="-72.25" y1="39.6" x2="0.25" y2="39.6"/><line class="cls-2" x1="-72.25" y1="25.2" x2="0.25" y2="25.2"/><line class="cls-2" x1="-72.25" y1="10.8" x2="0.25" y2="10.8"/><line class="cls-2" x1="-72.25" y1="61.2" x2="0.25" y2="61.2"/><line class="cls-2" x1="-72.25" y1="46.8" x2="0.25" y2="46.8"/><line class="cls-2" x1="-72.25" y1="32.4" x2="0.25" y2="32.4"/><line class="cls-2" x1="-72.25" y1="18" x2="0.25" y2="18"/><line class="cls-2" x1="-72.25" y1="3.6" x2="0.25" y2="3.6"/></pattern><pattern id="_10_lpi_70_11" data-name="10 lpi 70%" width="72" height="72" patternTransform="translate(28.64 60.74) rotate(-45)" patternUnits="userSpaceOnUse" viewBox="0 0 72 72"><rect class="cls-1" width="72" height="72"/><line class="cls-2" x1="71.75" y1="68.4" x2="144.25" y2="68.4"/><line class="cls-2" x1="71.75" y1="54" x2="144.25" y2="54"/><line class="cls-2" x1="71.75" y1="39.6" x2="144.25" y2="39.6"/><line class="cls-2" x1="71.75" y1="25.2" x2="144.25" y2="25.2"/><line class="cls-2" x1="71.75" y1="10.8" x2="144.25" y2="10.8"/><line class="cls-2" x1="71.75" y1="61.2" x2="144.25" y2="61.2"/><line class="cls-2" x1="71.75" y1="46.8" x2="144.25" y2="46.8"/><line class="cls-2" x1="71.75" y1="32.4" x2="144.25" y2="32.4"/><line class="cls-2" x1="71.75" y1="18" x2="144.25" y2="18"/><line class="cls-2" x1="71.75" y1="3.6" x2="144.25" y2="3.6"/><line class="cls-2" x1="-0.25" y1="68.4" x2="72.25" y2="68.4"/><line class="cls-2" x1="-0.25" y1="54" x2="72.25" y2="54"/><line class="cls-2" x1="-0.25" y1="39.6" x2="72.25" y2="39.6"/><line class="cls-2" x1="-0.25" y1="25.2" x2="72.25" y2="25.2"/><line class="cls-2" x1="-0.25" y1="10.8" x2="72.25" y2="10.8"/><line class="cls-2" x1="-0.25" y1="61.2" x2="72.25" y2="61.2"/><line class="cls-2" x1="-0.25" y1="46.8" x2="72.25" y2="46.8"/><line class="cls-2" x1="-0.25" y1="32.4" x2="72.25" y2="32.4"/><line class="cls-2" x1="-0.25" y1="18" x2="72.25" y2="18"/><line class="cls-2" x1="-0.25" y1="3.6" x2="72.25" y2="3.6"/><line class="cls-2" x1="-72.25" y1="68.4" x2="0.25" y2="68.4"/><line class="cls-2" x1="-72.25" y1="54" x2="0.25" y2="54"/><line class="cls-2" x1="-72.25" y1="39.6" x2="0.25" y2="39.6"/><line class="cls-2" x1="-72.25" y1="25.2" x2="0.25" y2="25.2"/><line class="cls-2" x1="-72.25" y1="10.8" x2="0.25" y2="10.8"/><line class="cls-2" x1="-72.25" y1="61.2" x2="0.25" y2="61.2"/><line class="cls-2" x1="-72.25" y1="46.8" x2="0.25" y2="46.8"/><line class="cls-2" x1="-72.25" y1="32.4" x2="0.25" y2="32.4"/><line class="cls-2" x1="-72.25" y1="18" x2="0.25" y2="18"/><line class="cls-2" x1="-72.25" y1="3.6" x2="0.25" y2="3.6"/></pattern><pattern id="_10_lpi_70_13" data-name="10 lpi 70%" width="72" height="72" patternTransform="translate(11.02 22.68) rotate(-45)" patternUnits="userSpaceOnUse" viewBox="0 0 72 72"><rect class="cls-1" width="72" height="72"/><line class="cls-2" x1="71.75" y1="68.4" x2="144.25" y2="68.4"/><line class="cls-2" x1="71.75" y1="54" x2="144.25" y2="54"/><line class="cls-2" x1="71.75" y1="39.6" x2="144.25" y2="39.6"/><line class="cls-2" x1="71.75" y1="25.2" x2="144.25" y2="25.2"/><line class="cls-2" x1="71.75" y1="10.8" x2="144.25" y2="10.8"/><line class="cls-2" x1="71.75" y1="61.2" x2="144.25" y2="61.2"/><line class="cls-2" x1="71.75" y1="46.8" x2="144.25" y2="46.8"/><line class="cls-2" x1="71.75" y1="32.4" x2="144.25" y2="32.4"/><line class="cls-2" x1="71.75" y1="18" x2="144.25" y2="18"/><line class="cls-2" x1="71.75" y1="3.6" x2="144.25" y2="3.6"/><line class="cls-2" x1="-0.25" y1="68.4" x2="72.25" y2="68.4"/><line class="cls-2" x1="-0.25" y1="54" x2="72.25" y2="54"/><line class="cls-2" x1="-0.25" y1="39.6" x2="72.25" y2="39.6"/><line class="cls-2" x1="-0.25" y1="25.2" x2="72.25" y2="25.2"/><line class="cls-2" x1="-0.25" y1="10.8" x2="72.25" y2="10.8"/><line class="cls-2" x1="-0.25" y1="61.2" x2="72.25" y2="61.2"/><line class="cls-2" x1="-0.25" y1="46.8" x2="72.25" y2="46.8"/><line class="cls-2" x1="-0.25" y1="32.4" x2="72.25" y2="32.4"/><line class="cls-2" x1="-0.25" y1="18" x2="72.25" y2="18"/><line class="cls-2" x1="-0.25" y1="3.6" x2="72.25" y2="3.6"/><line class="cls-2" x1="-72.25" y1="68.4" x2="0.25" y2="68.4"/><line class="cls-2" x1="-72.25" y1="54" x2="0.25" y2="54"/><line class="cls-2" x1="-72.25" y1="39.6" x2="0.25" y2="39.6"/><line class="cls-2" x1="-72.25" y1="25.2" x2="0.25" y2="25.2"/><line class="cls-2" x1="-72.25" y1="10.8" x2="0.25" y2="10.8"/><line class="cls-2" x1="-72.25" y1="61.2" x2="0.25" y2="61.2"/><line class="cls-2" x1="-72.25" y1="46.8" x2="0.25" y2="46.8"/><line class="cls-2" x1="-72.25" y1="32.4" x2="0.25" y2="32.4"/><line class="cls-2" x1="-72.25" y1="18" x2="0.25" y2="18"/><line class="cls-2" x1="-72.25" y1="3.6" x2="0.25" y2="3.6"/></pattern><pattern id="_10_lpi_70_15" data-name="10 lpi 70%" width="72" height="72" patternTransform="translate(3.41 23) rotate(-45)" patternUnits="userSpaceOnUse" viewBox="0 0 72 72"><rect class="cls-1" width="72" height="72"/><line class="cls-2" x1="71.75" y1="68.4" x2="144.25" y2="68.4"/><line class="cls-2" x1="71.75" y1="54" x2="144.25" y2="54"/><line class="cls-2" x1="71.75" y1="39.6" x2="144.25" y2="39.6"/><line class="cls-2" x1="71.75" y1="25.2" x2="144.25" y2="25.2"/><line class="cls-2" x1="71.75" y1="10.8" x2="144.25" y2="10.8"/><line class="cls-2" x1="71.75" y1="61.2" x2="144.25" y2="61.2"/><line class="cls-2" x1="71.75" y1="46.8" x2="144.25" y2="46.8"/><line class="cls-2" x1="71.75" y1="32.4" x2="144.25" y2="32.4"/><line class="cls-2" x1="71.75" y1="18" x2="144.25" y2="18"/><line class="cls-2" x1="71.75" y1="3.6" x2="144.25" y2="3.6"/><line class="cls-2" x1="-0.25" y1="68.4" x2="72.25" y2="68.4"/><line class="cls-2" x1="-0.25" y1="54" x2="72.25" y2="54"/><line class="cls-2" x1="-0.25" y1="39.6" x2="72.25" y2="39.6"/><line class="cls-2" x1="-0.25" y1="25.2" x2="72.25" y2="25.2"/><line class="cls-2" x1="-0.25" y1="10.8" x2="72.25" y2="10.8"/><line class="cls-2" x1="-0.25" y1="61.2" x2="72.25" y2="61.2"/><line class="cls-2" x1="-0.25" y1="46.8" x2="72.25" y2="46.8"/><line class="cls-2" x1="-0.25" y1="32.4" x2="72.25" y2="32.4"/><line class="cls-2" x1="-0.25" y1="18" x2="72.25" y2="18"/><line class="cls-2" x1="-0.25" y1="3.6" x2="72.25" y2="3.6"/><line class="cls-2" x1="-72.25" y1="68.4" x2="0.25" y2="68.4"/><line class="cls-2" x1="-72.25" y1="54" x2="0.25" y2="54"/><line class="cls-2" x1="-72.25" y1="39.6" x2="0.25" y2="39.6"/><line class="cls-2" x1="-72.25" y1="25.2" x2="0.25" y2="25.2"/><line class="cls-2" x1="-72.25" y1="10.8" x2="0.25" y2="10.8"/><line class="cls-2" x1="-72.25" y1="61.2" x2="0.25" y2="61.2"/><line class="cls-2" x1="-72.25" y1="46.8" x2="0.25" y2="46.8"/><line class="cls-2" x1="-72.25" y1="32.4" x2="0.25" y2="32.4"/><line class="cls-2" x1="-72.25" y1="18" x2="0.25" y2="18"/><line class="cls-2" x1="-72.25" y1="3.6" x2="0.25" y2="3.6"/></pattern></defs><g id="Layer_2" data-name="Layer 2"><g id="Layer_1-2" data-name="Layer 1"><path class="cls-3" d="M178.08,270.43a33.3,33.3,0,0,1-8.54-1.22c-6.14-1.88-9.9-6-12.19-8.53-3.68-4.05-6-8.53-8.54-13.42-.52-1-1-2.79-1.3-3.37-1.8-.16-2-1.52-2.49-2.38a17.87,17.87,0,0,1-1.7-4.83c-.32-1.37-.22-1.42-.63-3.5-.58-2.92-.79-2.88-1.12-4.77a24.6,24.6,0,0,1-.26-6.15,8.69,8.69,0,0,1,1-3.82,3.53,3.53,0,0,1,2-1.91,3,3,0,0,1,1.75.05c-.19-1.27-.5-3.31-.9-5.83-.78-4.78-1.23-7.05-2-11.82a52.89,52.89,0,0,1-.9-7.53,38.9,38.9,0,0,1,1.33-8.54c.41-1.68.83-3,1.48-5.09a39.9,39.9,0,0,1,1.75-5,22.66,22.66,0,0,1,3.82-5.35c1.45-1.61,1.86-1.7,4-4,1.82-1.95,1.64-2,2.6-3s2.05-1.87,8.59-5.09c2.63-1.3,3.95-1.95,4.87-2.28a30.35,30.35,0,0,1,8-1.59,53.89,53.89,0,0,1,18.19,2,40.14,40.14,0,0,1,14.79,7.55c2.32,2,3.34,3.4,7.24,6.45,2.9,2.26,4,2.79,5.81,4.77a22.85,22.85,0,0,1,4.13,6.76,26.09,26.09,0,0,1,1.59,10.34,43.31,43.31,0,0,1-1.75,12.17c-.93,3.33-1.52,4-2.3,7.4a43.4,43.4,0,0,0-1.12,8.35,6.74,6.74,0,0,1,2.47,1.59,8.39,8.39,0,0,1,2.07,5.17,13.79,13.79,0,0,1-.24,4.61c-.26,1.24-.49,1.65-2.15,5.57-1,2.31-1.45,3.48-2.39,5.49-1.11,2.38-1.58,3.17-2.38,4a9.12,9.12,0,0,1-3,2,2.47,2.47,0,0,1-.32,1,2.12,2.12,0,0,1-1.2.95,2.63,2.63,0,0,1-1.88,0c-.54.36-.58.4-.9,1.14a11.49,11.49,0,0,1-.8,1.51,32.81,32.81,0,0,1-2.62,3.89c-1.48,1.84-1.63,1.46-3.74,3.74-1.06,1.16-1,1.19-3.58,4.22a16.19,16.19,0,0,1-2.46,2.54,12.68,12.68,0,0,1-3.26,1.83c-1.83.68-2.67.48-4.62,1.35l-1.35.64c-1.19.57-1.73.87-2.07,1a7.92,7.92,0,0,1-3.74.55C182.54,270,182.45,270.64,178.08,270.43Z"/><path class="cls-4" d="M178.08,270.43a33.3,33.3,0,0,1-8.54-1.22c-6.14-1.88-9.9-6-12.19-8.53-3.68-4.05-6-8.53-8.54-13.42-.52-1-1-2.79-1.3-3.37-1.8-.16-2-1.52-2.49-2.38a17.87,17.87,0,0,1-1.7-4.83c-.32-1.37-.22-1.42-.63-3.5-.58-2.92-.79-2.88-1.12-4.77a24.6,24.6,0,0,1-.26-6.15,8.69,8.69,0,0,1,1-3.82,3.53,3.53,0,0,1,2-1.91,3,3,0,0,1,1.75.05c-.19-1.27-.5-3.31-.9-5.83-.78-4.78-1.23-7.05-2-11.82a52.89,52.89,0,0,1-.9-7.53,38.9,38.9,0,0,1,1.33-8.54c.41-1.68.83-3,1.48-5.09a39.9,39.9,0,0,1,1.75-5,22.66,22.66,0,0,1,3.82-5.35c1.45-1.61,1.86-1.7,4-4,1.82-1.95,1.64-2,2.6-3s2.05-1.87,8.59-5.09c2.63-1.3,3.95-1.95,4.87-2.28a30.35,30.35,0,0,1,8-1.59,53.89,53.89,0,0,1,18.19,2,40.14,40.14,0,0,1,14.79,7.55c2.32,2,3.34,3.4,7.24,6.45,2.9,2.26,4,2.79,5.81,4.77a22.85,22.85,0,0,1,4.13,6.76,26.09,26.09,0,0,1,1.59,10.34,43.31,43.31,0,0,1-1.75,12.17c-.93,3.33-1.52,4-2.3,7.4a43.4,43.4,0,0,0-1.12,8.35,6.74,6.74,0,0,1,2.47,1.59,8.39,8.39,0,0,1,2.07,5.17,13.79,13.79,0,0,1-.24,4.61c-.26,1.24-.49,1.65-2.15,5.57-1,2.31-1.45,3.48-2.39,5.49-1.11,2.38-1.58,3.17-2.38,4a9.12,9.12,0,0,1-3,2,2.47,2.47,0,0,1-.32,1,2.12,2.12,0,0,1-1.2.95,2.63,2.63,0,0,1-1.88,0c-.54.36-.58.4-.9,1.14a11.49,11.49,0,0,1-.8,1.51,32.81,32.81,0,0,1-2.62,3.89c-1.48,1.84-1.63,1.46-3.74,3.74-1.06,1.16-1,1.19-3.58,4.22a16.19,16.19,0,0,1-2.46,2.54,12.68,12.68,0,0,1-3.26,1.83c-1.83.68-2.67.48-4.62,1.35l-1.35.64c-1.19.57-1.73.87-2.07,1a7.92,7.92,0,0,1-3.74.55C182.54,270,182.45,270.64,178.08,270.43Z"/><path class="cls-5" d="M178.08,270.43a33.3,33.3,0,0,1-8.54-1.22c-6.14-1.88-9.9-6-12.19-8.53-3.68-4.05-6-8.53-8.54-13.42-.52-1-1-2.79-1.3-3.37-1.8-.16-2-1.52-2.49-2.38a17.87,17.87,0,0,1-1.7-4.83c-.32-1.37-.22-1.42-.63-3.5-.58-2.92-.79-2.88-1.12-4.77a24.6,24.6,0,0,1-.26-6.15,8.69,8.69,0,0,1,1-3.82,3.53,3.53,0,0,1,2-1.91,3,3,0,0,1,1.75.05c-.19-1.27-.5-3.31-.9-5.83-.78-4.78-1.23-7.05-2-11.82a52.89,52.89,0,0,1-.9-7.53,38.9,38.9,0,0,1,1.33-8.54c.41-1.68.83-3,1.48-5.09a39.9,39.9,0,0,1,1.75-5,22.66,22.66,0,0,1,3.82-5.35c1.45-1.61,1.86-1.7,4-4,1.82-1.95,1.64-2,2.6-3s2.05-1.87,8.59-5.09c2.63-1.3,3.95-1.95,4.87-2.28a30.35,30.35,0,0,1,8-1.59,53.89,53.89,0,0,1,18.19,2,40.14,40.14,0,0,1,14.79,7.55c2.32,2,3.34,3.4,7.24,6.45,2.9,2.26,4,2.79,5.81,4.77a22.85,22.85,0,0,1,4.13,6.76,26.09,26.09,0,0,1,1.59,10.34,43.31,43.31,0,0,1-1.75,12.17c-.93,3.33-1.52,4-2.3,7.4a43.4,43.4,0,0,0-1.12,8.35,6.74,6.74,0,0,1,2.47,1.59,8.39,8.39,0,0,1,2.07,5.17,13.79,13.79,0,0,1-.24,4.61c-.26,1.24-.49,1.65-2.15,5.57-1,2.31-1.45,3.48-2.39,5.49-1.11,2.38-1.58,3.17-2.38,4a9.12,9.12,0,0,1-3,2,2.47,2.47,0,0,1-.32,1,2.12,2.12,0,0,1-1.2.95,2.63,2.63,0,0,1-1.88,0c-.54.36-.58.4-.9,1.14a11.49,11.49,0,0,1-.8,1.51,32.81,32.81,0,0,1-2.62,3.89c-1.48,1.84-1.63,1.46-3.74,3.74-1.06,1.16-1,1.19-3.58,4.22a16.19,16.19,0,0,1-2.46,2.54,12.68,12.68,0,0,1-3.26,1.83c-1.83.68-2.67.48-4.62,1.35l-1.35.64c-1.19.57-1.73.87-2.07,1a7.92,7.92,0,0,1-3.74.55C182.54,270,182.45,270.64,178.08,270.43Z"/><path class="cls-3" d="M233.48,455.39a20,20,0,0,0,1.62-4.14,22.26,22.26,0,0,0,.46-8.63c0-.19.09.75.57-19.23.23-9.46.26-11.88.12-15.54,0-.64-.15-3.55-.46-7.48-.56-6.93-1.25-10.93-1.84-15.54a140.64,140.64,0,0,1-1.5-18.18,101.12,101.12,0,0,1,2.19-21.76,72.29,72.29,0,0,1,4.83-15.77,49.33,49.33,0,0,1,9.78-15.31A44.23,44.23,0,0,1,260,305.64c4.06-2.19,7.2-3,12.78-4.49a31.76,31.76,0,0,1,8.52-1.15,11.74,11.74,0,0,1,5.87,1.26,10.8,10.8,0,0,1,2.3,1.73,36.55,36.55,0,0,1,4.95,1.27,28.53,28.53,0,0,1,10,5.29,25.77,25.77,0,0,1,5.76,7.48c2.84,4.93,3.85,9.18,5.41,15.66a56.48,56.48,0,0,1,1.84,10.24,67.12,67.12,0,0,1-.46,11.51c-.18,2-.57,5.78-1.38,10.71a115.53,115.53,0,0,1-3.11,14.39c-1.15,3.95-2.23,6.75-3.22,9.32-2.26,5.83-3.44,8.8-5.76,11.4-1.36,1.52-1.83,1.6-4.26,4.26-1.95,2.13-2.38,2.88-4.6,5.29a26.54,26.54,0,0,1-4.15,4,15.33,15.33,0,0,1-6.56,2.53,16.39,16.39,0,0,1-8.63-1.38c-3.13-1.26-5.06-2.89-7.71-5.18-1.95-1.68-3.44-3.2-10.48-11.28l-3.8-4.37c1.59,5.48,2.84,10,3.69,13.12,1.79,6.58,2.41,9.21,4.49,16.69,1.7,6.14,2.56,9.25,3.22,11,1.52,4.19,2.56,6.05,3.57,10.25a37.9,37.9,0,0,1,1.15,7.48A33.92,33.92,0,0,1,268,463.8l-5.3-5.07-9.32,3L246.72,459l-6,2.19Z"/><path class="cls-6" d="M233.48,455.39a20,20,0,0,0,1.62-4.14,22.26,22.26,0,0,0,.46-8.63c0-.19.09.75.57-19.23.23-9.46.26-11.88.12-15.54,0-.64-.15-3.55-.46-7.48-.56-6.93-1.25-10.93-1.84-15.54a140.64,140.64,0,0,1-1.5-18.18,101.12,101.12,0,0,1,2.19-21.76,72.29,72.29,0,0,1,4.83-15.77,49.33,49.33,0,0,1,9.78-15.31A44.23,44.23,0,0,1,260,305.64c4.06-2.19,7.2-3,12.78-4.49a31.76,31.76,0,0,1,8.52-1.15,11.74,11.74,0,0,1,5.87,1.26,10.8,10.8,0,0,1,2.3,1.73,36.55,36.55,0,0,1,4.95,1.27,28.53,28.53,0,0,1,10,5.29,25.77,25.77,0,0,1,5.76,7.48c2.84,4.93,3.85,9.18,5.41,15.66a56.48,56.48,0,0,1,1.84,10.24,67.12,67.12,0,0,1-.46,11.51c-.18,2-.57,5.78-1.38,10.71a115.53,115.53,0,0,1-3.11,14.39c-1.15,3.95-2.23,6.75-3.22,9.32-2.26,5.83-3.44,8.8-5.76,11.4-1.36,1.52-1.83,1.6-4.26,4.26-1.95,2.13-2.38,2.88-4.6,5.29a26.54,26.54,0,0,1-4.15,4,15.33,15.33,0,0,1-6.56,2.53,16.39,16.39,0,0,1-8.63-1.38c-3.13-1.26-5.06-2.89-7.71-5.18-1.95-1.68-3.44-3.2-10.48-11.28l-3.8-4.37c1.59,5.48,2.84,10,3.69,13.12,1.79,6.58,2.41,9.21,4.49,16.69,1.7,6.14,2.56,9.25,3.22,11,1.52,4.19,2.56,6.05,3.57,10.25a37.9,37.9,0,0,1,1.15,7.48A33.92,33.92,0,0,1,268,463.8l-5.3-5.07-9.32,3L246.72,459l-6,2.19Z"/><path class="cls-5" d="M233.48,455.39a20,20,0,0,0,1.62-4.14,22.26,22.26,0,0,0,.46-8.63c0-.19.09.75.57-19.23.23-9.46.26-11.88.12-15.54,0-.64-.15-3.55-.46-7.48-.56-6.93-1.25-10.93-1.84-15.54a140.64,140.64,0,0,1-1.5-18.18,101.12,101.12,0,0,1,2.19-21.76,72.29,72.29,0,0,1,4.83-15.77,49.33,49.33,0,0,1,9.78-15.31A44.23,44.23,0,0,1,260,305.64c4.06-2.19,7.2-3,12.78-4.49a31.76,31.76,0,0,1,8.52-1.15,11.74,11.74,0,0,1,5.87,1.26,10.8,10.8,0,0,1,2.3,1.73,36.55,36.55,0,0,1,4.95,1.27,28.53,28.53,0,0,1,10,5.29,25.77,25.77,0,0,1,5.76,7.48c2.84,4.93,3.85,9.18,5.41,15.66a56.48,56.48,0,0,1,1.84,10.24,67.12,67.12,0,0,1-.46,11.51c-.18,2-.57,5.78-1.38,10.71a115.53,115.53,0,0,1-3.11,14.39c-1.15,3.95-2.23,6.75-3.22,9.32-2.26,5.83-3.44,8.8-5.76,11.4-1.36,1.52-1.83,1.6-4.26,4.26-1.95,2.13-2.38,2.88-4.6,5.29a26.54,26.54,0,0,1-4.15,4,15.33,15.33,0,0,1-6.56,2.53,16.39,16.39,0,0,1-8.63-1.38c-3.13-1.26-5.06-2.89-7.71-5.18-1.95-1.68-3.44-3.2-10.48-11.28l-3.8-4.37c1.59,5.48,2.84,10,3.69,13.12,1.79,6.58,2.41,9.21,4.49,16.69,1.7,6.14,2.56,9.25,3.22,11,1.52,4.19,2.56,6.05,3.57,10.25a37.9,37.9,0,0,1,1.15,7.48A33.92,33.92,0,0,1,268,463.8l-5.3-5.07-9.32,3L246.72,459l-6,2.19Z"/><path class="cls-3" d="M492,461.41a27.65,27.65,0,0,1-3.32-.17,14.23,14.23,0,0,1-1.71-.29,12.29,12.29,0,0,1-2.64-1c-4.61-2.28-3.79-1.64-7.14-3.49-2.59-1.43-4.59-2.53-7.21-4.29-3.86-2.59-5.79-3.88-6.86-5.66-.33-.55-1-2.39-2.46-6.06a19.85,19.85,0,0,1-1.2-3.61c-.34-1.69-.16-2.41-.46-4.92-.16-1.35-.29-1.78-.52-3.14a56.77,56.77,0,0,1-.68-6.75,3.4,3.4,0,0,1-1-.11,3.58,3.58,0,0,1-1.4-.75,4.8,4.8,0,0,1-1.37-2.48,7.45,7.45,0,0,1-.4-2.82c.11-1.64.74-1.81.88-3.5a18.74,18.74,0,0,0-.23-2.69c-.27-2.33-.46-2.63-.34-3.66,0-.38.13-.88.17-1.72,0-.58,0-1.05,0-1.37-.41-.68-.92-1.56-1.43-2.63a30.83,30.83,0,0,1-1.66-4.18,21.06,21.06,0,0,1-1.09-5.37,11.37,11.37,0,0,1,.75-5.66,20,20,0,0,1,1.54-2.41c1.4-2.45,1-4.71,1-7.32a31.67,31.67,0,0,1,1.78-9.2,25.76,25.76,0,0,1,5.6-9.15c4.61-5.1,9.81-7.14,13.44-8.53a42.52,42.52,0,0,1,16-2.74,29.66,29.66,0,0,1,6.4-.46,30.12,30.12,0,0,1,7.89,1.37,33.56,33.56,0,0,1,6.52,2.92,43.87,43.87,0,0,1,5.55,3.6,7.52,7.52,0,0,1,6.69,3.15,8.34,8.34,0,0,1,1.09,6.63,9.06,9.06,0,0,1-1,2.58,18.48,18.48,0,0,1,8.37,3.41c5.91,4.39,7.13,11,7.47,12.89,1.71,9.28-3,18.28-3.35,18.91a3.14,3.14,0,0,0-.38.87,6.16,6.16,0,0,0,.07,2.36c0,1.08-.49,2-1.53,3.78-.5.85-.53.76-1,1.49a15.91,15.91,0,0,0-1.41,3.58,29.69,29.69,0,0,0-1.22,5.3c-.08.67-.11,1.1-.27,2.21-.21,1.5-.28,1.55-.41,2.67a12.58,12.58,0,0,1-.31,2.33,6.13,6.13,0,0,1-.88,1.79,4.62,4.62,0,0,1-1.75,1.6,2.64,2.64,0,0,1-1.37.38,2.56,2.56,0,0,1-1.38-.45,25,25,0,0,1-.72,4.07,26.14,26.14,0,0,1-.95,2.94,34.15,34.15,0,0,1-3.78,7c-.64,1-.63.87-3.43,4.52-3.87,5.05-3.87,5.18-4.8,6.17a26,26,0,0,1-5.89,4.86,20.72,20.72,0,0,1-7.55,2.92A32.57,32.57,0,0,1,492,461.41Z"/><path class="cls-7" d="M492,461.41a27.65,27.65,0,0,1-3.32-.17,14.23,14.23,0,0,1-1.71-.29,12.29,12.29,0,0,1-2.64-1c-4.61-2.28-3.79-1.64-7.14-3.49-2.59-1.43-4.59-2.53-7.21-4.29-3.86-2.59-5.79-3.88-6.86-5.66-.33-.55-1-2.39-2.46-6.06a19.85,19.85,0,0,1-1.2-3.61c-.34-1.69-.16-2.41-.46-4.92-.16-1.35-.29-1.78-.52-3.14a56.77,56.77,0,0,1-.68-6.75,3.4,3.4,0,0,1-1-.11,3.58,3.58,0,0,1-1.4-.75,4.8,4.8,0,0,1-1.37-2.48,7.45,7.45,0,0,1-.4-2.82c.11-1.64.74-1.81.88-3.5a18.74,18.74,0,0,0-.23-2.69c-.27-2.33-.46-2.63-.34-3.66,0-.38.13-.88.17-1.72,0-.58,0-1.05,0-1.37-.41-.68-.92-1.56-1.43-2.63a30.83,30.83,0,0,1-1.66-4.18,21.06,21.06,0,0,1-1.09-5.37,11.37,11.37,0,0,1,.75-5.66,20,20,0,0,1,1.54-2.41c1.4-2.45,1-4.71,1-7.32a31.67,31.67,0,0,1,1.78-9.2,25.76,25.76,0,0,1,5.6-9.15c4.61-5.1,9.81-7.14,13.44-8.53a42.52,42.52,0,0,1,16-2.74,29.66,29.66,0,0,1,6.4-.46,30.12,30.12,0,0,1,7.89,1.37,33.56,33.56,0,0,1,6.52,2.92,43.87,43.87,0,0,1,5.55,3.6,7.52,7.52,0,0,1,6.69,3.15,8.34,8.34,0,0,1,1.09,6.63,9.06,9.06,0,0,1-1,2.58,18.48,18.48,0,0,1,8.37,3.41c5.91,4.39,7.13,11,7.47,12.89,1.71,9.28-3,18.28-3.35,18.91a3.14,3.14,0,0,0-.38.87,6.16,6.16,0,0,0,.07,2.36c0,1.08-.49,2-1.53,3.78-.5.85-.53.76-1,1.49a15.91,15.91,0,0,0-1.41,3.58,29.69,29.69,0,0,0-1.22,5.3c-.08.67-.11,1.1-.27,2.21-.21,1.5-.28,1.55-.41,2.67a12.58,12.58,0,0,1-.31,2.33,6.13,6.13,0,0,1-.88,1.79,4.62,4.62,0,0,1-1.75,1.6,2.64,2.64,0,0,1-1.37.38,2.56,2.56,0,0,1-1.38-.45,25,25,0,0,1-.72,4.07,26.14,26.14,0,0,1-.95,2.94,34.15,34.15,0,0,1-3.78,7c-.64,1-.63.87-3.43,4.52-3.87,5.05-3.87,5.18-4.8,6.17a26,26,0,0,1-5.89,4.86,20.72,20.72,0,0,1-7.55,2.92A32.57,32.57,0,0,1,492,461.41Z"/><path class="cls-5" d="M492,461.41a27.65,27.65,0,0,1-3.32-.17,14.23,14.23,0,0,1-1.71-.29,12.29,12.29,0,0,1-2.64-1c-4.61-2.28-3.79-1.64-7.14-3.49-2.59-1.43-4.59-2.53-7.21-4.29-3.86-2.59-5.79-3.88-6.86-5.66-.33-.55-1-2.39-2.46-6.06a19.85,19.85,0,0,1-1.2-3.61c-.34-1.69-.16-2.41-.46-4.92-.16-1.35-.29-1.78-.52-3.14a56.77,56.77,0,0,1-.68-6.75,3.4,3.4,0,0,1-1-.11,3.58,3.58,0,0,1-1.4-.75,4.8,4.8,0,0,1-1.37-2.48,7.45,7.45,0,0,1-.4-2.82c.11-1.64.74-1.81.88-3.5a18.74,18.74,0,0,0-.23-2.69c-.27-2.33-.46-2.63-.34-3.66,0-.38.13-.88.17-1.72,0-.58,0-1.05,0-1.37-.41-.68-.92-1.56-1.43-2.63a30.83,30.83,0,0,1-1.66-4.18,21.06,21.06,0,0,1-1.09-5.37,11.37,11.37,0,0,1,.75-5.66,20,20,0,0,1,1.54-2.41c1.4-2.45,1-4.71,1-7.32a31.67,31.67,0,0,1,1.78-9.2,25.76,25.76,0,0,1,5.6-9.15c4.61-5.1,9.81-7.14,13.44-8.53a42.52,42.52,0,0,1,16-2.74,29.66,29.66,0,0,1,6.4-.46,30.12,30.12,0,0,1,7.89,1.37,33.56,33.56,0,0,1,6.52,2.92,43.87,43.87,0,0,1,5.55,3.6,7.52,7.52,0,0,1,6.69,3.15,8.34,8.34,0,0,1,1.09,6.63,9.06,9.06,0,0,1-1,2.58,18.48,18.48,0,0,1,8.37,3.41c5.91,4.39,7.13,11,7.47,12.89,1.71,9.28-3,18.28-3.35,18.91a3.14,3.14,0,0,0-.38.87,6.16,6.16,0,0,0,.07,2.36c0,1.08-.49,2-1.53,3.78-.5.85-.53.76-1,1.49a15.91,15.91,0,0,0-1.41,3.58,29.69,29.69,0,0,0-1.22,5.3c-.08.67-.11,1.1-.27,2.21-.21,1.5-.28,1.55-.41,2.67a12.58,12.58,0,0,1-.31,2.33,6.13,6.13,0,0,1-.88,1.79,4.62,4.62,0,0,1-1.75,1.6,2.64,2.64,0,0,1-1.37.38,2.56,2.56,0,0,1-1.38-.45,25,25,0,0,1-.72,4.07,26.14,26.14,0,0,1-.95,2.94,34.15,34.15,0,0,1-3.78,7c-.64,1-.63.87-3.43,4.52-3.87,5.05-3.87,5.18-4.8,6.17a26,26,0,0,1-5.89,4.86,20.72,20.72,0,0,1-7.55,2.92A32.57,32.57,0,0,1,492,461.41Z"/><path class="cls-3" d="M532.36,159.84a20.72,20.72,0,0,1-6.26-.77c-1.49-.49-2.69-1.42-5.11-3.28a30,30,0,0,1-4.53-4,26.29,26.29,0,0,1-3.37-4.62c-.3-.51-.52-.94-.68-1.26l-.12,1.79a12.83,12.83,0,0,1-3.2-3.16,8.88,8.88,0,0,1-2.1-4.91,7.29,7.29,0,0,0-.19-2.22,9.21,9.21,0,0,0-1-2.07s-.19-.34-1.28-2.41c-.56-1.08-.72-1.73-1.85-6-1-3.88-1.07-3.92-1.16-4.43a26.94,26.94,0,0,1-.43-5.2,8.65,8.65,0,0,1-3.67-1.16,8.11,8.11,0,0,1-1.2-.87,12.25,12.25,0,0,0-1.11,3.91,12.73,12.73,0,0,0,.19,4,24.93,24.93,0,0,1-2.55-4.87,20.85,20.85,0,0,1-1.35-5,20.14,20.14,0,0,1,.24-6.7,16.26,16.26,0,0,1-1-6.94,26.38,26.38,0,0,1,1.25-5.69,13.37,13.37,0,0,0,.87-2.55,8.31,8.31,0,0,0-1-5.3c-.81-1.39-1.29-1.18-1.84-2.37a7.2,7.2,0,0,1-.09-4.67,14.68,14.68,0,0,1,2.65-5.74,7.17,7.17,0,0,0-4.1,6.27,16.91,16.91,0,0,1,4.53-13.69,19.57,19.57,0,0,1,1.21-4.58,22.82,22.82,0,0,1,4.19-6.5,41.16,41.16,0,0,1,6-5.83,29.63,29.63,0,0,1,7.09-4.73A23.32,23.32,0,0,1,520,42.3a33.85,33.85,0,0,1,6.07-1.88,20.46,20.46,0,0,1,5.88-.68A17.18,17.18,0,0,1,540,42.3a16.45,16.45,0,0,1,2,1.44,6.39,6.39,0,0,1,1.74-3.52,7.16,7.16,0,0,1,4.14-1.73,17.47,17.47,0,0,1,7.76.82,30.11,30.11,0,0,1,8.2,3.85,34.73,34.73,0,0,1,7,6.41c3.8,4.55,5.5,8.83,7.12,12.89a36.8,36.8,0,0,1,1.74,5.46,35.35,35.35,0,0,1,.77,5.2,4.09,4.09,0,0,1,1.67,1.8,4,4,0,0,1,.32,1.48c0,1.16-.45,1.35-.39,2.25s.52.81.9,2.06a6.05,6.05,0,0,1,.26,2.31c-.12,1.41-.66,1.59-.45,2.25.34,1.08,1.87.88,2.25,2.06.19.58-.14.78,0,1.79a5,5,0,0,0,.58,1.68c1.09,2.31-.88,4.16.25,6.1.57,1,1.28.87,2.06,2.31a6.14,6.14,0,0,1,.64,1.8l-1.41.64a4.43,4.43,0,0,1,1.54,2.77,9.07,9.07,0,0,1-.38,2.7c-.32,1.43-.43,1.36-.52,2a10.63,10.63,0,0,0,.39,3.47,32.11,32.11,0,0,1,.38,3.28A3.89,3.89,0,0,1,587,115a4,4,0,0,1-1-1.41,17.13,17.13,0,0,1-2.25,5.91,16.89,16.89,0,0,1-3,3.6,11.34,11.34,0,0,1-1,3.79,11.21,11.21,0,0,1-1.67,2.63c.05,1,.14,2.52.25,4.44.25,4,.32,4.49.13,5.52a8.35,8.35,0,0,1-2.89,5.34,7.42,7.42,0,0,1-4.11,1.47,4.8,4.8,0,0,0,1.93-2,4.45,4.45,0,0,0,.38-1.09,5.13,5.13,0,0,1-3.6.39,4.78,4.78,0,0,1-2.44-1.55c-.32-.39-.56-.84-1.15-3.08-.28-1.06-.52-2.05-.71-3a29.25,29.25,0,0,1-2.19,5.72,28.2,28.2,0,0,1-3.92,5.85,26.68,26.68,0,0,1-4.49,4,40.49,40.49,0,0,1-6.69,3.8,48.08,48.08,0,0,1-6.55,2.82,29.79,29.79,0,0,1-7.84,1.61C534.08,159.82,533.35,159.85,532.36,159.84Z"/><path class="cls-8" d="M532.36,159.84a20.72,20.72,0,0,1-6.26-.77c-1.49-.49-2.69-1.42-5.11-3.28a30,30,0,0,1-4.53-4,26.29,26.29,0,0,1-3.37-4.62c-.3-.51-.52-.94-.68-1.26l-.12,1.79a12.83,12.83,0,0,1-3.2-3.16,8.88,8.88,0,0,1-2.1-4.91,7.29,7.29,0,0,0-.19-2.22,9.21,9.21,0,0,0-1-2.07s-.19-.34-1.28-2.41c-.56-1.08-.72-1.73-1.85-6-1-3.88-1.07-3.92-1.16-4.43a26.94,26.94,0,0,1-.43-5.2,8.65,8.65,0,0,1-3.67-1.16,8.11,8.11,0,0,1-1.2-.87,12.25,12.25,0,0,0-1.11,3.91,12.73,12.73,0,0,0,.19,4,24.93,24.93,0,0,1-2.55-4.87,20.85,20.85,0,0,1-1.35-5,20.14,20.14,0,0,1,.24-6.7,16.26,16.26,0,0,1-1-6.94,26.38,26.38,0,0,1,1.25-5.69,13.37,13.37,0,0,0,.87-2.55,8.31,8.31,0,0,0-1-5.3c-.81-1.39-1.29-1.18-1.84-2.37a7.2,7.2,0,0,1-.09-4.67,14.68,14.68,0,0,1,2.65-5.74,7.17,7.17,0,0,0-4.1,6.27,16.91,16.91,0,0,1,4.53-13.69,19.57,19.57,0,0,1,1.21-4.58,22.82,22.82,0,0,1,4.19-6.5,41.16,41.16,0,0,1,6-5.83,29.63,29.63,0,0,1,7.09-4.73A23.32,23.32,0,0,1,520,42.3a33.85,33.85,0,0,1,6.07-1.88,20.46,20.46,0,0,1,5.88-.68A17.18,17.18,0,0,1,540,42.3a16.45,16.45,0,0,1,2,1.44,6.39,6.39,0,0,1,1.74-3.52,7.16,7.16,0,0,1,4.14-1.73,17.47,17.47,0,0,1,7.76.82,30.11,30.11,0,0,1,8.2,3.85,34.73,34.73,0,0,1,7,6.41c3.8,4.55,5.5,8.83,7.12,12.89a36.8,36.8,0,0,1,1.74,5.46,35.35,35.35,0,0,1,.77,5.2,4.09,4.09,0,0,1,1.67,1.8,4,4,0,0,1,.32,1.48c0,1.16-.45,1.35-.39,2.25s.52.81.9,2.06a6.05,6.05,0,0,1,.26,2.31c-.12,1.41-.66,1.59-.45,2.25.34,1.08,1.87.88,2.25,2.06.19.58-.14.78,0,1.79a5,5,0,0,0,.58,1.68c1.09,2.31-.88,4.16.25,6.1.57,1,1.28.87,2.06,2.31a6.14,6.14,0,0,1,.64,1.8l-1.41.64a4.43,4.43,0,0,1,1.54,2.77,9.07,9.07,0,0,1-.38,2.7c-.32,1.43-.43,1.36-.52,2a10.63,10.63,0,0,0,.39,3.47,32.11,32.11,0,0,1,.38,3.28A3.89,3.89,0,0,1,587,115a4,4,0,0,1-1-1.41,17.13,17.13,0,0,1-2.25,5.91,16.89,16.89,0,0,1-3,3.6,11.34,11.34,0,0,1-1,3.79,11.21,11.21,0,0,1-1.67,2.63c.05,1,.14,2.52.25,4.44.25,4,.32,4.49.13,5.52a8.35,8.35,0,0,1-2.89,5.34,7.42,7.42,0,0,1-4.11,1.47,4.8,4.8,0,0,0,1.93-2,4.45,4.45,0,0,0,.38-1.09,5.13,5.13,0,0,1-3.6.39,4.78,4.78,0,0,1-2.44-1.55c-.32-.39-.56-.84-1.15-3.08-.28-1.06-.52-2.05-.71-3a29.25,29.25,0,0,1-2.19,5.72,28.2,28.2,0,0,1-3.92,5.85,26.68,26.68,0,0,1-4.49,4,40.49,40.49,0,0,1-6.69,3.8,48.08,48.08,0,0,1-6.55,2.82,29.79,29.79,0,0,1-7.84,1.61C534.08,159.82,533.35,159.85,532.36,159.84Z"/><path class="cls-5" d="M532.36,159.84a20.72,20.72,0,0,1-6.26-.77c-1.49-.49-2.69-1.42-5.11-3.28a30,30,0,0,1-4.53-4,26.29,26.29,0,0,1-3.37-4.62c-.3-.51-.52-.94-.68-1.26l-.12,1.79a12.83,12.83,0,0,1-3.2-3.16,8.88,8.88,0,0,1-2.1-4.91,7.29,7.29,0,0,0-.19-2.22,9.21,9.21,0,0,0-1-2.07s-.19-.34-1.28-2.41c-.56-1.08-.72-1.73-1.85-6-1-3.88-1.07-3.92-1.16-4.43a26.94,26.94,0,0,1-.43-5.2,8.65,8.65,0,0,1-3.67-1.16,8.11,8.11,0,0,1-1.2-.87,12.25,12.25,0,0,0-1.11,3.91,12.73,12.73,0,0,0,.19,4,24.93,24.93,0,0,1-2.55-4.87,20.85,20.85,0,0,1-1.35-5,20.14,20.14,0,0,1,.24-6.7,16.26,16.26,0,0,1-1-6.94,26.38,26.38,0,0,1,1.25-5.69,13.37,13.37,0,0,0,.87-2.55,8.31,8.31,0,0,0-1-5.3c-.81-1.39-1.29-1.18-1.84-2.37a7.2,7.2,0,0,1-.09-4.67,14.68,14.68,0,0,1,2.65-5.74,7.17,7.17,0,0,0-4.1,6.27,16.91,16.91,0,0,1,4.53-13.69,19.57,19.57,0,0,1,1.21-4.58,22.82,22.82,0,0,1,4.19-6.5,41.16,41.16,0,0,1,6-5.83,29.63,29.63,0,0,1,7.09-4.73A23.32,23.32,0,0,1,520,42.3a33.85,33.85,0,0,1,6.07-1.88,20.46,20.46,0,0,1,5.88-.68A17.18,17.18,0,0,1,540,42.3a16.45,16.45,0,0,1,2,1.44,6.39,6.39,0,0,1,1.74-3.52,7.16,7.16,0,0,1,4.14-1.73,17.47,17.47,0,0,1,7.76.82,30.11,30.11,0,0,1,8.2,3.85,34.73,34.73,0,0,1,7,6.41c3.8,4.55,5.5,8.83,7.12,12.89a36.8,36.8,0,0,1,1.74,5.46,35.35,35.35,0,0,1,.77,5.2,4.09,4.09,0,0,1,1.67,1.8,4,4,0,0,1,.32,1.48c0,1.16-.45,1.35-.39,2.25s.52.81.9,2.06a6.05,6.05,0,0,1,.26,2.31c-.12,1.41-.66,1.59-.45,2.25.34,1.08,1.87.88,2.25,2.06.19.58-.14.78,0,1.79a5,5,0,0,0,.58,1.68c1.09,2.31-.88,4.16.25,6.1.57,1,1.28.87,2.06,2.31a6.14,6.14,0,0,1,.64,1.8l-1.41.64a4.43,4.43,0,0,1,1.54,2.77,9.07,9.07,0,0,1-.38,2.7c-.32,1.43-.43,1.36-.52,2a10.63,10.63,0,0,0,.39,3.47,32.11,32.11,0,0,1,.38,3.28A3.89,3.89,0,0,1,587,115a4,4,0,0,1-1-1.41,17.13,17.13,0,0,1-2.25,5.91,16.89,16.89,0,0,1-3,3.6,11.34,11.34,0,0,1-1,3.79,11.21,11.21,0,0,1-1.67,2.63c.05,1,.14,2.52.25,4.44.25,4,.32,4.49.13,5.52a8.35,8.35,0,0,1-2.89,5.34,7.42,7.42,0,0,1-4.11,1.47,4.8,4.8,0,0,0,1.93-2,4.45,4.45,0,0,0,.38-1.09,5.13,5.13,0,0,1-3.6.39,4.78,4.78,0,0,1-2.44-1.55c-.32-.39-.56-.84-1.15-3.08-.28-1.06-.52-2.05-.71-3a29.25,29.25,0,0,1-2.19,5.72,28.2,28.2,0,0,1-3.92,5.85,26.68,26.68,0,0,1-4.49,4,40.49,40.49,0,0,1-6.69,3.8,48.08,48.08,0,0,1-6.55,2.82,29.79,29.79,0,0,1-7.84,1.61C534.08,159.82,533.35,159.85,532.36,159.84Z"/><path class="cls-3" d="M402.48,311.63a30,30,0,0,1-6.16-.7,27.23,27.23,0,0,1-8.82-3.5c-4.52-2.84-6.92-6.45-9.52-10.36a54.31,54.31,0,0,1-3.78-6.72A62,62,0,0,1,369,273.56a2,2,0,0,1-1-.15c-.2-.1-.71-.4-1.23-1.89a20.7,20.7,0,0,1-.63-2.86,8.26,8.26,0,0,0-.45-1.84c-.41-.86-.77-.84-1.36-1.68a6.86,6.86,0,0,1-1.08-3.15,12.4,12.4,0,0,0-.21-2.18,16.93,16.93,0,0,0-.71-1.68c-.42-1.21-.05-1.49-.31-3.07a17.17,17.17,0,0,0-.84-2.83,6.12,6.12,0,0,1-.66-2.5,3.28,3.28,0,0,1,.58-1.75,2.63,2.63,0,0,1,1.1-.95,3,3,0,0,1,3.1,1.26,20.72,20.72,0,0,1-.68-3,23.9,23.9,0,0,1-.24-3.67c0-5-.06-7.59-.18-8.9s-.17-1.92-.29-3.38a20.92,20.92,0,0,1-.13-3,19.33,19.33,0,0,1,.31-2.62,14.83,14.83,0,0,1,.79-3.5c.43-1,.61-.9,1-1.91a15.71,15.71,0,0,0,.81-3.54,15.79,15.79,0,0,1,1.21-4,19.48,19.48,0,0,1,1.73-2.65,24.42,24.42,0,0,1,2.18-2.78,19.52,19.52,0,0,1,2.81-2.41c1.46-1.11,1.61-1,3.36-2.26,2.28-1.63,2.17-1.87,3.23-2.34a11.59,11.59,0,0,1,4.17-.71c2.47-.16,2.58.1,4.43,0,.83-.06,2.48-.43,5.75-1.16,2.86-.64,3.52-.81,5-1,1.61-.23,2.84-.31,3.39-.34a19,19,0,0,1,4.93.1c2.33.45,2,1.14,4.6,1.76s3.24.09,4.9,1c1.18.65,1,1,2.39,1.86s2.49.94,4.15,1.5c1.92.64,1.6.95,4.77,2.54,3.7,1.86,4.52,1.63,6.43,3.21a11.55,11.55,0,0,1,2.52,2.73c.79,1.19.72,1.57,1.58,3,1.46,2.5,2.15,2.2,2.39,3.39.42,2.07-1.74,2.81-1.47,5.51.12,1.22.62,1.6.44,2.88a18.06,18.06,0,0,1-.89,2.52c-.25,1-.06,1.4.13,3.44.16,1.64.18,3,.21,5.78,0,1.33,0,2.46,0,3,0,1.27,0,1.83-.08,3.39,0,.78,0,1.92-.05,3.33a4.77,4.77,0,0,1,1.94-1.26,3.41,3.41,0,0,1,2.73,0c.44.25.9.73,1.32,2.23s.42,2.86.13,6.66c-.17,2.11-.25,3.16-.37,4a34.16,34.16,0,0,1-1.18,5,20.1,20.1,0,0,1-2.1,4.93c-.59.94-.41.44-1.94,2.55-.54.74-.86,1.2-1.5,1.44a2.36,2.36,0,0,1-1.63,0,2.2,2.2,0,0,1-1-.79c-.19,1.06-.45,2.54-.79,4.31-.43,2.17-.88,4.5-1.55,7.11a60,60,0,0,1-2,6.48,40.48,40.48,0,0,1-6.22,10.76,30.83,30.83,0,0,1-9.34,8.5A29.38,29.38,0,0,1,402.48,311.63Z"/><path class="cls-9" d="M402.48,311.63a30,30,0,0,1-6.16-.7,27.23,27.23,0,0,1-8.82-3.5c-4.52-2.84-6.92-6.45-9.52-10.36a54.31,54.31,0,0,1-3.78-6.72A62,62,0,0,1,369,273.56a2,2,0,0,1-1-.15c-.2-.1-.71-.4-1.23-1.89a20.7,20.7,0,0,1-.63-2.86,8.26,8.26,0,0,0-.45-1.84c-.41-.86-.77-.84-1.36-1.68a6.86,6.86,0,0,1-1.08-3.15,12.4,12.4,0,0,0-.21-2.18,16.93,16.93,0,0,0-.71-1.68c-.42-1.21-.05-1.49-.31-3.07a17.17,17.17,0,0,0-.84-2.83,6.12,6.12,0,0,1-.66-2.5,3.28,3.28,0,0,1,.58-1.75,2.63,2.63,0,0,1,1.1-.95,3,3,0,0,1,3.1,1.26,20.72,20.72,0,0,1-.68-3,23.9,23.9,0,0,1-.24-3.67c0-5-.06-7.59-.18-8.9s-.17-1.92-.29-3.38a20.92,20.92,0,0,1-.13-3,19.33,19.33,0,0,1,.31-2.62,14.83,14.83,0,0,1,.79-3.5c.43-1,.61-.9,1-1.91a15.71,15.71,0,0,0,.81-3.54,15.79,15.79,0,0,1,1.21-4,19.48,19.48,0,0,1,1.73-2.65,24.42,24.42,0,0,1,2.18-2.78,19.52,19.52,0,0,1,2.81-2.41c1.46-1.11,1.61-1,3.36-2.26,2.28-1.63,2.17-1.87,3.23-2.34a11.59,11.59,0,0,1,4.17-.71c2.47-.16,2.58.1,4.43,0,.83-.06,2.48-.43,5.75-1.16,2.86-.64,3.52-.81,5-1,1.61-.23,2.84-.31,3.39-.34a19,19,0,0,1,4.93.1c2.33.45,2,1.14,4.6,1.76s3.24.09,4.9,1c1.18.65,1,1,2.39,1.86s2.49.94,4.15,1.5c1.92.64,1.6.95,4.77,2.54,3.7,1.86,4.52,1.63,6.43,3.21a11.55,11.55,0,0,1,2.52,2.73c.79,1.19.72,1.57,1.58,3,1.46,2.5,2.15,2.2,2.39,3.39.42,2.07-1.74,2.81-1.47,5.51.12,1.22.62,1.6.44,2.88a18.06,18.06,0,0,1-.89,2.52c-.25,1-.06,1.4.13,3.44.16,1.64.18,3,.21,5.78,0,1.33,0,2.46,0,3,0,1.27,0,1.83-.08,3.39,0,.78,0,1.92-.05,3.33a4.77,4.77,0,0,1,1.94-1.26,3.41,3.41,0,0,1,2.73,0c.44.25.9.73,1.32,2.23s.42,2.86.13,6.66c-.17,2.11-.25,3.16-.37,4a34.16,34.16,0,0,1-1.18,5,20.1,20.1,0,0,1-2.1,4.93c-.59.94-.41.44-1.94,2.55-.54.74-.86,1.2-1.5,1.44a2.36,2.36,0,0,1-1.63,0,2.2,2.2,0,0,1-1-.79c-.19,1.06-.45,2.54-.79,4.31-.43,2.17-.88,4.5-1.55,7.11a60,60,0,0,1-2,6.48,40.48,40.48,0,0,1-6.22,10.76,30.83,30.83,0,0,1-9.34,8.5A29.38,29.38,0,0,1,402.48,311.63Z"/><path class="cls-5" d="M402.48,311.63a30,30,0,0,1-6.16-.7,27.23,27.23,0,0,1-8.82-3.5c-4.52-2.84-6.92-6.45-9.52-10.36a54.31,54.31,0,0,1-3.78-6.72A62,62,0,0,1,369,273.56a2,2,0,0,1-1-.15c-.2-.1-.71-.4-1.23-1.89a20.7,20.7,0,0,1-.63-2.86,8.26,8.26,0,0,0-.45-1.84c-.41-.86-.77-.84-1.36-1.68a6.86,6.86,0,0,1-1.08-3.15,12.4,12.4,0,0,0-.21-2.18,16.93,16.93,0,0,0-.71-1.68c-.42-1.21-.05-1.49-.31-3.07a17.17,17.17,0,0,0-.84-2.83,6.12,6.12,0,0,1-.66-2.5,3.28,3.28,0,0,1,.58-1.75,2.63,2.63,0,0,1,1.1-.95,3,3,0,0,1,3.1,1.26,20.72,20.72,0,0,1-.68-3,23.9,23.9,0,0,1-.24-3.67c0-5-.06-7.59-.18-8.9s-.17-1.92-.29-3.38a20.92,20.92,0,0,1-.13-3,19.33,19.33,0,0,1,.31-2.62,14.83,14.83,0,0,1,.79-3.5c.43-1,.61-.9,1-1.91a15.71,15.71,0,0,0,.81-3.54,15.79,15.79,0,0,1,1.21-4,19.48,19.48,0,0,1,1.73-2.65,24.42,24.42,0,0,1,2.18-2.78,19.52,19.52,0,0,1,2.81-2.41c1.46-1.11,1.61-1,3.36-2.26,2.28-1.63,2.17-1.87,3.23-2.34a11.59,11.59,0,0,1,4.17-.71c2.47-.16,2.58.1,4.43,0,.83-.06,2.48-.43,5.75-1.16,2.86-.64,3.52-.81,5-1,1.61-.23,2.84-.31,3.39-.34a19,19,0,0,1,4.93.1c2.33.45,2,1.14,4.6,1.76s3.24.09,4.9,1c1.18.65,1,1,2.39,1.86s2.49.94,4.15,1.5c1.92.64,1.6.95,4.77,2.54,3.7,1.86,4.52,1.63,6.43,3.21a11.55,11.55,0,0,1,2.52,2.73c.79,1.19.72,1.57,1.58,3,1.46,2.5,2.15,2.2,2.39,3.39.42,2.07-1.74,2.81-1.47,5.51.12,1.22.62,1.6.44,2.88a18.06,18.06,0,0,1-.89,2.52c-.25,1-.06,1.4.13,3.44.16,1.64.18,3,.21,5.78,0,1.33,0,2.46,0,3,0,1.27,0,1.83-.08,3.39,0,.78,0,1.92-.05,3.33a4.77,4.77,0,0,1,1.94-1.26,3.41,3.41,0,0,1,2.73,0c.44.25.9.73,1.32,2.23s.42,2.86.13,6.66c-.17,2.11-.25,3.16-.37,4a34.16,34.16,0,0,1-1.18,5,20.1,20.1,0,0,1-2.1,4.93c-.59.94-.41.44-1.94,2.55-.54.74-.86,1.2-1.5,1.44a2.36,2.36,0,0,1-1.63,0,2.2,2.2,0,0,1-1-.79c-.19,1.06-.45,2.54-.79,4.31-.43,2.17-.88,4.5-1.55,7.11a60,60,0,0,1-2,6.48,40.48,40.48,0,0,1-6.22,10.76,30.83,30.83,0,0,1-9.34,8.5A29.38,29.38,0,0,1,402.48,311.63Z"/><path class="cls-3" d="M59.2,129.33a14.62,14.62,0,0,0-.86-1.45.79.79,0,0,1-.06-.1c-1-1.53-1.43-1.65-2.9-3.52a32.57,32.57,0,0,1-3.65-5.67,25.84,25.84,0,0,1-2.27-7,4.11,4.11,0,0,1-1.76,0,4.93,4.93,0,0,1-2.89-2.14c-.67-.9-1.05-1.86-1.64-5.16a46.09,46.09,0,0,1-.88-6.8,43.23,43.23,0,0,1,.12-5.66c.13-1.66.33-3.08.51-4.16a15.79,15.79,0,0,1-1.51-3.39,17.82,17.82,0,0,1-.76-4.29c-.15-2.29.2-2.53.25-6a16.6,16.6,0,0,0-.25-4.28c-.43-1.84-1-2.28-1.51-3.77-.61-1.78-.45-3.45-.13-6.8a37.26,37.26,0,0,1,1.51-7.56,16.28,16.28,0,0,1,2.27-5.16,15,15,0,0,1,4-3.65A21.21,21.21,0,0,1,52.23,40l-5.16.25c.65-.86,1.53-1.95,2.64-3.15a46.15,46.15,0,0,1,3.4-3.27c2.19-1.93,4-3.23,4.41-3.53A54.67,54.67,0,0,1,65,25.94c3.58-1.85,5.37-2.77,6.92-3.15a31.18,31.18,0,0,1,10.07-.38c1.47.11,2.69.26,3.53.38a23.78,23.78,0,0,1,4.66-.38,24.89,24.89,0,0,1,8.81,1.89c3.72,1.53,3.28,2.34,7.3,4.28,4.65,2.24,5.4,1.23,8.94,3.15A23.37,23.37,0,0,1,123,39a29.93,29.93,0,0,1,4.53,9.32,40.62,40.62,0,0,1,1.64,9.44c.14,2.06,0,2.52.25,5.66a29.54,29.54,0,0,1,.25,5.29,21.37,21.37,0,0,1-1.25,5C127,78,126.62,77.59,126,80.2c-.65,2.77-.19,3.29-1,6a8.47,8.47,0,0,0-.51,2.64,24.14,24.14,0,0,0,.26,2.9,8,8,0,0,1,.12,1.38,4.81,4.81,0,0,1-.63,2.14c-.09.82-.23,2-.38,3.53-.33,3.33-.25,3.07-.37,3.9a32.56,32.56,0,0,1-1.89,6.55,8.31,8.31,0,0,1-1.51,3,7,7,0,0,1-2.52,1.76,4.73,4.73,0,0,1-2.14.5,4.2,4.2,0,0,1-1.89-.5,25.12,25.12,0,0,1-7.93,14.23c-.38.33-2.35,1.65-6.29,4.28-2.85,1.89-4.55,3-6.93,4.53a42.47,42.47,0,0,1-5.66,3.27,18.47,18.47,0,0,1-5.54,1.76,16.67,16.67,0,0,1-6.17-.37,20.08,20.08,0,0,1-5.92-2.52S62.35,135.26,59.2,129.33Z"/><path class="cls-10" d="M59.2,129.33a14.62,14.62,0,0,0-.86-1.45.79.79,0,0,1-.06-.1c-1-1.53-1.43-1.65-2.9-3.52a32.57,32.57,0,0,1-3.65-5.67,25.84,25.84,0,0,1-2.27-7,4.11,4.11,0,0,1-1.76,0,4.93,4.93,0,0,1-2.89-2.14c-.67-.9-1.05-1.86-1.64-5.16a46.09,46.09,0,0,1-.88-6.8,43.23,43.23,0,0,1,.12-5.66c.13-1.66.33-3.08.51-4.16a15.79,15.79,0,0,1-1.51-3.39,17.82,17.82,0,0,1-.76-4.29c-.15-2.29.2-2.53.25-6a16.6,16.6,0,0,0-.25-4.28c-.43-1.84-1-2.28-1.51-3.77-.61-1.78-.45-3.45-.13-6.8a37.26,37.26,0,0,1,1.51-7.56,16.28,16.28,0,0,1,2.27-5.16,15,15,0,0,1,4-3.65A21.21,21.21,0,0,1,52.23,40l-5.16.25c.65-.86,1.53-1.95,2.64-3.15a46.15,46.15,0,0,1,3.4-3.27c2.19-1.93,4-3.23,4.41-3.53A54.67,54.67,0,0,1,65,25.94c3.58-1.85,5.37-2.77,6.92-3.15a31.18,31.18,0,0,1,10.07-.38c1.47.11,2.69.26,3.53.38a23.78,23.78,0,0,1,4.66-.38,24.89,24.89,0,0,1,8.81,1.89c3.72,1.53,3.28,2.34,7.3,4.28,4.65,2.24,5.4,1.23,8.94,3.15A23.37,23.37,0,0,1,123,39a29.93,29.93,0,0,1,4.53,9.32,40.62,40.62,0,0,1,1.64,9.44c.14,2.06,0,2.52.25,5.66a29.54,29.54,0,0,1,.25,5.29,21.37,21.37,0,0,1-1.25,5C127,78,126.62,77.59,126,80.2c-.65,2.77-.19,3.29-1,6a8.47,8.47,0,0,0-.51,2.64,24.14,24.14,0,0,0,.26,2.9,8,8,0,0,1,.12,1.38,4.81,4.81,0,0,1-.63,2.14c-.09.82-.23,2-.38,3.53-.33,3.33-.25,3.07-.37,3.9a32.56,32.56,0,0,1-1.89,6.55,8.31,8.31,0,0,1-1.51,3,7,7,0,0,1-2.52,1.76,4.73,4.73,0,0,1-2.14.5,4.2,4.2,0,0,1-1.89-.5,25.12,25.12,0,0,1-7.93,14.23c-.38.33-2.35,1.65-6.29,4.28-2.85,1.89-4.55,3-6.93,4.53a42.47,42.47,0,0,1-5.66,3.27,18.47,18.47,0,0,1-5.54,1.76,16.67,16.67,0,0,1-6.17-.37,20.08,20.08,0,0,1-5.92-2.52S62.35,135.26,59.2,129.33Z"/><path class="cls-5" d="M59.2,129.33a14.62,14.62,0,0,0-.86-1.45.79.79,0,0,1-.06-.1c-1-1.53-1.43-1.65-2.9-3.52a32.57,32.57,0,0,1-3.65-5.67,25.84,25.84,0,0,1-2.27-7,4.11,4.11,0,0,1-1.76,0,4.93,4.93,0,0,1-2.89-2.14c-.67-.9-1.05-1.86-1.64-5.16a46.09,46.09,0,0,1-.88-6.8,43.23,43.23,0,0,1,.12-5.66c.13-1.66.33-3.08.51-4.16a15.79,15.79,0,0,1-1.51-3.39,17.82,17.82,0,0,1-.76-4.29c-.15-2.29.2-2.53.25-6a16.6,16.6,0,0,0-.25-4.28c-.43-1.84-1-2.28-1.51-3.77-.61-1.78-.45-3.45-.13-6.8a37.26,37.26,0,0,1,1.51-7.56,16.28,16.28,0,0,1,2.27-5.16,15,15,0,0,1,4-3.65A21.21,21.21,0,0,1,52.23,40l-5.16.25c.65-.86,1.53-1.95,2.64-3.15a46.15,46.15,0,0,1,3.4-3.27c2.19-1.93,4-3.23,4.41-3.53A54.67,54.67,0,0,1,65,25.94c3.58-1.85,5.37-2.77,6.92-3.15a31.18,31.18,0,0,1,10.07-.38c1.47.11,2.69.26,3.53.38a23.78,23.78,0,0,1,4.66-.38,24.89,24.89,0,0,1,8.81,1.89c3.72,1.53,3.28,2.34,7.3,4.28,4.65,2.24,5.4,1.23,8.94,3.15A23.37,23.37,0,0,1,123,39a29.93,29.93,0,0,1,4.53,9.32,40.62,40.62,0,0,1,1.64,9.44c.14,2.06,0,2.52.25,5.66a29.54,29.54,0,0,1,.25,5.29,21.37,21.37,0,0,1-1.25,5C127,78,126.62,77.59,126,80.2c-.65,2.77-.19,3.29-1,6a8.47,8.47,0,0,0-.51,2.64,24.14,24.14,0,0,0,.26,2.9,8,8,0,0,1,.12,1.38,4.81,4.81,0,0,1-.63,2.14c-.09.82-.23,2-.38,3.53-.33,3.33-.25,3.07-.37,3.9a32.56,32.56,0,0,1-1.89,6.55,8.31,8.31,0,0,1-1.51,3,7,7,0,0,1-2.52,1.76,4.73,4.73,0,0,1-2.14.5,4.2,4.2,0,0,1-1.89-.5,25.12,25.12,0,0,1-7.93,14.23c-.38.33-2.35,1.65-6.29,4.28-2.85,1.89-4.55,3-6.93,4.53a42.47,42.47,0,0,1-5.66,3.27,18.47,18.47,0,0,1-5.54,1.76,16.67,16.67,0,0,1-6.17-.37,20.08,20.08,0,0,1-5.92-2.52S62.35,135.26,59.2,129.33Z"/><path class="cls-3" d="M358.67,17.88a6.1,6.1,0,0,1,1.27,2,19.47,19.47,0,0,1,1.42,4.48,26.22,26.22,0,0,1,.48,3.69l-1.06-1.53a35.06,35.06,0,0,1,1.85,6.9c.28,1.84.15,2,.63,5.8.39,3.1.55,3.51.63,5.22a47.92,47.92,0,0,1-.11,5c-.21,4.21-.45,4.21-.31,6,.11,1.5.41,3.22.63,4.53.16.94.31,1.72.42,2.27l1-.42c0,.55.08,1.37.16,2.37.19,2.29.37,3.17.47,4.63a33.73,33.73,0,0,1,0,4.27,36.13,36.13,0,0,1-.94,8,11.91,11.91,0,0,1-1.9,4.43,9.75,9.75,0,0,1-1.64,1.74,70.71,70.71,0,0,1-1.42,7.85,31.42,31.42,0,0,1-2.37,7.43,27.32,27.32,0,0,1-4.16,6.06c-1.15,1.31-1.22,1.16-4.32,4.16-2.65,2.56-2.84,2.89-5.48,5.43a37.88,37.88,0,0,1-4.91,4.32,18.63,18.63,0,0,1-5.63,2.64,24.3,24.3,0,0,1-4.43.68,19.84,19.84,0,0,1-3.85.11,14.29,14.29,0,0,1-6.22-2.22,19.3,19.3,0,0,1-4.47-4c-1.29-1.43-1.32-1.74-2.59-3.21a42.29,42.29,0,0,0-4.48-4.27,30.87,30.87,0,0,1-5.42-7.06A41.11,41.11,0,0,1,298,96.45,54.62,54.62,0,0,1,295.23,85a67.94,67.94,0,0,0-1.16-7.8c-.6-2.63-.9-3.94-1.43-4.64a6.08,6.08,0,0,1-1.1-2.47,2.13,2.13,0,0,1,.1-1.11,2,2,0,0,1,.58-.79,44,44,0,0,0-1.26-6c-1.15-4-2-4.69-2.85-8.27a45.54,45.54,0,0,1-1.05-7.48c-.35-4,0-3.66-.37-7.12-.32-2.86-.66-4-.32-6a14.1,14.1,0,0,1,1.32-4,35.62,35.62,0,0,1,3.22-4.26,8.61,8.61,0,0,1,2.58-2.48,6.93,6.93,0,0,1,1.95-.74,12.67,12.67,0,0,1,1.21-5,19.07,19.07,0,0,1,2.84-4c.87-1,2.07-2.42,3.59-3.95a5.5,5.5,0,0,0,.47,2.95,5.28,5.28,0,0,0,.79,1.21,14.81,14.81,0,0,1,3.11-3.69c1.13-1,1.77-1.19,2.8-2.11a12.53,12.53,0,0,0,3-4.11,10,10,0,0,1,1.05,2.48,9.72,9.72,0,0,1,.32,1.85A33,33,0,0,1,320,5.44c3.33-1,4.18-.61,7.07-1.63,2.63-.94,2.83-1.54,5.21-2.27a18.67,18.67,0,0,1,5.54-.79c-.28.27-.72.7-1.27,1.21s-.68.61-.68.74c0,.69,2.34.88,4.26,2.16A8.12,8.12,0,0,1,343,8.34a8.33,8.33,0,0,1,4.9,1.74,6.07,6.07,0,0,1,4.53.58,18.75,18.75,0,0,1,3,2.84c.57.6.71.79.92,1l.18.17A16.94,16.94,0,0,0,360,16.3l-4.48.11A5.56,5.56,0,0,1,358.67,17.88Z"/><path class="cls-11" d="M358.67,17.88a6.1,6.1,0,0,1,1.27,2,19.47,19.47,0,0,1,1.42,4.48,26.22,26.22,0,0,1,.48,3.69l-1.06-1.53a35.06,35.06,0,0,1,1.85,6.9c.28,1.84.15,2,.63,5.8.39,3.1.55,3.51.63,5.22a47.92,47.92,0,0,1-.11,5c-.21,4.21-.45,4.21-.31,6,.11,1.5.41,3.22.63,4.53.16.94.31,1.72.42,2.27l1-.42c0,.55.08,1.37.16,2.37.19,2.29.37,3.17.47,4.63a33.73,33.73,0,0,1,0,4.27,36.13,36.13,0,0,1-.94,8,11.91,11.91,0,0,1-1.9,4.43,9.75,9.75,0,0,1-1.64,1.74,70.71,70.71,0,0,1-1.42,7.85,31.42,31.42,0,0,1-2.37,7.43,27.32,27.32,0,0,1-4.16,6.06c-1.15,1.31-1.22,1.16-4.32,4.16-2.65,2.56-2.84,2.89-5.48,5.43a37.88,37.88,0,0,1-4.91,4.32,18.63,18.63,0,0,1-5.63,2.64,24.3,24.3,0,0,1-4.43.68,19.84,19.84,0,0,1-3.85.11,14.29,14.29,0,0,1-6.22-2.22,19.3,19.3,0,0,1-4.47-4c-1.29-1.43-1.32-1.74-2.59-3.21a42.29,42.29,0,0,0-4.48-4.27,30.87,30.87,0,0,1-5.42-7.06A41.11,41.11,0,0,1,298,96.45,54.62,54.62,0,0,1,295.23,85a67.94,67.94,0,0,0-1.16-7.8c-.6-2.63-.9-3.94-1.43-4.64a6.08,6.08,0,0,1-1.1-2.47,2.13,2.13,0,0,1,.1-1.11,2,2,0,0,1,.58-.79,44,44,0,0,0-1.26-6c-1.15-4-2-4.69-2.85-8.27a45.54,45.54,0,0,1-1.05-7.48c-.35-4,0-3.66-.37-7.12-.32-2.86-.66-4-.32-6a14.1,14.1,0,0,1,1.32-4,35.62,35.62,0,0,1,3.22-4.26,8.61,8.61,0,0,1,2.58-2.48,6.93,6.93,0,0,1,1.95-.74,12.67,12.67,0,0,1,1.21-5,19.07,19.07,0,0,1,2.84-4c.87-1,2.07-2.42,3.59-3.95a5.5,5.5,0,0,0,.47,2.95,5.28,5.28,0,0,0,.79,1.21,14.81,14.81,0,0,1,3.11-3.69c1.13-1,1.77-1.19,2.8-2.11a12.53,12.53,0,0,0,3-4.11,10,10,0,0,1,1.05,2.48,9.72,9.72,0,0,1,.32,1.85A33,33,0,0,1,320,5.44c3.33-1,4.18-.61,7.07-1.63,2.63-.94,2.83-1.54,5.21-2.27a18.67,18.67,0,0,1,5.54-.79c-.28.27-.72.7-1.27,1.21s-.68.61-.68.74c0,.69,2.34.88,4.26,2.16A8.12,8.12,0,0,1,343,8.34a8.33,8.33,0,0,1,4.9,1.74,6.07,6.07,0,0,1,4.53.58,18.75,18.75,0,0,1,3,2.84c.57.6.71.79.92,1l.18.17A16.94,16.94,0,0,0,360,16.3l-4.48.11A5.56,5.56,0,0,1,358.67,17.88Z"/><path class="cls-5" d="M358.67,17.88a6.1,6.1,0,0,1,1.27,2,19.47,19.47,0,0,1,1.42,4.48,26.22,26.22,0,0,1,.48,3.69l-1.06-1.53a35.06,35.06,0,0,1,1.85,6.9c.28,1.84.15,2,.63,5.8.39,3.1.55,3.51.63,5.22a47.92,47.92,0,0,1-.11,5c-.21,4.21-.45,4.21-.31,6,.11,1.5.41,3.22.63,4.53.16.94.31,1.72.42,2.27l1-.42c0,.55.08,1.37.16,2.37.19,2.29.37,3.17.47,4.63a33.73,33.73,0,0,1,0,4.27,36.13,36.13,0,0,1-.94,8,11.91,11.91,0,0,1-1.9,4.43,9.75,9.75,0,0,1-1.64,1.74,70.71,70.71,0,0,1-1.42,7.85,31.42,31.42,0,0,1-2.37,7.43,27.32,27.32,0,0,1-4.16,6.06c-1.15,1.31-1.22,1.16-4.32,4.16-2.65,2.56-2.84,2.89-5.48,5.43a37.88,37.88,0,0,1-4.91,4.32,18.63,18.63,0,0,1-5.63,2.64,24.3,24.3,0,0,1-4.43.68,19.84,19.84,0,0,1-3.85.11,14.29,14.29,0,0,1-6.22-2.22,19.3,19.3,0,0,1-4.47-4c-1.29-1.43-1.32-1.74-2.59-3.21a42.29,42.29,0,0,0-4.48-4.27,30.87,30.87,0,0,1-5.42-7.06A41.11,41.11,0,0,1,298,96.45,54.62,54.62,0,0,1,295.23,85a67.94,67.94,0,0,0-1.16-7.8c-.6-2.63-.9-3.94-1.43-4.64a6.08,6.08,0,0,1-1.1-2.47,2.13,2.13,0,0,1,.1-1.11,2,2,0,0,1,.58-.79,44,44,0,0,0-1.26-6c-1.15-4-2-4.69-2.85-8.27a45.54,45.54,0,0,1-1.05-7.48c-.35-4,0-3.66-.37-7.12-.32-2.86-.66-4-.32-6a14.1,14.1,0,0,1,1.32-4,35.62,35.62,0,0,1,3.22-4.26,8.61,8.61,0,0,1,2.58-2.48,6.93,6.93,0,0,1,1.95-.74,12.67,12.67,0,0,1,1.21-5,19.07,19.07,0,0,1,2.84-4c.87-1,2.07-2.42,3.59-3.95a5.5,5.5,0,0,0,.47,2.95,5.28,5.28,0,0,0,.79,1.21,14.81,14.81,0,0,1,3.11-3.69c1.13-1,1.77-1.19,2.8-2.11a12.53,12.53,0,0,0,3-4.11,10,10,0,0,1,1.05,2.48,9.72,9.72,0,0,1,.32,1.85A33,33,0,0,1,320,5.44c3.33-1,4.18-.61,7.07-1.63,2.63-.94,2.83-1.54,5.21-2.27a18.67,18.67,0,0,1,5.54-.79c-.28.27-.72.7-1.27,1.21s-.68.61-.68.74c0,.69,2.34.88,4.26,2.16A8.12,8.12,0,0,1,343,8.34a8.33,8.33,0,0,1,4.9,1.74,6.07,6.07,0,0,1,4.53.58,18.75,18.75,0,0,1,3,2.84c.57.6.71.79.92,1l.18.17A16.94,16.94,0,0,0,360,16.3l-4.48.11A5.56,5.56,0,0,1,358.67,17.88Z"/><path class="cls-3" d="M46.94,452.43a32.34,32.34,0,0,1-6.83.19,24.76,24.76,0,0,1-9.77-2.53A23.76,23.76,0,0,1,24,445.3a37.6,37.6,0,0,1-3.51-4.78c-1.69-2.5-2.76-4.29-4.49-7.22-2.65-4.48-3.24-5.79-3.71-7.32a22.29,22.29,0,0,1-.78-3.42A2.71,2.71,0,0,1,10,423a3,3,0,0,1-1.95-1,4.58,4.58,0,0,1-1.27-2.53A6.42,6.42,0,0,1,7.7,415a29.4,29.4,0,0,1-2.44-6.34c-.4-1.57-.45-2.33-1.07-4.39A33.74,33.74,0,0,0,2.62,400c-1-2.28-1.35-2.29-1.66-3.61a9.58,9.58,0,0,1,0-4,6.38,6.38,0,0,1,1.27-3A5.76,5.76,0,0,1,6,387.52a45.68,45.68,0,0,0,.1-6.15c-.08-1.55-.18-1.9-.39-4.59-.15-1.78-.34-4.15-.39-6.64a45.5,45.5,0,0,1,.19-6.93,41,41,0,0,1,2.54-9.66,42,42,0,0,1,2.34-5.46A39.41,39.41,0,0,1,14.34,342a33.42,33.42,0,0,1,6.34-6.44c3.84-2.88,7.39-4,11.32-5.17a35.44,35.44,0,0,1,11.42-2.05A31,31,0,0,1,54,330.32a23.91,23.91,0,0,1,6.83,2.25c2.67,1.36,3.42,2.41,7.42,4.68,3.13,1.78,3,1.31,4.49,2.34,2.66,1.82,4.05,3.91,6.73,8a47.47,47.47,0,0,1,4.69,8.29,81,81,0,0,1,2.73,9.67c1.39,5.54,1.63,7.38,1.66,9.37a26.72,26.72,0,0,1-.49,5.46,2.6,2.6,0,0,1,1.46-.09,3.37,3.37,0,0,1,2.05,1.95c1.48,2.77,1.68,6.52,1.76,8.3.2,4.22.3,6.34.2,7.61a36.26,36.26,0,0,1-2,9.37,6.49,6.49,0,0,1,.58,3.22,5.3,5.3,0,0,1-.78,2.54,5.09,5.09,0,0,1-1.56,1.56,3.35,3.35,0,0,1-2.15.68,3,3,0,0,1-1.75-.78,25.71,25.71,0,0,1-.49,6.35,23.35,23.35,0,0,1-3.42,8.39c-1.6,2.39-2.17,2.18-4.78,5.76-1.84,2.52-1.66,2.76-2.93,4.29a24.3,24.3,0,0,1-6.25,5.18,46,46,0,0,1-8.59,4.19A46.22,46.22,0,0,1,46.94,452.43Z"/><path class="cls-12" d="M46.94,452.43a32.34,32.34,0,0,1-6.83.19,24.76,24.76,0,0,1-9.77-2.53A23.76,23.76,0,0,1,24,445.3a37.6,37.6,0,0,1-3.51-4.78c-1.69-2.5-2.76-4.29-4.49-7.22-2.65-4.48-3.24-5.79-3.71-7.32a22.29,22.29,0,0,1-.78-3.42A2.71,2.71,0,0,1,10,423a3,3,0,0,1-1.95-1,4.58,4.58,0,0,1-1.27-2.53A6.42,6.42,0,0,1,7.7,415a29.4,29.4,0,0,1-2.44-6.34c-.4-1.57-.45-2.33-1.07-4.39A33.74,33.74,0,0,0,2.62,400c-1-2.28-1.35-2.29-1.66-3.61a9.58,9.58,0,0,1,0-4,6.38,6.38,0,0,1,1.27-3A5.76,5.76,0,0,1,6,387.52a45.68,45.68,0,0,0,.1-6.15c-.08-1.55-.18-1.9-.39-4.59-.15-1.78-.34-4.15-.39-6.64a45.5,45.5,0,0,1,.19-6.93,41,41,0,0,1,2.54-9.66,42,42,0,0,1,2.34-5.46A39.41,39.41,0,0,1,14.34,342a33.42,33.42,0,0,1,6.34-6.44c3.84-2.88,7.39-4,11.32-5.17a35.44,35.44,0,0,1,11.42-2.05A31,31,0,0,1,54,330.32a23.91,23.91,0,0,1,6.83,2.25c2.67,1.36,3.42,2.41,7.42,4.68,3.13,1.78,3,1.31,4.49,2.34,2.66,1.82,4.05,3.91,6.73,8a47.47,47.47,0,0,1,4.69,8.29,81,81,0,0,1,2.73,9.67c1.39,5.54,1.63,7.38,1.66,9.37a26.72,26.72,0,0,1-.49,5.46,2.6,2.6,0,0,1,1.46-.09,3.37,3.37,0,0,1,2.05,1.95c1.48,2.77,1.68,6.52,1.76,8.3.2,4.22.3,6.34.2,7.61a36.26,36.26,0,0,1-2,9.37,6.49,6.49,0,0,1,.58,3.22,5.3,5.3,0,0,1-.78,2.54,5.09,5.09,0,0,1-1.56,1.56,3.35,3.35,0,0,1-2.15.68,3,3,0,0,1-1.75-.78,25.71,25.71,0,0,1-.49,6.35,23.35,23.35,0,0,1-3.42,8.39c-1.6,2.39-2.17,2.18-4.78,5.76-1.84,2.52-1.66,2.76-2.93,4.29a24.3,24.3,0,0,1-6.25,5.18,46,46,0,0,1-8.59,4.19A46.22,46.22,0,0,1,46.94,452.43Z"/><path class="cls-5" d="M46.94,452.43a32.34,32.34,0,0,1-6.83.19,24.76,24.76,0,0,1-9.77-2.53A23.76,23.76,0,0,1,24,445.3a37.6,37.6,0,0,1-3.51-4.78c-1.69-2.5-2.76-4.29-4.49-7.22-2.65-4.48-3.24-5.79-3.71-7.32a22.29,22.29,0,0,1-.78-3.42A2.71,2.71,0,0,1,10,423a3,3,0,0,1-1.95-1,4.58,4.58,0,0,1-1.27-2.53A6.42,6.42,0,0,1,7.7,415a29.4,29.4,0,0,1-2.44-6.34c-.4-1.57-.45-2.33-1.07-4.39A33.74,33.74,0,0,0,2.62,400c-1-2.28-1.35-2.29-1.66-3.61a9.58,9.58,0,0,1,0-4,6.38,6.38,0,0,1,1.27-3A5.76,5.76,0,0,1,6,387.52a45.68,45.68,0,0,0,.1-6.15c-.08-1.55-.18-1.9-.39-4.59-.15-1.78-.34-4.15-.39-6.64a45.5,45.5,0,0,1,.19-6.93,41,41,0,0,1,2.54-9.66,42,42,0,0,1,2.34-5.46A39.41,39.41,0,0,1,14.34,342a33.42,33.42,0,0,1,6.34-6.44c3.84-2.88,7.39-4,11.32-5.17a35.44,35.44,0,0,1,11.42-2.05A31,31,0,0,1,54,330.32a23.91,23.91,0,0,1,6.83,2.25c2.67,1.36,3.42,2.41,7.42,4.68,3.13,1.78,3,1.31,4.49,2.34,2.66,1.82,4.05,3.91,6.73,8a47.47,47.47,0,0,1,4.69,8.29,81,81,0,0,1,2.73,9.67c1.39,5.54,1.63,7.38,1.66,9.37a26.72,26.72,0,0,1-.49,5.46,2.6,2.6,0,0,1,1.46-.09,3.37,3.37,0,0,1,2.05,1.95c1.48,2.77,1.68,6.52,1.76,8.3.2,4.22.3,6.34.2,7.61a36.26,36.26,0,0,1-2,9.37,6.49,6.49,0,0,1,.58,3.22,5.3,5.3,0,0,1-.78,2.54,5.09,5.09,0,0,1-1.56,1.56,3.35,3.35,0,0,1-2.15.68,3,3,0,0,1-1.75-.78,25.71,25.71,0,0,1-.49,6.35,23.35,23.35,0,0,1-3.42,8.39c-1.6,2.39-2.17,2.18-4.78,5.76-1.84,2.52-1.66,2.76-2.93,4.29a24.3,24.3,0,0,1-6.25,5.18,46,46,0,0,1-8.59,4.19A46.22,46.22,0,0,1,46.94,452.43Z"/></g></g></svg>