<svg xmlns="http://www.w3.org/2000/svg" viewBox="0 0 587.05 596.24"><defs><style>.cls-1{fill:#fff;}</style></defs><g id="Layer_2" data-name="Layer 2"><g id="Drawing"><path d="M413.21,196.65a.52.52,0,0,1-.2.62.54.54,0,0,1,0,.76.5.5,0,0,1-.3.87v6.75c0,4.76-1,51.23-3,64-.31,2-.6,4.46-.93,7.27-1.77,15-4.72,40-19,63.59-17,28-17,28-29.95,40.93s-34.68,19.89-40.73,19.89c-.89,0-2.19.12-3.84.29-9.48.92-31.68,3.09-52.92-12.21-19.28-15.92-26.54-26.14-34.94-38-1.59-2.24-3.23-4.55-5-7-11.69-15.94-20.3-46.08-21.93-76.82,0-.27-3-27.25-4-50s.05-32.36.06-32.44l-.67-.56c0,.08-1.13,10.26-.14,33s4,49.75,4,50c1.64,30.85,10.31,61.15,22.08,77.2,1.76,2.4,3.4,4.72,5,6.95,8.44,11.88,15.73,22.13,35.1,38.14,15.09,10.86,30.62,13,41.84,13a113.88,113.88,0,0,0,11.61-.67c1.63-.16,2.92-.28,3.77-.28,6.14,0,28.2-7,41.26-20.11s13-13,30.06-41.07c14.39-23.7,17.35-48.86,19.12-63.9.33-2.8.62-5.22.93-7.24,2-12.75,3-59.29,3-64.06v-9Z"/><path d="M368.84,245.79c-23.31,0-39.31-10.29-48.93-31.35-.12-.4-2.51-8.55-3-12.24a47.73,47.73,0,0,1-.26-8.16v0c.38-3.42-.06-4.64-1.76-4.84a53.92,53.92,0,0,0-14.94,0c-2.53.44-3.36,1.61-3,4.32,0,.1.92,3.63-.66,9-13.74,41.1-33.59,43.34-56.21,42-24.77-1.46-38.48-23-39.22-43.54a38.23,38.23,0,0,0-1.87-11.5c-1.15-4-3.52-5.83-7.68-6h-.06c-2.29,0-3.33-2.5-3.56-3.83a19.07,19.07,0,0,1-.27-4.64c.1-2.91,2.21-3.32,3.9-3.66l.45-.09c2-.42,10.81-1.6,13.46-2,47.47-14.79,78.78,5.06,84.82,9.39,6,.1,14.66,0,24.63-.15l7.88-.11c37.06-23.57,84.81-5.51,85.29-5.32a48.64,48.64,0,0,0,12.63,1.67c3.48.09,3.48,2.82,3.48,5.7v.24l-.09,3.05a3.12,3.12,0,0,1-2.93,3.62c-3.65-.23-5.81,1.86-6.73,6.36C409.07,227.26,394.67,243.8,368.84,245.79ZM317.36,194.1a48,48,0,0,0,.26,8c.51,3.63,3,12,3,12.08,9.47,20.71,25.24,30.82,48.21,30.86,25.39-1.95,39.57-18.29,44.58-51.42,1-4.89,3.48-7.23,7.44-7,1.58-.24,2.29-1.13,2.21-2.87l.09-3.3c0-3.2-.12-4.88-2.72-4.95a48.67,48.67,0,0,1-12.87-1.71c-.52-.2-48-18.15-84.75,5.3l-.09.06-8.09.11c-10,.13-18.72.25-24.77.15h-.11l-.1-.07c-5.76-4.15-36.87-24.11-84.32-9.34-5.5.74-11.88,1.63-13.47,2l-.45.09c-1.66.32-3.22.63-3.3,2.94a19.78,19.78,0,0,0,.25,4.47c0,.06.59,3.23,2.86,3.23h0c4.5.19,7.16,2.27,8.39,6.54a38.76,38.76,0,0,1,1.91,11.7c.73,20.19,14.2,41.38,38.52,42.81,22.3,1.31,41.87-.91,55.44-41.49a18,18,0,0,0,.65-8.65c-.38-3.15.71-4.69,3.64-5.2a55.09,55.09,0,0,1,15.16,0C317.72,188.77,317.67,191.41,317.36,194.1Z"/><path d="M340.66,246.74c-.31-1.73-.53-3.11-.72-4.28a37.09,37.09,0,0,0-1.17-5.57.48.48,0,0,1-.18-.07h0a2.18,2.18,0,0,1-.44-.11c-.09,0-.17-.08-.26-.12a32.39,32.39,0,0,1,1.33,6c.19,1.17.41,2.56.73,4.31,1.89,7.69,2,11.67.51,13.72-.92,1.22-2.53,1.84-5.09,1.95-9.33.8-15.69,4.08-21.22,10.92-2.78,2.48-5.38,3.64-7.71,3.4-2.08-.2-4-1.5-5.83-3.87-5.29-6.8-12.89-10.43-23.26-11.1-4.05,0-6.63-2.3-8-7.29-.88-3.42,3.63-13.19,6.27-18.81l-.38.34a2.89,2.89,0,0,1-.85.53c-3.38,7.28-6.6,14.89-5.76,18.14,1.43,5.29,4.38,7.95,8.68,7.84,10.12.65,17.54,4.19,22.69,10.81,1.91,2.53,4.05,3.93,6.35,4.16.22,0,.43,0,.66,0,2.37,0,4.93-1.22,7.66-3.66,5.43-6.72,11.64-9.91,20.73-10.69,2.79-.13,4.58-.84,5.64-2.25C342.75,258.77,342.64,254.75,340.66,246.74Z"/><path d="M337,262.69a.55.55,0,0,1-.22-.06c-2.12,1.89-4.63,3.29-9.08,4.42l-9.3,2.29a.52.52,0,0,1,0,.25,1.44,1.44,0,0,1-.38.61l9.85-2.42c5-1.28,7.67-2.9,10-5.16A5.46,5.46,0,0,1,337,262.69Z"/><path d="M297.51,270.18a4.12,4.12,0,0,1-.44-.57.47.47,0,0,1-.05-.1c-1.1-.34-2.16-.68-3.24-1-2.42-.79-4.92-1.61-8.39-2.51a17.1,17.1,0,0,1-7.2-3.74,3.31,3.31,0,0,1-.44,0,1.94,1.94,0,0,1-.48-.16l-.29,0a17.39,17.39,0,0,0,8.22,4.61c3.45.89,5.94,1.7,8.34,2.49,1.44.48,2.82.93,4.32,1.36C297.74,270.43,297.62,270.3,297.51,270.18Z"/><path d="M326.75,261.56l-.39-.64s4.14-2.63,3.47-11c.17-6.54-2.05-17.76-2.08-17.87l.74-.15c0,.11,2.26,11.42,2.09,18C331.29,258.73,326.93,261.45,326.75,261.56Z"/><path d="M288.64,262.27a10.65,10.65,0,0,1-5.07-9.75c.35-6.55,2.42-21.1,2.44-21.25l.74.11c0,.15-2.09,14.67-2.43,21.18a9.71,9.71,0,0,0,4.67,9Z"/><path d="M364.56,241.17A40.35,40.35,0,0,1,338.31,232c-14.87-14.67-17.82-27.71-10.54-46.51,2.45-6.07,11.57-10.7,25-12.71,17.65-2.63,40.1-.2,47.11,8.43,8.89,9.48,9,22.6.41,41.27-4.79,8.92-14.8,15.59-26.8,17.87A47,47,0,0,1,364.56,241.17Zm1.93-68.66a92.16,92.16,0,0,0-13.61,1c-13.16,2-22.06,6.43-24.41,12.24-7.15,18.46-4.25,31.27,10.35,45.68,9,7.64,21.63,10.62,34.53,8.17,11.78-2.24,21.59-8.77,26.27-17.47,8.45-18.35,8.36-31.2-.29-40.44l0,0C394.26,175.42,380.33,172.51,366.49,172.51Z"/><path d="M246.23,239.93c-22.45,0-36-12-40.22-35.67v0c-1.23-10.85.48-19.2,5.08-24.83,4.19-5.15,10.91-8.17,19.95-9,20-2.91,43.41,2.71,53.25,12.79,4.12,4.24,5.77,9,4.9,14.08-4.95,25.66-15.63,39.35-32.67,41.88A75.12,75.12,0,0,1,246.23,239.93Zm-39.48-35.79c4.79,26.65,21.5,38.19,49.67,34.29,16.67-2.47,27.15-16,32-41.26.83-4.85-.75-9.37-4.7-13.42-9.69-9.93-32.8-15.46-52.62-12.57-8.86.79-15.4,3.72-19.46,8.7C207.21,185.35,205.55,193.51,206.75,204.14Z"/><path d="M404,114.49c-19.58-50.22-68.35-51.94-130.1-54.12l-3.29-.11c-21.44-.52-36.2,4.29-57.45,32-15.82,23.74-20.2,46.55-15,78.57a1.77,1.77,0,0,1,.76,0c-5.16-31.88-.82-54.57,14.89-78.15,21-27.42,35.65-32.18,56.82-31.67l3.28.11c61.48,2.17,110,3.88,129.43,53.64,8.18,21.54,10.74,40.56,8,59.67a1.11,1.11,0,0,1,.73.22C414.76,155.37,412.19,136.2,404,114.49Z"/><path d="M385.45,195.35c-6.16-7.14-15.84-10.33-30.5-10-8-.27-14.33,1.63-18.8,5.64l-.5-.55c4.61-4.15,11.1-6.11,19.31-5.84,14.85-.3,24.74,3,31.05,10.3Z"/><path d="M358.92,203.93c-.84,0-1.7,0-2.57-.1a111.38,111.38,0,0,0-19.51-.65,17.3,17.3,0,0,1-6.67-.93l-.54-.2.39-.41A35.4,35.4,0,0,1,349,191a26,26,0,0,1,18.62.81l10.44,4.94-.44.38A28,28,0,0,1,358.92,203.93Zm-16.43-1.68a128.48,128.48,0,0,1,13.93.83,27.62,27.62,0,0,0,20.27-6.19l-9.38-4.44a25.3,25.3,0,0,0-18.12-.77,34.79,34.79,0,0,0-18.22,10,16.75,16.75,0,0,0,5.83.71C338.61,202.31,340.51,202.25,342.49,202.25Z"/><path d="M366.53,191.64l-.73.16c1.26,5.7-.58,9.45-5.64,11.44l.19.48h.07a.47.47,0,0,1,.3.1C366,201.63,367.87,197.65,366.53,191.64Z"/><path d="M350.21,190.94l-.39-.15a.46.46,0,0,1-.32.12h-.07c-2.14,6-.56,10.11,4.84,12.64l.45-.59C349.68,200.59,348.11,196.6,350.21,190.94Z"/><path d="M360,190.15c2.51,3.1,2.23,5.56-.13,8.13-1.91,1.7-4.3,1.44-6.17-.34-2-2.66-2-4.83.43-7.66"/><path d="M357.07,199.79a5.24,5.24,0,0,1-3.6-1.58c-2.17-2.9-2-5.26.41-8.17l.57.48c-2.24,2.66-2.35,4.61-.42,7.19a3.92,3.92,0,0,0,5.62.29c2.32-2.53,2.36-4.82.09-7.61l.58-.47c2.52,3.1,2.48,5.76-.14,8.62A4.68,4.68,0,0,1,357.07,199.79Z"/><path class="cls-1" d="M355.55,193.33a1,1,0,0,1-.17-2l1.91-.34a1,1,0,1,1,.36,2l-1.92.35Z"/><path d="M362.76,217a45.23,45.23,0,0,1-8.64-.88c-7.27-1.36-14.63-4.14-23.16-8.76l.24-.44c8.48,4.59,15.8,7.36,23,8.71,13,2.51,23.29-.44,30.55-8.79l.37.33C379.45,213.68,372,217,362.76,217Z"/><path d="M228.21,189.56l-.7-.29c1.86-4.45,8.06-7.26,19.52-8.84,13.17-1.32,21.75.11,26.22,4.36l-.52.55c-4.3-4.1-12.68-5.46-25.62-4.16C236.12,182.69,229.93,185.43,228.21,189.56Z"/><path d="M254.94,202c-9.77,0-17.06-2.31-21.78-6.92l-.23-.22.19-.26c3.34-4.66,9.31-7.49,17.74-8.42,9.75.27,18.89,5.62,21.46,7.25,0,0,4.2,2.44,7.09,4.33l.74.49-10.43,2.32A86.53,86.53,0,0,1,254.94,202Zm-21-7.23c6.72,6.33,18.71,8,35.66,5.07l8.67-1.94c-2.79-1.78-6.28-3.8-6.32-3.83-2.54-1.61-11.54-6.88-21-7.14C242.89,187.81,237.17,190.45,233.92,194.76Z"/><path d="M249,201.62c-3.13-2-4.89-4.26-5.23-6.7s.77-5.17,3.3-8l.56.5c-2.38,2.68-3.43,5.17-3.12,7.42s1.95,4.29,4.9,6.17Z"/><path d="M256.2,201.86l-.82-.51c2.88-1,5.38-2.67,6.26-4.6s.75-4.74-.56-8l.69-.28c1.4,3.41,1.58,6.29.55,8.55S259.29,200.8,256.2,201.86Z"/><path d="M250.34,196a4.48,4.48,0,0,1,0-6.72c2-1.76,4.11-1.88,6.32,0,2,2.24,2.15,4.41,0,6.53C254.51,197.79,252.41,197.64,250.34,196Z"/><path d="M253.45,197.64a5.45,5.45,0,0,1-3.34-1.32l0,0a4.83,4.83,0,0,1-1.63-3.46,5.31,5.31,0,0,1,1.62-3.79c2.25-2,4.55-2,6.84,0,2.27,2.49,2.26,4.86,0,7.07A5.12,5.12,0,0,1,253.45,197.64Zm-2.87-1.9c2,1.59,3.95,1.52,5.83-.19,1.92-1.9,1.92-3.86,0-6a4,4,0,0,0-5.81,0,4.49,4.49,0,0,0-1.38,3.22A4.15,4.15,0,0,0,250.58,195.74Z"/><path class="cls-1" d="M252.08,191.2a1,1,0,0,1-1-.87,1,1,0,0,1,.85-1.12l2.17-.31a1,1,0,0,1,1.13.85,1,1,0,0,1-.85,1.13l-2.17.31Z"/><path d="M433.9,188.87l0-.12c-.63-4-1.95-6.52-3.94-7.48-1.74-.84-4-.49-6.7,1l.37.65c2.47-1.4,4.49-1.74,6-1,1.74.83,2.92,3.12,3.51,6.79-4.12,7.66-4,23.45-3.29,37.9a62,62,0,0,1-6.74,28.87c-2.49,5.24-6.72,9.4-12.85,12.73a.55.55,0,0,1,0,.31c-.07.21-.15.42-.2.64,6.58-3.45,11.07-7.82,13.7-13.35a62.76,62.76,0,0,0,6.82-29.23c-.68-14.42-.83-30.17,3.26-37.62Z"/><path d="M416.93,252.39l-.75,0c.61-9.27,3.13-15.53,7.71-19.14,3.45-2.72,4.13-12.49,2.74-17.43-1.82-6.72-2.33-13.45-2.88-20.58V195l.08-.11c3.14-4.38,5.23-6.34,6.77-6.37a1.75,1.75,0,0,1,1.39.7l-.59.46a.93.93,0,0,0-.77-.41h0c-1.21,0-3.26,2-6.1,5.94.54,7.09,1.06,13.78,2.85,20.41,1.44,5.11.79,15.24-3,18.22C420,237.27,417.52,243.36,416.93,252.39Z"/><path d="M426.7,209.08c-.33-9.07.66-14.84,3.12-18.15l.6.45c-2.35,3.16-3.29,8.78-3,17.67Z"/><path d="M423.15,206.64c-2.91-.81-4.69-1.52-5.17-2.72s.41-2.74,2-5.42c.47-.78,1-1.66,1.59-2.67l.65.38c-.58,1-1.12,1.89-1.6,2.68-1.46,2.4-2.35,3.85-2,4.76s1.62,1.42,4.67,2.27Z"/><path d="M416.69,232.5l-.44-.61c5.31-3.82,7.88-10.8,6.55-17.8a4.75,4.75,0,0,0-1.91-3.16,3.54,3.54,0,0,0-2.84-.11l-.21-.72a4.23,4.23,0,0,1,3.42.18,5.45,5.45,0,0,1,2.27,3.65C424.92,221.23,422.24,228.51,416.69,232.5Z"/><path d="M200.27,267.53c0-.11,0-.22,0-.33-7.05-3.14-15.55-22.39-13.87-36l.07-.44c.65-4.6,2.16-15.38-.08-22.68-3.2-9.39-4.15-20.78-.42-22.14,3-1,6.27.28,9.62,3.73l.54-.52c-3.56-3.67-7.06-5-10.4-3.92-4.6,1.67-3,14.48-.06,23.08,2.2,7.13.7,17.79.05,22.35l-.06.45c-1.77,14.28,7.05,33.83,14.52,36.87C200.21,267.83,200.25,267.68,200.27,267.53Z"/><path d="M195.21,240.37c-4.6-1.72-7.72-11.08-4.76-23.22a75.48,75.48,0,0,0,2.08-17.82c-1.91-3.71-4-7-6.49-6.42a1.48,1.48,0,0,0-.94,1.17c-.83,3,1.86,11,6.08,15.69l-.55.5c-4.09-4.49-7.24-12.77-6.25-16.39a2.19,2.19,0,0,1,1.46-1.69c3.16-.8,5.47,3.13,7.4,6.88l0,.08v.1a77,77,0,0,1-2.1,18.08c-2.78,11.36,0,20.73,4.29,22.34Z"/><path d="M420.79,175.21l-.74-.12a154.24,154.24,0,0,0,2-25.24c4.13-47.78-5.05-82.5-28.07-106.18C330.47-9.88,279.22-13.43,227.76,32.22c-33,28-45.65,75.07-37.44,140l-.75.09c-8.24-65.21,4.44-112.54,37.7-140.68C252,9.73,276.5-.62,302.22,0c28.55.72,58.72,14.81,92.23,43.1,23.21,23.87,32.46,58.78,28.3,106.75A154.5,154.5,0,0,1,420.79,175.21Z"/><path d="M249.52,216.91a61.4,61.4,0,0,1-16.25-2.39l.13-.48c16.52,4.54,29.84,2.56,39.6-5.86l.33.38C266.88,214.12,258.91,216.91,249.52,216.91Z"/><path d="M306,333.12l-2.05,0c-19.61-.43-32.57-7.2-40.78-21.28a8.54,8.54,0,0,1-.44-1.06,11.48,11.48,0,0,0-.59-1.39,4.51,4.51,0,0,0-1.69-1.3c-.31-.17-1-.53-1.33-.78l.73-.44a10.2,10.2,0,0,0,1,.56l.34.18.2-.47c27.32,11.69,68.42,13,89.93-5.07a50.53,50.53,0,0,1,4.43-3,.6.6,0,0,1,.84.28,1,1,0,0,1-.44,1.3,9.75,9.75,0,0,0-3.46,3.4C340.52,325.06,327.74,333.12,306,333.12Zm-43.88-24.87a5.57,5.57,0,0,1,.61.65,8.84,8.84,0,0,1,.7,1.58c.15.39.32.83.38.95,8.07,13.84,20.83,20.48,40.16,20.91,22.66.52,35.7-7.28,48-28.72a10.45,10.45,0,0,1,3.77-3.7.21.21,0,0,0,.11-.15c-.92.51-3.71,2.5-4.12,2.84C330.3,320.62,289.62,319.61,262.11,308.25Z"/><path d="M294.72,308.11a15.74,15.74,0,0,1-1.65-.06c-1.4-.16-2.84-.34-4.32-.53-6.92-.9-14.77-1.92-24.66.07-.12,0-3.23.2-3.58.16-.1,0-2-.48-2.34-1.06a.47.47,0,0,1,0-.46l.06-.14a1.37,1.37,0,0,1,.78-.8,49.08,49.08,0,0,1,5.7-1.53,37.62,37.62,0,0,0,7.52-2.23c9.58-4.6,22.3-6.19,28.16-4.79,6.1,1.59,10.54,2.09,16.56.14,1.62-.44,16-4.21,28.3-.59l2.64.81c3.21,1,6,1.87,8,1.66H356l.1.05a.5.5,0,0,1,.27.54c-.07.41-.64.7-1.13.77s-2.91.47-3.89.73C333.35,305.64,302.79,308.11,294.72,308.11Zm-19.07-2.42a99.7,99.7,0,0,1,13.2,1.08c1.47.19,2.9.38,4.31.53,3.82.51,38.37-1.95,58-7.18.75-.2,2.23-.47,3.19-.63a35.76,35.76,0,0,1-6.68-1.68c-.85-.26-1.73-.54-2.64-.8-12.07-3.56-26.29.16-27.87.59-6.17,2-10.72,1.5-16.95-.13-5.62-1.34-18.36.28-27.66,4.74a38.7,38.7,0,0,1-7.68,2.28A51.85,51.85,0,0,0,259.3,306c-.3.17-.33.25-.38.39v0a7.44,7.44,0,0,0,1.68.62c.26,0,3.14-.14,3.37-.16A58.94,58.94,0,0,1,275.65,305.69Z"/><path d="M290.06,315.25l-1.33-2.34c-5,1.51-8.32.52-9.88-3a4.39,4.39,0,0,1-4.13,2h-.12l-.09-.07a5.67,5.67,0,0,1-2.28-3.37,3.23,3.23,0,0,1-2.63.79,3.78,3.78,0,0,1-2.21-2.38l.78-.19c.44,1,1,1.7,1.6,1.84a3.08,3.08,0,0,0,2.46-1l.5-.43.11.66a5.08,5.08,0,0,0,2,3.43,3.72,3.72,0,0,0,3.71-2.31l.39-.85.31.88c1.29,3.76,4.41,4.79,9.53,3.16l.29-.09,1.63,2.87Z"/><rect x="278.4" y="306.02" width="0.75" height="3.06" transform="translate(-25.23 24.91) rotate(-4.9)"/><rect x="272.05" y="306.02" width="0.75" height="1.83" transform="translate(-14.28 13.3) rotate(-2.72)"/><path d="M304.58,313.36l0-.45a.88.88,0,0,1,0-.17.81.81,0,0,1-.11-.43,3,3,0,0,1,.06-.42,1.76,1.76,0,0,0,0-.23l-.68,1.51a4.18,4.18,0,0,1-3.37,2.5l.07.59a1,1,0,0,1,.17,0,.44.44,0,0,1,.27.09,4.89,4.89,0,0,0,2.92-1.8,3,3,0,0,0,1.38,1.86.66.66,0,0,1,.15,0,.76.76,0,0,1,.16,0l.25-.52A2.44,2.44,0,0,1,304.58,313.36Z"/><polygon points="304.6 314.84 303.8 314.31 304.03 307.21 304.78 307.23 304.6 314.84"/><rect x="286.25" y="309.39" width="5.39" height="0.75" transform="translate(-25.29 593.83) rotate(-89.1)"/><path d="M315.33,316l-.2-.72c2.58-.74,3.84-2.22,3.75-4.41l-.08-1.7.78,1.51c.55,1.06,3.41,1.49,6.25.95,2.09-.41,3.49-1.24,3.57-2.12l.05-.52.47.21c1.86.83,3.26,1,4.17.46s1.24-1.43,1.4-2.93l.07-.71.54.46a2.73,2.73,0,0,0,2.13.89c.56-.1,1.09-.6,1.56-1.48l.13-.24.27.05a3.37,3.37,0,0,0,2.94-.47A3.84,3.84,0,0,0,344,302l.74-.06c.14,1.79-.23,3.09-1.1,3.87a3.81,3.81,0,0,1-3.31.7,3,3,0,0,1-1.95,1.63,3,3,0,0,1-2.23-.65,3.87,3.87,0,0,1-1.67,2.85c-1.07.62-2.53.54-4.44-.25-.43,1-1.89,1.88-4.06,2.3s-5,.34-6.38-.6C319.34,313.85,317.88,315.31,315.33,316Z"/><rect x="329.4" y="304.46" width="0.75" height="5.13"/><rect x="335.35" y="303.67" width="0.75" height="3.14" transform="translate(-24.17 28.92) rotate(-4.76)"/><rect x="339.7" y="302.98" width="0.75" height="3.13" transform="translate(-8.32 9.56) rotate(-1.59)"/><polygon points="318.88 310.92 318.53 305.87 319.28 305.82 319.63 310.87 318.88 310.92"/><path d="M254.7,364.94a2.06,2.06,0,0,1-1.41-.56,1.78,1.78,0,0,1-.59-1.26c.06-.86.16-2.42,1.39-2.52a2.36,2.36,0,0,1,2.37,2.19,2.07,2.07,0,0,1-.39,1.57,1.81,1.81,0,0,1-1.27.58h-.1Zm-.5-3.59h-.07c-.52,0-.63.95-.68,1.79a1,1,0,0,0,.35.69,1.39,1.39,0,0,0,.95.36,1.05,1.05,0,0,0,.75-.32,1.4,1.4,0,0,0,.21-1A1.63,1.63,0,0,0,254.2,361.35Z"/><path d="M246.83,320c-1.31-5.81,0-11,3.73-14.33l.26-.23c3.85-3.41,6.17-5.47,7.51-8.3l.45.22c-1.38,2.91-3.73,5-7.63,8.46l-.25.23c-3.55,3.17-4.85,8.22-3.58,13.84Z"/><path d="M369.41,306.86l-.49-.11c3.11-13.89-.37-28.88-8.45-36.46-7.74-7.26-8.47-10.06-9.93-15.66-.13-.47-.26-1-.4-1.5l.48-.13c.14.53.27,1,.4,1.51,1.44,5.5,2.16,8.26,9.79,15.42C369,277.62,372.55,292.81,369.41,306.86Z"/><path d="M379,327.36l-.45-.24c6.13-11.72,9.72-26.08,10.67-42.68l.5,0C388.8,301.14,385.2,315.57,379,327.36Z"/><path d="M253.83,269.93l-.47-.16c2.76-8.06,7.88-15.47,15.2-22l.34.37C261.64,254.61,256.57,262,253.83,269.93Z"/><path d="M240.32,334.38a23,23,0,0,0-3.91-6c-3.66-4.44-7.43-9-6.54-27.49l.5,0c-.88,18.27,2.83,22.79,6.42,27.15a23.55,23.55,0,0,1,4,6.14Z"/><path d="M285.76,354.09l-.15-.48A76.37,76.37,0,0,1,322.25,352l-.09.49A75.76,75.76,0,0,0,285.76,354.09Z"/><path d="M399.92,171.26c.21,0,.41,0,.61,0l.18,0c-5.47-14.1-20.58-16.78-53.73-9.52-13.31,3.58-21.43,6.55-23.55,11.16a7,7,0,0,0,0,5.59,0,0,0,0,0,0,0l.2-.15h0a.87.87,0,0,1,.1-.08.54.54,0,0,1,.35-.05h0a6.36,6.36,0,0,1,0-5c2-4.32,10.3-7.31,23.05-10.74,32.45-7.1,47.34-4.65,52.74,8.79Z"/><path d="M289.13,173.62a5.13,5.13,0,0,1-.83,4.6.29.29,0,0,1,.16,0l.22.19.06.06a.61.61,0,0,1,.17.15,5.92,5.92,0,0,0,.93-5.27c-2.07-6.45-15.74-11.22-26.85-14.08-21.1-4.92-40.86-4-50.33,2.24a12.84,12.84,0,0,0-5.78,7.75q.39-.11.81-.18a12.27,12.27,0,0,1,5.39-6.94c9.31-6.18,28.83-7,49.73-2.14C278.25,164,287.59,168.84,289.13,173.62Z"/><path d="M392.8,335.94a4.28,4.28,0,0,1-.63,1.22c1.93,19,.61,44.27-2.73,51C376.64,414,339.3,443.72,312,456.5c-34-7.87-63.39-33.75-87.25-76.95a110.56,110.56,0,0,1-.29-31.77.51.51,0,0,1-.24-.44l-.46-.06a113.14,113.14,0,0,0,.26,32.45l0,.13c24,43.47,53.57,69.52,87.9,77.4l.13,0,.11-.06c27.44-12.79,65-42.73,77.92-68.78C393.57,381.54,394.9,355.16,392.8,335.94Z"/><path d="M313.27,456.69a.56.56,0,0,1-.08-.47l-.78.3-.17.08a.65.65,0,0,1-.39,0l-.09,0c-17.88,8.88-28.54,16.21-27.23,36.58,1.11,17.35,3.05,69.68-1.3,103l.74.09c4.36-33.35,2.42-85.74,1.31-103.11C284,472.79,295,465.7,313.27,456.69Z"/><path d="M223.46,355.35a2.63,2.63,0,0,1-.08-.68c0-.22,0-.44,0-.65a18.78,18.78,0,0,0-3.32,10.42,115.5,115.5,0,0,0-9.29,21.15c-21.75,2.94-41.35,11.13-59.9,25.05a167.15,167.15,0,0,0-32.29,15.11C64.59,443.32,24.68,468.11,0,499.44l.59.47C25.18,468.7,65,444,118.92,426.43a166.08,166.08,0,0,1,32.27-15.09l.11-.06c18.53-13.91,38.1-22.08,59.83-25l.23,0,.07-.22a115,115,0,0,1,9.36-21.32l.05-.1v-.1A17.4,17.4,0,0,1,223.46,355.35Z"/><path d="M496.63,435.68a98.19,98.19,0,0,0-38.08-16.18c-8.45-7.29-17.51-11.56-27.7-13.06l-26.94-14.5-5.16-17.54a51.18,51.18,0,0,0-5.33-22.16,8.46,8.46,0,0,1-.23,1.22,51.09,51.09,0,0,1,4.82,21l5.27,18,27.27,14.69.13,0c10.1,1.47,19.08,5.71,27.46,12.95l.07.07.1,0a97.31,97.31,0,0,1,37.94,16.11l.11.05c43.76,12.69,74.06,32.12,90,57.75l.64-.39C571,468,540.54,448.42,496.63,435.68Z"/><path d="M307.09,480.8a5.82,5.82,0,0,1-3-.75c-2.79-1.65-3.28-5.53-3.48-7.19,0-.25-.06-.46-.09-.59-.2-1.8,1.85-4.54,4.76-6.41,3.14-2,6.25-2.37,8.54-1h0c.95.63,4.34,4.29,3.94,8.3-.29,2.84-2.4,5.07-6.27,6.63A12.13,12.13,0,0,1,307.09,480.8Zm3.66-16a9.94,9.94,0,0,0-5.05,1.71c-2.6,1.66-4.59,4.2-4.42,5.65,0,.13.05.34.08.61.21,1.69.65,5.19,3.12,6.64,1.63,1,3.9.86,6.76-.29,3.6-1.45,5.55-3.47,5.8-6,.36-3.61-2.76-7-3.6-7.59A5.16,5.16,0,0,0,310.75,464.79Z"/><path d="M308.91,475.46l-.34,0a3.06,3.06,0,0,1-2.18-1,1.7,1.7,0,0,1-.25-1.33,2.53,2.53,0,0,1,2.48-2.2,2.67,2.67,0,0,1,2,.84,1.89,1.89,0,0,1,.51,1.46h0a2.49,2.49,0,0,1-.9,1.82A2.09,2.09,0,0,1,308.91,475.46Zm-.29-3.8a1.79,1.79,0,0,0-1.74,1.58,1,1,0,0,0,.12.77,2.49,2.49,0,0,0,1.67.68,1.36,1.36,0,0,0,1.07-.25,1.81,1.81,0,0,0,.62-1.3h0a1.17,1.17,0,0,0-.33-.89A1.91,1.91,0,0,0,308.62,471.66Z"/></g></g></svg>