<svg version="1.1" viewBox="0.0 0.0 600.0 371.0" fill="none" stroke="none" stroke-linecap="square" stroke-miterlimit="10" width="600" height="371" xmlns:xlink="http://www.w3.org/1999/xlink" xmlns="http://www.w3.org/2000/svg"><path fill="#ffffff" d="M0 0L600.0 0L600.0 371.0L0 371.0L0 0Z" fill-rule="nonzero"/><path stroke="#f3f3f3" stroke-width="1.0" stroke-linecap="butt" d="M56.5 51.5L56.5 332.5" fill-rule="nonzero"/><path stroke="#f3f3f3" stroke-width="1.0" stroke-linecap="butt" d="M111.5 51.5L111.5 332.5" fill-rule="nonzero"/><path stroke="#f3f3f3" stroke-width="1.0" stroke-linecap="butt" d="M167.5 51.5L167.5 332.5" fill-rule="nonzero"/><path stroke="#f3f3f3" stroke-width="1.0" stroke-linecap="butt" d="M222.5 51.5L222.5 332.5" fill-rule="nonzero"/><path stroke="#f3f3f3" stroke-width="1.0" stroke-linecap="butt" d="M277.5 51.5L277.5 332.5" fill-rule="nonzero"/><path stroke="#f3f3f3" stroke-width="1.0" stroke-linecap="butt" d="M332.5 51.5L332.5 332.5" fill-rule="nonzero"/><path stroke="#f3f3f3" stroke-width="1.0" stroke-linecap="butt" d="M388.5 51.5L388.5 332.5" fill-rule="nonzero"/><path stroke="#f3f3f3" stroke-width="1.0" stroke-linecap="butt" d="M443.5 51.5L443.5 332.5" fill-rule="nonzero"/><path stroke="#f3f3f3" stroke-width="1.0" stroke-linecap="butt" d="M498.5 51.5L498.5 332.5" fill-rule="nonzero"/><path stroke="#f3f3f3" stroke-width="1.0" stroke-linecap="butt" d="M553.5 51.5L553.5 332.5" fill-rule="nonzero"/><path stroke="#333333" stroke-width="1.0" stroke-linecap="butt" d="M56.5 332.5L581.5 332.5" fill-rule="nonzero"/><path stroke="#f3f3f3" stroke-width="1.0" stroke-linecap="butt" d="M56.5 262.5L581.5 262.5" fill-rule="nonzero"/><path stroke="#f3f3f3" stroke-width="1.0" stroke-linecap="butt" d="M56.5 192.5L581.5 192.5" fill-rule="nonzero"/><path stroke="#f3f3f3" stroke-width="1.0" stroke-linecap="butt" d="M56.5 122.5L581.5 122.5" fill-rule="nonzero"/><path stroke="#f3f3f3" stroke-width="1.0" stroke-linecap="butt" d="M56.5 51.5L581.5 51.5" fill-rule="nonzero"/><clipPath id="id_0"><path d="M56.55 51.916668L581.45 51.916668L581.45 332.45L56.55 332.45L56.55 51.916668Z" clip-rule="nonzero"/></clipPath><path stroke="#4285f4" stroke-width="1.0" stroke-linecap="butt" clip-path="url(#id_0)" d="M56.55 332.45L194.68158 245.48466L249.9342 178.15666L277.56052 164.13L360.43948 133.27133" fill-rule="nonzero"/><path stroke="#999999" stroke-width="1.0" stroke-linecap="butt" stroke-opacity="0.4" clip-path="url(#id_0)" d="M0 368.49078L581.45 -34.208748" fill-rule="nonzero"/><path stroke="#ea4335" stroke-width="1.0" stroke-linecap="butt" clip-path="url(#id_0)" d="M56.55 332.45L581.45 51.916668" fill-rule="nonzero"/><path fill="#000000" fill-opacity="0.0" clip-path="url(#id_0)" d="M59.55 332.45C59.55 334.10684 58.206856 335.45 56.55 335.45C54.893147 335.45 53.55 334.10684 53.55 332.45C53.55 330.79315 54.893147 329.45 56.55 329.45C58.206856 329.45 59.55 330.79315 59.55 332.45Z" fill-rule="nonzero"/><path fill="#000000" fill-opacity="0.0" clip-path="url(#id_0)" d="M197.68158 245.48466C197.68158 247.14153 196.33844 248.48466 194.68158 248.48466C193.02472 248.48466 191.68158 247.14153 191.68158 245.48466C191.68158 243.82782 193.02472 242.48466 194.68158 242.48466C196.33844 242.48466 197.68158 243.82782 197.68158 245.48466Z" fill-rule="nonzero"/><path fill="#000000" fill-opacity="0.0" clip-path="url(#id_0)" d="M252.9342 178.15666C252.9342 179.81352 251.59106 181.15666 249.9342 181.15666C248.27736 181.15666 246.9342 179.81352 246.9342 178.15666C246.9342 176.49982 248.27736 175.15666 249.9342 175.15666C251.59106 175.15666 252.9342 176.49982 252.9342 178.15666Z" fill-rule="nonzero"/><path fill="#000000" fill-opacity="0.0" clip-path="url(#id_0)" d="M280.56052 164.13C280.56052 165.78685 279.21738 167.13 277.56052 167.13C275.9037 167.13 274.56052 165.78685 274.56052 164.13C274.56052 162.47314 275.9037 161.13 277.56052 161.13C279.21738 161.13 280.56052 162.47314 280.56052 164.13Z" fill-rule="nonzero"/><path fill="#000000" fill-opacity="0.0" clip-path="url(#id_0)" d="M363.43948 133.27133C363.43948 134.92819 362.0963 136.27133 360.43948 136.27133C358.78262 136.27133 357.43948 134.92819 357.43948 133.27133C357.43948 131.61449 358.78262 130.27133 360.43948 130.27133C362.0963 130.27133 363.43948 131.61449 363.43948 133.27133Z" fill-rule="nonzero"/><path fill="#000000" fill-opacity="0.0" clip-path="url(#id_0)" d="M59.55 332.45C59.55 334.10684 58.206856 335.45 56.55 335.45C54.893147 335.45 53.55 334.10684 53.55 332.45C53.55 330.79315 54.893147 329.45 56.55 329.45C58.206856 329.45 59.55 330.79315 59.55 332.45Z" fill-rule="nonzero"/><path fill="#000000" fill-opacity="0.0" clip-path="url(#id_0)" d="M584.45 51.916668C584.45 53.57352 583.1069 54.916668 581.45 54.916668C579.79315 54.916668 578.45 53.57352 578.45 51.916668C578.45 50.25981 579.79315 48.916668 581.45 48.916668C583.1069 48.916668 584.45 50.25981 584.45 51.916668Z" fill-rule="nonzero"/><path fill="#000000" d="M33.05 332.21564Q33.05 330.6844 33.3625 329.7625Q33.675 328.825 34.284374 328.325Q34.909374 327.825 35.846874 327.825Q36.534374 327.825 37.05 328.10626Q37.58125 328.3875 37.925 328.91876Q38.26875 329.4344 38.45625 330.1844Q38.64375 330.9344 38.64375 332.21564Q38.64375 333.73126 38.33125 334.65314Q38.034374 335.575 37.409374 336.09064Q36.8 336.59064 35.846874 336.59064Q34.6125 336.59064 33.89375 335.7Q33.05 334.6375 33.05 332.21564ZM34.128124 332.21564Q34.128124 334.325 34.628124 335.02814Q35.128124 335.73126 35.846874 335.73126Q36.58125 335.73126 37.065624 335.02814Q37.565624 334.325 37.565624 332.21564Q37.565624 330.09064 37.065624 329.40314Q36.58125 328.7 35.83125 328.7Q35.1125 328.7 34.675 329.3094Q34.128124 330.09064 34.128124 332.21564ZM40.253124 329.91876Q40.253124 328.9969 40.70625 328.35626Q41.175 327.71564 42.05 327.71564Q42.8625 327.71564 43.39375 328.29376Q43.925 328.8719 43.925 329.98126Q43.925 331.075 43.378124 331.66876Q42.846874 332.2469 42.065624 332.2469Q41.284374 332.2469 40.76875 331.66876Q40.253124 331.09064 40.253124 329.91876ZM42.08125 328.4344Q41.690624 328.4344 41.425 328.77814Q41.175 329.1219 41.175 330.02814Q41.175 330.85626 41.425 331.2Q41.690624 331.52814 42.08125 331.52814Q42.4875 331.52814 42.7375 331.1844Q43.003124 330.84064 43.003124 329.95Q43.003124 329.10626 42.7375 328.77814Q42.471874 328.4344 42.08125 328.4344ZM42.08125 336.7625L46.784374 327.71564L47.64375 327.71564L42.95625 336.7625L42.08125 336.7625ZM45.8 334.4344Q45.8 333.5125 46.253124 332.8719Q46.721874 332.23126 47.6125 332.23126Q48.425 332.23126 48.95625 332.8094Q49.4875 333.3719 49.4875 334.4969Q49.4875 335.59064 48.940624 336.1844Q48.409374 336.7625 47.6125 336.7625Q46.846874 336.7625 46.315624 336.1844Q45.8 335.60626 45.8 334.4344ZM47.64375 332.95Q47.2375 332.95 46.971874 333.29376Q46.721874 333.6375 46.721874 334.54376Q46.721874 335.35626 46.9875 335.7Q47.253124 336.04376 47.64375 336.04376Q48.034374 336.04376 48.3 335.7Q48.565624 335.35626 48.565624 334.45Q48.565624 333.6219 48.3 333.29376Q48.034374 332.95 47.64375 332.95Z" fill-rule="nonzero"/><path fill="#000000" d="M31.596874 265.30106L31.596874 266.31668L25.909374 266.31668Q25.909374 265.94168 26.034374 265.5823Q26.253124 265.00418 26.721874 264.44168Q27.20625 263.87918 28.1125 263.1448Q29.51875 261.98856 30.003124 261.31668Q30.503124 260.6448 30.503124 260.05106Q30.503124 259.42606 30.05 259.00418Q29.596874 258.56668 28.878124 258.56668Q28.1125 258.56668 27.659374 259.0198Q27.20625 259.47293 27.190624 260.28543L26.1125 260.17606Q26.221874 258.9573 26.940624 258.3323Q27.675 257.69168 28.909374 257.69168Q30.14375 257.69168 30.8625 258.37918Q31.58125 259.06668 31.58125 260.0823Q31.58125 260.59793 31.3625 261.09793Q31.159374 261.5823 30.659374 262.1448Q30.175 262.69168 29.05 263.6448Q28.096874 264.44168 27.815624 264.73856Q27.55 265.0198 27.378124 265.30106L31.596874 265.30106ZM33.05 264.06668L34.159374 263.97293Q34.284374 264.78543 34.721874 265.19168Q35.175 265.59793 35.815624 265.59793Q36.565624 265.59793 37.096874 265.0198Q37.628124 264.44168 37.628124 263.50418Q37.628124 262.59793 37.1125 262.0823Q36.6125 261.55106 35.784374 261.55106Q35.284374 261.55106 34.8625 261.78543Q34.45625 262.0198 34.221874 262.37918L33.2375 262.25418L34.065624 257.84793L38.346874 257.84793L38.346874 258.84793L34.909374 258.84793L34.45625 261.16043Q35.221874 260.61356 36.065624 260.61356Q37.190624 260.61356 37.95625 261.3948Q38.7375 262.17606 38.7375 263.41043Q38.7375 264.56668 38.065624 265.42606Q37.2375 266.4573 35.815624 266.4573Q34.64375 266.4573 33.89375 265.80106Q33.159374 265.1448 33.05 264.06668ZM40.253124 259.78543Q40.253124 258.86356 40.70625 258.22293Q41.175 257.5823 42.05 257.5823Q42.8625 257.5823 43.39375 258.16043Q43.925 258.73856 43.925 259.84793Q43.925 260.94168 43.378124 261.53543Q42.846874 262.11356 42.065624 262.11356Q41.284374 262.11356 40.76875 261.53543Q40.253124 260.9573 40.253124 259.78543ZM42.08125 258.30106Q41.690624 258.30106 41.425 258.6448Q41.175 258.98856 41.175 259.8948Q41.175 260.72293 41.425 261.06668Q41.690624 261.3948 42.08125 261.3948Q42.4875 261.3948 42.7375 261.05106Q43.003124 260.7073 43.003124 259.81668Q43.003124 258.97293 42.7375 258.6448Q42.471874 258.30106 42.08125 258.30106ZM42.08125 266.62918L46.784374 257.5823L47.64375 257.5823L42.95625 266.62918L42.08125 266.62918ZM45.8 264.30106Q45.8 263.37918 46.253124 262.73856Q46.721874 262.09793 47.6125 262.09793Q48.425 262.09793 48.95625 262.67606Q49.4875 263.23856 49.4875 264.36356Q49.4875 265.4573 48.940624 266.05106Q48.409374 266.62918 47.6125 266.62918Q46.846874 266.62918 46.315624 266.05106Q45.8 265.47293 45.8 264.30106ZM47.64375 262.81668Q47.2375 262.81668 46.971874 263.16043Q46.721874 263.50418 46.721874 264.41043Q46.721874 265.22293 46.9875 265.56668Q47.253124 265.91043 47.64375 265.91043Q48.034374 265.91043 48.3 265.56668Q48.565624 265.22293 48.565624 264.31668Q48.565624 263.48856 48.3 263.16043Q48.034374 262.81668 47.64375 262.81668Z" fill-rule="nonzero"/><path fill="#000000" d="M26.05 193.93333L27.159374 193.83958Q27.284374 194.65208 27.721874 195.05833Q28.175 195.46458 28.815624 195.46458Q29.565624 195.46458 30.096874 194.88646Q30.628124 194.30833 30.628124 193.37083Q30.628124 192.46458 30.1125 191.94896Q29.6125 191.41771 28.784374 191.41771Q28.284374 191.41771 27.8625 191.65208Q27.45625 191.88646 27.221874 192.24583L26.2375 192.12083L27.065624 187.71458L31.346874 187.71458L31.346874 188.71458L27.909374 188.71458L27.45625 191.02708Q28.221874 190.48021 29.065624 190.48021Q30.190624 190.48021 30.95625 191.26146Q31.7375 192.04271 31.7375 193.27708Q31.7375 194.43333 31.065624 195.29271Q30.2375 196.32396 28.815624 196.32396Q27.64375 196.32396 26.89375 195.66771Q26.159374 195.01146 26.05 193.93333ZM33.05 191.94896Q33.05 190.41771 33.3625 189.49583Q33.675 188.55833 34.284374 188.05833Q34.909374 187.55833 35.846874 187.55833Q36.534374 187.55833 37.05 187.83958Q37.58125 188.12083 37.925 188.65208Q38.26875 189.16771 38.45625 189.91771Q38.64375 190.66771 38.64375 191.94896Q38.64375 193.46458 38.33125 194.38646Q38.034374 195.30833 37.409374 195.82396Q36.8 196.32396 35.846874 196.32396Q34.6125 196.32396 33.89375 195.43333Q33.05 194.37083 33.05 191.94896ZM34.128124 191.94896Q34.128124 194.05833 34.628124 194.76146Q35.128124 195.46458 35.846874 195.46458Q36.58125 195.46458 37.065624 194.76146Q37.565624 194.05833 37.565624 191.94896Q37.565624 189.82396 37.065624 189.13646Q36.58125 188.43333 35.83125 188.43333Q35.1125 188.43333 34.675 189.04271Q34.128124 189.82396 34.128124 191.94896ZM40.253124 189.65208Q40.253124 188.73021 40.70625 188.08958Q41.175 187.44896 42.05 187.44896Q42.8625 187.44896 43.39375 188.02708Q43.925 188.60521 43.925 189.71458Q43.925 190.80833 43.378124 191.40208Q42.846874 191.98021 42.065624 191.98021Q41.284374 191.98021 40.76875 191.40208Q40.253124 190.82396 40.253124 189.65208ZM42.08125 188.16771Q41.690624 188.16771 41.425 188.51146Q41.175 188.85521 41.175 189.76146Q41.175 190.58958 41.425 190.93333Q41.690624 191.26146 42.08125 191.26146Q42.4875 191.26146 42.7375 190.91771Q43.003124 190.57396 43.003124 189.68333Q43.003124 188.83958 42.7375 188.51146Q42.471874 188.16771 42.08125 188.16771ZM42.08125 196.49583L46.784374 187.44896L47.64375 187.44896L42.95625 196.49583L42.08125 196.49583ZM45.8 194.16771Q45.8 193.24583 46.253124 192.60521Q46.721874 191.96458 47.6125 191.96458Q48.425 191.96458 48.95625 192.54271Q49.4875 193.10521 49.4875 194.23021Q49.4875 195.32396 48.940624 195.91771Q48.409374 196.49583 47.6125 196.49583Q46.846874 196.49583 46.315624 195.91771Q45.8 195.33958 45.8 194.16771ZM47.64375 192.68333Q47.2375 192.68333 46.971874 193.02708Q46.721874 193.37083 46.721874 194.27708Q46.721874 195.08958 46.9875 195.43333Q47.253124 195.77708 47.64375 195.77708Q48.034374 195.77708 48.3 195.43333Q48.565624 195.08958 48.565624 194.18333Q48.565624 193.35521 48.3 193.02708Q48.034374 192.68333 47.64375 192.68333Z" fill-rule="nonzero"/><path fill="#000000" d="M26.1125 118.58125L26.1125 117.56563L31.675 117.56563L31.675 118.39375Q30.8625 119.26875 30.05 120.72188Q29.253124 122.15938 28.815624 123.69063Q28.4875 124.76875 28.409374 126.05L27.315624 126.05Q27.33125 125.03438 27.70625 123.59688Q28.096874 122.15938 28.8 120.83125Q29.51875 119.50313 30.33125 118.58125L26.1125 118.58125ZM33.05 123.8L34.159374 123.70625Q34.284374 124.51875 34.721874 124.925Q35.175 125.33125 35.815624 125.33125Q36.565624 125.33125 37.096874 124.75313Q37.628124 124.175 37.628124 123.2375Q37.628124 122.33125 37.1125 121.81563Q36.6125 121.28438 35.784374 121.28438Q35.284374 121.28438 34.8625 121.51875Q34.45625 121.75313 34.221874 122.1125L33.2375 121.9875L34.065624 117.58125L38.346874 117.58125L38.346874 118.58125L34.909374 118.58125L34.45625 120.89375Q35.221874 120.34688 36.065624 120.34688Q37.190624 120.34688 37.95625 121.12813Q38.7375 121.90938 38.7375 123.14375Q38.7375 124.3 38.065624 125.15938Q37.2375 126.19063 35.815624 126.19063Q34.64375 126.19063 33.89375 125.53438Q33.159374 124.87813 33.05 123.8ZM40.253124 119.51875Q40.253124 118.59688 40.70625 117.95625Q41.175 117.31563 42.05 117.31563Q42.8625 117.31563 43.39375 117.89375Q43.925 118.47188 43.925 119.58125Q43.925 120.675 43.378124 121.26875Q42.846874 121.84688 42.065624 121.84688Q41.284374 121.84688 40.76875 121.26875Q40.253124 120.69063 40.253124 119.51875ZM42.08125 118.03438Q41.690624 118.03438 41.425 118.37813Q41.175 118.72188 41.175 119.62813Q41.175 120.45625 41.425 120.8Q41.690624 121.12813 42.08125 121.12813Q42.4875 121.12813 42.7375 120.78438Q43.003124 120.44063 43.003124 119.55Q43.003124 118.70625 42.7375 118.37813Q42.471874 118.03438 42.08125 118.03438ZM42.08125 126.3625L46.784374 117.31563L47.64375 117.31563L42.95625 126.3625L42.08125 126.3625ZM45.8 124.03438Q45.8 123.1125 46.253124 122.47188Q46.721874 121.83125 47.6125 121.83125Q48.425 121.83125 48.95625 122.40938Q49.4875 122.97188 49.4875 124.09688Q49.4875 125.19063 48.940624 125.78438Q48.409374 126.3625 47.6125 126.3625Q46.846874 126.3625 46.315624 125.78438Q45.8 125.20625 45.8 124.03438ZM47.64375 122.55Q47.2375 122.55 46.971874 122.89375Q46.721874 123.2375 46.721874 124.14375Q46.721874 124.95625 46.9875 125.3Q47.253124 125.64375 47.64375 125.64375Q48.034374 125.64375 48.3 125.3Q48.565624 124.95625 48.565624 124.05Q48.565624 123.22188 48.3 122.89375Q48.034374 122.55 47.64375 122.55Z" fill-rule="nonzero"/><path fill="#000000" d="M23.01875 55.916668L21.971874 55.916668L21.971874 49.197918Q21.58125 49.557293 20.95625 49.932293Q20.346874 50.291668 19.8625 50.463543L19.8625 49.447918Q20.7375 49.026043 21.39375 48.447918Q22.065624 47.854168 22.346874 47.291668L23.01875 47.291668L23.01875 55.916668ZM26.05 51.682293Q26.05 50.151043 26.3625 49.229168Q26.675 48.291668 27.284374 47.791668Q27.909374 47.291668 28.846874 47.291668Q29.534374 47.291668 30.05 47.572918Q30.58125 47.854168 30.925 48.385418Q31.26875 48.901043 31.45625 49.651043Q31.64375 50.401043 31.64375 51.682293Q31.64375 53.197918 31.33125 54.119793Q31.034374 55.041668 30.409374 55.557293Q29.8 56.057293 28.846874 56.057293Q27.6125 56.057293 26.89375 55.166668Q26.05 54.104168 26.05 51.682293ZM27.128124 51.682293Q27.128124 53.791668 27.628124 54.494793Q28.128124 55.197918 28.846874 55.197918Q29.58125 55.197918 30.065624 54.494793Q30.565624 53.791668 30.565624 51.682293Q30.565624 49.557293 30.065624 48.869793Q29.58125 48.166668 28.83125 48.166668Q28.1125 48.166668 27.675 48.776043Q27.128124 49.557293 27.128124 51.682293ZM33.05 51.682293Q33.05 50.151043 33.3625 49.229168Q33.675 48.291668 34.284374 47.791668Q34.909374 47.291668 35.846874 47.291668Q36.534374 47.291668 37.05 47.572918Q37.58125 47.854168 37.925 48.385418Q38.26875 48.901043 38.45625 49.651043Q38.64375 50.401043 38.64375 51.682293Q38.64375 53.197918 38.33125 54.119793Q38.034374 55.041668 37.409374 55.557293Q36.8 56.057293 35.846874 56.057293Q34.6125 56.057293 33.89375 55.166668Q33.05 54.104168 33.05 51.682293ZM34.128124 51.682293Q34.128124 53.791668 34.628124 54.494793Q35.128124 55.197918 35.846874 55.197918Q36.58125 55.197918 37.065624 54.494793Q37.565624 53.791668 37.565624 51.682293Q37.565624 49.557293 37.065624 48.869793Q36.58125 48.166668 35.83125 48.166668Q35.1125 48.166668 34.675 48.776043Q34.128124 49.557293 34.128124 51.682293ZM40.253124 49.385418Q40.253124 48.463543 40.70625 47.822918Q41.175 47.182293 42.05 47.182293Q42.8625 47.182293 43.39375 47.760418Q43.925 48.338543 43.925 49.447918Q43.925 50.541668 43.378124 51.135418Q42.846874 51.713543 42.065624 51.713543Q41.284374 51.713543 40.76875 51.135418Q40.253124 50.557293 40.253124 49.385418ZM42.08125 47.901043Q41.690624 47.901043 41.425 48.244793Q41.175 48.588543 41.175 49.494793Q41.175 50.322918 41.425 50.666668Q41.690624 50.994793 42.08125 50.994793Q42.4875 50.994793 42.7375 50.651043Q43.003124 50.307293 43.003124 49.416668Q43.003124 48.572918 42.7375 48.244793Q42.471874 47.901043 42.08125 47.901043ZM42.08125 56.229168L46.784374 47.182293L47.64375 47.182293L42.95625 56.229168L42.08125 56.229168ZM45.8 53.901043Q45.8 52.979168 46.253124 52.338543Q46.721874 51.697918 47.6125 51.697918Q48.425 51.697918 48.95625 52.276043Q49.4875 52.838543 49.4875 53.963543Q49.4875 55.057293 48.940624 55.651043Q48.409374 56.229168 47.6125 56.229168Q46.846874 56.229168 46.315624 55.651043Q45.8 55.072918 45.8 53.901043ZM47.64375 52.416668Q47.2375 52.416668 46.971874 52.760418Q46.721874 53.104168 46.721874 54.010418Q46.721874 54.822918 46.9875 55.166668Q47.253124 55.510418 47.64375 55.510418Q48.034374 55.510418 48.3 55.166668Q48.565624 54.822918 48.565624 53.916668Q48.565624 53.088543 48.3 52.760418Q48.034374 52.416668 47.64375 52.416668Z" fill-rule="nonzero"/><path fill="#000000" d="M45.1125 341.98126L45.1125 340.96564L50.675 340.96564L50.675 341.79376Q49.8625 342.66876 49.05 344.1219Q48.253124 345.5594 47.815624 347.09064Q47.4875 348.16876 47.409374 349.45L46.315624 349.45Q46.33125 348.4344 46.70625 346.9969Q47.096874 345.5594 47.8 344.23126Q48.51875 342.90314 49.33125 341.98126L45.1125 341.98126ZM51.55 349.59064L54.034374 340.71564L54.878124 340.71564L52.39375 349.59064L51.55 349.59064ZM60.596874 348.4344L60.596874 349.45L54.909374 349.45Q54.909374 349.075 55.034374 348.71564Q55.253124 348.1375 55.721874 347.575Q56.20625 347.0125 57.1125 346.27814Q58.51875 345.1219 59.003124 344.45Q59.503124 343.77814 59.503124 343.1844Q59.503124 342.5594 59.05 342.1375Q58.596874 341.7 57.878124 341.7Q57.1125 341.7 56.659374 342.15314Q56.20625 342.60626 56.190624 343.41876L55.1125 343.3094Q55.221874 342.09064 55.940624 341.46564Q56.675 340.825 57.909374 340.825Q59.14375 340.825 59.8625 341.5125Q60.58125 342.2 60.58125 343.21564Q60.58125 343.73126 60.3625 344.23126Q60.159374 344.71564 59.659374 345.27814Q59.175 345.825 58.05 346.77814Q57.096874 347.575 56.815624 347.8719Q56.55 348.15314 56.378124 348.4344L60.596874 348.4344ZM62.05 347.2L63.159374 347.10626Q63.284374 347.91876 63.721874 348.325Q64.175 348.73126 64.81563 348.73126Q65.56563 348.73126 66.09688 348.15314Q66.62813 347.575 66.62813 346.6375Q66.62813 345.73126 66.1125 345.21564Q65.6125 344.6844 64.78438 344.6844Q64.28438 344.6844 63.8625 344.91876Q63.45625 345.15314 63.221874 345.5125L62.2375 345.3875L63.065624 340.98126L67.34688 340.98126L67.34688 341.98126L63.909374 341.98126L63.45625 344.29376Q64.22188 343.7469 65.06563 343.7469Q66.19063 343.7469 66.95625 344.52814Q67.7375 345.3094 67.7375 346.54376Q67.7375 347.7 67.06563 348.5594Q66.2375 349.59064 64.81563 349.59064Q63.64375 349.59064 62.89375 348.9344Q62.159374 348.27814 62.05 347.2Z" fill-rule="nonzero"/><path fill="#000000" d="M100.365135 341.98126L100.365135 340.96564L105.927635 340.96564L105.927635 341.79376Q105.115135 342.66876 104.302635 344.1219Q103.50576 345.5594 103.06826 347.09064Q102.740135 348.16876 102.66201 349.45L101.56826 349.45Q101.583885 348.4344 101.958885 346.9969Q102.34951 345.5594 103.052635 344.23126Q103.771385 342.90314 104.583885 341.98126L100.365135 341.98126ZM106.802635 349.59064L109.28701 340.71564L110.13076 340.71564L107.646385 349.59064L106.802635 349.59064ZM115.84951 348.4344L115.84951 349.45L110.16201 349.45Q110.16201 349.075 110.28701 348.71564Q110.50576 348.1375 110.97451 347.575Q111.458885 347.0125 112.365135 346.27814Q113.771385 345.1219 114.25576 344.45Q114.75576 343.77814 114.75576 343.1844Q114.75576 342.5594 114.302635 342.1375Q113.84951 341.7 113.13076 341.7Q112.365135 341.7 111.91201 342.15314Q111.458885 342.60626 111.44326 343.41876L110.365135 343.3094Q110.47451 342.09064 111.19326 341.46564Q111.927635 340.825 113.16201 340.825Q114.396385 340.825 115.115135 341.5125Q115.833885 342.2 115.833885 343.21564Q115.833885 343.73126 115.615135 344.23126Q115.41201 344.71564 114.91201 345.27814Q114.427635 345.825 113.302635 346.77814Q112.34951 347.575 112.06826 347.8719Q111.802635 348.15314 111.63076 348.4344L115.84951 348.4344ZM117.365135 341.98126L117.365135 340.96564L122.927635 340.96564L122.927635 341.79376Q122.115135 342.66876 121.302635 344.1219Q120.50576 345.5594 120.06826 347.09064Q119.740135 348.16876 119.66201 349.45L118.56826 349.45Q118.583885 348.4344 118.958885 346.9969Q119.34951 345.5594 120.052635 344.23126Q120.771385 342.90314 121.583885 341.98126L117.365135 341.98126Z" fill-rule="nonzero"/><path fill="#000000" d="M155.61777 341.98126L155.61777 340.96564L161.18027 340.96564L161.18027 341.79376Q160.36777 342.66876 159.55527 344.1219Q158.75839 345.5594 158.32089 347.09064Q157.99277 348.16876 157.91464 349.45L156.82089 349.45Q156.83652 348.4344 157.21152 346.9969Q157.60214 345.5594 158.30527 344.23126Q159.02402 342.90314 159.83652 341.98126L155.61777 341.98126ZM162.05527 349.59064L164.53964 340.71564L165.38339 340.71564L162.89902 349.59064L162.05527 349.59064ZM171.10214 348.4344L171.10214 349.45L165.41464 349.45Q165.41464 349.075 165.53964 348.71564Q165.75839 348.1375 166.22714 347.575Q166.71152 347.0125 167.61777 346.27814Q169.02402 345.1219 169.50839 344.45Q170.00839 343.77814 170.00839 343.1844Q170.00839 342.5594 169.55527 342.1375Q169.10214 341.7 168.38339 341.7Q167.61777 341.7 167.16464 342.15314Q166.71152 342.60626 166.69589 343.41876L165.61777 343.3094Q165.72714 342.09064 166.44589 341.46564Q167.18027 340.825 168.41464 340.825Q169.64902 340.825 170.36777 341.5125Q171.08652 342.2 171.08652 343.21564Q171.08652 343.73126 170.86777 344.23126Q170.66464 344.71564 170.16464 345.27814Q169.68027 345.825 168.55527 346.77814Q167.60214 347.575 167.32089 347.8719Q167.05527 348.15314 166.88339 348.4344L171.10214 348.4344ZM172.71152 347.46564L173.72714 347.3719Q173.85214 348.09064 174.21152 348.41876Q174.58652 348.73126 175.14902 348.73126Q175.63339 348.73126 175.99277 348.5125Q176.36777 348.27814 176.60214 347.91876Q176.83652 347.54376 176.99277 346.91876Q177.14902 346.27814 177.14902 345.6219Q177.14902 345.54376 177.14902 345.40314Q176.83652 345.90314 176.28964 346.23126Q175.74277 346.54376 175.10214 346.54376Q174.02402 346.54376 173.28964 345.77814Q172.55527 344.9969 172.55527 343.73126Q172.55527 342.41876 173.32089 341.6219Q174.10214 340.825 175.25839 340.825Q176.08652 340.825 176.77402 341.27814Q177.47714 341.73126 177.83652 342.575Q178.19589 343.40314 178.19589 344.98126Q178.19589 346.6219 177.83652 347.60626Q177.49277 348.575 176.77402 349.09064Q176.07089 349.59064 175.13339 349.59064Q174.11777 349.59064 173.47714 349.04376Q172.83652 348.48126 172.71152 347.46564ZM177.02402 343.66876Q177.02402 342.7625 176.53964 342.23126Q176.07089 341.7 175.38339 341.7Q174.68027 341.7 174.14902 342.27814Q173.63339 342.84064 173.63339 343.7625Q173.63339 344.575 174.13339 345.09064Q174.63339 345.60626 175.35214 345.60626Q176.08652 345.60626 176.55527 345.09064Q177.02402 344.575 177.02402 343.66876Z" fill-rule="nonzero"/><path fill="#000000" d="M210.87039 341.98126L210.87039 340.96564L216.43289 340.96564L216.43289 341.79376Q215.62039 342.66876 214.80789 344.1219Q214.01102 345.5594 213.57352 347.09064Q213.24539 348.16876 213.16727 349.45L212.07352 349.45Q212.08914 348.4344 212.46414 346.9969Q212.85477 345.5594 213.55789 344.23126Q214.27664 342.90314 215.08914 341.98126L210.87039 341.98126ZM217.30789 349.59064L219.79227 340.71564L220.63602 340.71564L218.15164 349.59064L217.30789 349.59064ZM220.80789 347.1844L221.87039 347.04376Q222.04227 347.9344 222.47977 348.34064Q222.91727 348.73126 223.54227 348.73126Q224.29227 348.73126 224.80789 348.21564Q225.32352 347.7 225.32352 346.9344Q225.32352 346.21564 224.83914 345.7469Q224.37039 345.2625 223.63602 345.2625Q223.33914 345.2625 222.88602 345.3875L223.01102 344.45Q223.12039 344.46564 223.18289 344.46564Q223.85477 344.46564 224.38602 344.1219Q224.93289 343.7625 224.93289 343.02814Q224.93289 342.45 224.54227 342.075Q224.15164 341.6844 223.52664 341.6844Q222.91727 341.6844 222.49539 342.075Q222.08914 342.46564 221.97977 343.23126L220.91727 343.04376Q221.10477 341.9969 221.79227 341.41876Q222.47977 340.825 223.49539 340.825Q224.19852 340.825 224.79227 341.1375Q225.38602 341.4344 225.69852 341.95Q226.01102 342.46564 226.01102 343.0594Q226.01102 343.60626 225.71414 344.075Q225.41727 344.52814 224.83914 344.79376Q225.58914 344.96564 226.01102 345.52814Q226.43289 346.075 226.43289 346.91876Q226.43289 348.04376 225.60477 348.825Q224.79227 349.60626 223.54227 349.60626Q222.41727 349.60626 221.66727 348.9344Q220.91727 348.2469 220.80789 347.1844ZM231.77664 349.45L230.72977 349.45L230.72977 342.73126Q230.33914 343.09064 229.71414 343.46564Q229.10477 343.825 228.62039 343.9969L228.62039 342.98126Q229.49539 342.5594 230.15164 341.98126Q230.82352 341.3875 231.10477 340.825L231.77664 340.825L231.77664 349.45Z" fill-rule="nonzero"/><path fill="#000000" d="M271.18552 344.79376Q270.52927 344.54376 270.20114 344.10626Q269.88864 343.65314 269.88864 343.04376Q269.88864 342.10626 270.56052 341.46564Q271.24802 340.825 272.3574 340.825Q273.4824 340.825 274.1699 341.48126Q274.8574 342.1375 274.8574 343.075Q274.8574 343.66876 274.5449 344.10626Q274.2324 344.54376 273.59177 344.79376Q274.38864 345.04376 274.7949 345.6219Q275.20114 346.2 275.20114 346.9969Q275.20114 348.09064 274.4199 348.84064Q273.65427 349.59064 272.37302 349.59064Q271.1074 349.59064 270.32614 348.84064Q269.5449 348.09064 269.5449 346.96564Q269.5449 346.1219 269.96677 345.5594Q270.40427 344.9969 271.18552 344.79376ZM270.96677 342.9969Q270.96677 343.60626 271.3574 343.9969Q271.76364 344.3875 272.38864 344.3875Q272.99802 344.3875 273.38864 344.0125Q273.77927 343.6219 273.77927 343.0594Q273.77927 342.48126 273.37302 342.09064Q272.96677 341.6844 272.37302 341.6844Q271.76364 341.6844 271.3574 342.075Q270.96677 342.46564 270.96677 342.9969ZM270.63864 346.96564Q270.63864 347.41876 270.84177 347.84064Q271.06052 348.2625 271.4824 348.4969Q271.90427 348.73126 272.38864 348.73126Q273.13864 348.73126 273.62302 348.2469Q274.12302 347.7625 274.12302 347.0125Q274.12302 346.2469 273.62302 345.7469Q273.12302 345.2469 272.3574 345.2469Q271.6074 345.2469 271.12302 345.7469Q270.63864 346.23126 270.63864 346.96564ZM276.06052 349.59064L278.5449 340.71564L279.38864 340.71564L276.90427 349.59064L276.06052 349.59064ZM285.1074 348.4344L285.1074 349.45L279.4199 349.45Q279.4199 349.075 279.5449 348.71564Q279.76364 348.1375 280.2324 347.575Q280.71677 347.0125 281.62302 346.27814Q283.02927 345.1219 283.51364 344.45Q284.01364 343.77814 284.01364 343.1844Q284.01364 342.5594 283.56052 342.1375Q283.1074 341.7 282.38864 341.7Q281.62302 341.7 281.1699 342.15314Q280.71677 342.60626 280.70114 343.41876L279.62302 343.3094Q279.7324 342.09064 280.45114 341.46564Q281.18552 340.825 282.4199 340.825Q283.65427 340.825 284.37302 341.5125Q285.09177 342.2 285.09177 343.21564Q285.09177 343.73126 284.87302 344.23126Q284.6699 344.71564 284.1699 345.27814Q283.68552 345.825 282.56052 346.77814Q281.6074 347.575 281.32614 347.8719Q281.06052 348.15314 280.88864 348.4344L285.1074 348.4344Z" fill-rule="nonzero"/><path fill="#000000" d="M326.43817 344.79376Q325.78192 344.54376 325.4538 344.10626Q325.1413 343.65314 325.1413 343.04376Q325.1413 342.10626 325.81317 341.46564Q326.50067 340.825 327.61005 340.825Q328.73505 340.825 329.42255 341.48126Q330.11005 342.1375 330.11005 343.075Q330.11005 343.66876 329.79755 344.10626Q329.48505 344.54376 328.84442 344.79376Q329.6413 345.04376 330.04755 345.6219Q330.4538 346.2 330.4538 346.9969Q330.4538 348.09064 329.67255 348.84064Q328.90692 349.59064 327.62567 349.59064Q326.36005 349.59064 325.5788 348.84064Q324.79755 348.09064 324.79755 346.96564Q324.79755 346.1219 325.21942 345.5594Q325.65692 344.9969 326.43817 344.79376ZM326.21942 342.9969Q326.21942 343.60626 326.61005 343.9969Q327.0163 344.3875 327.6413 344.3875Q328.25067 344.3875 328.6413 344.0125Q329.03192 343.6219 329.03192 343.0594Q329.03192 342.48126 328.62567 342.09064Q328.21942 341.6844 327.62567 341.6844Q327.0163 341.6844 326.61005 342.075Q326.21942 342.46564 326.21942 342.9969ZM325.8913 346.96564Q325.8913 347.41876 326.09442 347.84064Q326.31317 348.2625 326.73505 348.4969Q327.15692 348.73126 327.6413 348.73126Q328.3913 348.73126 328.87567 348.2469Q329.37567 347.7625 329.37567 347.0125Q329.37567 346.2469 328.87567 345.7469Q328.37567 345.2469 327.61005 345.2469Q326.86005 345.2469 326.37567 345.7469Q325.8913 346.23126 325.8913 346.96564ZM331.31317 349.59064L333.79755 340.71564L334.6413 340.71564L332.15692 349.59064L331.31317 349.59064ZM338.18817 349.45L338.18817 347.3875L334.46942 347.3875L334.46942 346.41876L338.3913 340.85626L339.25067 340.85626L339.25067 346.41876L340.40692 346.41876L340.40692 347.3875L339.25067 347.3875L339.25067 349.45L338.18817 349.45ZM338.18817 346.41876L338.18817 342.5594L335.50067 346.41876L338.18817 346.41876Z" fill-rule="nonzero"/><path fill="#000000" d="M381.6908 344.79376Q381.03455 344.54376 380.70642 344.10626Q380.39392 343.65314 380.39392 343.04376Q380.39392 342.10626 381.0658 341.46564Q381.7533 340.825 382.86267 340.825Q383.98767 340.825 384.67517 341.48126Q385.36267 342.1375 385.36267 343.075Q385.36267 343.66876 385.05017 344.10626Q384.73767 344.54376 384.09705 344.79376Q384.89392 345.04376 385.30017 345.6219Q385.70642 346.2 385.70642 346.9969Q385.70642 348.09064 384.92517 348.84064Q384.15955 349.59064 382.8783 349.59064Q381.61267 349.59064 380.83142 348.84064Q380.05017 348.09064 380.05017 346.96564Q380.05017 346.1219 380.47205 345.5594Q380.90955 344.9969 381.6908 344.79376ZM381.47205 342.9969Q381.47205 343.60626 381.86267 343.9969Q382.26892 344.3875 382.89392 344.3875Q383.5033 344.3875 383.89392 344.0125Q384.28455 343.6219 384.28455 343.0594Q384.28455 342.48126 383.8783 342.09064Q383.47205 341.6844 382.8783 341.6844Q382.26892 341.6844 381.86267 342.075Q381.47205 342.46564 381.47205 342.9969ZM381.14392 346.96564Q381.14392 347.41876 381.34705 347.84064Q381.5658 348.2625 381.98767 348.4969Q382.40955 348.73126 382.89392 348.73126Q383.64392 348.73126 384.1283 348.2469Q384.6283 347.7625 384.6283 347.0125Q384.6283 346.2469 384.1283 345.7469Q383.6283 345.2469 382.86267 345.2469Q382.11267 345.2469 381.6283 345.7469Q381.14392 346.23126 381.14392 346.96564ZM386.5658 349.59064L389.05017 340.71564L389.89392 340.71564L387.40955 349.59064L386.5658 349.59064ZM395.53455 342.96564L394.48767 343.04376Q394.34705 342.41876 394.09705 342.1375Q393.65955 341.6844 393.03455 341.6844Q392.53455 341.6844 392.14392 341.96564Q391.65955 342.34064 391.36267 343.04376Q391.08142 343.73126 391.0658 345.0125Q391.4408 344.4344 391.98767 344.15314Q392.55017 343.8719 393.15955 343.8719Q394.20642 343.8719 394.9408 344.65314Q395.6908 345.4344 395.6908 346.65314Q395.6908 347.46564 395.33142 348.16876Q394.98767 348.85626 394.3783 349.23126Q393.76892 349.59064 393.0033 349.59064Q391.67517 349.59064 390.84705 348.6219Q390.01892 347.65314 390.01892 345.4344Q390.01892 342.9344 390.9408 341.8094Q391.73767 340.825 393.09705 340.825Q394.11267 340.825 394.7533 341.40314Q395.40955 341.96564 395.53455 342.96564ZM391.23767 346.66876Q391.23767 347.21564 391.45642 347.71564Q391.6908 348.2 392.09705 348.46564Q392.51892 348.73126 392.98767 348.73126Q393.64392 348.73126 394.1283 348.2Q394.61267 347.65314 394.61267 346.73126Q394.61267 345.84064 394.1283 345.325Q393.65955 344.8094 392.9408 344.8094Q392.22205 344.8094 391.72205 345.325Q391.23767 345.84064 391.23767 346.66876Z" fill-rule="nonzero"/><path fill="#000000" d="M436.94342 344.79376Q436.28717 344.54376 435.95905 344.10626Q435.64655 343.65314 435.64655 343.04376Q435.64655 342.10626 436.31842 341.46564Q437.00592 340.825 438.1153 340.825Q439.2403 340.825 439.9278 341.48126Q440.6153 342.1375 440.6153 343.075Q440.6153 343.66876 440.3028 344.10626Q439.9903 344.54376 439.34967 344.79376Q440.14655 345.04376 440.5528 345.6219Q440.95905 346.2 440.95905 346.9969Q440.95905 348.09064 440.1778 348.84064Q439.41217 349.59064 438.13092 349.59064Q436.8653 349.59064 436.08405 348.84064Q435.3028 348.09064 435.3028 346.96564Q435.3028 346.1219 435.72467 345.5594Q436.16217 344.9969 436.94342 344.79376ZM436.72467 342.9969Q436.72467 343.60626 437.1153 343.9969Q437.52155 344.3875 438.14655 344.3875Q438.75592 344.3875 439.14655 344.0125Q439.53717 343.6219 439.53717 343.0594Q439.53717 342.48126 439.13092 342.09064Q438.72467 341.6844 438.13092 341.6844Q437.52155 341.6844 437.1153 342.075Q436.72467 342.46564 436.72467 342.9969ZM436.39655 346.96564Q436.39655 347.41876 436.59967 347.84064Q436.81842 348.2625 437.2403 348.4969Q437.66217 348.73126 438.14655 348.73126Q438.89655 348.73126 439.38092 348.2469Q439.88092 347.7625 439.88092 347.0125Q439.88092 346.2469 439.38092 345.7469Q438.88092 345.2469 438.1153 345.2469Q437.3653 345.2469 436.88092 345.7469Q436.39655 346.23126 436.39655 346.96564ZM441.81842 349.59064L444.3028 340.71564L445.14655 340.71564L442.66217 349.59064L441.81842 349.59064ZM446.94342 344.79376Q446.28717 344.54376 445.95905 344.10626Q445.64655 343.65314 445.64655 343.04376Q445.64655 342.10626 446.31842 341.46564Q447.00592 340.825 448.1153 340.825Q449.2403 340.825 449.9278 341.48126Q450.6153 342.1375 450.6153 343.075Q450.6153 343.66876 450.3028 344.10626Q449.9903 344.54376 449.34967 344.79376Q450.14655 345.04376 450.5528 345.6219Q450.95905 346.2 450.95905 346.9969Q450.95905 348.09064 450.1778 348.84064Q449.41217 349.59064 448.13092 349.59064Q446.8653 349.59064 446.08405 348.84064Q445.3028 348.09064 445.3028 346.96564Q445.3028 346.1219 445.72467 345.5594Q446.16217 344.9969 446.94342 344.79376ZM446.72467 342.9969Q446.72467 343.60626 447.1153 343.9969Q447.52155 344.3875 448.14655 344.3875Q448.75592 344.3875 449.14655 344.0125Q449.53717 343.6219 449.53717 343.0594Q449.53717 342.48126 449.13092 342.09064Q448.72467 341.6844 448.13092 341.6844Q447.52155 341.6844 447.1153 342.075Q446.72467 342.46564 446.72467 342.9969ZM446.39655 346.96564Q446.39655 347.41876 446.59967 347.84064Q446.81842 348.2625 447.2403 348.4969Q447.66217 348.73126 448.14655 348.73126Q448.89655 348.73126 449.38092 348.2469Q449.88092 347.7625 449.88092 347.0125Q449.88092 346.2469 449.38092 345.7469Q448.88092 345.2469 448.1153 345.2469Q447.3653 345.2469 446.88092 345.7469Q446.39655 346.23126 446.39655 346.96564Z" fill-rule="nonzero"/><path fill="#000000" d="M488.69604 344.79376Q488.0398 344.54376 487.71167 344.10626Q487.39917 343.65314 487.39917 343.04376Q487.39917 342.10626 488.07104 341.46564Q488.75854 340.825 489.86792 340.825Q490.99292 340.825 491.68042 341.48126Q492.36792 342.1375 492.36792 343.075Q492.36792 343.66876 492.05542 344.10626Q491.74292 344.54376 491.1023 344.79376Q491.89917 345.04376 492.30542 345.6219Q492.71167 346.2 492.71167 346.9969Q492.71167 348.09064 491.93042 348.84064Q491.1648 349.59064 489.88354 349.59064Q488.61792 349.59064 487.83667 348.84064Q487.05542 348.09064 487.05542 346.96564Q487.05542 346.1219 487.4773 345.5594Q487.9148 344.9969 488.69604 344.79376ZM488.4773 342.9969Q488.4773 343.60626 488.86792 343.9969Q489.27417 344.3875 489.89917 344.3875Q490.50854 344.3875 490.89917 344.0125Q491.2898 343.6219 491.2898 343.0594Q491.2898 342.48126 490.88354 342.09064Q490.4773 341.6844 489.88354 341.6844Q489.27417 341.6844 488.86792 342.075Q488.4773 342.46564 488.4773 342.9969ZM488.14917 346.96564Q488.14917 347.41876 488.3523 347.84064Q488.57104 348.2625 488.99292 348.4969Q489.4148 348.73126 489.89917 348.73126Q490.64917 348.73126 491.13354 348.2469Q491.63354 347.7625 491.63354 347.0125Q491.63354 346.2469 491.13354 345.7469Q490.63354 345.2469 489.86792 345.2469Q489.11792 345.2469 488.63354 345.7469Q488.14917 346.23126 488.14917 346.96564ZM493.57104 349.59064L496.05542 340.71564L496.89917 340.71564L494.4148 349.59064L493.57104 349.59064ZM501.0398 349.45L499.99292 349.45L499.99292 342.73126Q499.6023 343.09064 498.9773 343.46564Q498.36792 343.825 497.88354 343.9969L497.88354 342.98126Q498.75854 342.5594 499.4148 341.98126Q500.08667 341.3875 500.36792 340.825L501.0398 340.825L501.0398 349.45ZM504.07104 345.21564Q504.07104 343.6844 504.38354 342.7625Q504.69604 341.825 505.30542 341.325Q505.93042 340.825 506.86792 340.825Q507.55542 340.825 508.07104 341.10626Q508.6023 341.3875 508.94604 341.91876Q509.2898 342.4344 509.4773 343.1844Q509.6648 343.9344 509.6648 345.21564Q509.6648 346.73126 509.3523 347.65314Q509.05542 348.575 508.43042 349.09064Q507.82104 349.59064 506.86792 349.59064Q505.63354 349.59064 504.9148 348.7Q504.07104 347.6375 504.07104 345.21564ZM505.14917 345.21564Q505.14917 347.325 505.64917 348.02814Q506.14917 348.73126 506.86792 348.73126Q507.6023 348.73126 508.08667 348.02814Q508.58667 347.325 508.58667 345.21564Q508.58667 343.09064 508.08667 342.40314Q507.6023 341.7 506.8523 341.7Q506.13354 341.7 505.69604 342.3094Q505.14917 343.09064 505.14917 345.21564Z" fill-rule="nonzero"/><path fill="#000000" d="M543.94867 344.79376Q543.2924 344.54376 542.9643 344.10626Q542.6518 343.65314 542.6518 343.04376Q542.6518 342.10626 543.32367 341.46564Q544.01117 340.825 545.12054 340.825Q546.24554 340.825 546.93304 341.48126Q547.62054 342.1375 547.62054 343.075Q547.62054 343.66876 547.30804 344.10626Q546.99554 344.54376 546.3549 344.79376Q547.1518 345.04376 547.55804 345.6219Q547.9643 346.2 547.9643 346.9969Q547.9643 348.09064 547.18304 348.84064Q546.4174 349.59064 545.13617 349.59064Q543.87054 349.59064 543.0893 348.84064Q542.30804 348.09064 542.30804 346.96564Q542.30804 346.1219 542.7299 345.5594Q543.1674 344.9969 543.94867 344.79376ZM543.7299 342.9969Q543.7299 343.60626 544.12054 343.9969Q544.5268 344.3875 545.1518 344.3875Q545.76117 344.3875 546.1518 344.0125Q546.5424 343.6219 546.5424 343.0594Q546.5424 342.48126 546.13617 342.09064Q545.7299 341.6844 545.13617 341.6844Q544.5268 341.6844 544.12054 342.075Q543.7299 342.46564 543.7299 342.9969ZM543.4018 346.96564Q543.4018 347.41876 543.6049 347.84064Q543.82367 348.2625 544.24554 348.4969Q544.6674 348.73126 545.1518 348.73126Q545.9018 348.73126 546.38617 348.2469Q546.88617 347.7625 546.88617 347.0125Q546.88617 346.2469 546.38617 345.7469Q545.88617 345.2469 545.12054 345.2469Q544.37054 345.2469 543.88617 345.7469Q543.4018 346.23126 543.4018 346.96564ZM548.82367 349.59064L551.30804 340.71564L552.1518 340.71564L549.6674 349.59064L548.82367 349.59064ZM556.2924 349.45L555.24554 349.45L555.24554 342.73126Q554.8549 343.09064 554.2299 343.46564Q553.62054 343.825 553.13617 343.9969L553.13617 342.98126Q554.01117 342.5594 554.6674 341.98126Q555.3393 341.3875 555.62054 340.825L556.2924 340.825L556.2924 349.45ZM564.87054 348.4344L564.87054 349.45L559.18304 349.45Q559.18304 349.075 559.30804 348.71564Q559.5268 348.1375 559.99554 347.575Q560.4799 347.0125 561.38617 346.27814Q562.7924 345.1219 563.2768 344.45Q563.7768 343.77814 563.7768 343.1844Q563.7768 342.5594 563.32367 342.1375Q562.87054 341.7 562.1518 341.7Q561.38617 341.7 560.93304 342.15314Q560.4799 342.60626 560.4643 343.41876L559.38617 343.3094Q559.49554 342.09064 560.2143 341.46564Q560.94867 340.825 562.18304 340.825Q563.4174 340.825 564.13617 341.5125Q564.8549 342.2 564.8549 343.21564Q564.8549 343.73126 564.63617 344.23126Q564.43304 344.71564 563.93304 345.27814Q563.44867 345.825 562.32367 346.77814Q561.37054 347.575 561.0893 347.8719Q560.82367 348.15314 560.6518 348.4344L564.87054 348.4344Z" fill-rule="nonzero"/><path stroke="#4285f4" stroke-width="4.0" stroke-linecap="butt" d="M175.0 25.55L187.0 25.55" fill-rule="nonzero"/><path fill="#1a1a1a" d="M195.9375 29.55L195.9375 20.95625L199.75 20.95625Q200.90625 20.95625 201.5 21.190624Q202.09375 21.425 202.45312 22.01875Q202.8125 22.596874 202.8125 23.3Q202.8125 24.221874 202.21875 24.846874Q201.625 25.471874 200.39062 25.64375Q200.84375 25.8625 201.07812 26.065624Q201.57812 26.51875 202.01562 27.20625L203.51562 29.55L202.07812 29.55L200.95312 27.76875Q200.45312 26.9875 200.125 26.58125Q199.8125 26.175 199.54688 26.01875Q199.29688 25.846874 199.03125 25.76875Q198.84375 25.7375 198.40625 25.7375L197.07812 25.7375L197.07812 29.55L195.9375 29.55ZM197.07812 24.753124L199.53125 24.753124Q200.29688 24.753124 200.73438 24.596874Q201.1875 24.425 201.40625 24.08125Q201.64062 23.721874 201.64062 23.3Q201.64062 22.690624 201.1875 22.3Q200.75 21.909374 199.79688 21.909374L197.07812 21.909374L197.07812 24.753124ZM209.04688 27.55L210.14062 27.675Q209.89062 28.628124 209.1875 29.159374Q208.48438 29.690624 207.40625 29.690624Q206.04688 29.690624 205.23438 28.846874Q204.4375 28.003124 204.4375 26.4875Q204.4375 24.925 205.25 24.065624Q206.0625 23.190624 207.34375 23.190624Q208.59375 23.190624 209.375 24.034374Q210.17188 24.878124 210.17188 26.425Q210.17188 26.51875 210.17188 26.70625L205.53125 26.70625Q205.59375 27.7375 206.10938 28.284374Q206.625 28.815624 207.40625 28.815624Q207.98438 28.815624 208.39062 28.51875Q208.8125 28.20625 209.04688 27.55ZM205.59375 25.846874L209.0625 25.846874Q209.0 25.05 208.67188 24.659374Q208.15625 24.05 207.35938 24.05Q206.625 24.05 206.125 24.534374Q205.64062 25.01875 205.59375 25.846874ZM211.79688 31.940624L211.79688 23.33125L212.75 23.33125L212.75 24.128124Q213.09375 23.659374 213.51562 23.425Q213.95312 23.190624 214.5625 23.190624Q215.35938 23.190624 215.96875 23.596874Q216.57812 24.003124 216.875 24.753124Q217.1875 25.503124 217.1875 26.39375Q217.1875 27.346874 216.84375 28.1125Q216.51562 28.878124 215.85938 29.284374Q215.20312 29.690624 214.48438 29.690624Q213.95312 29.690624 213.53125 29.471874Q213.10938 29.2375 212.84375 28.909374L212.84375 31.940624L211.79688 31.940624ZM212.75 26.471874Q212.75 27.675 213.23438 28.253124Q213.71875 28.815624 214.40625 28.815624Q215.10938 28.815624 215.60938 28.221874Q216.10938 27.628124 216.10938 26.378124Q216.10938 25.190624 215.625 24.6125Q215.14062 24.01875 214.45312 24.01875Q213.78125 24.01875 213.26562 24.64375Q212.75 25.26875 212.75 26.471874ZM218.40625 26.440624Q218.40625 24.70625 219.35938 23.878124Q220.15625 23.190624 221.3125 23.190624Q222.59375 23.190624 223.40625 24.034374Q224.23438 24.8625 224.23438 26.346874Q224.23438 27.55 223.875 28.2375Q223.51562 28.925 222.8125 29.315624Q222.125 29.690624 221.3125 29.690624Q220.01562 29.690624 219.20312 28.8625Q218.40625 28.01875 218.40625 26.440624ZM219.48438 26.440624Q219.48438 27.628124 220.0 28.221874Q220.53125 28.815624 221.3125 28.815624Q222.10938 28.815624 222.625 28.221874Q223.14062 27.628124 223.14062 26.409374Q223.14062 25.253124 222.60938 24.659374Q222.09375 24.065624 221.3125 24.065624Q220.53125 24.065624 220.0 24.659374Q219.48438 25.2375 219.48438 26.440624ZM225.78125 29.55L225.78125 23.33125L226.73438 23.33125L226.73438 24.26875Q227.09375 23.6125 227.39062 23.409374Q227.70312 23.190624 228.07812 23.190624Q228.60938 23.190624 229.15625 23.51875L228.79688 24.503124Q228.40625 24.26875 228.03125 24.26875Q227.67188 24.26875 227.39062 24.4875Q227.125 24.690624 227.01562 25.065624Q226.82812 25.628124 226.82812 26.284374L226.82812 29.55L225.78125 29.55ZM232.09375 28.6125L232.25 29.534374Q231.79688 29.628124 231.45312 29.628124Q230.875 29.628124 230.5625 29.45625Q230.25 29.26875 230.10938 28.971874Q229.98438 28.675 229.98438 27.721874L229.98438 24.14375L229.21875 24.14375L229.21875 23.33125L229.98438 23.33125L229.98438 21.784374L231.03125 21.159374L231.03125 23.33125L232.09375 23.33125L232.09375 24.14375L231.03125 24.14375L231.03125 27.784374Q231.03125 28.2375 231.07812 28.3625Q231.14062 28.4875 231.26562 28.565624Q231.39062 28.64375 231.625 28.64375Q231.8125 28.64375 232.09375 28.6125ZM237.04688 27.55L238.14062 27.675Q237.89062 28.628124 237.1875 29.159374Q236.48438 29.690624 235.40625 29.690624Q234.04688 29.690624 233.23438 28.846874Q232.4375 28.003124 232.4375 26.4875Q232.4375 24.925 233.25 24.065624Q234.0625 23.190624 235.34375 23.190624Q236.59375 23.190624 237.375 24.034374Q238.17188 24.878124 238.17188 26.425Q238.17188 26.51875 238.17188 26.70625L233.53125 26.70625Q233.59375 27.7375 234.10938 28.284374Q234.625 28.815624 235.40625 28.815624Q235.98438 28.815624 236.39062 28.51875Q236.8125 28.20625 237.04688 27.55ZM233.59375 25.846874L237.0625 25.846874Q237.0 25.05 236.67188 24.659374Q236.15625 24.05 235.35938 24.05Q234.625 24.05 234.125 24.534374Q233.64062 25.01875 233.59375 25.846874ZM243.82812 29.55L243.82812 28.76875Q243.23438 29.690624 242.09375 29.690624Q241.34375 29.690624 240.71875 29.284374Q240.09375 28.8625 239.75 28.128124Q239.40625 27.39375 239.40625 26.440624Q239.40625 25.51875 239.71875 24.753124Q240.03125 23.9875 240.65625 23.596874Q241.28125 23.190624 242.04688 23.190624Q242.60938 23.190624 243.04688 23.425Q243.48438 23.659374 243.76562 24.034374L243.76562 20.95625L244.8125 20.95625L244.8125 29.55L243.82812 29.55ZM240.5 26.440624Q240.5 27.64375 241.0 28.2375Q241.5 28.815624 242.1875 28.815624Q242.875 28.815624 243.35938 28.253124Q243.84375 27.690624 243.84375 26.534374Q243.84375 25.253124 243.34375 24.659374Q242.85938 24.065624 242.14062 24.065624Q241.4375 24.065624 240.96875 24.64375Q240.5 25.20625 240.5 26.440624ZM249.70312 23.01875Q249.70312 22.096874 250.15625 21.45625Q250.625 20.815624 251.5 20.815624Q252.3125 20.815624 252.84375 21.39375Q253.375 21.971874 253.375 23.08125Q253.375 24.175 252.82812 24.76875Q252.29688 25.346874 251.51562 25.346874Q250.73438 25.346874 250.21875 24.76875Q249.70312 24.190624 249.70312 23.01875ZM251.53125 21.534374Q251.14062 21.534374 250.875 21.878124Q250.625 22.221874 250.625 23.128124Q250.625 23.95625 250.875 24.3Q251.14062 24.628124 251.53125 24.628124Q251.9375 24.628124 252.1875 24.284374Q252.45312 23.940624 252.45312 23.05Q252.45312 22.20625 252.1875 21.878124Q251.92188 21.534374 251.53125 21.534374ZM251.53125 29.8625L256.23438 20.815624L257.09375 20.815624L252.40625 29.8625L251.53125 29.8625ZM255.25 27.534374Q255.25 26.6125 255.70312 25.971874Q256.17188 25.33125 257.0625 25.33125Q257.875 25.33125 258.40625 25.909374Q258.9375 26.471874 258.9375 27.596874Q258.9375 28.690624 258.39062 29.284374Q257.85938 29.8625 257.0625 29.8625Q256.29688 29.8625 255.76562 29.284374Q255.25 28.70625 255.25 27.534374ZM257.09375 26.05Q256.6875 26.05 256.42188 26.39375Q256.17188 26.7375 256.17188 27.64375Q256.17188 28.45625 256.4375 28.8Q256.70312 29.14375 257.09375 29.14375Q257.48438 29.14375 257.75 28.8Q258.01562 28.45625 258.01562 27.55Q258.01562 26.721874 257.75 26.39375Q257.48438 26.05 257.09375 26.05ZM266.10938 29.55L266.10938 21.971874L263.28125 21.971874L263.28125 20.95625L270.09375 20.95625L270.09375 21.971874L267.25 21.971874L267.25 29.55L266.10938 29.55ZM270.78125 29.55L270.78125 23.33125L271.73438 23.33125L271.73438 24.26875Q272.09375 23.6125 272.39062 23.409374Q272.70312 23.190624 273.07812 23.190624Q273.60938 23.190624 274.15625 23.51875L273.79688 24.503124Q273.40625 24.26875 273.03125 24.26875Q272.67188 24.26875 272.39062 24.4875Q272.125 24.690624 272.01562 25.065624Q271.82812 25.628124 271.82812 26.284374L271.82812 29.55L270.78125 29.55ZM278.85938 28.784374Q278.26562 29.284374 277.71875 29.4875Q277.1875 29.690624 276.5625 29.690624Q275.53125 29.690624 274.98438 29.190624Q274.4375 28.690624 274.4375 27.909374Q274.4375 27.45625 274.64062 27.08125Q274.84375 26.690624 275.1875 26.471874Q275.53125 26.2375 275.95312 26.128124Q276.25 26.034374 276.89062 25.95625Q278.15625 25.815624 278.76562 25.596874Q278.76562 25.378124 278.76562 25.33125Q278.76562 24.675 278.46875 24.409374Q278.0625 24.065624 277.26562 24.065624Q276.53125 24.065624 276.17188 24.33125Q275.8125 24.58125 275.64062 25.2375L274.60938 25.096874Q274.75 24.440624 275.07812 24.034374Q275.40625 23.628124 276.01562 23.409374Q276.625 23.190624 277.42188 23.190624Q278.21875 23.190624 278.71875 23.378124Q279.21875 23.565624 279.45312 23.846874Q279.6875 24.128124 279.78125 24.565624Q279.82812 24.83125 279.82812 25.534374L279.82812 26.940624Q279.82812 28.409374 279.89062 28.8Q279.96875 29.190624 280.17188 29.55L279.0625 29.55Q278.90625 29.221874 278.85938 28.784374ZM278.76562 26.425Q278.1875 26.659374 277.04688 26.83125Q276.39062 26.925 276.125 27.05Q275.85938 27.159374 275.70312 27.378124Q275.5625 27.596874 275.5625 27.878124Q275.5625 28.3 275.875 28.58125Q276.20312 28.8625 276.8125 28.8625Q277.42188 28.8625 277.89062 28.596874Q278.375 28.33125 278.59375 27.8625Q278.76562 27.503124 278.76562 26.815624L278.76562 26.425ZM281.79688 29.55L281.79688 23.33125L282.73438 23.33125L282.73438 24.20625Q283.42188 23.190624 284.71875 23.190624Q285.28125 23.190624 285.75 23.39375Q286.23438 23.596874 286.46875 23.925Q286.70312 24.253124 286.79688 24.690624Q286.84375 24.9875 286.84375 25.721874L286.84375 29.55L285.79688 29.55L285.79688 25.76875Q285.79688 25.1125 285.67188 24.8Q285.54688 24.4875 285.23438 24.3Q284.92188 24.096874 284.5 24.096874Q283.82812 24.096874 283.32812 24.534374Q282.84375 24.95625 282.84375 26.14375L282.84375 29.55L281.79688 29.55ZM288.375 27.690624L289.40625 27.534374Q289.5 28.159374 289.89062 28.4875Q290.29688 28.815624 291.03125 28.815624Q291.75 28.815624 292.09375 28.534374Q292.45312 28.2375 292.45312 27.83125Q292.45312 27.471874 292.14062 27.26875Q291.92188 27.128124 291.0625 26.909374Q289.90625 26.6125 289.45312 26.409374Q289.01562 26.190624 288.78125 25.815624Q288.54688 25.440624 288.54688 24.971874Q288.54688 24.565624 288.73438 24.20625Q288.92188 23.846874 289.25 23.6125Q289.5 23.440624 289.92188 23.315624Q290.34375 23.190624 290.84375 23.190624Q291.5625 23.190624 292.10938 23.409374Q292.67188 23.6125 292.9375 23.971874Q293.20312 24.33125 293.29688 24.925L292.26562 25.065624Q292.20312 24.596874 291.85938 24.33125Q291.53125 24.05 290.90625 24.05Q290.1875 24.05 289.875 24.3Q289.5625 24.534374 289.5625 24.8625Q289.5625 25.065624 289.6875 25.221874Q289.82812 25.39375 290.09375 25.503124Q290.25 25.565624 291.03125 25.76875Q292.15625 26.08125 292.59375 26.26875Q293.03125 26.45625 293.28125 26.815624Q293.53125 27.175 293.53125 27.721874Q293.53125 28.253124 293.21875 28.721874Q292.92188 29.175 292.34375 29.440624Q291.76562 29.690624 291.03125 29.690624Q289.8125 29.690624 289.17188 29.190624Q288.54688 28.675 288.375 27.690624ZM296.04688 29.55L296.04688 24.14375L295.10938 24.14375L295.10938 23.33125L296.04688 23.33125L296.04688 22.659374Q296.04688 22.034374 296.15625 21.7375Q296.3125 21.315624 296.6875 21.065624Q297.07812 20.815624 297.76562 20.815624Q298.21875 20.815624 298.75 20.925L298.59375 21.83125Q298.26562 21.784374 297.96875 21.784374Q297.48438 21.784374 297.28125 21.9875Q297.09375 22.190624 297.09375 22.753124L297.09375 23.33125L298.3125 23.33125L298.3125 24.14375L297.09375 24.14375L297.09375 29.55L296.04688 29.55ZM303.04688 27.55L304.14062 27.675Q303.89062 28.628124 303.1875 29.159374Q302.48438 29.690624 301.40625 29.690624Q300.04688 29.690624 299.23438 28.846874Q298.4375 28.003124 298.4375 26.4875Q298.4375 24.925 299.25 24.065624Q300.0625 23.190624 301.34375 23.190624Q302.59375 23.190624 303.375 24.034374Q304.17188 24.878124 304.17188 26.425Q304.17188 26.51875 304.17188 26.70625L299.53125 26.70625Q299.59375 27.7375 300.10938 28.284374Q300.625 28.815624 301.40625 28.815624Q301.98438 28.815624 302.39062 28.51875Q302.8125 28.20625 303.04688 27.55ZM299.59375 25.846874L303.0625 25.846874Q303.0 25.05 302.67188 24.659374Q302.15625 24.05 301.35938 24.05Q300.625 24.05 300.125 24.534374Q299.64062 25.01875 299.59375 25.846874ZM305.78125 29.55L305.78125 23.33125L306.73438 23.33125L306.73438 24.26875Q307.09375 23.6125 307.39062 23.409374Q307.70312 23.190624 308.07812 23.190624Q308.60938 23.190624 309.15625 23.51875L308.79688 24.503124Q308.40625 24.26875 308.03125 24.26875Q307.67188 24.26875 307.39062 24.4875Q307.125 24.690624 307.01562 25.065624Q306.82812 25.628124 306.82812 26.284374L306.82812 29.55L305.78125 29.55ZM314.04688 27.55L315.14062 27.675Q314.89062 28.628124 314.1875 29.159374Q313.48438 29.690624 312.40625 29.690624Q311.04688 29.690624 310.23438 28.846874Q309.4375 28.003124 309.4375 26.4875Q309.4375 24.925 310.25 24.065624Q311.0625 23.190624 312.34375 23.190624Q313.59375 23.190624 314.375 24.034374Q315.17188 24.878124 315.17188 26.425Q315.17188 26.51875 315.17188 26.70625L310.53125 26.70625Q310.59375 27.7375 311.10938 28.284374Q311.625 28.815624 312.40625 28.815624Q312.98438 28.815624 313.39062 28.51875Q313.8125 28.20625 314.04688 27.55ZM310.59375 25.846874L314.0625 25.846874Q314.0 25.05 313.67188 24.659374Q313.15625 24.05 312.35938 24.05Q311.625 24.05 311.125 24.534374Q310.64062 25.01875 310.59375 25.846874ZM320.82812 29.55L320.82812 28.76875Q320.23438 29.690624 319.09375 29.690624Q318.34375 29.690624 317.71875 29.284374Q317.09375 28.8625 316.75 28.128124Q316.40625 27.39375 316.40625 26.440624Q316.40625 25.51875 316.71875 24.753124Q317.03125 23.9875 317.65625 23.596874Q318.28125 23.190624 319.04688 23.190624Q319.60938 23.190624 320.04688 23.425Q320.48438 23.659374 320.76562 24.034374L320.76562 20.95625L321.8125 20.95625L321.8125 29.55L320.82812 29.55ZM317.5 26.440624Q317.5 27.64375 318.0 28.2375Q318.5 28.815624 319.1875 28.815624Q319.875 28.815624 320.35938 28.253124Q320.84375 27.690624 320.84375 26.534374Q320.84375 25.253124 320.34375 24.659374Q319.85938 24.065624 319.14062 24.065624Q318.4375 24.065624 317.96875 24.64375Q317.5 25.20625 317.5 26.440624Z" fill-rule="nonzero"/><path stroke="#ea4335" stroke-width="4.0" stroke-linecap="butt" d="M339.0 25.55L351.0 25.55" fill-rule="nonzero"/><path fill="#1a1a1a" d="M362.10938 29.55L362.10938 21.971874L359.28125 21.971874L359.28125 20.95625L366.09375 20.95625L366.09375 21.971874L363.25 21.971874L363.25 29.55L362.10938 29.55ZM370.85938 28.784374Q370.26562 29.284374 369.71875 29.4875Q369.1875 29.690624 368.5625 29.690624Q367.53125 29.690624 366.98438 29.190624Q366.4375 28.690624 366.4375 27.909374Q366.4375 27.45625 366.64062 27.08125Q366.84375 26.690624 367.1875 26.471874Q367.53125 26.2375 367.95312 26.128124Q368.25 26.034374 368.89062 25.95625Q370.15625 25.815624 370.76562 25.596874Q370.76562 25.378124 370.76562 25.33125Q370.76562 24.675 370.46875 24.409374Q370.0625 24.065624 369.26562 24.065624Q368.53125 24.065624 368.17188 24.33125Q367.8125 24.58125 367.64062 25.2375L366.60938 25.096874Q366.75 24.440624 367.07812 24.034374Q367.40625 23.628124 368.01562 23.409374Q368.625 23.190624 369.42188 23.190624Q370.21875 23.190624 370.71875 23.378124Q371.21875 23.565624 371.45312 23.846874Q371.6875 24.128124 371.78125 24.565624Q371.82812 24.83125 371.82812 25.534374L371.82812 26.940624Q371.82812 28.409374 371.89062 28.8Q371.96875 29.190624 372.17188 29.55L371.0625 29.55Q370.90625 29.221874 370.85938 28.784374ZM370.76562 26.425Q370.1875 26.659374 369.04688 26.83125Q368.39062 26.925 368.125 27.05Q367.85938 27.159374 367.70312 27.378124Q367.5625 27.596874 367.5625 27.878124Q367.5625 28.3 367.875 28.58125Q368.20312 28.8625 368.8125 28.8625Q369.42188 28.8625 369.89062 28.596874Q370.375 28.33125 370.59375 27.8625Q370.76562 27.503124 370.76562 26.815624L370.76562 26.425ZM373.78125 29.55L373.78125 23.33125L374.73438 23.33125L374.73438 24.26875Q375.09375 23.6125 375.39062 23.409374Q375.70312 23.190624 376.07812 23.190624Q376.60938 23.190624 377.15625 23.51875L376.79688 24.503124Q376.40625 24.26875 376.03125 24.26875Q375.67188 24.26875 375.39062 24.4875Q375.125 24.690624 375.01562 25.065624Q374.82812 25.628124 374.82812 26.284374L374.82812 29.55L373.78125 29.55ZM377.59375 30.065624L378.625 30.221874Q378.6875 30.690624 378.98438 30.909374Q379.375 31.20625 380.04688 31.20625Q380.78125 31.20625 381.17188 30.909374Q381.57812 30.6125 381.71875 30.096874Q381.8125 29.76875 381.79688 28.7375Q381.10938 29.55 380.07812 29.55Q378.79688 29.55 378.09375 28.628124Q377.39062 27.690624 377.39062 26.409374Q377.39062 25.51875 377.70312 24.76875Q378.03125 24.003124 378.64062 23.596874Q379.25 23.190624 380.07812 23.190624Q381.1875 23.190624 381.90625 24.08125L381.90625 23.33125L382.875 23.33125L382.875 28.70625Q382.875 30.159374 382.57812 30.76875Q382.28125 31.378124 381.64062 31.721874Q381.0 32.08125 380.0625 32.08125Q378.95312 32.08125 378.26562 31.58125Q377.57812 31.08125 377.59375 30.065624ZM378.46875 26.33125Q378.46875 27.55 378.95312 28.1125Q379.4375 28.675 380.17188 28.675Q380.90625 28.675 381.39062 28.1125Q381.89062 27.55 381.89062 26.3625Q381.89062 25.221874 381.375 24.64375Q380.875 24.065624 380.15625 24.065624Q379.45312 24.065624 378.95312 24.64375Q378.46875 25.20625 378.46875 26.33125ZM389.04688 27.55L390.14062 27.675Q389.89062 28.628124 389.1875 29.159374Q388.48438 29.690624 387.40625 29.690624Q386.04688 29.690624 385.23438 28.846874Q384.4375 28.003124 384.4375 26.4875Q384.4375 24.925 385.25 24.065624Q386.0625 23.190624 387.34375 23.190624Q388.59375 23.190624 389.375 24.034374Q390.17188 24.878124 390.17188 26.425Q390.17188 26.51875 390.17188 26.70625L385.53125 26.70625Q385.59375 27.7375 386.10938 28.284374Q386.625 28.815624 387.40625 28.815624Q387.98438 28.815624 388.39062 28.51875Q388.8125 28.20625 389.04688 27.55ZM385.59375 25.846874L389.0625 25.846874Q389.0 25.05 388.67188 24.659374Q388.15625 24.05 387.35938 24.05Q386.625 24.05 386.125 24.534374Q385.64062 25.01875 385.59375 25.846874ZM394.09375 28.6125L394.25 29.534374Q393.79688 29.628124 393.45312 29.628124Q392.875 29.628124 392.5625 29.45625Q392.25 29.26875 392.10938 28.971874Q391.98438 28.675 391.98438 27.721874L391.98438 24.14375L391.21875 24.14375L391.21875 23.33125L391.98438 23.33125L391.98438 21.784374L393.03125 21.159374L393.03125 23.33125L394.09375 23.33125L394.09375 24.14375L393.03125 24.14375L393.03125 27.784374Q393.03125 28.2375 393.07812 28.3625Q393.14062 28.4875 393.26562 28.565624Q393.39062 28.64375 393.625 28.64375Q393.8125 28.64375 394.09375 28.6125ZM397.92188 29.55L397.92188 20.95625L401.17188 20.95625Q402.01562 20.95625 402.46875 21.034374Q403.10938 21.14375 403.53125 21.440624Q403.96875 21.7375 404.21875 22.26875Q404.48438 22.8 404.48438 23.440624Q404.48438 24.534374 403.78125 25.3Q403.09375 26.05 401.26562 26.05L399.0625 26.05L399.0625 29.55L397.92188 29.55ZM399.0625 25.05L401.28125 25.05Q402.39062 25.05 402.84375 24.64375Q403.3125 24.221874 403.3125 23.471874Q403.3125 22.940624 403.03125 22.565624Q402.76562 22.175 402.32812 22.05Q402.03125 21.971874 401.26562 21.971874L399.0625 21.971874L399.0625 25.05ZM409.85938 28.784374Q409.26562 29.284374 408.71875 29.4875Q408.1875 29.690624 407.5625 29.690624Q406.53125 29.690624 405.98438 29.190624Q405.4375 28.690624 405.4375 27.909374Q405.4375 27.45625 405.64062 27.08125Q405.84375 26.690624 406.1875 26.471874Q406.53125 26.2375 406.95312 26.128124Q407.25 26.034374 407.89062 25.95625Q409.15625 25.815624 409.76562 25.596874Q409.76562 25.378124 409.76562 25.33125Q409.76562 24.675 409.46875 24.409374Q409.0625 24.065624 408.26562 24.065624Q407.53125 24.065624 407.17188 24.33125Q406.8125 24.58125 406.64062 25.2375L405.60938 25.096874Q405.75 24.440624 406.07812 24.034374Q406.40625 23.628124 407.01562 23.409374Q407.625 23.190624 408.42188 23.190624Q409.21875 23.190624 409.71875 23.378124Q410.21875 23.565624 410.45312 23.846874Q410.6875 24.128124 410.78125 24.565624Q410.82812 24.83125 410.82812 25.534374L410.82812 26.940624Q410.82812 28.409374 410.89062 28.8Q410.96875 29.190624 411.17188 29.55L410.0625 29.55Q409.90625 29.221874 409.85938 28.784374ZM409.76562 26.425Q409.1875 26.659374 408.04688 26.83125Q407.39062 26.925 407.125 27.05Q406.85938 27.159374 406.70312 27.378124Q406.5625 27.596874 406.5625 27.878124Q406.5625 28.3 406.875 28.58125Q407.20312 28.8625 407.8125 28.8625Q408.42188 28.8625 408.89062 28.596874Q409.375 28.33125 409.59375 27.8625Q409.76562 27.503124 409.76562 26.815624L409.76562 26.425ZM416.85938 27.26875L417.89062 27.409374Q417.71875 28.471874 417.01562 29.08125Q416.3125 29.690624 415.29688 29.690624Q414.01562 29.690624 413.23438 28.8625Q412.46875 28.01875 412.46875 26.45625Q412.46875 25.45625 412.79688 24.70625Q413.14062 23.940624 413.8125 23.565624Q414.5 23.190624 415.3125 23.190624Q416.3125 23.190624 416.95312 23.70625Q417.60938 24.20625 417.79688 25.159374L416.76562 25.315624Q416.625 24.690624 416.25 24.378124Q415.875 24.05 415.34375 24.05Q414.54688 24.05 414.04688 24.628124Q413.54688 25.190624 413.54688 26.425Q413.54688 27.690624 414.03125 28.253124Q414.51562 28.815624 415.28125 28.815624Q415.90625 28.815624 416.3125 28.440624Q416.73438 28.065624 416.85938 27.26875ZM423.04688 27.55L424.14062 27.675Q423.89062 28.628124 423.1875 29.159374Q422.48438 29.690624 421.40625 29.690624Q420.04688 29.690624 419.23438 28.846874Q418.4375 28.003124 418.4375 26.4875Q418.4375 24.925 419.25 24.065624Q420.0625 23.190624 421.34375 23.190624Q422.59375 23.190624 423.375 24.034374Q424.17188 24.878124 424.17188 26.425Q424.17188 26.51875 424.17188 26.70625L419.53125 26.70625Q419.59375 27.7375 420.10938 28.284374Q420.625 28.815624 421.40625 28.815624Q421.98438 28.815624 422.39062 28.51875Q422.8125 28.20625 423.04688 27.55ZM419.59375 25.846874L423.0625 25.846874Q423.0 25.05 422.67188 24.659374Q422.15625 24.05 421.35938 24.05Q420.625 24.05 420.125 24.534374Q419.64062 25.01875 419.59375 25.846874Z" fill-rule="nonzero"/></svg>