<svg version="1.1" viewBox="0.0 0.0 600.0 371.0" fill="none" stroke="none" stroke-linecap="square" stroke-miterlimit="10" width="600" height="371" xmlns:xlink="http://www.w3.org/1999/xlink" xmlns="http://www.w3.org/2000/svg"><path fill="#ffffff" d="M0 0L600.0 0L600.0 371.0L0 371.0L0 0Z" fill-rule="nonzero"/><path stroke="#000000" stroke-width="1.0" stroke-linecap="butt" stroke-opacity="0.0" d="M51.5 309.5L581.5 309.5" fill-rule="nonzero"/><path stroke="#000000" stroke-width="1.0" stroke-linecap="butt" stroke-opacity="0.0" d="M51.5 293.5L581.5 293.5" fill-rule="nonzero"/><path stroke="#000000" stroke-width="1.0" stroke-linecap="butt" stroke-opacity="0.0" d="M51.5 259.5L581.5 259.5" fill-rule="nonzero"/><path stroke="#000000" stroke-width="1.0" stroke-linecap="butt" stroke-opacity="0.0" d="M51.5 242.5L581.5 242.5" fill-rule="nonzero"/><path stroke="#000000" stroke-width="1.0" stroke-linecap="butt" stroke-opacity="0.0" d="M51.5 209.5L581.5 209.5" fill-rule="nonzero"/><path stroke="#000000" stroke-width="1.0" stroke-linecap="butt" stroke-opacity="0.0" d="M51.5 192.5L581.5 192.5" fill-rule="nonzero"/><path stroke="#000000" stroke-width="1.0" stroke-linecap="butt" stroke-opacity="0.0" d="M51.5 159.5L581.5 159.5" fill-rule="nonzero"/><path stroke="#000000" stroke-width="1.0" stroke-linecap="butt" stroke-opacity="0.0" d="M51.5 142.5L581.5 142.5" fill-rule="nonzero"/><path stroke="#000000" stroke-width="1.0" stroke-linecap="butt" stroke-opacity="0.0" d="M51.5 109.5L581.5 109.5" fill-rule="nonzero"/><path stroke="#000000" stroke-width="1.0" stroke-linecap="butt" stroke-opacity="0.0" d="M51.5 92.5L581.5 92.5" fill-rule="nonzero"/><path stroke="#000000" stroke-width="1.0" stroke-linecap="butt" stroke-opacity="0.0" d="M51.5 58.5L581.5 58.5" fill-rule="nonzero"/><path stroke="#000000" stroke-width="1.0" stroke-linecap="butt" stroke-opacity="0.0" d="M51.5 42.5L581.5 42.5" fill-rule="nonzero"/><path stroke="#000000" stroke-width="1.0" stroke-linecap="butt" d="M581.5 326.5L51.5 326.5" fill-rule="nonzero"/><path stroke="#000000" stroke-width="1.0" stroke-linecap="butt" d="M51.5 326.5L51.5 25.5" fill-rule="nonzero"/><clipPath id="id_0"><path d="M51.55 25.55L581.45 25.55L581.45 326.45L51.55 326.45L51.55 25.55Z" clip-rule="nonzero"/></clipPath><path stroke="#cccccc" stroke-width="1.0" stroke-linecap="butt" clip-path="url(#id_0)" d="M51.55 326.45C51.55 326.45 81.16517 326.45 95.972755 326.45C110.78034 326.45 129.28983 326.45 145.15509 326.45C161.02036 326.45 176.88564 326.53088 192.7509 326.45C208.61617 326.3691 226.06796 327.53387 241.93323 325.9485C257.7985 324.3631 273.66376 321.90414 289.52905 316.9215C305.39432 311.93884 322.31726 302.46158 338.71136 295.357C355.1055 288.2524 372.02844 281.6197 387.8937 274.294C403.75897 266.96832 435.48953 250.7235 435.48953 250.7235C435.48953 250.7235 435.48953 250.7235 435.48953 250.7235C435.48953 250.7235 468.80658 235.3226 484.67184 231.165C500.53714 227.0074 516.4024 226.71622 532.26764 225.147C548.13293 223.57779 581.45 221.6365 581.45 221.6365" fill-rule="nonzero"/><path stroke="#cccccc" stroke-width="1.0" stroke-linecap="butt" clip-path="url(#id_0)" d="M51.55 325.9485C51.55 325.9485 81.16517 325.9485 95.972755 325.9485C110.78034 325.9485 129.28983 326.11566 145.15509 325.9485C161.02036 325.78134 176.88564 325.5171 192.7509 324.9455C208.61617 324.3739 226.06796 324.932 241.93323 322.438C257.7985 319.94397 273.66376 315.14468 289.52905 309.9005C305.39432 304.6563 322.31726 296.02567 338.71136 290.342C355.1055 284.65833 372.02844 280.73532 387.8937 275.7985C403.75897 270.8617 435.48953 260.252 435.48953 260.252C435.48953 260.252 435.48953 260.252 435.48953 260.252C435.48953 260.252 468.80658 249.39156 484.67184 245.7085C500.53714 242.02544 516.4024 239.10272 532.26764 237.6845C548.13293 236.26628 581.45 237.183 581.45 237.183" fill-rule="nonzero"/><path stroke="#cccccc" stroke-width="1.0" stroke-linecap="butt" clip-path="url(#id_0)" d="M51.55 326.45C51.55 326.45 81.16517 326.45 95.972755 326.45C110.78034 326.45 129.28983 326.45 145.15509 326.45C161.02036 326.45 176.88564 327.0162 192.7509 326.45C208.61617 325.8838 226.06796 325.26096 241.93323 322.9395C257.7985 320.61804 273.66376 316.4281 289.52905 312.408C305.39432 308.3879 322.31726 307.8109 338.71136 298.366C355.1055 288.92108 372.02844 267.46173 387.8937 255.7385C403.75897 244.01526 435.48953 226.6515 435.48953 226.6515C435.48953 226.6515 435.48953 226.6515 435.48953 226.6515C435.48953 226.6515 468.80658 206.3704 484.67184 201.075C500.53714 195.77959 516.4024 195.54771 532.26764 194.054C548.13293 192.56029 581.45 192.048 581.45 192.048" fill-rule="nonzero"/><path stroke="#cccccc" stroke-width="1.0" stroke-linecap="butt" clip-path="url(#id_0)" d="M51.55 326.45C51.55 326.45 81.16517 326.45 95.972755 326.45C110.78034 326.45 129.28983 326.53357 145.15509 326.45C161.02036 326.36642 176.88564 326.5983 192.7509 325.9485C208.61617 325.2987 226.06796 325.5953 241.93323 322.438C257.7985 319.2807 273.66376 313.93137 289.52905 306.8915C305.39432 299.85162 322.31726 288.2524 338.71136 279.309C355.1055 270.36557 372.02844 261.44913 387.8937 253.231C403.75897 245.01288 435.48953 229.159 435.48953 229.159C435.48953 229.159 435.48953 229.159 435.48953 229.159C435.48953 229.159 468.80658 217.54361 484.67184 214.114C500.53714 210.68439 516.4024 209.26077 532.26764 208.096C548.13293 206.93123 581.45 207.093 581.45 207.093" fill-rule="nonzero"/><path stroke="#cccccc" stroke-width="1.0" stroke-linecap="butt" clip-path="url(#id_0)" d="M51.55 326.45C51.55 326.45 81.16517 326.45 95.972755 326.45C110.78034 326.45 129.28983 326.45 145.15509 326.45C161.02036 326.45 176.88564 326.85443 192.7509 326.45C208.61617 326.04556 226.06796 326.93802 241.93323 323.9425C257.7985 320.947 273.66376 316.89185 289.52905 308.396C305.39432 299.90015 322.31726 286.16284 338.71136 271.7865C355.1055 257.41016 372.02844 236.99965 387.8937 222.138C403.75897 207.27634 435.48953 181.015 435.48953 181.015C435.48953 181.015 435.48953 181.015 435.48953 181.015C435.48953 181.015 468.80658 150.46664 484.67184 142.3995C500.53714 134.33237 516.4024 133.36711 532.26764 131.3665C548.13293 129.36589 581.45 130.3635 581.45 130.3635" fill-rule="nonzero"/><path stroke="#cccccc" stroke-width="1.0" stroke-linecap="butt" clip-path="url(#id_0)" d="M51.55 325.9485C51.55 325.9485 81.16517 325.9485 95.972755 325.9485C110.78034 325.9485 129.28983 325.9485 145.15509 325.9485C161.02036 325.9485 176.88564 327.1618 192.7509 325.9485C208.61617 324.7352 226.06796 322.7319 241.93323 318.426C257.7985 314.12012 273.66376 307.41187 289.52905 299.8705C305.39432 292.32913 322.31726 283.40457 338.71136 272.288C355.1055 261.17142 372.02844 247.33702 387.8937 233.171C403.75897 219.00497 435.48953 186.03 435.48953 186.03C435.48953 186.03 435.48953 186.03 435.48953 186.03C435.48953 186.03 468.80658 159.51521 484.67184 151.4265C500.53714 143.33778 516.4024 139.37433 532.26764 136.3815C548.13293 133.38867 581.45 133.3725 581.45 133.3725" fill-rule="nonzero"/><path stroke="#cccccc" stroke-width="1.0" stroke-linecap="butt" clip-path="url(#id_0)" d="M51.55 326.45C51.55 326.45 81.16517 326.52548 95.972755 326.45C110.78034 326.3745 129.28983 326.19656 145.15509 325.9485C161.02036 325.70044 176.88564 326.16418 192.7509 324.9455C208.61617 323.7268 226.06796 321.98505 241.93323 318.426C257.7985 314.86697 273.66376 311.38882 289.52905 303.381C305.39432 295.37317 322.31726 284.15683 338.71136 269.279C355.1055 254.40117 372.02844 229.28033 387.8937 214.114C403.75897 198.94766 435.48953 176.5015 435.48953 176.5015C435.48953 176.5015 435.48953 176.5015 435.48953 176.5015C435.48953 176.5015 468.80658 161.0979 484.67184 156.4415C500.53714 151.7851 516.4024 149.49869 532.26764 147.916C548.13293 146.33331 581.45 146.913 581.45 146.913" fill-rule="nonzero"/><path stroke="#cccccc" stroke-width="1.0" stroke-linecap="butt" clip-path="url(#id_0)" d="M51.55 325.9485C51.55 325.9485 81.16517 325.9485 95.972755 325.9485C110.78034 325.9485 129.28983 326.03207 145.15509 325.9485C161.02036 325.86493 176.88564 326.25858 192.7509 325.447C208.61617 324.63544 226.06796 323.41675 241.93323 320.9335C257.7985 318.45026 273.66376 315.23096 289.52905 310.402C305.39432 305.57303 322.31726 300.8735 338.71136 291.345C355.1055 281.8165 372.02844 263.72476 387.8937 253.231C403.75897 242.73724 435.48953 227.153 435.48953 227.153C435.48953 227.153 435.48953 227.153 435.48953 227.153C435.48953 227.153 468.80658 211.40698 484.67184 205.5885C500.53714 199.77002 516.4024 194.29128 532.26764 191.5465C548.13293 188.80173 581.45 189.039 581.45 189.039" fill-rule="nonzero"/><path stroke="#cccccc" stroke-width="1.0" stroke-linecap="butt" clip-path="url(#id_0)" d="M51.55 324.9455C51.55 324.9455 81.16517 325.021 95.972755 324.9455C110.78034 324.87 129.28983 324.60846 145.15509 324.444C161.02036 324.27954 176.88564 324.5114 192.7509 323.9425C208.61617 323.3736 226.06796 325.5144 241.93323 320.9335C257.7985 316.3526 273.66376 308.05896 289.52905 296.36C305.39432 284.66104 322.31726 264.8491 338.71136 249.219C355.1055 233.58891 372.02844 221.80367 387.8937 202.5795C403.75897 183.35533 435.48953 132.3695 435.48953 132.3695C435.48953 132.3695 435.48953 132.3695 435.48953 132.3695C435.48953 132.3695 468.80658 90.03859 484.67184 78.709C500.53714 67.37942 516.4024 65.982765 532.26764 62.661C548.13293 59.339237 581.45 58.649 581.45 58.649" fill-rule="nonzero"/><path stroke="#cccccc" stroke-width="1.0" stroke-linecap="butt" clip-path="url(#id_0)" d="M51.55 325.447C51.55 325.447 81.16517 325.02908 95.972755 324.9455C110.78034 324.8619 129.28983 325.02908 145.15509 324.9455C161.02036 324.8619 176.88564 326.3071 192.7509 324.444C208.61617 322.5809 226.06796 318.95175 241.93323 313.411C257.7985 307.87024 273.66376 301.88458 289.52905 290.8435C305.39432 279.8024 322.31726 262.59235 338.71136 245.7085C355.1055 228.82466 372.02844 205.70444 387.8937 189.5405C403.75897 173.37656 435.48953 146.913 435.48953 146.913C435.48953 146.913 435.48953 146.913 435.48953 146.913C435.48953 146.913 468.80658 122.32871 484.67184 113.814C500.53714 105.299286 516.4024 98.17583 532.26764 94.757C548.13293 91.33817 581.45 93.2525 581.45 93.2525" fill-rule="nonzero"/><path stroke="#ff0000" stroke-width="1.0" stroke-linecap="butt" clip-path="url(#id_0)" d="M51.55 325.9485C51.55 325.9485 81.16517 325.9485 95.972755 325.9485C110.78034 325.9485 129.28983 325.9485 145.15509 325.9485C161.02036 325.9485 176.88564 327.08093 192.7509 325.9485C208.61617 324.81607 226.06796 324.57343 241.93323 318.9275C257.7985 313.2816 273.66376 302.7501 289.52905 291.8465C305.39432 280.94293 338.71136 252.228 338.71136 252.228" fill-rule="nonzero"/><path stroke="#0000ff" stroke-width="1.0" stroke-linecap="butt" clip-path="url(#id_0)" d="M51.55 326.03967C51.55 326.03967 81.16517 326.0154 95.972755 325.99408C110.78034 325.97278 129.28983 325.9784 145.15509 325.90292C161.02036 325.82742 176.88564 326.3637 192.7509 325.53818C208.61617 324.71265 226.06796 324.31213 241.93323 320.79672C257.7985 317.2813 273.66376 311.9114 289.52905 304.29282C305.39432 296.67422 322.31726 285.26318 338.71136 274.11163C355.1055 262.9601 372.02844 249.2586 387.8937 237.3836C403.75897 225.50859 435.48953 201.6768 435.48953 201.6768C435.48953 201.6768 435.48953 201.6768 435.48953 201.6768C435.48953 201.6768 468.80658 180.34822 484.67184 174.04414C500.53714 167.74008 516.4024 165.13174 532.26764 162.961C548.13293 160.79025 581.45 160.955 581.45 160.955" fill-rule="nonzero"/><path stroke="#93c47d" stroke-width="1.0" stroke-linecap="butt" stroke-dasharray="6.0,5.0" clip-path="url(#id_0)" d="M435.48953 326.45L435.48953 25.55" fill-rule="nonzero"/><path stroke="#6aa84f" stroke-width="1.0" stroke-linecap="butt" stroke-dasharray="6.0,5.0" clip-path="url(#id_0)" d="M51.55 140.895C51.55 140.895 81.16517 140.895 95.972755 140.895C110.78034 140.895 129.28983 140.895 145.15509 140.895C161.02036 140.895 176.88564 140.895 192.7509 140.895C208.61617 140.895 226.06796 140.895 241.93323 140.895C257.7985 140.895 273.66376 140.895 289.52905 140.895C305.39432 140.895 322.31726 140.895 338.71136 140.895C355.1055 140.895 372.02844 140.895 387.8937 140.895C403.75897 140.895 435.48953 140.895 435.48953 140.895C435.48953 140.895 435.48953 140.895 435.48953 140.895C435.48953 140.895 468.80658 140.895 484.67184 140.895C500.53714 140.895 516.4024 140.895 532.26764 140.895C548.13293 140.895 581.45 140.895 581.45 140.895" fill-rule="nonzero"/><path fill="#000000" fill-opacity="0.0" clip-path="url(#id_0)" d="M54.55 326.45C54.55 328.10684 53.206856 329.45 51.55 329.45C49.893147 329.45 48.55 328.10684 48.55 326.45C48.55 324.79315 49.893147 323.45 51.55 323.45C53.206856 323.45 54.55 324.79315 54.55 326.45Z" fill-rule="nonzero"/><path fill="#000000" fill-opacity="0.0" clip-path="url(#id_0)" d="M98.972755 326.45C98.972755 328.10684 97.62961 329.45 95.972755 329.45C94.3159 329.45 92.972755 328.10684 92.972755 326.45C92.972755 324.79315 94.3159 323.45 95.972755 323.45C97.62961 323.45 98.972755 324.79315 98.972755 326.45Z" fill-rule="nonzero"/><path fill="#000000" fill-opacity="0.0" clip-path="url(#id_0)" d="M148.15509 326.45C148.15509 328.10684 146.81195 329.45 145.15509 329.45C143.49823 329.45 142.15509 328.10684 142.15509 326.45C142.15509 324.79315 143.49823 323.45 145.15509 323.45C146.81195 323.45 148.15509 324.79315 148.15509 326.45Z" fill-rule="nonzero"/><path fill="#000000" fill-opacity="0.0" clip-path="url(#id_0)" d="M195.7509 326.45C195.7509 328.10684 194.40775 329.45 192.7509 329.45C191.09404 329.45 189.7509 328.10684 189.7509 326.45C189.7509 324.79315 191.09404 323.45 192.7509 323.45C194.40775 323.45 195.7509 324.79315 195.7509 326.45Z" fill-rule="nonzero"/><path fill="#000000" fill-opacity="0.0" clip-path="url(#id_0)" d="M244.93323 325.9485C244.93323 327.60535 243.59009 328.9485 241.93323 328.9485C240.27638 328.9485 238.93323 327.60535 238.93323 325.9485C238.93323 324.29166 240.27638 322.9485 241.93323 322.9485C243.59009 322.9485 244.93323 324.29166 244.93323 325.9485Z" fill-rule="nonzero"/><path fill="#000000" fill-opacity="0.0" clip-path="url(#id_0)" d="M292.52905 316.9215C292.52905 318.57837 291.18588 319.9215 289.52905 319.9215C287.8722 319.9215 286.52905 318.57837 286.52905 316.9215C286.52905 315.26465 287.8722 313.9215 289.52905 313.9215C291.18588 313.9215 292.52905 315.26465 292.52905 316.9215Z" fill-rule="nonzero"/><path fill="#000000" fill-opacity="0.0" clip-path="url(#id_0)" d="M341.71136 295.357C341.71136 297.01385 340.36823 298.357 338.71136 298.357C337.05453 298.357 335.71136 297.01385 335.71136 295.357C335.71136 293.70013 337.05453 292.357 338.71136 292.357C340.36823 292.357 341.71136 293.70013 341.71136 295.357Z" fill-rule="nonzero"/><path fill="#000000" fill-opacity="0.0" clip-path="url(#id_0)" d="M390.8937 274.294C390.8937 275.95087 389.55057 277.294 387.8937 277.294C386.23685 277.294 384.8937 275.95087 384.8937 274.294C384.8937 272.63715 386.23685 271.294 387.8937 271.294C389.55057 271.294 390.8937 272.63715 390.8937 274.294Z" fill-rule="nonzero"/><path fill="#000000" fill-opacity="0.0" clip-path="url(#id_0)" d="M438.48953 250.7235C438.48953 252.38036 437.14636 253.7235 435.48953 253.7235C433.83267 253.7235 432.48953 252.38036 432.48953 250.7235C432.48953 249.06665 433.83267 247.7235 435.48953 247.7235C437.14636 247.7235 438.48953 249.06665 438.48953 250.7235Z" fill-rule="nonzero"/><path fill="#000000" fill-opacity="0.0" clip-path="url(#id_0)" d="M438.48953 250.7235C438.48953 252.38036 437.14636 253.7235 435.48953 253.7235C433.83267 253.7235 432.48953 252.38036 432.48953 250.7235C432.48953 249.06665 433.83267 247.7235 435.48953 247.7235C437.14636 247.7235 438.48953 249.06665 438.48953 250.7235Z" fill-rule="nonzero"/><path fill="#000000" fill-opacity="0.0" clip-path="url(#id_0)" d="M487.67184 231.165C487.67184 232.82185 486.3287 234.165 484.67184 234.165C483.015 234.165 481.67184 232.82185 481.67184 231.165C481.67184 229.50815 483.015 228.165 484.67184 228.165C486.3287 228.165 487.67184 229.50815 487.67184 231.165Z" fill-rule="nonzero"/><path fill="#000000" fill-opacity="0.0" clip-path="url(#id_0)" d="M535.26764 225.147C535.26764 226.80385 533.9245 228.147 532.26764 228.147C530.61084 228.147 529.26764 226.80385 529.26764 225.147C529.26764 223.49014 530.61084 222.147 532.26764 222.147C533.9245 222.147 535.26764 223.49014 535.26764 225.147Z" fill-rule="nonzero"/><path fill="#000000" fill-opacity="0.0" clip-path="url(#id_0)" d="M584.45 221.6365C584.45 223.29335 583.1069 224.6365 581.45 224.6365C579.79315 224.6365 578.45 223.29335 578.45 221.6365C578.45 219.97964 579.79315 218.6365 581.45 218.6365C583.1069 218.6365 584.45 219.97964 584.45 221.6365Z" fill-rule="nonzero"/><path fill="#000000" fill-opacity="0.0" clip-path="url(#id_0)" d="M54.55 325.9485C54.55 327.60535 53.206856 328.9485 51.55 328.9485C49.893147 328.9485 48.55 327.60535 48.55 325.9485C48.55 324.29166 49.893147 322.9485 51.55 322.9485C53.206856 322.9485 54.55 324.29166 54.55 325.9485Z" fill-rule="nonzero"/><path fill="#000000" fill-opacity="0.0" clip-path="url(#id_0)" d="M98.972755 325.9485C98.972755 327.60535 97.62961 328.9485 95.972755 328.9485C94.3159 328.9485 92.972755 327.60535 92.972755 325.9485C92.972755 324.29166 94.3159 322.9485 95.972755 322.9485C97.62961 322.9485 98.972755 324.29166 98.972755 325.9485Z" fill-rule="nonzero"/><path fill="#000000" fill-opacity="0.0" clip-path="url(#id_0)" d="M148.15509 325.9485C148.15509 327.60535 146.81195 328.9485 145.15509 328.9485C143.49823 328.9485 142.15509 327.60535 142.15509 325.9485C142.15509 324.29166 143.49823 322.9485 145.15509 322.9485C146.81195 322.9485 148.15509 324.29166 148.15509 325.9485Z" fill-rule="nonzero"/><path fill="#000000" fill-opacity="0.0" clip-path="url(#id_0)" d="M195.7509 324.9455C195.7509 326.60236 194.40775 327.9455 192.7509 327.9455C191.09404 327.9455 189.7509 326.60236 189.7509 324.9455C189.7509 323.28864 191.09404 321.9455 192.7509 321.9455C194.40775 321.9455 195.7509 323.28864 195.7509 324.9455Z" fill-rule="nonzero"/><path fill="#000000" fill-opacity="0.0" clip-path="url(#id_0)" d="M244.93323 322.438C244.93323 324.09485 243.59009 325.438 241.93323 325.438C240.27638 325.438 238.93323 324.09485 238.93323 322.438C238.93323 320.78116 240.27638 319.438 241.93323 319.438C243.59009 319.438 244.93323 320.78116 244.93323 322.438Z" fill-rule="nonzero"/><path fill="#000000" fill-opacity="0.0" clip-path="url(#id_0)" d="M292.52905 309.9005C292.52905 311.55734 291.18588 312.9005 289.52905 312.9005C287.8722 312.9005 286.52905 311.55734 286.52905 309.9005C286.52905 308.24365 287.8722 306.9005 289.52905 306.9005C291.18588 306.9005 292.52905 308.24365 292.52905 309.9005Z" fill-rule="nonzero"/><path fill="#000000" fill-opacity="0.0" clip-path="url(#id_0)" d="M341.71136 290.342C341.71136 291.99884 340.36823 293.342 338.71136 293.342C337.05453 293.342 335.71136 291.99884 335.71136 290.342C335.71136 288.68515 337.05453 287.342 338.71136 287.342C340.36823 287.342 341.71136 288.68515 341.71136 290.342Z" fill-rule="nonzero"/><path fill="#000000" fill-opacity="0.0" clip-path="url(#id_0)" d="M390.8937 275.7985C390.8937 277.45535 389.55057 278.7985 387.8937 278.7985C386.23685 278.7985 384.8937 277.45535 384.8937 275.7985C384.8937 274.14163 386.23685 272.7985 387.8937 272.7985C389.55057 272.7985 390.8937 274.14163 390.8937 275.7985Z" fill-rule="nonzero"/><path fill="#000000" fill-opacity="0.0" clip-path="url(#id_0)" d="M438.48953 260.252C438.48953 261.90884 437.14636 263.252 435.48953 263.252C433.83267 263.252 432.48953 261.90884 432.48953 260.252C432.48953 258.59515 433.83267 257.252 435.48953 257.252C437.14636 257.252 438.48953 258.59515 438.48953 260.252Z" fill-rule="nonzero"/><path fill="#000000" fill-opacity="0.0" clip-path="url(#id_0)" d="M438.48953 260.252C438.48953 261.90884 437.14636 263.252 435.48953 263.252C433.83267 263.252 432.48953 261.90884 432.48953 260.252C432.48953 258.59515 433.83267 257.252 435.48953 257.252C437.14636 257.252 438.48953 258.59515 438.48953 260.252Z" fill-rule="nonzero"/><path fill="#000000" fill-opacity="0.0" clip-path="url(#id_0)" d="M487.67184 245.7085C487.67184 247.36536 486.3287 248.7085 484.67184 248.7085C483.015 248.7085 481.67184 247.36536 481.67184 245.7085C481.67184 244.05165 483.015 242.7085 484.67184 242.7085C486.3287 242.7085 487.67184 244.05165 487.67184 245.7085Z" fill-rule="nonzero"/><path fill="#000000" fill-opacity="0.0" clip-path="url(#id_0)" d="M535.26764 237.6845C535.26764 239.34135 533.9245 240.6845 532.26764 240.6845C530.61084 240.6845 529.26764 239.34135 529.26764 237.6845C529.26764 236.02765 530.61084 234.6845 532.26764 234.6845C533.9245 234.6845 535.26764 236.02765 535.26764 237.6845Z" fill-rule="nonzero"/><path fill="#000000" fill-opacity="0.0" clip-path="url(#id_0)" d="M584.45 237.183C584.45 238.83986 583.1069 240.183 581.45 240.183C579.79315 240.183 578.45 238.83986 578.45 237.183C578.45 235.52614 579.79315 234.183 581.45 234.183C583.1069 234.183 584.45 235.52614 584.45 237.183Z" fill-rule="nonzero"/><path fill="#000000" fill-opacity="0.0" clip-path="url(#id_0)" d="M54.55 326.45C54.55 328.10684 53.206856 329.45 51.55 329.45C49.893147 329.45 48.55 328.10684 48.55 326.45C48.55 324.79315 49.893147 323.45 51.55 323.45C53.206856 323.45 54.55 324.79315 54.55 326.45Z" fill-rule="nonzero"/><path fill="#000000" fill-opacity="0.0" clip-path="url(#id_0)" d="M98.972755 326.45C98.972755 328.10684 97.62961 329.45 95.972755 329.45C94.3159 329.45 92.972755 328.10684 92.972755 326.45C92.972755 324.79315 94.3159 323.45 95.972755 323.45C97.62961 323.45 98.972755 324.79315 98.972755 326.45Z" fill-rule="nonzero"/><path fill="#000000" fill-opacity="0.0" clip-path="url(#id_0)" d="M148.15509 326.45C148.15509 328.10684 146.81195 329.45 145.15509 329.45C143.49823 329.45 142.15509 328.10684 142.15509 326.45C142.15509 324.79315 143.49823 323.45 145.15509 323.45C146.81195 323.45 148.15509 324.79315 148.15509 326.45Z" fill-rule="nonzero"/><path fill="#000000" fill-opacity="0.0" clip-path="url(#id_0)" d="M195.7509 326.45C195.7509 328.10684 194.40775 329.45 192.7509 329.45C191.09404 329.45 189.7509 328.10684 189.7509 326.45C189.7509 324.79315 191.09404 323.45 192.7509 323.45C194.40775 323.45 195.7509 324.79315 195.7509 326.45Z" fill-rule="nonzero"/><path fill="#000000" fill-opacity="0.0" clip-path="url(#id_0)" d="M244.93323 322.9395C244.93323 324.59634 243.59009 325.9395 241.93323 325.9395C240.27638 325.9395 238.93323 324.59634 238.93323 322.9395C238.93323 321.28265 240.27638 319.9395 241.93323 319.9395C243.59009 319.9395 244.93323 321.28265 244.93323 322.9395Z" fill-rule="nonzero"/><path fill="#000000" fill-opacity="0.0" clip-path="url(#id_0)" d="M292.52905 312.408C292.52905 314.06485 291.18588 315.408 289.52905 315.408C287.8722 315.408 286.52905 314.06485 286.52905 312.408C286.52905 310.75116 287.8722 309.408 289.52905 309.408C291.18588 309.408 292.52905 310.75116 292.52905 312.408Z" fill-rule="nonzero"/><path fill="#000000" fill-opacity="0.0" clip-path="url(#id_0)" d="M341.71136 298.366C341.71136 300.02286 340.36823 301.366 338.71136 301.366C337.05453 301.366 335.71136 300.02286 335.71136 298.366C335.71136 296.70914 337.05453 295.366 338.71136 295.366C340.36823 295.366 341.71136 296.70914 341.71136 298.366Z" fill-rule="nonzero"/><path fill="#000000" fill-opacity="0.0" clip-path="url(#id_0)" d="M390.8937 255.7385C390.8937 257.39536 389.55057 258.7385 387.8937 258.7385C386.23685 258.7385 384.8937 257.39536 384.8937 255.7385C384.8937 254.08165 386.23685 252.7385 387.8937 252.7385C389.55057 252.7385 390.8937 254.08165 390.8937 255.7385Z" fill-rule="nonzero"/><path fill="#000000" fill-opacity="0.0" clip-path="url(#id_0)" d="M438.48953 226.6515C438.48953 228.30835 437.14636 229.6515 435.48953 229.6515C433.83267 229.6515 432.48953 228.30835 432.48953 226.6515C432.48953 224.99464 433.83267 223.6515 435.48953 223.6515C437.14636 223.6515 438.48953 224.99464 438.48953 226.6515Z" fill-rule="nonzero"/><path fill="#000000" fill-opacity="0.0" clip-path="url(#id_0)" d="M438.48953 226.6515C438.48953 228.30835 437.14636 229.6515 435.48953 229.6515C433.83267 229.6515 432.48953 228.30835 432.48953 226.6515C432.48953 224.99464 433.83267 223.6515 435.48953 223.6515C437.14636 223.6515 438.48953 224.99464 438.48953 226.6515Z" fill-rule="nonzero"/><path fill="#000000" fill-opacity="0.0" clip-path="url(#id_0)" d="M487.67184 201.075C487.67184 202.73186 486.3287 204.075 484.67184 204.075C483.015 204.075 481.67184 202.73186 481.67184 201.075C481.67184 199.41815 483.015 198.075 484.67184 198.075C486.3287 198.075 487.67184 199.41815 487.67184 201.075Z" fill-rule="nonzero"/><path fill="#000000" fill-opacity="0.0" clip-path="url(#id_0)" d="M535.26764 194.054C535.26764 195.71086 533.9245 197.054 532.26764 197.054C530.61084 197.054 529.26764 195.71086 529.26764 194.054C529.26764 192.39714 530.61084 191.054 532.26764 191.054C533.9245 191.054 535.26764 192.39714 535.26764 194.054Z" fill-rule="nonzero"/><path fill="#000000" fill-opacity="0.0" clip-path="url(#id_0)" d="M584.45 192.048C584.45 193.70485 583.1069 195.048 581.45 195.048C579.79315 195.048 578.45 193.70485 578.45 192.048C578.45 190.39114 579.79315 189.048 581.45 189.048C583.1069 189.048 584.45 190.39114 584.45 192.048Z" fill-rule="nonzero"/><path fill="#000000" fill-opacity="0.0" clip-path="url(#id_0)" d="M54.55 326.45C54.55 328.10684 53.206856 329.45 51.55 329.45C49.893147 329.45 48.55 328.10684 48.55 326.45C48.55 324.79315 49.893147 323.45 51.55 323.45C53.206856 323.45 54.55 324.79315 54.55 326.45Z" fill-rule="nonzero"/><path fill="#000000" fill-opacity="0.0" clip-path="url(#id_0)" d="M98.972755 326.45C98.972755 328.10684 97.62961 329.45 95.972755 329.45C94.3159 329.45 92.972755 328.10684 92.972755 326.45C92.972755 324.79315 94.3159 323.45 95.972755 323.45C97.62961 323.45 98.972755 324.79315 98.972755 326.45Z" fill-rule="nonzero"/><path fill="#000000" fill-opacity="0.0" clip-path="url(#id_0)" d="M148.15509 326.45C148.15509 328.10684 146.81195 329.45 145.15509 329.45C143.49823 329.45 142.15509 328.10684 142.15509 326.45C142.15509 324.79315 143.49823 323.45 145.15509 323.45C146.81195 323.45 148.15509 324.79315 148.15509 326.45Z" fill-rule="nonzero"/><path fill="#000000" fill-opacity="0.0" clip-path="url(#id_0)" d="M195.7509 325.9485C195.7509 327.60535 194.40775 328.9485 192.7509 328.9485C191.09404 328.9485 189.7509 327.60535 189.7509 325.9485C189.7509 324.29166 191.09404 322.9485 192.7509 322.9485C194.40775 322.9485 195.7509 324.29166 195.7509 325.9485Z" fill-rule="nonzero"/><path fill="#000000" fill-opacity="0.0" clip-path="url(#id_0)" d="M244.93323 322.438C244.93323 324.09485 243.59009 325.438 241.93323 325.438C240.27638 325.438 238.93323 324.09485 238.93323 322.438C238.93323 320.78116 240.27638 319.438 241.93323 319.438C243.59009 319.438 244.93323 320.78116 244.93323 322.438Z" fill-rule="nonzero"/><path fill="#000000" fill-opacity="0.0" clip-path="url(#id_0)" d="M292.52905 306.8915C292.52905 308.54834 291.18588 309.8915 289.52905 309.8915C287.8722 309.8915 286.52905 308.54834 286.52905 306.8915C286.52905 305.23465 287.8722 303.8915 289.52905 303.8915C291.18588 303.8915 292.52905 305.23465 292.52905 306.8915Z" fill-rule="nonzero"/><path fill="#000000" fill-opacity="0.0" clip-path="url(#id_0)" d="M341.71136 279.309C341.71136 280.96585 340.36823 282.309 338.71136 282.309C337.05453 282.309 335.71136 280.96585 335.71136 279.309C335.71136 277.65216 337.05453 276.309 338.71136 276.309C340.36823 276.309 341.71136 277.65216 341.71136 279.309Z" fill-rule="nonzero"/><path fill="#000000" fill-opacity="0.0" clip-path="url(#id_0)" d="M390.8937 253.231C390.8937 254.88785 389.55057 256.231 387.8937 256.231C386.23685 256.231 384.8937 254.88785 384.8937 253.231C384.8937 251.57414 386.23685 250.231 387.8937 250.231C389.55057 250.231 390.8937 251.57414 390.8937 253.231Z" fill-rule="nonzero"/><path fill="#000000" fill-opacity="0.0" clip-path="url(#id_0)" d="M438.48953 229.159C438.48953 230.81586 437.14636 232.159 435.48953 232.159C433.83267 232.159 432.48953 230.81586 432.48953 229.159C432.48953 227.50215 433.83267 226.159 435.48953 226.159C437.14636 226.159 438.48953 227.50215 438.48953 229.159Z" fill-rule="nonzero"/><path fill="#000000" fill-opacity="0.0" clip-path="url(#id_0)" d="M438.48953 229.159C438.48953 230.81586 437.14636 232.159 435.48953 232.159C433.83267 232.159 432.48953 230.81586 432.48953 229.159C432.48953 227.50215 433.83267 226.159 435.48953 226.159C437.14636 226.159 438.48953 227.50215 438.48953 229.159Z" fill-rule="nonzero"/><path fill="#000000" fill-opacity="0.0" clip-path="url(#id_0)" d="M487.67184 214.114C487.67184 215.77086 486.3287 217.114 484.67184 217.114C483.015 217.114 481.67184 215.77086 481.67184 214.114C481.67184 212.45715 483.015 211.114 484.67184 211.114C486.3287 211.114 487.67184 212.45715 487.67184 214.114Z" fill-rule="nonzero"/><path fill="#000000" fill-opacity="0.0" clip-path="url(#id_0)" d="M535.26764 208.096C535.26764 209.75285 533.9245 211.096 532.26764 211.096C530.61084 211.096 529.26764 209.75285 529.26764 208.096C529.26764 206.43915 530.61084 205.096 532.26764 205.096C533.9245 205.096 535.26764 206.43915 535.26764 208.096Z" fill-rule="nonzero"/><path fill="#000000" fill-opacity="0.0" clip-path="url(#id_0)" d="M584.45 207.093C584.45 208.74985 583.1069 210.093 581.45 210.093C579.79315 210.093 578.45 208.74985 578.45 207.093C578.45 205.43614 579.79315 204.093 581.45 204.093C583.1069 204.093 584.45 205.43614 584.45 207.093Z" fill-rule="nonzero"/><path fill="#000000" fill-opacity="0.0" clip-path="url(#id_0)" d="M54.55 326.45C54.55 328.10684 53.206856 329.45 51.55 329.45C49.893147 329.45 48.55 328.10684 48.55 326.45C48.55 324.79315 49.893147 323.45 51.55 323.45C53.206856 323.45 54.55 324.79315 54.55 326.45Z" fill-rule="nonzero"/><path fill="#000000" fill-opacity="0.0" clip-path="url(#id_0)" d="M98.972755 326.45C98.972755 328.10684 97.62961 329.45 95.972755 329.45C94.3159 329.45 92.972755 328.10684 92.972755 326.45C92.972755 324.79315 94.3159 323.45 95.972755 323.45C97.62961 323.45 98.972755 324.79315 98.972755 326.45Z" fill-rule="nonzero"/><path fill="#000000" fill-opacity="0.0" clip-path="url(#id_0)" d="M148.15509 326.45C148.15509 328.10684 146.81195 329.45 145.15509 329.45C143.49823 329.45 142.15509 328.10684 142.15509 326.45C142.15509 324.79315 143.49823 323.45 145.15509 323.45C146.81195 323.45 148.15509 324.79315 148.15509 326.45Z" fill-rule="nonzero"/><path fill="#000000" fill-opacity="0.0" clip-path="url(#id_0)" d="M195.7509 326.45C195.7509 328.10684 194.40775 329.45 192.7509 329.45C191.09404 329.45 189.7509 328.10684 189.7509 326.45C189.7509 324.79315 191.09404 323.45 192.7509 323.45C194.40775 323.45 195.7509 324.79315 195.7509 326.45Z" fill-rule="nonzero"/><path fill="#000000" fill-opacity="0.0" clip-path="url(#id_0)" d="M244.93323 323.9425C244.93323 325.59937 243.59009 326.9425 241.93323 326.9425C240.27638 326.9425 238.93323 325.59937 238.93323 323.9425C238.93323 322.28564 240.27638 320.9425 241.93323 320.9425C243.59009 320.9425 244.93323 322.28564 244.93323 323.9425Z" fill-rule="nonzero"/><path fill="#000000" fill-opacity="0.0" clip-path="url(#id_0)" d="M292.52905 308.396C292.52905 310.05286 291.18588 311.396 289.52905 311.396C287.8722 311.396 286.52905 310.05286 286.52905 308.396C286.52905 306.73914 287.8722 305.396 289.52905 305.396C291.18588 305.396 292.52905 306.73914 292.52905 308.396Z" fill-rule="nonzero"/><path fill="#000000" fill-opacity="0.0" clip-path="url(#id_0)" d="M341.71136 271.7865C341.71136 273.44336 340.36823 274.7865 338.71136 274.7865C337.05453 274.7865 335.71136 273.44336 335.71136 271.7865C335.71136 270.12964 337.05453 268.7865 338.71136 268.7865C340.36823 268.7865 341.71136 270.12964 341.71136 271.7865Z" fill-rule="nonzero"/><path fill="#000000" fill-opacity="0.0" clip-path="url(#id_0)" d="M390.8937 222.138C390.8937 223.79486 389.55057 225.138 387.8937 225.138C386.23685 225.138 384.8937 223.79486 384.8937 222.138C384.8937 220.48114 386.23685 219.138 387.8937 219.138C389.55057 219.138 390.8937 220.48114 390.8937 222.138Z" fill-rule="nonzero"/><path fill="#000000" fill-opacity="0.0" clip-path="url(#id_0)" d="M438.48953 181.015C438.48953 182.67186 437.14636 184.015 435.48953 184.015C433.83267 184.015 432.48953 182.67186 432.48953 181.015C432.48953 179.35814 433.83267 178.015 435.48953 178.015C437.14636 178.015 438.48953 179.35814 438.48953 181.015Z" fill-rule="nonzero"/><path fill="#000000" fill-opacity="0.0" clip-path="url(#id_0)" d="M438.48953 181.015C438.48953 182.67186 437.14636 184.015 435.48953 184.015C433.83267 184.015 432.48953 182.67186 432.48953 181.015C432.48953 179.35814 433.83267 178.015 435.48953 178.015C437.14636 178.015 438.48953 179.35814 438.48953 181.015Z" fill-rule="nonzero"/><path fill="#000000" fill-opacity="0.0" clip-path="url(#id_0)" d="M487.67184 142.3995C487.67184 144.05635 486.3287 145.3995 484.67184 145.3995C483.015 145.3995 481.67184 144.05635 481.67184 142.3995C481.67184 140.74265 483.015 139.3995 484.67184 139.3995C486.3287 139.3995 487.67184 140.74265 487.67184 142.3995Z" fill-rule="nonzero"/><path fill="#000000" fill-opacity="0.0" clip-path="url(#id_0)" d="M535.26764 131.3665C535.26764 133.02336 533.9245 134.3665 532.26764 134.3665C530.61084 134.3665 529.26764 133.02336 529.26764 131.3665C529.26764 129.70964 530.61084 128.3665 532.26764 128.3665C533.9245 128.3665 535.26764 129.70964 535.26764 131.3665Z" fill-rule="nonzero"/><path fill="#000000" fill-opacity="0.0" clip-path="url(#id_0)" d="M584.45 130.3635C584.45 132.02036 583.1069 133.3635 581.45 133.3635C579.79315 133.3635 578.45 132.02036 578.45 130.3635C578.45 128.70665 579.79315 127.3635 581.45 127.3635C583.1069 127.3635 584.45 128.70665 584.45 130.3635Z" fill-rule="nonzero"/><path fill="#000000" fill-opacity="0.0" clip-path="url(#id_0)" d="M54.55 325.9485C54.55 327.60535 53.206856 328.9485 51.55 328.9485C49.893147 328.9485 48.55 327.60535 48.55 325.9485C48.55 324.29166 49.893147 322.9485 51.55 322.9485C53.206856 322.9485 54.55 324.29166 54.55 325.9485Z" fill-rule="nonzero"/><path fill="#000000" fill-opacity="0.0" clip-path="url(#id_0)" d="M98.972755 325.9485C98.972755 327.60535 97.62961 328.9485 95.972755 328.9485C94.3159 328.9485 92.972755 327.60535 92.972755 325.9485C92.972755 324.29166 94.3159 322.9485 95.972755 322.9485C97.62961 322.9485 98.972755 324.29166 98.972755 325.9485Z" fill-rule="nonzero"/><path fill="#000000" fill-opacity="0.0" clip-path="url(#id_0)" d="M148.15509 325.9485C148.15509 327.60535 146.81195 328.9485 145.15509 328.9485C143.49823 328.9485 142.15509 327.60535 142.15509 325.9485C142.15509 324.29166 143.49823 322.9485 145.15509 322.9485C146.81195 322.9485 148.15509 324.29166 148.15509 325.9485Z" fill-rule="nonzero"/><path fill="#000000" fill-opacity="0.0" clip-path="url(#id_0)" d="M195.7509 325.9485C195.7509 327.60535 194.40775 328.9485 192.7509 328.9485C191.09404 328.9485 189.7509 327.60535 189.7509 325.9485C189.7509 324.29166 191.09404 322.9485 192.7509 322.9485C194.40775 322.9485 195.7509 324.29166 195.7509 325.9485Z" fill-rule="nonzero"/><path fill="#000000" fill-opacity="0.0" clip-path="url(#id_0)" d="M244.93323 318.426C244.93323 320.08286 243.59009 321.426 241.93323 321.426C240.27638 321.426 238.93323 320.08286 238.93323 318.426C238.93323 316.76913 240.27638 315.426 241.93323 315.426C243.59009 315.426 244.93323 316.76913 244.93323 318.426Z" fill-rule="nonzero"/><path fill="#000000" fill-opacity="0.0" clip-path="url(#id_0)" d="M292.52905 299.8705C292.52905 301.52734 291.18588 302.8705 289.52905 302.8705C287.8722 302.8705 286.52905 301.52734 286.52905 299.8705C286.52905 298.21365 287.8722 296.8705 289.52905 296.8705C291.18588 296.8705 292.52905 298.21365 292.52905 299.8705Z" fill-rule="nonzero"/><path fill="#000000" fill-opacity="0.0" clip-path="url(#id_0)" d="M341.71136 272.288C341.71136 273.94485 340.36823 275.288 338.71136 275.288C337.05453 275.288 335.71136 273.94485 335.71136 272.288C335.71136 270.63113 337.05453 269.288 338.71136 269.288C340.36823 269.288 341.71136 270.63113 341.71136 272.288Z" fill-rule="nonzero"/><path fill="#000000" fill-opacity="0.0" clip-path="url(#id_0)" d="M390.8937 233.171C390.8937 234.82785 389.55057 236.171 387.8937 236.171C386.23685 236.171 384.8937 234.82785 384.8937 233.171C384.8937 231.51414 386.23685 230.171 387.8937 230.171C389.55057 230.171 390.8937 231.51414 390.8937 233.171Z" fill-rule="nonzero"/><path fill="#000000" fill-opacity="0.0" clip-path="url(#id_0)" d="M438.48953 186.03C438.48953 187.68686 437.14636 189.03 435.48953 189.03C433.83267 189.03 432.48953 187.68686 432.48953 186.03C432.48953 184.37314 433.83267 183.03 435.48953 183.03C437.14636 183.03 438.48953 184.37314 438.48953 186.03Z" fill-rule="nonzero"/><path fill="#000000" fill-opacity="0.0" clip-path="url(#id_0)" d="M438.48953 186.03C438.48953 187.68686 437.14636 189.03 435.48953 189.03C433.83267 189.03 432.48953 187.68686 432.48953 186.03C432.48953 184.37314 433.83267 183.03 435.48953 183.03C437.14636 183.03 438.48953 184.37314 438.48953 186.03Z" fill-rule="nonzero"/><path fill="#000000" fill-opacity="0.0" clip-path="url(#id_0)" d="M487.67184 151.4265C487.67184 153.08336 486.3287 154.4265 484.67184 154.4265C483.015 154.4265 481.67184 153.08336 481.67184 151.4265C481.67184 149.76965 483.015 148.4265 484.67184 148.4265C486.3287 148.4265 487.67184 149.76965 487.67184 151.4265Z" fill-rule="nonzero"/><path fill="#000000" fill-opacity="0.0" clip-path="url(#id_0)" d="M535.26764 136.3815C535.26764 138.03836 533.9245 139.3815 532.26764 139.3815C530.61084 139.3815 529.26764 138.03836 529.26764 136.3815C529.26764 134.72464 530.61084 133.3815 532.26764 133.3815C533.9245 133.3815 535.26764 134.72464 535.26764 136.3815Z" fill-rule="nonzero"/><path fill="#000000" fill-opacity="0.0" clip-path="url(#id_0)" d="M584.45 133.3725C584.45 135.02936 583.1069 136.3725 581.45 136.3725C579.79315 136.3725 578.45 135.02936 578.45 133.3725C578.45 131.71565 579.79315 130.3725 581.45 130.3725C583.1069 130.3725 584.45 131.71565 584.45 133.3725Z" fill-rule="nonzero"/><path fill="#000000" fill-opacity="0.0" clip-path="url(#id_0)" d="M54.55 326.45C54.55 328.10684 53.206856 329.45 51.55 329.45C49.893147 329.45 48.55 328.10684 48.55 326.45C48.55 324.79315 49.893147 323.45 51.55 323.45C53.206856 323.45 54.55 324.79315 54.55 326.45Z" fill-rule="nonzero"/><path fill="#000000" fill-opacity="0.0" clip-path="url(#id_0)" d="M98.972755 326.45C98.972755 328.10684 97.62961 329.45 95.972755 329.45C94.3159 329.45 92.972755 328.10684 92.972755 326.45C92.972755 324.79315 94.3159 323.45 95.972755 323.45C97.62961 323.45 98.972755 324.79315 98.972755 326.45Z" fill-rule="nonzero"/><path fill="#000000" fill-opacity="0.0" clip-path="url(#id_0)" d="M148.15509 325.9485C148.15509 327.60535 146.81195 328.9485 145.15509 328.9485C143.49823 328.9485 142.15509 327.60535 142.15509 325.9485C142.15509 324.29166 143.49823 322.9485 145.15509 322.9485C146.81195 322.9485 148.15509 324.29166 148.15509 325.9485Z" fill-rule="nonzero"/><path fill="#000000" fill-opacity="0.0" clip-path="url(#id_0)" d="M195.7509 324.9455C195.7509 326.60236 194.40775 327.9455 192.7509 327.9455C191.09404 327.9455 189.7509 326.60236 189.7509 324.9455C189.7509 323.28864 191.09404 321.9455 192.7509 321.9455C194.40775 321.9455 195.7509 323.28864 195.7509 324.9455Z" fill-rule="nonzero"/><path fill="#000000" fill-opacity="0.0" clip-path="url(#id_0)" d="M244.93323 318.426C244.93323 320.08286 243.59009 321.426 241.93323 321.426C240.27638 321.426 238.93323 320.08286 238.93323 318.426C238.93323 316.76913 240.27638 315.426 241.93323 315.426C243.59009 315.426 244.93323 316.76913 244.93323 318.426Z" fill-rule="nonzero"/><path fill="#000000" fill-opacity="0.0" clip-path="url(#id_0)" d="M292.52905 303.381C292.52905 305.03784 291.18588 306.381 289.52905 306.381C287.8722 306.381 286.52905 305.03784 286.52905 303.381C286.52905 301.72415 287.8722 300.381 289.52905 300.381C291.18588 300.381 292.52905 301.72415 292.52905 303.381Z" fill-rule="nonzero"/><path fill="#000000" fill-opacity="0.0" clip-path="url(#id_0)" d="M341.71136 269.279C341.71136 270.93585 340.36823 272.279 338.71136 272.279C337.05453 272.279 335.71136 270.93585 335.71136 269.279C335.71136 267.62213 337.05453 266.279 338.71136 266.279C340.36823 266.279 341.71136 267.62213 341.71136 269.279Z" fill-rule="nonzero"/><path fill="#000000" fill-opacity="0.0" clip-path="url(#id_0)" d="M390.8937 214.114C390.8937 215.77086 389.55057 217.114 387.8937 217.114C386.23685 217.114 384.8937 215.77086 384.8937 214.114C384.8937 212.45715 386.23685 211.114 387.8937 211.114C389.55057 211.114 390.8937 212.45715 390.8937 214.114Z" fill-rule="nonzero"/><path fill="#000000" fill-opacity="0.0" clip-path="url(#id_0)" d="M438.48953 176.5015C438.48953 178.15836 437.14636 179.5015 435.48953 179.5015C433.83267 179.5015 432.48953 178.15836 432.48953 176.5015C432.48953 174.84465 433.83267 173.5015 435.48953 173.5015C437.14636 173.5015 438.48953 174.84465 438.48953 176.5015Z" fill-rule="nonzero"/><path fill="#000000" fill-opacity="0.0" clip-path="url(#id_0)" d="M438.48953 176.5015C438.48953 178.15836 437.14636 179.5015 435.48953 179.5015C433.83267 179.5015 432.48953 178.15836 432.48953 176.5015C432.48953 174.84465 433.83267 173.5015 435.48953 173.5015C437.14636 173.5015 438.48953 174.84465 438.48953 176.5015Z" fill-rule="nonzero"/><path fill="#000000" fill-opacity="0.0" clip-path="url(#id_0)" d="M487.67184 156.4415C487.67184 158.09836 486.3287 159.4415 484.67184 159.4415C483.015 159.4415 481.67184 158.09836 481.67184 156.4415C481.67184 154.78465 483.015 153.4415 484.67184 153.4415C486.3287 153.4415 487.67184 154.78465 487.67184 156.4415Z" fill-rule="nonzero"/><path fill="#000000" fill-opacity="0.0" clip-path="url(#id_0)" d="M535.26764 147.916C535.26764 149.57286 533.9245 150.916 532.26764 150.916C530.61084 150.916 529.26764 149.57286 529.26764 147.916C529.26764 146.25914 530.61084 144.916 532.26764 144.916C533.9245 144.916 535.26764 146.25914 535.26764 147.916Z" fill-rule="nonzero"/><path fill="#000000" fill-opacity="0.0" clip-path="url(#id_0)" d="M584.45 146.913C584.45 148.56985 583.1069 149.913 581.45 149.913C579.79315 149.913 578.45 148.56985 578.45 146.913C578.45 145.25615 579.79315 143.913 581.45 143.913C583.1069 143.913 584.45 145.25615 584.45 146.913Z" fill-rule="nonzero"/><path fill="#000000" fill-opacity="0.0" clip-path="url(#id_0)" d="M54.55 325.9485C54.55 327.60535 53.206856 328.9485 51.55 328.9485C49.893147 328.9485 48.55 327.60535 48.55 325.9485C48.55 324.29166 49.893147 322.9485 51.55 322.9485C53.206856 322.9485 54.55 324.29166 54.55 325.9485Z" fill-rule="nonzero"/><path fill="#000000" fill-opacity="0.0" clip-path="url(#id_0)" d="M98.972755 325.9485C98.972755 327.60535 97.62961 328.9485 95.972755 328.9485C94.3159 328.9485 92.972755 327.60535 92.972755 325.9485C92.972755 324.29166 94.3159 322.9485 95.972755 322.9485C97.62961 322.9485 98.972755 324.29166 98.972755 325.9485Z" fill-rule="nonzero"/><path fill="#000000" fill-opacity="0.0" clip-path="url(#id_0)" d="M148.15509 325.9485C148.15509 327.60535 146.81195 328.9485 145.15509 328.9485C143.49823 328.9485 142.15509 327.60535 142.15509 325.9485C142.15509 324.29166 143.49823 322.9485 145.15509 322.9485C146.81195 322.9485 148.15509 324.29166 148.15509 325.9485Z" fill-rule="nonzero"/><path fill="#000000" fill-opacity="0.0" clip-path="url(#id_0)" d="M195.7509 325.447C195.7509 327.10385 194.40775 328.447 192.7509 328.447C191.09404 328.447 189.7509 327.10385 189.7509 325.447C189.7509 323.79013 191.09404 322.447 192.7509 322.447C194.40775 322.447 195.7509 323.79013 195.7509 325.447Z" fill-rule="nonzero"/><path fill="#000000" fill-opacity="0.0" clip-path="url(#id_0)" d="M244.93323 320.9335C244.93323 322.59036 243.59009 323.9335 241.93323 323.9335C240.27638 323.9335 238.93323 322.59036 238.93323 320.9335C238.93323 319.27664 240.27638 317.9335 241.93323 317.9335C243.59009 317.9335 244.93323 319.27664 244.93323 320.9335Z" fill-rule="nonzero"/><path fill="#000000" fill-opacity="0.0" clip-path="url(#id_0)" d="M292.52905 310.402C292.52905 312.05887 291.18588 313.402 289.52905 313.402C287.8722 313.402 286.52905 312.05887 286.52905 310.402C286.52905 308.74515 287.8722 307.402 289.52905 307.402C291.18588 307.402 292.52905 308.74515 292.52905 310.402Z" fill-rule="nonzero"/><path fill="#000000" fill-opacity="0.0" clip-path="url(#id_0)" d="M341.71136 291.345C341.71136 293.00186 340.36823 294.345 338.71136 294.345C337.05453 294.345 335.71136 293.00186 335.71136 291.345C335.71136 289.68814 337.05453 288.345 338.71136 288.345C340.36823 288.345 341.71136 289.68814 341.71136 291.345Z" fill-rule="nonzero"/><path fill="#000000" fill-opacity="0.0" clip-path="url(#id_0)" d="M390.8937 253.231C390.8937 254.88785 389.55057 256.231 387.8937 256.231C386.23685 256.231 384.8937 254.88785 384.8937 253.231C384.8937 251.57414 386.23685 250.231 387.8937 250.231C389.55057 250.231 390.8937 251.57414 390.8937 253.231Z" fill-rule="nonzero"/><path fill="#000000" fill-opacity="0.0" clip-path="url(#id_0)" d="M438.48953 227.153C438.48953 228.80986 437.14636 230.153 435.48953 230.153C433.83267 230.153 432.48953 228.80986 432.48953 227.153C432.48953 225.49614 433.83267 224.153 435.48953 224.153C437.14636 224.153 438.48953 225.49614 438.48953 227.153Z" fill-rule="nonzero"/><path fill="#000000" fill-opacity="0.0" clip-path="url(#id_0)" d="M438.48953 227.153C438.48953 228.80986 437.14636 230.153 435.48953 230.153C433.83267 230.153 432.48953 228.80986 432.48953 227.153C432.48953 225.49614 433.83267 224.153 435.48953 224.153C437.14636 224.153 438.48953 225.49614 438.48953 227.153Z" fill-rule="nonzero"/><path fill="#000000" fill-opacity="0.0" clip-path="url(#id_0)" d="M487.67184 205.5885C487.67184 207.24536 486.3287 208.5885 484.67184 208.5885C483.015 208.5885 481.67184 207.24536 481.67184 205.5885C481.67184 203.93164 483.015 202.5885 484.67184 202.5885C486.3287 202.5885 487.67184 203.93164 487.67184 205.5885Z" fill-rule="nonzero"/><path fill="#000000" fill-opacity="0.0" clip-path="url(#id_0)" d="M535.26764 191.5465C535.26764 193.20335 533.9245 194.5465 532.26764 194.5465C530.61084 194.5465 529.26764 193.20335 529.26764 191.5465C529.26764 189.88965 530.61084 188.5465 532.26764 188.5465C533.9245 188.5465 535.26764 189.88965 535.26764 191.5465Z" fill-rule="nonzero"/><path fill="#000000" fill-opacity="0.0" clip-path="url(#id_0)" d="M584.45 189.039C584.45 190.69586 583.1069 192.039 581.45 192.039C579.79315 192.039 578.45 190.69586 578.45 189.039C578.45 187.38214 579.79315 186.039 581.45 186.039C583.1069 186.039 584.45 187.38214 584.45 189.039Z" fill-rule="nonzero"/><path fill="#000000" fill-opacity="0.0" clip-path="url(#id_0)" d="M54.55 324.9455C54.55 326.60236 53.206856 327.9455 51.55 327.9455C49.893147 327.9455 48.55 326.60236 48.55 324.9455C48.55 323.28864 49.893147 321.9455 51.55 321.9455C53.206856 321.9455 54.55 323.28864 54.55 324.9455Z" fill-rule="nonzero"/><path fill="#000000" fill-opacity="0.0" clip-path="url(#id_0)" d="M98.972755 324.9455C98.972755 326.60236 97.62961 327.9455 95.972755 327.9455C94.3159 327.9455 92.972755 326.60236 92.972755 324.9455C92.972755 323.28864 94.3159 321.9455 95.972755 321.9455C97.62961 321.9455 98.972755 323.28864 98.972755 324.9455Z" fill-rule="nonzero"/><path fill="#000000" fill-opacity="0.0" clip-path="url(#id_0)" d="M148.15509 324.444C148.15509 326.10086 146.81195 327.444 145.15509 327.444C143.49823 327.444 142.15509 326.10086 142.15509 324.444C142.15509 322.78714 143.49823 321.444 145.15509 321.444C146.81195 321.444 148.15509 322.78714 148.15509 324.444Z" fill-rule="nonzero"/><path fill="#000000" fill-opacity="0.0" clip-path="url(#id_0)" d="M195.7509 323.9425C195.7509 325.59937 194.40775 326.9425 192.7509 326.9425C191.09404 326.9425 189.7509 325.59937 189.7509 323.9425C189.7509 322.28564 191.09404 320.9425 192.7509 320.9425C194.40775 320.9425 195.7509 322.28564 195.7509 323.9425Z" fill-rule="nonzero"/><path fill="#000000" fill-opacity="0.0" clip-path="url(#id_0)" d="M244.93323 320.9335C244.93323 322.59036 243.59009 323.9335 241.93323 323.9335C240.27638 323.9335 238.93323 322.59036 238.93323 320.9335C238.93323 319.27664 240.27638 317.9335 241.93323 317.9335C243.59009 317.9335 244.93323 319.27664 244.93323 320.9335Z" fill-rule="nonzero"/><path fill="#000000" fill-opacity="0.0" clip-path="url(#id_0)" d="M292.52905 296.36C292.52905 298.01685 291.18588 299.36 289.52905 299.36C287.8722 299.36 286.52905 298.01685 286.52905 296.36C286.52905 294.70316 287.8722 293.36 289.52905 293.36C291.18588 293.36 292.52905 294.70316 292.52905 296.36Z" fill-rule="nonzero"/><path fill="#000000" fill-opacity="0.0" clip-path="url(#id_0)" d="M341.71136 249.219C341.71136 250.87585 340.36823 252.219 338.71136 252.219C337.05453 252.219 335.71136 250.87585 335.71136 249.219C335.71136 247.56215 337.05453 246.219 338.71136 246.219C340.36823 246.219 341.71136 247.56215 341.71136 249.219Z" fill-rule="nonzero"/><path fill="#000000" fill-opacity="0.0" clip-path="url(#id_0)" d="M390.8937 202.5795C390.8937 204.23636 389.55057 205.5795 387.8937 205.5795C386.23685 205.5795 384.8937 204.23636 384.8937 202.5795C384.8937 200.92265 386.23685 199.5795 387.8937 199.5795C389.55057 199.5795 390.8937 200.92265 390.8937 202.5795Z" fill-rule="nonzero"/><path fill="#000000" fill-opacity="0.0" clip-path="url(#id_0)" d="M438.48953 132.3695C438.48953 134.02635 437.14636 135.3695 435.48953 135.3695C433.83267 135.3695 432.48953 134.02635 432.48953 132.3695C432.48953 130.71265 433.83267 129.3695 435.48953 129.3695C437.14636 129.3695 438.48953 130.71265 438.48953 132.3695Z" fill-rule="nonzero"/><path fill="#000000" fill-opacity="0.0" clip-path="url(#id_0)" d="M438.48953 132.3695C438.48953 134.02635 437.14636 135.3695 435.48953 135.3695C433.83267 135.3695 432.48953 134.02635 432.48953 132.3695C432.48953 130.71265 433.83267 129.3695 435.48953 129.3695C437.14636 129.3695 438.48953 130.71265 438.48953 132.3695Z" fill-rule="nonzero"/><path fill="#000000" fill-opacity="0.0" clip-path="url(#id_0)" d="M487.67184 78.709C487.67184 80.36585 486.3287 81.709 484.67184 81.709C483.015 81.709 481.67184 80.36585 481.67184 78.709C481.67184 77.05215 483.015 75.709 484.67184 75.709C486.3287 75.709 487.67184 77.05215 487.67184 78.709Z" fill-rule="nonzero"/><path fill="#000000" fill-opacity="0.0" clip-path="url(#id_0)" d="M535.26764 62.661C535.26764 64.317856 533.9245 65.661 532.26764 65.661C530.61084 65.661 529.26764 64.317856 529.26764 62.661C529.26764 61.004147 530.61084 59.661 532.26764 59.661C533.9245 59.661 535.26764 61.004147 535.26764 62.661Z" fill-rule="nonzero"/><path fill="#000000" fill-opacity="0.0" clip-path="url(#id_0)" d="M584.45 58.649C584.45 60.305855 583.1069 61.649 581.45 61.649C579.79315 61.649 578.45 60.305855 578.45 58.649C578.45 56.992146 579.79315 55.649 581.45 55.649C583.1069 55.649 584.45 56.992146 584.45 58.649Z" fill-rule="nonzero"/><path fill="#000000" fill-opacity="0.0" clip-path="url(#id_0)" d="M54.55 325.447C54.55 327.10385 53.206856 328.447 51.55 328.447C49.893147 328.447 48.55 327.10385 48.55 325.447C48.55 323.79013 49.893147 322.447 51.55 322.447C53.206856 322.447 54.55 323.79013 54.55 325.447Z" fill-rule="nonzero"/><path fill="#000000" fill-opacity="0.0" clip-path="url(#id_0)" d="M98.972755 324.9455C98.972755 326.60236 97.62961 327.9455 95.972755 327.9455C94.3159 327.9455 92.972755 326.60236 92.972755 324.9455C92.972755 323.28864 94.3159 321.9455 95.972755 321.9455C97.62961 321.9455 98.972755 323.28864 98.972755 324.9455Z" fill-rule="nonzero"/><path fill="#000000" fill-opacity="0.0" clip-path="url(#id_0)" d="M148.15509 324.9455C148.15509 326.60236 146.81195 327.9455 145.15509 327.9455C143.49823 327.9455 142.15509 326.60236 142.15509 324.9455C142.15509 323.28864 143.49823 321.9455 145.15509 321.9455C146.81195 321.9455 148.15509 323.28864 148.15509 324.9455Z" fill-rule="nonzero"/><path fill="#000000" fill-opacity="0.0" clip-path="url(#id_0)" d="M195.7509 324.444C195.7509 326.10086 194.40775 327.444 192.7509 327.444C191.09404 327.444 189.7509 326.10086 189.7509 324.444C189.7509 322.78714 191.09404 321.444 192.7509 321.444C194.40775 321.444 195.7509 322.78714 195.7509 324.444Z" fill-rule="nonzero"/><path fill="#000000" fill-opacity="0.0" clip-path="url(#id_0)" d="M244.93323 313.411C244.93323 315.06784 243.59009 316.411 241.93323 316.411C240.27638 316.411 238.93323 315.06784 238.93323 313.411C238.93323 311.75415 240.27638 310.411 241.93323 310.411C243.59009 310.411 244.93323 311.75415 244.93323 313.411Z" fill-rule="nonzero"/><path fill="#000000" fill-opacity="0.0" clip-path="url(#id_0)" d="M292.52905 290.8435C292.52905 292.50037 291.18588 293.8435 289.52905 293.8435C287.8722 293.8435 286.52905 292.50037 286.52905 290.8435C286.52905 289.18665 287.8722 287.8435 289.52905 287.8435C291.18588 287.8435 292.52905 289.18665 292.52905 290.8435Z" fill-rule="nonzero"/><path fill="#000000" fill-opacity="0.0" clip-path="url(#id_0)" d="M341.71136 245.7085C341.71136 247.36536 340.36823 248.7085 338.71136 248.7085C337.05453 248.7085 335.71136 247.36536 335.71136 245.7085C335.71136 244.05165 337.05453 242.7085 338.71136 242.7085C340.36823 242.7085 341.71136 244.05165 341.71136 245.7085Z" fill-rule="nonzero"/><path fill="#000000" fill-opacity="0.0" clip-path="url(#id_0)" d="M390.8937 189.5405C390.8937 191.19736 389.55057 192.5405 387.8937 192.5405C386.23685 192.5405 384.8937 191.19736 384.8937 189.5405C384.8937 187.88365 386.23685 186.5405 387.8937 186.5405C389.55057 186.5405 390.8937 187.88365 390.8937 189.5405Z" fill-rule="nonzero"/><path fill="#000000" fill-opacity="0.0" clip-path="url(#id_0)" d="M438.48953 146.913C438.48953 148.56985 437.14636 149.913 435.48953 149.913C433.83267 149.913 432.48953 148.56985 432.48953 146.913C432.48953 145.25615 433.83267 143.913 435.48953 143.913C437.14636 143.913 438.48953 145.25615 438.48953 146.913Z" fill-rule="nonzero"/><path fill="#000000" fill-opacity="0.0" clip-path="url(#id_0)" d="M438.48953 146.913C438.48953 148.56985 437.14636 149.913 435.48953 149.913C433.83267 149.913 432.48953 148.56985 432.48953 146.913C432.48953 145.25615 433.83267 143.913 435.48953 143.913C437.14636 143.913 438.48953 145.25615 438.48953 146.913Z" fill-rule="nonzero"/><path fill="#000000" fill-opacity="0.0" clip-path="url(#id_0)" d="M487.67184 113.814C487.67184 115.470856 486.3287 116.814 484.67184 116.814C483.015 116.814 481.67184 115.470856 481.67184 113.814C481.67184 112.15714 483.015 110.814 484.67184 110.814C486.3287 110.814 487.67184 112.15714 487.67184 113.814Z" fill-rule="nonzero"/><path fill="#000000" fill-opacity="0.0" clip-path="url(#id_0)" d="M535.26764 94.757C535.26764 96.41386 533.9245 97.757 532.26764 97.757C530.61084 97.757 529.26764 96.41386 529.26764 94.757C529.26764 93.10014 530.61084 91.757 532.26764 91.757C533.9245 91.757 535.26764 93.10014 535.26764 94.757Z" fill-rule="nonzero"/><path fill="#000000" fill-opacity="0.0" clip-path="url(#id_0)" d="M584.45 93.2525C584.45 94.909355 583.1069 96.2525 581.45 96.2525C579.79315 96.2525 578.45 94.909355 578.45 93.2525C578.45 91.59564 579.79315 90.2525 581.45 90.2525C583.1069 90.2525 584.45 91.59564 584.45 93.2525Z" fill-rule="nonzero"/><path fill="#000000" fill-opacity="0.0" clip-path="url(#id_0)" d="M54.55 325.9485C54.55 327.60535 53.206856 328.9485 51.55 328.9485C49.893147 328.9485 48.55 327.60535 48.55 325.9485C48.55 324.29166 49.893147 322.9485 51.55 322.9485C53.206856 322.9485 54.55 324.29166 54.55 325.9485Z" fill-rule="nonzero"/><path fill="#000000" fill-opacity="0.0" clip-path="url(#id_0)" d="M98.972755 325.9485C98.972755 327.60535 97.62961 328.9485 95.972755 328.9485C94.3159 328.9485 92.972755 327.60535 92.972755 325.9485C92.972755 324.29166 94.3159 322.9485 95.972755 322.9485C97.62961 322.9485 98.972755 324.29166 98.972755 325.9485Z" fill-rule="nonzero"/><path fill="#000000" fill-opacity="0.0" clip-path="url(#id_0)" d="M148.15509 325.9485C148.15509 327.60535 146.81195 328.9485 145.15509 328.9485C143.49823 328.9485 142.15509 327.60535 142.15509 325.9485C142.15509 324.29166 143.49823 322.9485 145.15509 322.9485C146.81195 322.9485 148.15509 324.29166 148.15509 325.9485Z" fill-rule="nonzero"/><path fill="#000000" fill-opacity="0.0" clip-path="url(#id_0)" d="M195.7509 325.9485C195.7509 327.60535 194.40775 328.9485 192.7509 328.9485C191.09404 328.9485 189.7509 327.60535 189.7509 325.9485C189.7509 324.29166 191.09404 322.9485 192.7509 322.9485C194.40775 322.9485 195.7509 324.29166 195.7509 325.9485Z" fill-rule="nonzero"/><path fill="#000000" fill-opacity="0.0" clip-path="url(#id_0)" d="M244.93323 318.9275C244.93323 320.58435 243.59009 321.9275 241.93323 321.9275C240.27638 321.9275 238.93323 320.58435 238.93323 318.9275C238.93323 317.27066 240.27638 315.9275 241.93323 315.9275C243.59009 315.9275 244.93323 317.27066 244.93323 318.9275Z" fill-rule="nonzero"/><path fill="#000000" fill-opacity="0.0" clip-path="url(#id_0)" d="M292.52905 291.8465C292.52905 293.50336 291.18588 294.8465 289.52905 294.8465C287.8722 294.8465 286.52905 293.50336 286.52905 291.8465C286.52905 290.18964 287.8722 288.8465 289.52905 288.8465C291.18588 288.8465 292.52905 290.18964 292.52905 291.8465Z" fill-rule="nonzero"/><path fill="#000000" fill-opacity="0.0" clip-path="url(#id_0)" d="M341.71136 252.228C341.71136 253.88486 340.36823 255.228 338.71136 255.228C337.05453 255.228 335.71136 253.88486 335.71136 252.228C335.71136 250.57115 337.05453 249.228 338.71136 249.228C340.36823 249.228 341.71136 250.57115 341.71136 252.228Z" fill-rule="nonzero"/><path fill="#000000" fill-opacity="0.0" clip-path="url(#id_0)" d="M54.55 326.03967C54.55 327.69653 53.206856 329.03967 51.55 329.03967C49.893147 329.03967 48.55 327.69653 48.55 326.03967C48.55 324.3828 49.893147 323.03967 51.55 323.03967C53.206856 323.03967 54.55 324.3828 54.55 326.03967Z" fill-rule="nonzero"/><path fill="#000000" fill-opacity="0.0" clip-path="url(#id_0)" d="M98.972755 325.99408C98.972755 327.65094 97.62961 328.99408 95.972755 328.99408C94.3159 328.99408 92.972755 327.65094 92.972755 325.99408C92.972755 324.33725 94.3159 322.99408 95.972755 322.99408C97.62961 322.99408 98.972755 324.33725 98.972755 325.99408Z" fill-rule="nonzero"/><path fill="#000000" fill-opacity="0.0" clip-path="url(#id_0)" d="M148.15509 325.90292C148.15509 327.55975 146.81195 328.90292 145.15509 328.90292C143.49823 328.90292 142.15509 327.55975 142.15509 325.90292C142.15509 324.24606 143.49823 322.90292 145.15509 322.90292C146.81195 322.90292 148.15509 324.24606 148.15509 325.90292Z" fill-rule="nonzero"/><path fill="#000000" fill-opacity="0.0" clip-path="url(#id_0)" d="M195.7509 325.53818C195.7509 327.19504 194.40775 328.53818 192.7509 328.53818C191.09404 328.53818 189.7509 327.19504 189.7509 325.53818C189.7509 323.88132 191.09404 322.53818 192.7509 322.53818C194.40775 322.53818 195.7509 323.88132 195.7509 325.53818Z" fill-rule="nonzero"/><path fill="#000000" fill-opacity="0.0" clip-path="url(#id_0)" d="M244.93323 320.79672C244.93323 322.45358 243.59009 323.79672 241.93323 323.79672C240.27638 323.79672 238.93323 322.45358 238.93323 320.79672C238.93323 319.13986 240.27638 317.79672 241.93323 317.79672C243.59009 317.79672 244.93323 319.13986 244.93323 320.79672Z" fill-rule="nonzero"/><path fill="#000000" fill-opacity="0.0" clip-path="url(#id_0)" d="M292.52905 304.29282C292.52905 305.94968 291.18588 307.29282 289.52905 307.29282C287.8722 307.29282 286.52905 305.94968 286.52905 304.29282C286.52905 302.63596 287.8722 301.29282 289.52905 301.29282C291.18588 301.29282 292.52905 302.63596 292.52905 304.29282Z" fill-rule="nonzero"/><path fill="#000000" fill-opacity="0.0" clip-path="url(#id_0)" d="M341.71136 274.11163C341.71136 275.7685 340.36823 277.11163 338.71136 277.11163C337.05453 277.11163 335.71136 275.7685 335.71136 274.11163C335.71136 272.45477 337.05453 271.11163 338.71136 271.11163C340.36823 271.11163 341.71136 272.45477 341.71136 274.11163Z" fill-rule="nonzero"/><path fill="#000000" fill-opacity="0.0" clip-path="url(#id_0)" d="M390.8937 237.3836C390.8937 239.04045 389.55057 240.3836 387.8937 240.3836C386.23685 240.3836 384.8937 239.04045 384.8937 237.3836C384.8937 235.72675 386.23685 234.3836 387.8937 234.3836C389.55057 234.3836 390.8937 235.72675 390.8937 237.3836Z" fill-rule="nonzero"/><path fill="#000000" fill-opacity="0.0" clip-path="url(#id_0)" d="M438.48953 201.6768C438.48953 203.33365 437.14636 204.6768 435.48953 204.6768C433.83267 204.6768 432.48953 203.33365 432.48953 201.6768C432.48953 200.01994 433.83267 198.6768 435.48953 198.6768C437.14636 198.6768 438.48953 200.01994 438.48953 201.6768Z" fill-rule="nonzero"/><path fill="#000000" fill-opacity="0.0" clip-path="url(#id_0)" d="M438.48953 201.6768C438.48953 203.33365 437.14636 204.6768 435.48953 204.6768C433.83267 204.6768 432.48953 203.33365 432.48953 201.6768C432.48953 200.01994 433.83267 198.6768 435.48953 198.6768C437.14636 198.6768 438.48953 200.01994 438.48953 201.6768Z" fill-rule="nonzero"/><path fill="#000000" fill-opacity="0.0" clip-path="url(#id_0)" d="M487.67184 174.04414C487.67184 175.701 486.3287 177.04414 484.67184 177.04414C483.015 177.04414 481.67184 175.701 481.67184 174.04414C481.67184 172.3873 483.015 171.04414 484.67184 171.04414C486.3287 171.04414 487.67184 172.3873 487.67184 174.04414Z" fill-rule="nonzero"/><path fill="#000000" fill-opacity="0.0" clip-path="url(#id_0)" d="M535.26764 162.961C535.26764 164.61786 533.9245 165.961 532.26764 165.961C530.61084 165.961 529.26764 164.61786 529.26764 162.961C529.26764 161.30414 530.61084 159.961 532.26764 159.961C533.9245 159.961 535.26764 161.30414 535.26764 162.961Z" fill-rule="nonzero"/><path fill="#000000" fill-opacity="0.0" clip-path="url(#id_0)" d="M584.45 160.955C584.45 162.61185 583.1069 163.955 581.45 163.955C579.79315 163.955 578.45 162.61185 578.45 160.955C578.45 159.29814 579.79315 157.955 581.45 157.955C583.1069 157.955 584.45 159.29814 584.45 160.955Z" fill-rule="nonzero"/><path fill="#000000" fill-opacity="0.0" clip-path="url(#id_0)" d="M438.48953 326.45C438.48953 328.10684 437.14636 329.45 435.48953 329.45C433.83267 329.45 432.48953 328.10684 432.48953 326.45C432.48953 324.79315 433.83267 323.45 435.48953 323.45C437.14636 323.45 438.48953 324.79315 438.48953 326.45Z" fill-rule="nonzero"/><path fill="#000000" fill-opacity="0.0" clip-path="url(#id_0)" d="M438.48953 25.55C438.48953 27.206854 437.14636 28.55 435.48953 28.55C433.83267 28.55 432.48953 27.206854 432.48953 25.55C432.48953 23.893147 433.83267 22.55 435.48953 22.55C437.14636 22.55 438.48953 23.893147 438.48953 25.55Z" fill-rule="nonzero"/><path fill="#000000" fill-opacity="0.0" clip-path="url(#id_0)" d="M54.55 140.895C54.55 142.55185 53.206856 143.895 51.55 143.895C49.893147 143.895 48.55 142.55185 48.55 140.895C48.55 139.23814 49.893147 137.895 51.55 137.895C53.206856 137.895 54.55 139.23814 54.55 140.895Z" fill-rule="nonzero"/><path fill="#000000" fill-opacity="0.0" clip-path="url(#id_0)" d="M98.972755 140.895C98.972755 142.55185 97.62961 143.895 95.972755 143.895C94.3159 143.895 92.972755 142.55185 92.972755 140.895C92.972755 139.23814 94.3159 137.895 95.972755 137.895C97.62961 137.895 98.972755 139.23814 98.972755 140.895Z" fill-rule="nonzero"/><path fill="#000000" fill-opacity="0.0" clip-path="url(#id_0)" d="M148.15509 140.895C148.15509 142.55185 146.81195 143.895 145.15509 143.895C143.49823 143.895 142.15509 142.55185 142.15509 140.895C142.15509 139.23814 143.49823 137.895 145.15509 137.895C146.81195 137.895 148.15509 139.23814 148.15509 140.895Z" fill-rule="nonzero"/><path fill="#000000" fill-opacity="0.0" clip-path="url(#id_0)" d="M195.7509 140.895C195.7509 142.55185 194.40775 143.895 192.7509 143.895C191.09404 143.895 189.7509 142.55185 189.7509 140.895C189.7509 139.23814 191.09404 137.895 192.7509 137.895C194.40775 137.895 195.7509 139.23814 195.7509 140.895Z" fill-rule="nonzero"/><path fill="#000000" fill-opacity="0.0" clip-path="url(#id_0)" d="M244.93323 140.895C244.93323 142.55185 243.59009 143.895 241.93323 143.895C240.27638 143.895 238.93323 142.55185 238.93323 140.895C238.93323 139.23814 240.27638 137.895 241.93323 137.895C243.59009 137.895 244.93323 139.23814 244.93323 140.895Z" fill-rule="nonzero"/><path fill="#000000" fill-opacity="0.0" clip-path="url(#id_0)" d="M292.52905 140.895C292.52905 142.55185 291.18588 143.895 289.52905 143.895C287.8722 143.895 286.52905 142.55185 286.52905 140.895C286.52905 139.23814 287.8722 137.895 289.52905 137.895C291.18588 137.895 292.52905 139.23814 292.52905 140.895Z" fill-rule="nonzero"/><path fill="#000000" fill-opacity="0.0" clip-path="url(#id_0)" d="M341.71136 140.895C341.71136 142.55185 340.36823 143.895 338.71136 143.895C337.05453 143.895 335.71136 142.55185 335.71136 140.895C335.71136 139.23814 337.05453 137.895 338.71136 137.895C340.36823 137.895 341.71136 139.23814 341.71136 140.895Z" fill-rule="nonzero"/><path fill="#000000" fill-opacity="0.0" clip-path="url(#id_0)" d="M390.8937 140.895C390.8937 142.55185 389.55057 143.895 387.8937 143.895C386.23685 143.895 384.8937 142.55185 384.8937 140.895C384.8937 139.23814 386.23685 137.895 387.8937 137.895C389.55057 137.895 390.8937 139.23814 390.8937 140.895Z" fill-rule="nonzero"/><path fill="#000000" fill-opacity="0.0" clip-path="url(#id_0)" d="M438.48953 140.895C438.48953 142.55185 437.14636 143.895 435.48953 143.895C433.83267 143.895 432.48953 142.55185 432.48953 140.895C432.48953 139.23814 433.83267 137.895 435.48953 137.895C437.14636 137.895 438.48953 139.23814 438.48953 140.895Z" fill-rule="nonzero"/><path fill="#000000" fill-opacity="0.0" clip-path="url(#id_0)" d="M438.48953 140.895C438.48953 142.55185 437.14636 143.895 435.48953 143.895C433.83267 143.895 432.48953 142.55185 432.48953 140.895C432.48953 139.23814 433.83267 137.895 435.48953 137.895C437.14636 137.895 438.48953 139.23814 438.48953 140.895Z" fill-rule="nonzero"/><path fill="#000000" fill-opacity="0.0" clip-path="url(#id_0)" d="M487.67184 140.895C487.67184 142.55185 486.3287 143.895 484.67184 143.895C483.015 143.895 481.67184 142.55185 481.67184 140.895C481.67184 139.23814 483.015 137.895 484.67184 137.895C486.3287 137.895 487.67184 139.23814 487.67184 140.895Z" fill-rule="nonzero"/><path fill="#000000" fill-opacity="0.0" clip-path="url(#id_0)" d="M535.26764 140.895C535.26764 142.55185 533.9245 143.895 532.26764 143.895C530.61084 143.895 529.26764 142.55185 529.26764 140.895C529.26764 139.23814 530.61084 137.895 532.26764 137.895C533.9245 137.895 535.26764 139.23814 535.26764 140.895Z" fill-rule="nonzero"/><path fill="#000000" fill-opacity="0.0" clip-path="url(#id_0)" d="M584.45 140.895C584.45 142.55185 583.1069 143.895 581.45 143.895C579.79315 143.895 578.45 142.55185 578.45 140.895C578.45 139.23814 579.79315 137.895 581.45 137.895C583.1069 137.895 584.45 139.23814 584.45 140.895Z" fill-rule="nonzero"/><path stroke="#000000" stroke-width="1.0" stroke-linecap="butt" d="M51.5 332.5L51.5 320.5" fill-rule="nonzero"/><path stroke="#000000" stroke-width="1.0" stroke-linecap="butt" d="M95.5 332.5L95.5 320.5" fill-rule="nonzero"/><path stroke="#000000" stroke-width="1.0" stroke-linecap="butt" d="M145.5 332.5L145.5 320.5" fill-rule="nonzero"/><path stroke="#000000" stroke-width="1.0" stroke-linecap="butt" d="M192.5 332.5L192.5 320.5" fill-rule="nonzero"/><path stroke="#000000" stroke-width="1.0" stroke-linecap="butt" d="M241.5 332.5L241.5 320.5" fill-rule="nonzero"/><path stroke="#000000" stroke-width="1.0" stroke-linecap="butt" d="M289.5 332.5L289.5 320.5" fill-rule="nonzero"/><path stroke="#000000" stroke-width="1.0" stroke-linecap="butt" d="M338.5 332.5L338.5 320.5" fill-rule="nonzero"/><path stroke="#000000" stroke-width="1.0" stroke-linecap="butt" d="M387.5 332.5L387.5 320.5" fill-rule="nonzero"/><path stroke="#000000" stroke-width="1.0" stroke-linecap="butt" d="M435.5 332.5L435.5 320.5" fill-rule="nonzero"/><path stroke="#000000" stroke-width="1.0" stroke-linecap="butt" d="M484.5 332.5L484.5 320.5" fill-rule="nonzero"/><path stroke="#000000" stroke-width="1.0" stroke-linecap="butt" d="M532.5 332.5L532.5 320.5" fill-rule="nonzero"/><path stroke="#000000" stroke-width="1.0" stroke-linecap="butt" d="M581.5 332.5L581.5 320.5" fill-rule="nonzero"/><path stroke="#000000" stroke-width="1.0" stroke-linecap="butt" d="M45.5 326.5L57.5 326.5" fill-rule="nonzero"/><path stroke="#000000" stroke-width="1.0" stroke-linecap="butt" d="M45.5 276.5L57.5 276.5" fill-rule="nonzero"/><path stroke="#000000" stroke-width="1.0" stroke-linecap="butt" d="M45.5 226.5L57.5 226.5" fill-rule="nonzero"/><path stroke="#000000" stroke-width="1.0" stroke-linecap="butt" d="M45.5 176.5L57.5 176.5" fill-rule="nonzero"/><path stroke="#000000" stroke-width="1.0" stroke-linecap="butt" d="M45.5 125.5L57.5 125.5" fill-rule="nonzero"/><path stroke="#000000" stroke-width="1.0" stroke-linecap="butt" d="M45.5 75.5L57.5 75.5" fill-rule="nonzero"/><path stroke="#000000" stroke-width="1.0" stroke-linecap="butt" d="M45.5 25.5L57.5 25.5" fill-rule="nonzero"/><path fill="#000000" d="M33.05 326.21564Q33.05 324.6844 33.3625 323.7625Q33.675 322.825 34.284374 322.325Q34.909374 321.825 35.846874 321.825Q36.534374 321.825 37.05 322.10626Q37.58125 322.3875 37.925 322.91876Q38.26875 323.4344 38.45625 324.1844Q38.64375 324.9344 38.64375 326.21564Q38.64375 327.73126 38.33125 328.65314Q38.034374 329.575 37.409374 330.09064Q36.8 330.59064 35.846874 330.59064Q34.6125 330.59064 33.89375 329.7Q33.05 328.6375 33.05 326.21564ZM34.128124 326.21564Q34.128124 328.325 34.628124 329.02814Q35.128124 329.73126 35.846874 329.73126Q36.58125 329.73126 37.065624 329.02814Q37.565624 328.325 37.565624 326.21564Q37.565624 324.09064 37.065624 323.40314Q36.58125 322.7 35.83125 322.7Q35.1125 322.7 34.675 323.3094Q34.128124 324.09064 34.128124 326.21564Z" fill-rule="nonzero"/><path fill="#000000" d="M23.01875 280.3L21.971874 280.3L21.971874 273.58124Q21.58125 273.9406 20.95625 274.3156Q20.346874 274.675 19.8625 274.84686L19.8625 273.83124Q20.7375 273.40936 21.39375 272.83124Q22.065624 272.2375 22.346874 271.675L23.01875 271.675L23.01875 280.3ZM26.05 276.0656Q26.05 274.53436 26.3625 273.6125Q26.675 272.675 27.284374 272.175Q27.909374 271.675 28.846874 271.675Q29.534374 271.675 30.05 271.95624Q30.58125 272.2375 30.925 272.76874Q31.26875 273.28436 31.45625 274.03436Q31.64375 274.78436 31.64375 276.0656Q31.64375 277.58124 31.33125 278.5031Q31.034374 279.425 30.409374 279.9406Q29.8 280.4406 28.846874 280.4406Q27.6125 280.4406 26.89375 279.55Q26.05 278.4875 26.05 276.0656ZM27.128124 276.0656Q27.128124 278.175 27.628124 278.8781Q28.128124 279.58124 28.846874 279.58124Q29.58125 279.58124 30.065624 278.8781Q30.565624 278.175 30.565624 276.0656Q30.565624 273.9406 30.065624 273.2531Q29.58125 272.55 28.83125 272.55Q28.1125 272.55 27.675 273.15936Q27.128124 273.9406 27.128124 276.0656ZM33.05 276.0656Q33.05 274.53436 33.3625 273.6125Q33.675 272.675 34.284374 272.175Q34.909374 271.675 35.846874 271.675Q36.534374 271.675 37.05 271.95624Q37.58125 272.2375 37.925 272.76874Q38.26875 273.28436 38.45625 274.03436Q38.64375 274.78436 38.64375 276.0656Q38.64375 277.58124 38.33125 278.5031Q38.034374 279.425 37.409374 279.9406Q36.8 280.4406 35.846874 280.4406Q34.6125 280.4406 33.89375 279.55Q33.05 278.4875 33.05 276.0656ZM34.128124 276.0656Q34.128124 278.175 34.628124 278.8781Q35.128124 279.58124 35.846874 279.58124Q36.58125 279.58124 37.065624 278.8781Q37.565624 278.175 37.565624 276.0656Q37.565624 273.9406 37.065624 273.2531Q36.58125 272.55 35.83125 272.55Q35.1125 272.55 34.675 273.15936Q34.128124 273.9406 34.128124 276.0656Z" fill-rule="nonzero"/><path fill="#000000" d="M24.596874 229.13437L24.596874 230.15L18.909374 230.15Q18.909374 229.775 19.034374 229.41562Q19.253124 228.8375 19.721874 228.275Q20.20625 227.7125 21.1125 226.97812Q22.51875 225.82187 23.003124 225.15Q23.503124 224.47812 23.503124 223.88437Q23.503124 223.25937 23.05 222.8375Q22.596874 222.4 21.878124 222.4Q21.1125 222.4 20.659374 222.85312Q20.20625 223.30624 20.190624 224.11874L19.1125 224.00937Q19.221874 222.79062 19.940624 222.16562Q20.675 221.525 21.909374 221.525Q23.14375 221.525 23.8625 222.2125Q24.58125 222.9 24.58125 223.91562Q24.58125 224.43124 24.3625 224.93124Q24.159374 225.41562 23.659374 225.97812Q23.175 226.525 22.05 227.47812Q21.096874 228.275 20.815624 228.57187Q20.55 228.85312 20.378124 229.13437L24.596874 229.13437ZM26.05 225.91562Q26.05 224.38437 26.3625 223.4625Q26.675 222.525 27.284374 222.025Q27.909374 221.525 28.846874 221.525Q29.534374 221.525 30.05 221.80624Q30.58125 222.0875 30.925 222.61874Q31.26875 223.13437 31.45625 223.88437Q31.64375 224.63437 31.64375 225.91562Q31.64375 227.43124 31.33125 228.35312Q31.034374 229.275 30.409374 229.79062Q29.8 230.29062 28.846874 230.29062Q27.6125 230.29062 26.89375 229.4Q26.05 228.3375 26.05 225.91562ZM27.128124 225.91562Q27.128124 228.025 27.628124 228.72812Q28.128124 229.43124 28.846874 229.43124Q29.58125 229.43124 30.065624 228.72812Q30.565624 228.025 30.565624 225.91562Q30.565624 223.79062 30.065624 223.10312Q29.58125 222.4 28.83125 222.4Q28.1125 222.4 27.675 223.00937Q27.128124 223.79062 27.128124 225.91562ZM33.05 225.91562Q33.05 224.38437 33.3625 223.4625Q33.675 222.525 34.284374 222.025Q34.909374 221.525 35.846874 221.525Q36.534374 221.525 37.05 221.80624Q37.58125 222.0875 37.925 222.61874Q38.26875 223.13437 38.45625 223.88437Q38.64375 224.63437 38.64375 225.91562Q38.64375 227.43124 38.33125 228.35312Q38.034374 229.275 37.409374 229.79062Q36.8 230.29062 35.846874 230.29062Q34.6125 230.29062 33.89375 229.4Q33.05 228.3375 33.05 225.91562ZM34.128124 225.91562Q34.128124 228.025 34.628124 228.72812Q35.128124 229.43124 35.846874 229.43124Q36.58125 229.43124 37.065624 228.72812Q37.565624 228.025 37.565624 225.91562Q37.565624 223.79062 37.065624 223.10312Q36.58125 222.4 35.83125 222.4Q35.1125 222.4 34.675 223.00937Q34.128124 223.79062 34.128124 225.91562Z" fill-rule="nonzero"/><path fill="#000000" d="M19.05 177.73438L20.1125 177.59375Q20.284374 178.48438 20.721874 178.89062Q21.159374 179.28125 21.784374 179.28125Q22.534374 179.28125 23.05 178.76562Q23.565624 178.25 23.565624 177.48438Q23.565624 176.76562 23.08125 176.29688Q22.6125 175.8125 21.878124 175.8125Q21.58125 175.8125 21.128124 175.9375L21.253124 175.0Q21.3625 175.01562 21.425 175.01562Q22.096874 175.01562 22.628124 174.67188Q23.175 174.3125 23.175 173.57812Q23.175 173.0 22.784374 172.625Q22.39375 172.23438 21.76875 172.23438Q21.159374 172.23438 20.7375 172.625Q20.33125 173.01562 20.221874 173.78125L19.159374 173.59375Q19.346874 172.54688 20.034374 171.96875Q20.721874 171.375 21.7375 171.375Q22.440624 171.375 23.034374 171.6875Q23.628124 171.98438 23.940624 172.5Q24.253124 173.01562 24.253124 173.60938Q24.253124 174.15625 23.95625 174.625Q23.659374 175.07812 23.08125 175.34375Q23.83125 175.51562 24.253124 176.07812Q24.675 176.625 24.675 177.46875Q24.675 178.59375 23.846874 179.375Q23.034374 180.15625 21.784374 180.15625Q20.659374 180.15625 19.909374 179.48438Q19.159374 178.79688 19.05 177.73438ZM26.05 175.76562Q26.05 174.23438 26.3625 173.3125Q26.675 172.375 27.284374 171.875Q27.909374 171.375 28.846874 171.375Q29.534374 171.375 30.05 171.65625Q30.58125 171.9375 30.925 172.46875Q31.26875 172.98438 31.45625 173.73438Q31.64375 174.48438 31.64375 175.76562Q31.64375 177.28125 31.33125 178.20312Q31.034374 179.125 30.409374 179.64062Q29.8 180.14062 28.846874 180.14062Q27.6125 180.14062 26.89375 179.25Q26.05 178.1875 26.05 175.76562ZM27.128124 175.76562Q27.128124 177.875 27.628124 178.57812Q28.128124 179.28125 28.846874 179.28125Q29.58125 179.28125 30.065624 178.57812Q30.565624 177.875 30.565624 175.76562Q30.565624 173.64062 30.065624 172.95312Q29.58125 172.25 28.83125 172.25Q28.1125 172.25 27.675 172.85938Q27.128124 173.64062 27.128124 175.76562ZM33.05 175.76562Q33.05 174.23438 33.3625 173.3125Q33.675 172.375 34.284374 171.875Q34.909374 171.375 35.846874 171.375Q36.534374 171.375 37.05 171.65625Q37.58125 171.9375 37.925 172.46875Q38.26875 172.98438 38.45625 173.73438Q38.64375 174.48438 38.64375 175.76562Q38.64375 177.28125 38.33125 178.20312Q38.034374 179.125 37.409374 179.64062Q36.8 180.14062 35.846874 180.14062Q34.6125 180.14062 33.89375 179.25Q33.05 178.1875 33.05 175.76562ZM34.128124 175.76562Q34.128124 177.875 34.628124 178.57812Q35.128124 179.28125 35.846874 179.28125Q36.58125 179.28125 37.065624 178.57812Q37.565624 177.875 37.565624 175.76562Q37.565624 173.64062 37.065624 172.95312Q36.58125 172.25 35.83125 172.25Q35.1125 172.25 34.675 172.85938Q34.128124 173.64062 34.128124 175.76562Z" fill-rule="nonzero"/><path fill="#000000" d="M22.425 129.85L22.425 127.787506L18.70625 127.787506L18.70625 126.818756L22.628124 121.256256L23.4875 121.256256L23.4875 126.818756L24.64375 126.818756L24.64375 127.787506L23.4875 127.787506L23.4875 129.85L22.425 129.85ZM22.425 126.818756L22.425 122.95938L19.7375 126.818756L22.425 126.818756ZM26.05 125.61563Q26.05 124.08438 26.3625 123.162506Q26.675 122.225006 27.284374 121.725006Q27.909374 121.225006 28.846874 121.225006Q29.534374 121.225006 30.05 121.506256Q30.58125 121.787506 30.925 122.318756Q31.26875 122.83438 31.45625 123.58438Q31.64375 124.33438 31.64375 125.61563Q31.64375 127.131256 31.33125 128.05313Q31.034374 128.975 30.409374 129.49063Q29.8 129.99063 28.846874 129.99063Q27.6125 129.99063 26.89375 129.1Q26.05 128.0375 26.05 125.61563ZM27.128124 125.61563Q27.128124 127.725006 27.628124 128.42813Q28.128124 129.13126 28.846874 129.13126Q29.58125 129.13126 30.065624 128.42813Q30.565624 127.725006 30.565624 125.61563Q30.565624 123.49063 30.065624 122.80313Q29.58125 122.100006 28.83125 122.100006Q28.1125 122.100006 27.675 122.70938Q27.128124 123.49063 27.128124 125.61563ZM33.05 125.61563Q33.05 124.08438 33.3625 123.162506Q33.675 122.225006 34.284374 121.725006Q34.909374 121.225006 35.846874 121.225006Q36.534374 121.225006 37.05 121.506256Q37.58125 121.787506 37.925 122.318756Q38.26875 122.83438 38.45625 123.58438Q38.64375 124.33438 38.64375 125.61563Q38.64375 127.131256 38.33125 128.05313Q38.034374 128.975 37.409374 129.49063Q36.8 129.99063 35.846874 129.99063Q34.6125 129.99063 33.89375 129.1Q33.05 128.0375 33.05 125.61563ZM34.128124 125.61563Q34.128124 127.725006 34.628124 128.42813Q35.128124 129.13126 35.846874 129.13126Q36.58125 129.13126 37.065624 128.42813Q37.565624 127.725006 37.565624 125.61563Q37.565624 123.49063 37.065624 122.80313Q36.58125 122.100006 35.83125 122.100006Q35.1125 122.100006 34.675 122.70938Q34.128124 123.49063 34.128124 125.61563Z" fill-rule="nonzero"/><path fill="#000000" d="M19.05 77.45L20.159374 77.35625Q20.284374 78.16875 20.721874 78.575Q21.175 78.98125 21.815624 78.98125Q22.565624 78.98125 23.096874 78.40312Q23.628124 77.825 23.628124 76.8875Q23.628124 75.98125 23.1125 75.46562Q22.6125 74.93437 21.784374 74.93437Q21.284374 74.93437 20.8625 75.16875Q20.45625 75.40312 20.221874 75.7625L19.2375 75.6375L20.065624 71.23125L24.346874 71.23125L24.346874 72.23125L20.909374 72.23125L20.45625 74.54375Q21.221874 73.99687 22.065624 73.99687Q23.190624 73.99687 23.95625 74.77812Q24.7375 75.55937 24.7375 76.79375Q24.7375 77.95 24.065624 78.80937Q23.2375 79.84062 21.815624 79.84062Q20.64375 79.84062 19.89375 79.18437Q19.159374 78.52812 19.05 77.45ZM26.05 75.46562Q26.05 73.93437 26.3625 73.0125Q26.675 72.075 27.284374 71.575Q27.909374 71.075 28.846874 71.075Q29.534374 71.075 30.05 71.35625Q30.58125 71.6375 30.925 72.16875Q31.26875 72.68437 31.45625 73.43437Q31.64375 74.18437 31.64375 75.46562Q31.64375 76.98125 31.33125 77.90312Q31.034374 78.825 30.409374 79.34062Q29.8 79.84062 28.846874 79.84062Q27.6125 79.84062 26.89375 78.95Q26.05 77.8875 26.05 75.46562ZM27.128124 75.46562Q27.128124 77.575 27.628124 78.27812Q28.128124 78.98125 28.846874 78.98125Q29.58125 78.98125 30.065624 78.27812Q30.565624 77.575 30.565624 75.46562Q30.565624 73.34062 30.065624 72.65312Q29.58125 71.95 28.83125 71.95Q28.1125 71.95 27.675 72.55937Q27.128124 73.34062 27.128124 75.46562ZM33.05 75.46562Q33.05 73.93437 33.3625 73.0125Q33.675 72.075 34.284374 71.575Q34.909374 71.075 35.846874 71.075Q36.534374 71.075 37.05 71.35625Q37.58125 71.6375 37.925 72.16875Q38.26875 72.68437 38.45625 73.43437Q38.64375 74.18437 38.64375 75.46562Q38.64375 76.98125 38.33125 77.90312Q38.034374 78.825 37.409374 79.34062Q36.8 79.84062 35.846874 79.84062Q34.6125 79.84062 33.89375 78.95Q33.05 77.8875 33.05 75.46562ZM34.128124 75.46562Q34.128124 77.575 34.628124 78.27812Q35.128124 78.98125 35.846874 78.98125Q36.58125 78.98125 37.065624 78.27812Q37.565624 77.575 37.565624 75.46562Q37.565624 73.34062 37.065624 72.65312Q36.58125 71.95 35.83125 71.95Q35.1125 71.95 34.675 72.55937Q34.128124 73.34062 34.128124 75.46562Z" fill-rule="nonzero"/><path fill="#000000" d="M24.51875 23.065624L23.471874 23.14375Q23.33125 22.51875 23.08125 22.2375Q22.64375 21.784374 22.01875 21.784374Q21.51875 21.784374 21.128124 22.065624Q20.64375 22.440624 20.346874 23.14375Q20.065624 23.83125 20.05 25.1125Q20.425 24.534374 20.971874 24.253124Q21.534374 23.971874 22.14375 23.971874Q23.190624 23.971874 23.925 24.753124Q24.675 25.534374 24.675 26.753124Q24.675 27.565624 24.315624 28.26875Q23.971874 28.95625 23.3625 29.33125Q22.753124 29.690624 21.9875 29.690624Q20.659374 29.690624 19.83125 28.721874Q19.003124 27.753124 19.003124 25.534374Q19.003124 23.034374 19.925 21.909374Q20.721874 20.925 22.08125 20.925Q23.096874 20.925 23.7375 21.503124Q24.39375 22.065624 24.51875 23.065624ZM20.221874 26.76875Q20.221874 27.315624 20.440624 27.815624Q20.675 28.3 21.08125 28.565624Q21.503124 28.83125 21.971874 28.83125Q22.628124 28.83125 23.1125 28.3Q23.596874 27.753124 23.596874 26.83125Q23.596874 25.940624 23.1125 25.425Q22.64375 24.909374 21.925 24.909374Q21.20625 24.909374 20.70625 25.425Q20.221874 25.940624 20.221874 26.76875ZM26.05 25.315624Q26.05 23.784374 26.3625 22.8625Q26.675 21.925 27.284374 21.425Q27.909374 20.925 28.846874 20.925Q29.534374 20.925 30.05 21.20625Q30.58125 21.4875 30.925 22.01875Q31.26875 22.534374 31.45625 23.284374Q31.64375 24.034374 31.64375 25.315624Q31.64375 26.83125 31.33125 27.753124Q31.034374 28.675 30.409374 29.190624Q29.8 29.690624 28.846874 29.690624Q27.6125 29.690624 26.89375 28.8Q26.05 27.7375 26.05 25.315624ZM27.128124 25.315624Q27.128124 27.425 27.628124 28.128124Q28.128124 28.83125 28.846874 28.83125Q29.58125 28.83125 30.065624 28.128124Q30.565624 27.425 30.565624 25.315624Q30.565624 23.190624 30.065624 22.503124Q29.58125 21.8 28.83125 21.8Q28.1125 21.8 27.675 22.409374Q27.128124 23.190624 27.128124 25.315624ZM33.05 25.315624Q33.05 23.784374 33.3625 22.8625Q33.675 21.925 34.284374 21.425Q34.909374 20.925 35.846874 20.925Q36.534374 20.925 37.05 21.20625Q37.58125 21.4875 37.925 22.01875Q38.26875 22.534374 38.45625 23.284374Q38.64375 24.034374 38.64375 25.315624Q38.64375 26.83125 38.33125 27.753124Q38.034374 28.675 37.409374 29.190624Q36.8 29.690624 35.846874 29.690624Q34.6125 29.690624 33.89375 28.8Q33.05 27.7375 33.05 25.315624ZM34.128124 25.315624Q34.128124 27.425 34.628124 28.128124Q35.128124 28.83125 35.846874 28.83125Q36.58125 28.83125 37.065624 28.128124Q37.565624 27.425 37.565624 25.315624Q37.565624 23.190624 37.065624 22.503124Q36.58125 21.8 35.83125 21.8Q35.1125 21.8 34.675 22.409374Q34.128124 23.190624 34.128124 25.315624Z" fill-rule="nonzero"/><path fill="#000000" d="M49.096874 348.4344L49.096874 349.45L43.409374 349.45Q43.409374 349.075 43.534374 348.71564Q43.753124 348.1375 44.221874 347.575Q44.70625 347.0125 45.6125 346.27814Q47.01875 345.1219 47.503124 344.45Q48.003124 343.77814 48.003124 343.1844Q48.003124 342.5594 47.55 342.1375Q47.096874 341.7 46.378124 341.7Q45.6125 341.7 45.159374 342.15314Q44.70625 342.60626 44.690624 343.41876L43.6125 343.3094Q43.721874 342.09064 44.440624 341.46564Q45.175 340.825 46.409374 340.825Q47.64375 340.825 48.3625 341.5125Q49.08125 342.2 49.08125 343.21564Q49.08125 343.73126 48.8625 344.23126Q48.659374 344.71564 48.159374 345.27814Q47.675 345.825 46.55 346.77814Q45.596874 347.575 45.315624 347.8719Q45.05 348.15314 44.878124 348.4344L49.096874 348.4344ZM50.05 349.59064L52.534374 340.71564L53.378124 340.71564L50.89375 349.59064L50.05 349.59064ZM57.51875 349.45L56.471874 349.45L56.471874 342.73126Q56.08125 343.09064 55.45625 343.46564Q54.846874 343.825 54.3625 343.9969L54.3625 342.98126Q55.2375 342.5594 55.89375 341.98126Q56.565624 341.3875 56.846874 340.825L57.51875 340.825L57.51875 349.45Z" fill-rule="nonzero"/><path fill="#000000" d="M87.972755 347.1844L89.035255 347.04376Q89.20713 347.9344 89.64463 348.34064Q90.08213 348.73126 90.70713 348.73126Q91.45713 348.73126 91.972755 348.21564Q92.48838 347.7 92.48838 346.9344Q92.48838 346.21564 92.004005 345.7469Q91.535255 345.2625 90.80088 345.2625Q90.504005 345.2625 90.05088 345.3875L90.17588 344.45Q90.285255 344.46564 90.347755 344.46564Q91.01963 344.46564 91.55088 344.1219Q92.097755 343.7625 92.097755 343.02814Q92.097755 342.45 91.70713 342.075Q91.316505 341.6844 90.691505 341.6844Q90.08213 341.6844 89.660255 342.075Q89.254005 342.46564 89.14463 343.23126L88.08213 343.04376Q88.26963 341.9969 88.95713 341.41876Q89.64463 340.825 90.660255 340.825Q91.36338 340.825 91.95713 341.1375Q92.55088 341.4344 92.86338 341.95Q93.17588 342.46564 93.17588 343.0594Q93.17588 343.60626 92.879005 344.075Q92.58213 344.52814 92.004005 344.79376Q92.754005 344.96564 93.17588 345.52814Q93.597755 346.075 93.597755 346.91876Q93.597755 348.04376 92.76963 348.825Q91.95713 349.60626 90.70713 349.60626Q89.58213 349.60626 88.83213 348.9344Q88.08213 348.2469 87.972755 347.1844ZM94.472755 349.59064L96.95713 340.71564L97.80088 340.71564L95.316505 349.59064L94.472755 349.59064ZM101.941505 349.45L100.89463 349.45L100.89463 342.73126Q100.504005 343.09064 99.879005 343.46564Q99.26963 343.825 98.785255 343.9969L98.785255 342.98126Q99.660255 342.5594 100.316505 341.98126Q100.98838 341.3875 101.26963 340.825L101.941505 340.825L101.941505 349.45Z" fill-rule="nonzero"/><path fill="#000000" d="M140.53009 349.45L140.53009 347.3875L136.81134 347.3875L136.81134 346.41876L140.73322 340.85626L141.59259 340.85626L141.59259 346.41876L142.74884 346.41876L142.74884 347.3875L141.59259 347.3875L141.59259 349.45L140.53009 349.45ZM140.53009 346.41876L140.53009 342.5594L137.84259 346.41876L140.53009 346.41876ZM143.65509 349.59064L146.13947 340.71564L146.98322 340.71564L144.49884 349.59064L143.65509 349.59064ZM151.12384 349.45L150.07697 349.45L150.07697 342.73126Q149.68634 343.09064 149.06134 343.46564Q148.45197 343.825 147.96759 343.9969L147.96759 342.98126Q148.84259 342.5594 149.49884 341.98126Q150.17072 341.3875 150.45197 340.825L151.12384 340.825L151.12384 349.45Z" fill-rule="nonzero"/><path fill="#000000" d="M184.7509 347.2L185.86028 347.10626Q185.98528 347.91876 186.42278 348.325Q186.8759 348.73126 187.51653 348.73126Q188.26653 348.73126 188.79778 348.15314Q189.32903 347.575 189.32903 346.6375Q189.32903 345.73126 188.8134 345.21564Q188.3134 344.6844 187.48528 344.6844Q186.98528 344.6844 186.5634 344.91876Q186.15715 345.15314 185.92278 345.5125L184.9384 345.3875L185.76653 340.98126L190.04778 340.98126L190.04778 341.98126L186.61028 341.98126L186.15715 344.29376Q186.92278 343.7469 187.76653 343.7469Q188.89153 343.7469 189.65715 344.52814Q190.4384 345.3094 190.4384 346.54376Q190.4384 347.7 189.76653 348.5594Q188.9384 349.59064 187.51653 349.59064Q186.34465 349.59064 185.59465 348.9344Q184.86028 348.27814 184.7509 347.2ZM191.2509 349.59064L193.73528 340.71564L194.57903 340.71564L192.09465 349.59064L191.2509 349.59064ZM198.71965 349.45L197.67278 349.45L197.67278 342.73126Q197.28215 343.09064 196.65715 343.46564Q196.04778 343.825 195.5634 343.9969L195.5634 342.98126Q196.4384 342.5594 197.09465 341.98126Q197.76653 341.3875 198.04778 340.825L198.71965 340.825L198.71965 349.45Z" fill-rule="nonzero"/><path fill="#000000" d="M239.40198 342.96564L238.3551 343.04376Q238.21448 342.41876 237.96448 342.1375Q237.52698 341.6844 236.90198 341.6844Q236.40198 341.6844 236.01135 341.96564Q235.52698 342.34064 235.2301 343.04376Q234.94885 343.73126 234.93323 345.0125Q235.30823 344.4344 235.8551 344.15314Q236.4176 343.8719 237.02698 343.8719Q238.07385 343.8719 238.80823 344.65314Q239.55823 345.4344 239.55823 346.65314Q239.55823 347.46564 239.19885 348.16876Q238.8551 348.85626 238.24573 349.23126Q237.63635 349.59064 236.87073 349.59064Q235.5426 349.59064 234.71448 348.6219Q233.88635 347.65314 233.88635 345.4344Q233.88635 342.9344 234.80823 341.8094Q235.6051 340.825 236.96448 340.825Q237.9801 340.825 238.62073 341.40314Q239.27698 341.96564 239.40198 342.96564ZM235.1051 346.66876Q235.1051 347.21564 235.32385 347.71564Q235.55823 348.2 235.96448 348.46564Q236.38635 348.73126 236.8551 348.73126Q237.51135 348.73126 237.99573 348.2Q238.4801 347.65314 238.4801 346.73126Q238.4801 345.84064 237.99573 345.325Q237.52698 344.8094 236.80823 344.8094Q236.08948 344.8094 235.58948 345.325Q235.1051 345.84064 235.1051 346.66876ZM240.43323 349.59064L242.9176 340.71564L243.76135 340.71564L241.27698 349.59064L240.43323 349.59064ZM247.90198 349.45L246.8551 349.45L246.8551 342.73126Q246.46448 343.09064 245.83948 343.46564Q245.2301 343.825 244.74573 343.9969L244.74573 342.98126Q245.62073 342.5594 246.27698 341.98126Q246.94885 341.3875 247.2301 340.825L247.90198 340.825L247.90198 349.45Z" fill-rule="nonzero"/><path fill="#000000" d="M281.59155 341.98126L281.59155 340.96564L287.15405 340.96564L287.15405 341.79376Q286.34155 342.66876 285.52905 344.1219Q284.73218 345.5594 284.29468 347.09064Q283.96655 348.16876 283.88843 349.45L282.79468 349.45Q282.8103 348.4344 283.1853 346.9969Q283.57593 345.5594 284.27905 344.23126Q284.9978 342.90314 285.8103 341.98126L281.59155 341.98126ZM288.02905 349.59064L290.51343 340.71564L291.35718 340.71564L288.8728 349.59064L288.02905 349.59064ZM295.4978 349.45L294.45093 349.45L294.45093 342.73126Q294.0603 343.09064 293.4353 343.46564Q292.82593 343.825 292.34155 343.9969L292.34155 342.98126Q293.21655 342.5594 293.8728 341.98126Q294.54468 341.3875 294.82593 340.825L295.4978 340.825L295.4978 349.45Z" fill-rule="nonzero"/><path fill="#000000" d="M332.33636 344.79376Q331.6801 344.54376 331.352 344.10626Q331.0395 343.65314 331.0395 343.04376Q331.0395 342.10626 331.71136 341.46564Q332.39886 340.825 333.50824 340.825Q334.63324 340.825 335.32074 341.48126Q336.00824 342.1375 336.00824 343.075Q336.00824 343.66876 335.69574 344.10626Q335.38324 344.54376 334.7426 344.79376Q335.5395 345.04376 335.94574 345.6219Q336.352 346.2 336.352 346.9969Q336.352 348.09064 335.57074 348.84064Q334.8051 349.59064 333.52386 349.59064Q332.25824 349.59064 331.477 348.84064Q330.69574 348.09064 330.69574 346.96564Q330.69574 346.1219 331.1176 345.5594Q331.5551 344.9969 332.33636 344.79376ZM332.1176 342.9969Q332.1176 343.60626 332.50824 343.9969Q332.9145 344.3875 333.5395 344.3875Q334.14886 344.3875 334.5395 344.0125Q334.9301 343.6219 334.9301 343.0594Q334.9301 342.48126 334.52386 342.09064Q334.1176 341.6844 333.52386 341.6844Q332.9145 341.6844 332.50824 342.075Q332.1176 342.46564 332.1176 342.9969ZM331.7895 346.96564Q331.7895 347.41876 331.9926 347.84064Q332.21136 348.2625 332.63324 348.4969Q333.0551 348.73126 333.5395 348.73126Q334.2895 348.73126 334.77386 348.2469Q335.27386 347.7625 335.27386 347.0125Q335.27386 346.2469 334.77386 345.7469Q334.27386 345.2469 333.50824 345.2469Q332.75824 345.2469 332.27386 345.7469Q331.7895 346.23126 331.7895 346.96564ZM337.21136 349.59064L339.69574 340.71564L340.5395 340.71564L338.0551 349.59064L337.21136 349.59064ZM344.6801 349.45L343.63324 349.45L343.63324 342.73126Q343.2426 343.09064 342.6176 343.46564Q342.00824 343.825 341.52386 343.9969L341.52386 342.98126Q342.39886 342.5594 343.0551 341.98126Q343.727 341.3875 344.00824 340.825L344.6801 340.825L344.6801 349.45Z" fill-rule="nonzero"/><path fill="#000000" d="M380.04996 347.46564L381.06558 347.3719Q381.19058 348.09064 381.54996 348.41876Q381.92496 348.73126 382.48746 348.73126Q382.97183 348.73126 383.3312 348.5125Q383.7062 348.27814 383.94058 347.91876Q384.17496 347.54376 384.3312 346.91876Q384.48746 346.27814 384.48746 345.6219Q384.48746 345.54376 384.48746 345.40314Q384.17496 345.90314 383.62808 346.23126Q383.0812 346.54376 382.44058 346.54376Q381.36246 346.54376 380.62808 345.77814Q379.8937 344.9969 379.8937 343.73126Q379.8937 342.41876 380.65933 341.6219Q381.44058 340.825 382.59683 340.825Q383.42496 340.825 384.11246 341.27814Q384.81558 341.73126 385.17496 342.575Q385.53433 343.40314 385.53433 344.98126Q385.53433 346.6219 385.17496 347.60626Q384.8312 348.575 384.11246 349.09064Q383.40933 349.59064 382.47183 349.59064Q381.4562 349.59064 380.81558 349.04376Q380.17496 348.48126 380.04996 347.46564ZM384.36246 343.66876Q384.36246 342.7625 383.87808 342.23126Q383.40933 341.7 382.72183 341.7Q382.0187 341.7 381.48746 342.27814Q380.97183 342.84064 380.97183 343.7625Q380.97183 344.575 381.47183 345.09064Q381.97183 345.60626 382.69058 345.60626Q383.42496 345.60626 383.8937 345.09064Q384.36246 344.575 384.36246 343.66876ZM386.3937 349.59064L388.87808 340.71564L389.72183 340.71564L387.23746 349.59064L386.3937 349.59064ZM393.86246 349.45L392.81558 349.45L392.81558 342.73126Q392.42496 343.09064 391.79996 343.46564Q391.19058 343.825 390.7062 343.9969L390.7062 342.98126Q391.5812 342.5594 392.23746 341.98126Q392.90933 341.3875 393.19058 340.825L393.86246 340.825L393.86246 349.45Z" fill-rule="nonzero"/><path fill="#000000" d="M427.95828 349.45L426.9114 349.45L426.9114 342.73126Q426.52078 343.09064 425.89578 343.46564Q425.2864 343.825 424.80203 343.9969L424.80203 342.98126Q425.67703 342.5594 426.33328 341.98126Q427.00516 341.3875 427.2864 340.825L427.95828 340.825L427.95828 349.45ZM430.98953 345.21564Q430.98953 343.6844 431.30203 342.7625Q431.61453 341.825 432.2239 341.325Q432.8489 340.825 433.7864 340.825Q434.4739 340.825 434.98953 341.10626Q435.52078 341.3875 435.86453 341.91876Q436.20828 342.4344 436.39578 343.1844Q436.58328 343.9344 436.58328 345.21564Q436.58328 346.73126 436.27078 347.65314Q435.9739 348.575 435.3489 349.09064Q434.73953 349.59064 433.7864 349.59064Q432.55203 349.59064 431.83328 348.7Q430.98953 347.6375 430.98953 345.21564ZM432.06766 345.21564Q432.06766 347.325 432.56766 348.02814Q433.06766 348.73126 433.7864 348.73126Q434.52078 348.73126 435.00516 348.02814Q435.50516 347.325 435.50516 345.21564Q435.50516 343.09064 435.00516 342.40314Q434.52078 341.7 433.77078 341.7Q433.05203 341.7 432.61453 342.3094Q432.06766 343.09064 432.06766 345.21564ZM437.48953 349.59064L439.9739 340.71564L440.81766 340.71564L438.33328 349.59064L437.48953 349.59064ZM444.95828 349.45L443.9114 349.45L443.9114 342.73126Q443.52078 343.09064 442.89578 343.46564Q442.2864 343.825 441.80203 343.9969L441.80203 342.98126Q442.67703 342.5594 443.33328 341.98126Q444.00516 341.3875 444.2864 340.825L444.95828 340.825L444.95828 349.45Z" fill-rule="nonzero"/><path fill="#000000" d="M477.1406 349.45L476.09372 349.45L476.09372 342.73126Q475.7031 343.09064 475.0781 343.46564Q474.46872 343.825 473.98434 343.9969L473.98434 342.98126Q474.85934 342.5594 475.5156 341.98126Q476.18747 341.3875 476.46872 340.825L477.1406 340.825L477.1406 349.45ZM484.1406 349.45L483.09372 349.45L483.09372 342.73126Q482.7031 343.09064 482.0781 343.46564Q481.46872 343.825 480.98434 343.9969L480.98434 342.98126Q481.85934 342.5594 482.5156 341.98126Q483.18747 341.3875 483.46872 340.825L484.1406 340.825L484.1406 349.45ZM486.67184 349.59064L489.15622 340.71564L489.99997 340.71564L487.5156 349.59064L486.67184 349.59064ZM494.1406 349.45L493.09372 349.45L493.09372 342.73126Q492.7031 343.09064 492.0781 343.46564Q491.46872 343.825 490.98434 343.9969L490.98434 342.98126Q491.85934 342.5594 492.5156 341.98126Q493.18747 341.3875 493.46872 340.825L494.1406 340.825L494.1406 349.45Z" fill-rule="nonzero"/><path fill="#000000" d="M524.7364 349.45L523.6895 349.45L523.6895 342.73126Q523.2989 343.09064 522.6739 343.46564Q522.0645 343.825 521.58014 343.9969L521.58014 342.98126Q522.45514 342.5594 523.1114 341.98126Q523.78326 341.3875 524.0645 340.825L524.7364 340.825L524.7364 349.45ZM533.3145 348.4344L533.3145 349.45L527.627 349.45Q527.627 349.075 527.752 348.71564Q527.97076 348.1375 528.4395 347.575Q528.9239 347.0125 529.83014 346.27814Q531.2364 345.1219 531.72076 344.45Q532.22076 343.77814 532.22076 343.1844Q532.22076 342.5594 531.76764 342.1375Q531.3145 341.7 530.59576 341.7Q529.83014 341.7 529.377 342.15314Q528.9239 342.60626 528.90826 343.41876L527.83014 343.3094Q527.9395 342.09064 528.65826 341.46564Q529.39264 340.825 530.627 340.825Q531.8614 340.825 532.58014 341.5125Q533.2989 342.2 533.2989 343.21564Q533.2989 343.73126 533.08014 344.23126Q532.877 344.71564 532.377 345.27814Q531.89264 345.825 530.76764 346.77814Q529.8145 347.575 529.53326 347.8719Q529.26764 348.15314 529.09576 348.4344L533.3145 348.4344ZM534.26764 349.59064L536.752 340.71564L537.59576 340.71564L535.1114 349.59064L534.26764 349.59064ZM541.7364 349.45L540.6895 349.45L540.6895 342.73126Q540.2989 343.09064 539.6739 343.46564Q539.0645 343.825 538.58014 343.9969L538.58014 342.98126Q539.45514 342.5594 540.1114 341.98126Q540.78326 341.3875 541.0645 340.825L541.7364 340.825L541.7364 349.45Z" fill-rule="nonzero"/><path fill="#000000" d="M577.41876 349.45L576.3719 349.45L576.3719 342.73126Q575.98126 343.09064 575.35626 343.46564Q574.7469 343.825 574.2625 343.9969L574.2625 342.98126Q575.1375 342.5594 575.79376 341.98126Q576.46564 341.3875 576.7469 340.825L577.41876 340.825L577.41876 349.45ZM579.95 349.59064L582.4344 340.71564L583.27814 340.71564L580.79376 349.59064L579.95 349.59064ZM587.41876 349.45L586.3719 349.45L586.3719 342.73126Q585.98126 343.09064 585.35626 343.46564Q584.7469 343.825 584.2625 343.9969L584.2625 342.98126Q585.1375 342.5594 585.79376 341.98126Q586.46564 341.3875 586.7469 340.825L587.41876 340.825L587.41876 349.45Z" fill-rule="nonzero"/></svg>