<svg version="1.1" viewBox="0.0 0.0 600.0 371.0" fill="none" stroke="none" stroke-linecap="square" stroke-miterlimit="10" width="600" height="371" xmlns:xlink="http://www.w3.org/1999/xlink" xmlns="http://www.w3.org/2000/svg"><path fill="#ffffff" d="M0 0L600.0 0L600.0 371.0L0 371.0L0 0Z" fill-rule="nonzero"/><path stroke="#333333" stroke-width="1.0" stroke-linecap="butt" d="M45.5 289.5L581.5 289.5" fill-rule="nonzero"/><path stroke="#cccccc" stroke-width="1.0" stroke-linecap="butt" d="M45.5 213.5L581.5 213.5" fill-rule="nonzero"/><path stroke="#cccccc" stroke-width="1.0" stroke-linecap="butt" d="M45.5 137.5L581.5 137.5" fill-rule="nonzero"/><path stroke="#cccccc" stroke-width="1.0" stroke-linecap="butt" d="M45.5 61.5L581.5 61.5" fill-rule="nonzero"/><clipPath id="id_0"><path d="M45.55 61.916668L581.45 61.916668L581.45 289.70126L45.55 289.70126L45.55 61.916668Z" clip-rule="nonzero"/></clipPath><path stroke="#000000" stroke-width="2.0" stroke-linecap="butt" stroke-opacity="0.0" clip-path="url(#id_0)" d="M67.0 290.0L47.0 290.0L47.0 290.0L67.0 290.0Z" fill-rule="nonzero"/><path fill="#4285f4" clip-path="url(#id_0)" d="M67.0 290.0L47.0 290.0L47.0 290.0L67.0 290.0Z" fill-rule="nonzero"/><path stroke="#000000" stroke-width="2.0" stroke-linecap="butt" stroke-opacity="0.0" clip-path="url(#id_0)" d="M89.0 290.0L69.0 290.0L69.0 254.0C69.0 252.89543 69.89543 252.0 71.0 252.0L87.0 252.0C88.10457 252.0 89.0 252.89543 89.0 254.0Z" fill-rule="nonzero"/><path fill="#4285f4" clip-path="url(#id_0)" d="M89.0 290.0L69.0 290.0L69.0 254.0C69.0 252.89543 69.89543 252.0 71.0 252.0L87.0 252.0C88.10457 252.0 89.0 252.89543 89.0 254.0Z" fill-rule="nonzero"/><path stroke="#000000" stroke-width="2.0" stroke-linecap="butt" stroke-opacity="0.0" clip-path="url(#id_0)" d="M111.0 290.0L91.0 290.0L91.0 290.0L111.0 290.0Z" fill-rule="nonzero"/><path fill="#4285f4" clip-path="url(#id_0)" d="M111.0 290.0L91.0 290.0L91.0 290.0L111.0 290.0Z" fill-rule="nonzero"/><path stroke="#000000" stroke-width="2.0" stroke-linecap="butt" stroke-opacity="0.0" clip-path="url(#id_0)" d="M134.0 290.0L114.0 290.0L114.0 254.0C114.0 252.89543 114.89543 252.0 116.0 252.0L132.0 252.0C133.10457 252.0 134.0 252.89543 134.0 254.0Z" fill-rule="nonzero"/><path fill="#4285f4" clip-path="url(#id_0)" d="M134.0 290.0L114.0 290.0L114.0 254.0C114.0 252.89543 114.89543 252.0 116.0 252.0L132.0 252.0C133.10457 252.0 134.0 252.89543 134.0 254.0Z" fill-rule="nonzero"/><path stroke="#000000" stroke-width="2.0" stroke-linecap="butt" stroke-opacity="0.0" clip-path="url(#id_0)" d="M156.0 290.0L136.0 290.0L136.0 290.0L156.0 290.0Z" fill-rule="nonzero"/><path fill="#4285f4" clip-path="url(#id_0)" d="M156.0 290.0L136.0 290.0L136.0 290.0L156.0 290.0Z" fill-rule="nonzero"/><path stroke="#000000" stroke-width="2.0" stroke-linecap="butt" stroke-opacity="0.0" clip-path="url(#id_0)" d="M178.0 290.0L158.0 290.0L158.0 254.0C158.0 252.89543 158.89543 252.0 160.0 252.0L176.0 252.0C177.10457 252.0 178.0 252.89543 178.0 254.0Z" fill-rule="nonzero"/><path fill="#4285f4" clip-path="url(#id_0)" d="M178.0 290.0L158.0 290.0L158.0 254.0C158.0 252.89543 158.89543 252.0 160.0 252.0L176.0 252.0C177.10457 252.0 178.0 252.89543 178.0 254.0Z" fill-rule="nonzero"/><path stroke="#000000" stroke-width="2.0" stroke-linecap="butt" stroke-opacity="0.0" clip-path="url(#id_0)" d="M201.0 290.0L181.0 290.0L181.0 290.0L201.0 290.0Z" fill-rule="nonzero"/><path fill="#4285f4" clip-path="url(#id_0)" d="M201.0 290.0L181.0 290.0L181.0 290.0L201.0 290.0Z" fill-rule="nonzero"/><path stroke="#000000" stroke-width="2.0" stroke-linecap="butt" stroke-opacity="0.0" clip-path="url(#id_0)" d="M223.0 290.0L203.0 290.0L203.0 290.0L223.0 290.0Z" fill-rule="nonzero"/><path fill="#4285f4" clip-path="url(#id_0)" d="M223.0 290.0L203.0 290.0L203.0 290.0L223.0 290.0Z" fill-rule="nonzero"/><path stroke="#000000" stroke-width="2.0" stroke-linecap="butt" stroke-opacity="0.0" clip-path="url(#id_0)" d="M245.0 290.0L225.0 290.0L225.0 254.0C225.0 252.89543 225.89543 252.0 227.0 252.0L243.0 252.0C244.10457 252.0 245.0 252.89543 245.0 254.0Z" fill-rule="nonzero"/><path fill="#4285f4" clip-path="url(#id_0)" d="M245.0 290.0L225.0 290.0L225.0 254.0C225.0 252.89543 225.89543 252.0 227.0 252.0L243.0 252.0C244.10457 252.0 245.0 252.89543 245.0 254.0Z" fill-rule="nonzero"/><path stroke="#000000" stroke-width="2.0" stroke-linecap="butt" stroke-opacity="0.0" clip-path="url(#id_0)" d="M268.0 290.0L248.0 290.0L248.0 254.0C248.0 252.89543 248.89543 252.0 250.0 252.0L266.0 252.0C267.10458 252.0 268.0 252.89543 268.0 254.0Z" fill-rule="nonzero"/><path fill="#4285f4" clip-path="url(#id_0)" d="M268.0 290.0L248.0 290.0L248.0 254.0C248.0 252.89543 248.89543 252.0 250.0 252.0L266.0 252.0C267.10458 252.0 268.0 252.89543 268.0 254.0Z" fill-rule="nonzero"/><path stroke="#000000" stroke-width="2.0" stroke-linecap="butt" stroke-opacity="0.0" clip-path="url(#id_0)" d="M290.0 290.0L270.0 290.0L270.0 254.0C270.0 252.89543 270.89542 252.0 272.0 252.0L288.0 252.0C289.10458 252.0 290.0 252.89543 290.0 254.0Z" fill-rule="nonzero"/><path fill="#4285f4" clip-path="url(#id_0)" d="M290.0 290.0L270.0 290.0L270.0 254.0C270.0 252.89543 270.89542 252.0 272.0 252.0L288.0 252.0C289.10458 252.0 290.0 252.89543 290.0 254.0Z" fill-rule="nonzero"/><path stroke="#000000" stroke-width="2.0" stroke-linecap="butt" stroke-opacity="0.0" clip-path="url(#id_0)" d="M312.0 290.0L292.0 290.0L292.0 254.0C292.0 252.89543 292.89542 252.0 294.0 252.0L310.0 252.0C311.10458 252.0 312.0 252.89543 312.0 254.0Z" fill-rule="nonzero"/><path fill="#4285f4" clip-path="url(#id_0)" d="M312.0 290.0L292.0 290.0L292.0 254.0C292.0 252.89543 292.89542 252.0 294.0 252.0L310.0 252.0C311.10458 252.0 312.0 252.89543 312.0 254.0Z" fill-rule="nonzero"/><path stroke="#000000" stroke-width="2.0" stroke-linecap="butt" stroke-opacity="0.0" clip-path="url(#id_0)" d="M335.0 290.0L315.0 290.0L315.0 178.0C315.0 176.89543 315.89542 176.0 317.0 176.0L333.0 176.0C334.10458 176.0 335.0 176.89543 335.0 178.0Z" fill-rule="nonzero"/><path fill="#4285f4" clip-path="url(#id_0)" d="M335.0 290.0L315.0 290.0L315.0 178.0C315.0 176.89543 315.89542 176.0 317.0 176.0L333.0 176.0C334.10458 176.0 335.0 176.89543 335.0 178.0Z" fill-rule="nonzero"/><path stroke="#000000" stroke-width="2.0" stroke-linecap="butt" stroke-opacity="0.0" clip-path="url(#id_0)" d="M357.0 290.0L337.0 290.0L337.0 178.0C337.0 176.89543 337.89542 176.0 339.0 176.0L355.0 176.0C356.10458 176.0 357.0 176.89543 357.0 178.0Z" fill-rule="nonzero"/><path fill="#4285f4" clip-path="url(#id_0)" d="M357.0 290.0L337.0 290.0L337.0 178.0C337.0 176.89543 337.89542 176.0 339.0 176.0L355.0 176.0C356.10458 176.0 357.0 176.89543 357.0 178.0Z" fill-rule="nonzero"/><path stroke="#000000" stroke-width="2.0" stroke-linecap="butt" stroke-opacity="0.0" clip-path="url(#id_0)" d="M379.0 290.0L359.0 290.0L359.0 216.0C359.0 214.89543 359.89542 214.0 361.0 214.0L377.0 214.0C378.10458 214.0 379.0 214.89543 379.0 216.0Z" fill-rule="nonzero"/><path fill="#4285f4" clip-path="url(#id_0)" d="M379.0 290.0L359.0 290.0L359.0 216.0C359.0 214.89543 359.89542 214.0 361.0 214.0L377.0 214.0C378.10458 214.0 379.0 214.89543 379.0 216.0Z" fill-rule="nonzero"/><path stroke="#000000" stroke-width="2.0" stroke-linecap="butt" stroke-opacity="0.0" clip-path="url(#id_0)" d="M402.0 290.0L382.0 290.0L382.0 216.0C382.0 214.89543 382.89542 214.0 384.0 214.0L400.0 214.0C401.10458 214.0 402.0 214.89543 402.0 216.0Z" fill-rule="nonzero"/><path fill="#4285f4" clip-path="url(#id_0)" d="M402.0 290.0L382.0 290.0L382.0 216.0C382.0 214.89543 382.89542 214.0 384.0 214.0L400.0 214.0C401.10458 214.0 402.0 214.89543 402.0 216.0Z" fill-rule="nonzero"/><path stroke="#000000" stroke-width="2.0" stroke-linecap="butt" stroke-opacity="0.0" clip-path="url(#id_0)" d="M424.0 290.0L404.0 290.0L404.0 64.0C404.0 62.89543 404.89542 62.0 406.0 62.0L422.0 62.0C423.10458 62.0 424.0 62.89543 424.0 64.0Z" fill-rule="nonzero"/><path fill="#4285f4" clip-path="url(#id_0)" d="M424.0 290.0L404.0 290.0L404.0 64.0C404.0 62.89543 404.89542 62.0 406.0 62.0L422.0 62.0C423.10458 62.0 424.0 62.89543 424.0 64.0Z" fill-rule="nonzero"/><path stroke="#000000" stroke-width="2.0" stroke-linecap="butt" stroke-opacity="0.0" clip-path="url(#id_0)" d="M446.0 290.0L426.0 290.0L426.0 290.0L446.0 290.0Z" fill-rule="nonzero"/><path fill="#4285f4" clip-path="url(#id_0)" d="M446.0 290.0L426.0 290.0L426.0 290.0L446.0 290.0Z" fill-rule="nonzero"/><path stroke="#000000" stroke-width="2.0" stroke-linecap="butt" stroke-opacity="0.0" clip-path="url(#id_0)" d="M469.0 290.0L449.0 290.0L449.0 290.0L469.0 290.0Z" fill-rule="nonzero"/><path fill="#4285f4" clip-path="url(#id_0)" d="M469.0 290.0L449.0 290.0L449.0 290.0L469.0 290.0Z" fill-rule="nonzero"/><path stroke="#000000" stroke-width="2.0" stroke-linecap="butt" stroke-opacity="0.0" clip-path="url(#id_0)" d="M491.0 290.0L471.0 290.0L471.0 216.0C471.0 214.89543 471.89542 214.0 473.0 214.0L489.0 214.0C490.10458 214.0 491.0 214.89543 491.0 216.0Z" fill-rule="nonzero"/><path fill="#4285f4" clip-path="url(#id_0)" d="M491.0 290.0L471.0 290.0L471.0 216.0C471.0 214.89543 471.89542 214.0 473.0 214.0L489.0 214.0C490.10458 214.0 491.0 214.89543 491.0 216.0Z" fill-rule="nonzero"/><path stroke="#000000" stroke-width="2.0" stroke-linecap="butt" stroke-opacity="0.0" clip-path="url(#id_0)" d="M513.0 290.0L493.0 290.0L493.0 254.0C493.0 252.89543 493.89542 252.0 495.0 252.0L511.0 252.0C512.10455 252.0 513.0 252.89543 513.0 254.0Z" fill-rule="nonzero"/><path fill="#4285f4" clip-path="url(#id_0)" d="M513.0 290.0L493.0 290.0L493.0 254.0C493.0 252.89543 493.89542 252.0 495.0 252.0L511.0 252.0C512.10455 252.0 513.0 252.89543 513.0 254.0Z" fill-rule="nonzero"/><path stroke="#000000" stroke-width="2.0" stroke-linecap="butt" stroke-opacity="0.0" clip-path="url(#id_0)" d="M536.0 290.0L516.0 290.0L516.0 290.0L536.0 290.0Z" fill-rule="nonzero"/><path fill="#4285f4" clip-path="url(#id_0)" d="M536.0 290.0L516.0 290.0L516.0 290.0L536.0 290.0Z" fill-rule="nonzero"/><path stroke="#000000" stroke-width="2.0" stroke-linecap="butt" stroke-opacity="0.0" clip-path="url(#id_0)" d="M558.0 290.0L538.0 290.0L538.0 254.0C538.0 252.89543 538.89545 252.0 540.0 252.0L556.0 252.0C557.10455 252.0 558.0 252.89543 558.0 254.0Z" fill-rule="nonzero"/><path fill="#4285f4" clip-path="url(#id_0)" d="M558.0 290.0L538.0 290.0L538.0 254.0C538.0 252.89543 538.89545 252.0 540.0 252.0L556.0 252.0C557.10455 252.0 558.0 252.89543 558.0 254.0Z" fill-rule="nonzero"/><path stroke="#000000" stroke-width="2.0" stroke-linecap="butt" stroke-opacity="0.0" clip-path="url(#id_0)" d="M580.0 290.0L560.0 290.0L560.0 290.0L580.0 290.0Z" fill-rule="nonzero"/><path fill="#4285f4" clip-path="url(#id_0)" d="M580.0 290.0L560.0 290.0L560.0 290.0L580.0 290.0Z" fill-rule="nonzero"/><path fill="#000000" d="M282.54688 348.4344L282.54688 349.45L276.85938 349.45Q276.85938 349.075 276.98438 348.71564Q277.20312 348.1375 277.67188 347.575Q278.15625 347.0125 279.0625 346.27814Q280.46875 345.1219 280.95312 344.45Q281.45312 343.77814 281.45312 343.1844Q281.45312 342.5594 281.0 342.1375Q280.54688 341.7 279.82812 341.7Q279.0625 341.7 278.60938 342.15314Q278.15625 342.60626 278.14062 343.41876L277.0625 343.3094Q277.17188 342.09064 277.89062 341.46564Q278.625 340.825 279.85938 340.825Q281.09375 340.825 281.8125 341.5125Q282.53125 342.2 282.53125 343.21564Q282.53125 343.73126 282.3125 344.23126Q282.10938 344.71564 281.60938 345.27814Q281.125 345.825 280.0 346.77814Q279.04688 347.575 278.76562 347.8719Q278.5 348.15314 278.32812 348.4344L282.54688 348.4344ZM284.0 345.21564Q284.0 343.6844 284.3125 342.7625Q284.625 341.825 285.23438 341.325Q285.85938 340.825 286.79688 340.825Q287.48438 340.825 288.0 341.10626Q288.53125 341.3875 288.875 341.91876Q289.21875 342.4344 289.40625 343.1844Q289.59375 343.9344 289.59375 345.21564Q289.59375 346.73126 289.28125 347.65314Q288.98438 348.575 288.35938 349.09064Q287.75 349.59064 286.79688 349.59064Q285.5625 349.59064 284.84375 348.7Q284.0 347.6375 284.0 345.21564ZM285.07812 345.21564Q285.07812 347.325 285.57812 348.02814Q286.07812 348.73126 286.79688 348.73126Q287.53125 348.73126 288.01562 348.02814Q288.51562 347.325 288.51562 345.21564Q288.51562 343.09064 288.01562 342.40314Q287.53125 341.7 286.78125 341.7Q286.0625 341.7 285.625 342.3094Q285.07812 343.09064 285.07812 345.21564ZM296.54688 348.4344L296.54688 349.45L290.85938 349.45Q290.85938 349.075 290.98438 348.71564Q291.20312 348.1375 291.67188 347.575Q292.15625 347.0125 293.0625 346.27814Q294.46875 345.1219 294.95312 344.45Q295.45312 343.77814 295.45312 343.1844Q295.45312 342.5594 295.0 342.1375Q294.54688 341.7 293.82812 341.7Q293.0625 341.7 292.60938 342.15314Q292.15625 342.60626 292.14062 343.41876L291.0625 343.3094Q291.17188 342.09064 291.89062 341.46564Q292.625 340.825 293.85938 340.825Q295.09375 340.825 295.8125 341.5125Q296.53125 342.2 296.53125 343.21564Q296.53125 343.73126 296.3125 344.23126Q296.10938 344.71564 295.60938 345.27814Q295.125 345.825 294.0 346.77814Q293.04688 347.575 292.76562 347.8719Q292.5 348.15314 292.32812 348.4344L296.54688 348.4344ZM298.0 347.1844L299.0625 347.04376Q299.23438 347.9344 299.67188 348.34064Q300.10938 348.73126 300.73438 348.73126Q301.48438 348.73126 302.0 348.21564Q302.51562 347.7 302.51562 346.9344Q302.51562 346.21564 302.03125 345.7469Q301.5625 345.2625 300.82812 345.2625Q300.53125 345.2625 300.07812 345.3875L300.20312 344.45Q300.3125 344.46564 300.375 344.46564Q301.04688 344.46564 301.57812 344.1219Q302.125 343.7625 302.125 343.02814Q302.125 342.45 301.73438 342.075Q301.34375 341.6844 300.71875 341.6844Q300.10938 341.6844 299.6875 342.075Q299.28125 342.46564 299.17188 343.23126L298.10938 343.04376Q298.29688 341.9969 298.98438 341.41876Q299.67188 340.825 300.6875 340.825Q301.39062 340.825 301.98438 341.1375Q302.57812 341.4344 302.89062 341.95Q303.20312 342.46564 303.20312 343.0594Q303.20312 343.60626 302.90625 344.075Q302.60938 344.52814 302.03125 344.79376Q302.78125 344.96564 303.20312 345.52814Q303.625 346.075 303.625 346.91876Q303.625 348.04376 302.79688 348.825Q301.98438 349.60626 300.73438 349.60626Q299.60938 349.60626 298.85938 348.9344Q298.10938 348.2469 298.0 347.1844ZM308.4375 349.45L308.4375 340.85626L312.25 340.85626Q313.40625 340.85626 314.0 341.09064Q314.59375 341.325 314.95312 341.91876Q315.3125 342.4969 315.3125 343.2Q315.3125 344.1219 314.71875 344.7469Q314.125 345.3719 312.89062 345.54376Q313.34375 345.7625 313.57812 345.96564Q314.07812 346.41876 314.51562 347.10626L316.01562 349.45L314.57812 349.45L313.45312 347.66876Q312.95312 346.8875 312.625 346.48126Q312.3125 346.075 312.04688 345.91876Q311.79688 345.7469 311.53125 345.66876Q311.34375 345.6375 310.90625 345.6375L309.57812 345.6375L309.57812 349.45L308.4375 349.45ZM309.57812 344.65314L312.03125 344.65314Q312.79688 344.65314 313.23438 344.4969Q313.6875 344.325 313.90625 343.98126Q314.14062 343.6219 314.14062 343.2Q314.14062 342.59064 313.6875 342.2Q313.25 341.8094 312.29688 341.8094L309.57812 341.8094L309.57812 344.65314ZM321.54688 347.45L322.64062 347.575Q322.39062 348.52814 321.6875 349.0594Q320.98438 349.59064 319.90625 349.59064Q318.54688 349.59064 317.73438 348.7469Q316.9375 347.90314 316.9375 346.3875Q316.9375 344.825 317.75 343.96564Q318.5625 343.09064 319.84375 343.09064Q321.09375 343.09064 321.875 343.9344Q322.67188 344.77814 322.67188 346.325Q322.67188 346.41876 322.67188 346.60626L318.03125 346.60626Q318.09375 347.6375 318.60938 348.1844Q319.125 348.71564 319.90625 348.71564Q320.48438 348.71564 320.89062 348.41876Q321.3125 348.10626 321.54688 347.45ZM318.09375 345.7469L321.5625 345.7469Q321.5 344.95 321.17188 344.5594Q320.65625 343.95 319.85938 343.95Q319.125 343.95 318.625 344.4344Q318.14062 344.91876 318.09375 345.7469ZM323.875 347.59064L324.90625 347.4344Q325.0 348.0594 325.39062 348.3875Q325.79688 348.71564 326.53125 348.71564Q327.25 348.71564 327.59375 348.4344Q327.95312 348.1375 327.95312 347.73126Q327.95312 347.3719 327.64062 347.16876Q327.42188 347.02814 326.5625 346.8094Q325.40625 346.5125 324.95312 346.3094Q324.51562 346.09064 324.28125 345.71564Q324.04688 345.34064 324.04688 344.8719Q324.04688 344.46564 324.23438 344.10626Q324.42188 343.7469 324.75 343.5125Q325.0 343.34064 325.42188 343.21564Q325.84375 343.09064 326.34375 343.09064Q327.0625 343.09064 327.60938 343.3094Q328.17188 343.5125 328.4375 343.8719Q328.70312 344.23126 328.79688 344.825L327.76562 344.96564Q327.70312 344.4969 327.35938 344.23126Q327.03125 343.95 326.40625 343.95Q325.6875 343.95 325.375 344.2Q325.0625 344.4344 325.0625 344.7625Q325.0625 344.96564 325.1875 345.1219Q325.32812 345.29376 325.59375 345.40314Q325.75 345.46564 326.53125 345.66876Q327.65625 345.98126 328.09375 346.16876Q328.53125 346.35626 328.78125 346.71564Q329.03125 347.075 329.03125 347.6219Q329.03125 348.15314 328.71875 348.6219Q328.42188 349.075 327.84375 349.34064Q327.26562 349.59064 326.53125 349.59064Q325.3125 349.59064 324.67188 349.09064Q324.04688 348.575 323.875 347.59064ZM335.375 349.45L335.375 348.52814Q334.64062 349.59064 333.39062 349.59064Q332.84375 349.59064 332.35938 349.3875Q331.89062 349.16876 331.65625 348.85626Q331.42188 348.52814 331.32812 348.0594Q331.26562 347.7625 331.26562 347.075L331.26562 343.23126L332.32812 343.23126L332.32812 346.6844Q332.32812 347.4969 332.39062 347.79376Q332.48438 348.2 332.79688 348.45Q333.125 348.6844 333.60938 348.6844Q334.07812 348.6844 334.48438 348.45Q334.90625 348.2 335.07812 347.77814Q335.26562 347.35626 335.26562 346.5594L335.26562 343.23126L336.3125 343.23126L336.3125 349.45L335.375 349.45ZM338.26562 349.45L338.26562 340.85626L339.32812 340.85626L339.32812 349.45L338.26562 349.45ZM343.59375 348.5125L343.75 349.4344Q343.29688 349.52814 342.95312 349.52814Q342.375 349.52814 342.0625 349.35626Q341.75 349.16876 341.60938 348.8719Q341.48438 348.575 341.48438 347.6219L341.48438 344.04376L340.71875 344.04376L340.71875 343.23126L341.48438 343.23126L341.48438 341.6844L342.53125 341.0594L342.53125 343.23126L343.59375 343.23126L343.59375 344.04376L342.53125 344.04376L342.53125 347.6844Q342.53125 348.1375 342.57812 348.2625Q342.64062 348.3875 342.76562 348.46564Q342.89062 348.54376 343.125 348.54376Q343.3125 348.54376 343.59375 348.5125ZM343.875 347.59064L344.90625 347.4344Q345.0 348.0594 345.39062 348.3875Q345.79688 348.71564 346.53125 348.71564Q347.25 348.71564 347.59375 348.4344Q347.95312 348.1375 347.95312 347.73126Q347.95312 347.3719 347.64062 347.16876Q347.42188 347.02814 346.5625 346.8094Q345.40625 346.5125 344.95312 346.3094Q344.51562 346.09064 344.28125 345.71564Q344.04688 345.34064 344.04688 344.8719Q344.04688 344.46564 344.23438 344.10626Q344.42188 343.7469 344.75 343.5125Q345.0 343.34064 345.42188 343.21564Q345.84375 343.09064 346.34375 343.09064Q347.0625 343.09064 347.60938 343.3094Q348.17188 343.5125 348.4375 343.8719Q348.70312 344.23126 348.79688 344.825L347.76562 344.96564Q347.70312 344.4969 347.35938 344.23126Q347.03125 343.95 346.40625 343.95Q345.6875 343.95 345.375 344.2Q345.0625 344.4344 345.0625 344.7625Q345.0625 344.96564 345.1875 345.1219Q345.32812 345.29376 345.59375 345.40314Q345.75 345.46564 346.53125 345.66876Q347.65625 345.98126 348.09375 346.16876Q348.53125 346.35626 348.78125 346.71564Q349.03125 347.075 349.03125 347.6219Q349.03125 348.15314 348.71875 348.6219Q348.42188 349.075 347.84375 349.34064Q347.26562 349.59064 346.53125 349.59064Q345.3125 349.59064 344.67188 349.09064Q344.04688 348.575 343.875 347.59064Z" fill-rule="nonzero"/><path fill="#000000" d="M33.05 289.4669Q33.05 287.93564 33.3625 287.01376Q33.675 286.07626 34.284374 285.57626Q34.909374 285.07626 35.846874 285.07626Q36.534374 285.07626 37.05 285.3575Q37.58125 285.63876 37.925 286.17Q38.26875 286.68564 38.45625 287.43564Q38.64375 288.18564 38.64375 289.4669Q38.64375 290.9825 38.33125 291.9044Q38.034374 292.82626 37.409374 293.3419Q36.8 293.8419 35.846874 293.8419Q34.6125 293.8419 33.89375 292.95126Q33.05 291.88876 33.05 289.4669ZM34.128124 289.4669Q34.128124 291.57626 34.628124 292.2794Q35.128124 292.9825 35.846874 292.9825Q36.58125 292.9825 37.065624 292.2794Q37.565624 291.57626 37.565624 289.4669Q37.565624 287.3419 37.065624 286.6544Q36.58125 285.95126 35.83125 285.95126Q35.1125 285.95126 34.675 286.56064Q34.128124 287.3419 34.128124 289.4669Z" fill-rule="nonzero"/><path fill="#000000" d="M38.596874 216.75745L38.596874 217.77307L32.909374 217.77307Q32.909374 217.39807 33.034374 217.0387Q33.253124 216.46057 33.721874 215.89807Q34.20625 215.33557 35.1125 214.6012Q36.51875 213.44495 37.003124 212.77307Q37.503124 212.1012 37.503124 211.50745Q37.503124 210.88245 37.05 210.46057Q36.596874 210.02307 35.878124 210.02307Q35.1125 210.02307 34.659374 210.4762Q34.20625 210.92932 34.190624 211.74182L33.1125 211.63245Q33.221874 210.4137 33.940624 209.7887Q34.675 209.14807 35.909374 209.14807Q37.14375 209.14807 37.8625 209.83557Q38.58125 210.52307 38.58125 211.5387Q38.58125 212.05432 38.3625 212.55432Q38.159374 213.0387 37.659374 213.6012Q37.175 214.14807 36.05 215.1012Q35.096874 215.89807 34.815624 216.19495Q34.55 216.4762 34.378124 216.75745L38.596874 216.75745Z" fill-rule="nonzero"/><path fill="#000000" d="M36.425 141.84486L36.425 139.78236L32.70625 139.78236L32.70625 138.81361L36.628124 133.25111L37.4875 133.25111L37.4875 138.81361L38.64375 138.81361L38.64375 139.78236L37.4875 139.78236L37.4875 141.84486L36.425 141.84486ZM36.425 138.81361L36.425 134.95424L33.7375 138.81361L36.425 138.81361Z" fill-rule="nonzero"/><path fill="#000000" d="M38.51875 59.43229L37.471874 59.510414Q37.33125 58.885414 37.08125 58.604164Q36.64375 58.15104 36.01875 58.15104Q35.51875 58.15104 35.128124 58.43229Q34.64375 58.80729 34.346874 59.510414Q34.065624 60.197914 34.05 61.479164Q34.425 60.90104 34.971874 60.61979Q35.534374 60.33854 36.14375 60.33854Q37.190624 60.33854 37.925 61.11979Q38.675 61.90104 38.675 63.11979Q38.675 63.93229 38.315624 64.635414Q37.971874 65.322914 37.3625 65.697914Q36.753124 66.05729 35.9875 66.05729Q34.659374 66.05729 33.83125 65.08854Q33.003124 64.11979 33.003124 61.90104Q33.003124 59.40104 33.925 58.27604Q34.721874 57.291664 36.08125 57.291664Q37.096874 57.291664 37.7375 57.86979Q38.39375 58.43229 38.51875 59.43229ZM34.221874 63.135414Q34.221874 63.68229 34.440624 64.18229Q34.675 64.666664 35.08125 64.93229Q35.503124 65.197914 35.971874 65.197914Q36.628124 65.197914 37.1125 64.666664Q37.596874 64.11979 37.596874 63.197914Q37.596874 62.30729 37.1125 61.791664Q36.64375 61.27604 35.925 61.27604Q35.20625 61.27604 34.70625 61.791664Q34.221874 62.30729 34.221874 63.135414Z" fill-rule="nonzero"/><path fill="#000000" d="M31.971346 321.19025L31.220045 320.43896L33.518143 318.14087L34.269444 318.89215L31.971346 321.19025ZM33.717014 317.1023Q32.63426 316.01953 32.203365 315.1467Q31.761423 314.26282 31.838764 313.47836Q31.927153 312.6829 32.590065 312.01996Q33.0762 311.53384 33.639675 311.3681Q34.2142 311.1913 34.83292 311.3239Q35.44059 311.44543 36.1035 311.8432Q36.766415 312.24094 37.672394 313.1469Q38.744102 314.21863 39.174995 315.09146Q39.61694 315.95325 39.539597 316.7598Q39.462257 317.54425 38.788296 318.2182Q37.915462 319.09103 36.777462 318.9695Q35.42954 318.81482 33.717014 317.1023ZM34.479366 316.33994Q35.970917 317.8315 36.821655 317.97513Q37.672394 318.11877 38.180626 317.61053Q38.69991 317.09125 38.54523 316.25156Q38.4016 315.40082 36.910046 313.90927Q35.407444 312.40668 34.567753 312.27408Q33.728065 312.11942 33.197735 312.64975Q32.689503 313.15796 32.811035 313.89822Q32.976765 314.83734 34.479366 316.33994ZM42.080765 314.72687L41.230026 313.87613L42.080765 313.0254L42.9315 313.87613L42.080765 314.72687ZM42.1802 311.42334L42.832066 310.5726Q43.583366 311.08084 44.179985 311.05875Q44.76556 311.0256 45.2075 310.58365Q45.73783 310.0533 45.73783 309.32413Q45.73783 308.5949 45.196453 308.05353Q44.68822 307.54532 44.01426 307.55637Q43.340298 307.54532 42.821014 308.06458Q42.61109 308.2745 42.379074 308.68332L41.80455 307.932Q41.892937 307.86572 41.937134 307.82153Q42.41222 307.34644 42.544804 306.72772Q42.677383 306.0869 42.158104 305.56763Q41.749306 305.1588 41.207928 305.16986Q40.655502 305.16986 40.21356 305.61182Q39.782665 306.0427 39.76057 306.61722Q39.74952 307.1807 40.21356 307.79944L39.329678 308.41815Q38.722008 307.54532 38.799347 306.6504Q38.86564 305.7444 39.583794 305.02625Q40.08098 304.52905 40.721794 304.33017Q41.35156 304.12027 41.937134 304.2639Q42.522705 304.40753 42.94255 304.82736Q43.32925 305.21405 43.450783 305.75543Q43.561268 306.28577 43.340298 306.8824Q43.99216 306.4736 44.68822 306.57303Q45.37323 306.66144 45.96985 307.25806Q46.765347 308.05353 46.7322 309.19153Q46.710102 310.31848 45.826218 311.20236Q45.030724 311.99786 44.025307 312.0531Q43.008842 312.09732 42.1802 311.42334ZM47.141 306.48465L47.859154 305.6339Q48.522068 306.12006 49.118687 306.09793Q49.726357 306.0648 50.179348 305.61182Q50.70968 305.08148 50.676533 304.29703Q50.643387 303.51257 49.980473 302.84967Q49.33966 302.20886 48.610455 302.20886Q47.881252 302.18677 47.295677 302.77234Q46.942123 303.1259 46.809544 303.58994Q46.688007 304.0429 46.776398 304.46277L45.99195 305.07043L43.461834 301.36917L46.489136 298.34186L47.196243 299.04898L44.76556 301.47964L46.080338 303.43524Q46.23502 302.50717 46.83164 301.91055Q47.627136 301.11505 48.72094 301.1261Q49.825794 301.1261 50.69863 301.99893Q51.51622 302.81653 51.648804 303.8993Q51.792435 305.21405 50.787018 306.21948Q49.958378 307.04813 48.96401 307.1144Q47.980686 307.16965 47.141 306.48465Z" fill-rule="nonzero"/><path fill="#000000" d="M54.300514 321.19025L53.54921 320.43896L55.84731 318.14087L56.59861 318.89215L54.300514 321.19025ZM56.04618 317.1023Q54.963425 316.01953 54.53253 315.1467Q54.09059 314.26282 54.16793 313.47836Q54.256317 312.6829 54.91923 312.01996Q55.405365 311.53384 55.96884 311.3681Q56.543365 311.1913 57.162086 311.3239Q57.769756 311.44543 58.432667 311.8432Q59.09558 312.24094 60.00156 313.1469Q61.07327 314.21863 61.50416 315.09146Q61.946106 315.95325 61.868763 316.7598Q61.791424 317.54425 61.117462 318.2182Q60.24463 319.09103 59.10663 318.9695Q57.758705 318.81482 56.04618 317.1023ZM56.808533 316.33994Q58.300087 317.8315 59.15082 317.97513Q60.00156 318.11877 60.509792 317.61053Q61.029076 317.09125 60.874397 316.25156Q60.730766 315.40082 59.239212 313.90927Q57.73661 312.40668 56.89692 312.27408Q56.05723 312.11942 55.5269 312.64975Q55.01867 313.15796 55.1402 313.89822Q55.30593 314.83734 56.808533 316.33994ZM64.40993 314.72687L63.559193 313.87613L64.40993 313.0254L65.260666 313.87613L64.40993 314.72687ZM64.50937 311.42334L65.16123 310.5726Q65.91253 311.08084 66.509155 311.05875Q67.09473 311.0256 67.53667 310.58365Q68.06699 310.0533 68.06699 309.32413Q68.06699 308.5949 67.52562 308.05353Q67.01739 307.54532 66.34342 307.55637Q65.669464 307.54532 65.150185 308.06458Q64.94026 308.2745 64.70824 308.68332L64.13371 307.932Q64.22211 307.86572 64.2663 307.82153Q64.74139 307.34644 64.87397 306.72772Q65.00655 306.0869 64.48727 305.56763Q64.078476 305.1588 63.537094 305.16986Q62.98467 305.16986 62.542725 305.61182Q62.11183 306.0427 62.089737 306.61722Q62.078686 307.1807 62.542725 307.79944L61.658844 308.41815Q61.051174 307.54532 61.128513 306.6504Q61.194805 305.7444 61.91296 305.02625Q62.410145 304.52905 63.05096 304.33017Q63.680725 304.12027 64.2663 304.2639Q64.85187 304.40753 65.27171 304.82736Q65.65842 305.21405 65.779945 305.75543Q65.890434 306.28577 65.669464 306.8824Q66.32133 306.4736 67.01739 306.57303Q67.70239 306.66144 68.29902 307.25806Q69.09451 308.05353 69.06136 309.19153Q69.03927 310.31848 68.15539 311.20236Q67.35989 311.99786 66.35448 312.0531Q65.338005 312.09732 64.50937 311.42334ZM74.26523 303.43524L74.98338 304.1534L70.961716 308.17508Q70.69655 307.9099 70.53082 307.5674Q70.2767 307.00394 70.21042 306.27472Q70.155174 305.5345 70.2767 304.3744Q70.45348 302.5624 70.3209 301.7448Q70.19936 300.91617 69.77952 300.49634Q69.33758 300.05438 68.718864 300.0765Q68.089096 300.08755 67.580864 300.59576Q67.03948 301.13715 67.03948 301.77795Q67.03948 302.4188 67.60296 303.00436L66.76327 303.68936Q65.97882 302.75024 66.04511 301.80008Q66.111404 300.8278 66.98424 299.95496Q67.85708 299.08212 68.85144 299.06003Q69.84581 299.03793 70.563965 299.75607Q70.92857 300.1207 71.12744 300.6289Q71.32632 301.11505 71.370514 301.86636Q71.4147 302.59555 71.293175 304.065Q71.182686 305.30246 71.19373 305.71124Q71.20478 306.09796 71.28213 306.41837L74.26523 303.43524Z" fill-rule="nonzero"/><path fill="#000000" d="M76.629684 321.19025L75.87838 320.43896L78.176476 318.14087L78.92778 318.89215L76.629684 321.19025ZM78.37535 317.1023Q77.292595 316.01953 76.8617 315.1467Q76.41976 314.26282 76.4971 313.47836Q76.58549 312.6829 77.2484 312.01996Q77.734535 311.53384 78.29801 311.3681Q78.872536 311.1913 79.49126 311.3239Q80.09892 311.44543 80.76183 311.8432Q81.42475 312.24094 82.33073 313.1469Q83.402435 314.21863 83.83333 315.09146Q84.275276 315.95325 84.19794 316.7598Q84.12059 317.54425 83.44663 318.2182Q82.5738 319.09103 81.4358 318.9695Q80.087875 318.81482 78.37535 317.1023ZM79.1377 316.33994Q80.62926 317.8315 81.479996 317.97513Q82.33073 318.11877 82.83897 317.61053Q83.358246 317.09125 83.20357 316.25156Q83.05994 315.40082 81.56838 313.90927Q80.06578 312.40668 79.22609 312.27408Q78.3864 312.11942 77.85607 312.64972Q77.34784 313.15796 77.46937 313.89822Q77.6351 314.83734 79.1377 316.33994ZM86.7391 314.72687L85.88836 313.87613L86.7391 313.0254L87.589836 313.87613L86.7391 314.72687ZM91.64465 308.385L92.36281 309.10315L88.34114 313.12482Q88.07597 312.85965 87.91025 312.51715Q87.65613 311.95367 87.589836 311.22446Q87.53459 310.48422 87.65613 309.32413Q87.8329 307.51215 87.700325 306.69458Q87.57879 305.86594 87.15894 305.44608Q86.717 305.00415 86.09828 305.02625Q85.46851 305.0373 84.96028 305.54553Q84.41891 306.08688 84.41891 306.72772Q84.41891 307.36853 84.98238 307.9541L84.14269 308.6391Q83.358246 307.69998 83.42454 306.74982Q83.49083 305.77753 84.36366 304.9047Q85.236496 304.03186 86.230865 304.00977Q87.225235 303.98767 87.94339 304.70584Q88.30799 305.07043 88.50687 305.57867Q88.70574 306.0648 88.74993 306.8161Q88.79413 307.54532 88.67259 309.01477Q88.56211 310.2522 88.57316 310.66098Q88.584206 311.0477 88.661545 311.3681L91.64465 308.385ZM92.09764 306.56198L92.749504 305.77753Q93.34613 306.1974 93.83226 306.1753Q94.3184 306.1311 94.71615 305.73334Q95.058655 305.39084 95.15809 304.98206Q95.25752 304.55115 95.169136 304.13132Q95.0697 303.7004 94.73824 303.14798Q94.39574 302.5845 93.9317 302.12048Q93.87646 302.06522 93.77702 301.9658Q93.90961 302.5403 93.75492 303.15903Q93.589195 303.7667 93.13621 304.2197Q92.373856 304.98206 91.313194 304.95996Q90.241486 304.9268 89.34656 304.03186Q88.41848 303.1038 88.39638 301.99893Q88.38533 300.88303 89.20293 300.06543Q89.7885 299.47986 90.59504 299.31415Q91.412636 299.13736 92.263374 299.47986Q93.10306 299.8113 94.21896 300.92722Q95.37906 302.0873 95.821 303.0375Q96.26295 303.96558 96.11931 304.8384Q95.97568 305.68915 95.31277 306.35205Q94.59461 307.07022 93.75492 307.1365Q92.90418 307.19174 92.09764 306.56198ZM92.46224 300.8278Q91.82143 300.18698 91.10327 300.15384Q90.396164 300.10965 89.910034 300.59576Q89.41285 301.09296 89.44599 301.8774Q89.47914 302.63974 90.131004 303.29163Q90.70553 303.86615 91.42368 303.8772Q92.14184 303.88824 92.65007 303.38Q93.16935 302.86072 93.13621 302.16467Q93.10306 301.4686 92.46224 300.8278Z" fill-rule="nonzero"/><path fill="#000000" d="M98.95885 321.19025L98.20754 320.43896L100.50564 318.14087L101.25694 318.89215L98.95885 321.19025ZM100.70451 317.1023Q99.62176 316.01953 99.190865 315.1467Q98.748924 314.26282 98.82626 313.47836Q98.91465 312.6829 99.57756 312.01996Q100.0637 311.53384 100.627174 311.3681Q101.2017 311.1913 101.82042 311.3239Q102.428085 311.44543 103.091 311.8432Q103.753914 312.24094 104.6599 313.1469Q105.731606 314.21863 106.1625 315.09146Q106.60444 315.95325 106.5271 316.7598Q106.44976 317.54425 105.775795 318.2182Q104.90296 319.09103 103.76496 318.9695Q102.41704 318.81482 100.70451 317.1023ZM101.466866 316.33994Q102.95842 317.8315 103.80916 317.97513Q104.6599 318.11877 105.16813 317.61053Q105.68741 317.09125 105.53273 316.25156Q105.3891 315.40082 103.897545 313.90927Q102.39494 312.40668 101.55525 312.27408Q100.71556 312.11942 100.185234 312.64975Q99.677 313.15796 99.79854 313.89822Q99.964264 314.83734 101.466866 316.33994ZM109.06826 314.72687L108.21752 313.87613L109.06826 313.0254L109.919 313.87613L109.06826 314.72687ZM113.97382 308.38498L114.69198 309.10315L110.6703 313.12482Q110.405136 312.85965 110.23941 312.51715Q109.98529 311.95367 109.919 311.2245Q109.863754 310.48422 109.98529 309.32413Q110.16207 307.51218 110.02949 306.69458Q109.90796 305.86594 109.48811 305.44608Q109.04617 305.00415 108.42745 305.02625Q107.79768 305.0373 107.289444 305.54553Q106.74807 306.0869 106.74807 306.72772Q106.74807 307.36853 107.31155 307.9541L106.471855 308.6391Q105.68741 307.69998 105.7537 306.74982Q105.81999 305.77753 106.692825 304.9047Q107.56567 304.03186 108.560036 304.00977Q109.554405 303.98767 110.27256 304.70584Q110.63716 305.07043 110.83604 305.57867Q111.03491 306.0648 111.0791 306.8161Q111.1233 307.5453 111.001755 309.01477Q110.89127 310.2522 110.90232 310.661Q110.91337 311.0477 110.99071 311.3681L113.97382 308.38498ZM115.001335 299.6235L114.31633 300.419Q113.77495 300.07648 113.3993 300.05438Q112.76953 300.04333 112.32759 300.4853Q111.97404 300.83884 111.8967 301.31393Q111.81936 301.9216 112.10662 302.6287Q112.39388 303.31372 113.28881 304.23074Q113.14518 303.5568 113.33301 302.9712Q113.53188 302.37457 113.962776 301.9437Q114.703026 301.20343 115.774734 301.23657Q116.85749 301.25867 117.71928 302.12045Q118.2938 302.695 118.53687 303.4463Q118.77994 304.1755 118.61421 304.87155Q118.43743 305.55658 117.89606 306.09793Q116.956924 307.03708 115.68635 306.93762Q114.415764 306.8382 112.84687 305.26932Q111.0791 303.50153 110.93547 302.05417Q110.80289 300.79465 111.764114 299.8334Q112.48227 299.11526 113.344055 299.07108Q114.20584 299.0048 115.001335 299.6235ZM114.58149 305.28036Q114.96819 305.66705 115.476425 305.86594Q115.98466 306.0427 116.45975 305.94327Q116.94588 305.83276 117.277336 305.5013Q117.74137 305.0373 117.70823 304.31912Q117.66403 303.58994 117.01217 302.93805Q116.3824 302.3083 115.6753 302.2862Q114.97924 302.25305 114.47101 302.7613Q113.962776 303.26953 113.97382 303.98767Q113.99592 304.6948 114.58149 305.28036Z" fill-rule="nonzero"/><path fill="#000000" d="M121.28802 321.19025L120.53671 320.43896L122.83481 318.14087L123.58611 318.89215L121.28802 321.19025ZM123.03368 317.1023Q121.95093 316.01953 121.520035 315.1467Q121.078094 314.26282 121.15543 313.47836Q121.24382 312.6829 121.90673 312.01996Q122.39287 311.53384 122.956345 311.3681Q123.53087 311.1913 124.14959 311.3239Q124.757256 311.44543 125.420166 311.8432Q126.083084 312.24094 126.98906 313.1469Q128.06078 314.21863 128.49167 315.09146Q128.93361 315.95325 128.85626 316.7598Q128.77893 317.54425 128.10497 318.2182Q127.23213 319.09103 126.09413 318.9695Q124.74621 318.81482 123.03368 317.1023ZM123.796036 316.33994Q125.28759 317.8315 126.13833 317.97513Q126.98906 318.11877 127.4973 317.61053Q128.01657 317.09125 127.8619 316.25156Q127.71827 315.40082 126.226715 313.90927Q124.72411 312.40668 123.88442 312.27408Q123.04473 312.11942 122.514404 312.64972Q122.00617 313.15796 122.1277 313.89822Q122.293434 314.83734 123.796036 316.33994ZM131.39743 314.72687L130.54669 313.87613L131.39743 313.0254L132.24817 313.87613L131.39743 314.72687ZM136.30298 308.385L137.02113 309.10315L132.99947 313.12482Q132.7343 312.85965 132.56857 312.51715Q132.31447 311.95367 132.24817 311.22446Q132.19293 310.48422 132.31447 309.32413Q132.49124 307.51215 132.35866 306.69458Q132.23712 305.86594 131.81728 305.44608Q131.37534 305.00415 130.75662 305.02625Q130.12685 305.0373 129.61862 305.54553Q129.07724 306.08688 129.07724 306.72772Q129.07724 307.36853 129.64072 307.9541L128.80103 308.6391Q128.01657 307.69998 128.08287 306.74982Q128.14915 305.77753 129.02199 304.9047Q129.89484 304.03186 130.8892 304.00977Q131.88356 303.98767 132.60173 304.70584Q132.96632 305.07043 133.16519 305.57867Q133.36407 306.0648 133.40826 306.8161Q133.45245 307.54532 133.33093 309.01477Q133.22044 310.2522 133.23149 310.66098Q133.24254 311.0477 133.31989 311.3681L136.30298 308.385ZM136.44661 306.4736L137.09848 305.62286Q137.84978 306.1311 138.4464 306.109Q139.03198 306.07584 139.47392 305.6339Q140.00424 305.10358 140.00424 304.37436Q140.00424 303.64517 139.46288 303.1038Q138.95464 302.59555 138.28067 302.6066Q137.60672 302.59555 137.08743 303.11484Q136.8775 303.32477 136.6455 303.73355L136.07097 302.98227Q136.15935 302.91595 136.20355 302.87177Q136.67863 302.3967 136.81122 301.77795Q136.9438 301.13715 136.42451 300.61786Q136.01572 300.20908 135.47435 300.22012Q134.92192 300.22012 134.47998 300.66205Q134.04909 301.09296 134.02698 301.66748Q134.01593 302.23096 134.47998 302.84967L133.59608 303.46838Q132.98842 302.59555 133.06577 301.70062Q133.13205 300.79465 133.8502 300.07648Q134.3474 299.5793 134.9882 299.38043Q135.61798 299.1705 136.20355 299.31415Q136.78912 299.45776 137.20897 299.87762Q137.59566 300.2643 137.7172 300.8057Q137.82768 301.33603 137.60672 301.93265Q138.25858 301.52386 138.95464 301.6233Q139.63965 301.71167 140.23627 302.3083Q141.03177 303.1038 140.99861 304.2418Q140.97652 305.36874 140.09264 306.25262Q139.29713 307.04813 138.29172 307.10336Q137.27525 307.14755 136.44661 306.4736Z" fill-rule="nonzero"/><path fill="#000000" d="M143.61717 321.19025L142.86588 320.43896L145.16397 318.14087L145.91527 318.89215L143.61717 321.19025ZM145.36285 317.1023Q144.28009 316.01953 143.8492 315.1467Q143.40726 314.26282 143.48459 313.47836Q143.57298 312.6829 144.2359 312.01996Q144.72203 311.53384 145.2855 311.3681Q145.86003 311.1913 146.47874 311.3239Q147.08643 311.44543 147.74933 311.8432Q148.41225 312.24094 149.31822 313.1469Q150.38994 314.21863 150.82083 315.09146Q151.26277 315.95325 151.18542 316.7598Q151.1081 317.54425 150.43413 318.2182Q149.5613 319.09103 148.4233 318.9695Q147.07538 318.81482 145.36285 317.1023ZM146.1252 316.33994Q147.61674 317.8315 148.46748 317.97513Q149.31822 318.11877 149.82646 317.61053Q150.34575 317.09125 150.19106 316.25156Q150.04742 315.40082 148.55588 313.90927Q147.05327 312.40668 146.2136 312.27408Q145.3739 312.11942 144.84357 312.64975Q144.33533 313.15796 144.45686 313.89822Q144.62259 314.83734 146.1252 316.33994ZM153.7266 314.72687L152.87585 313.87613L153.7266 313.0254L154.57733 313.87613L153.7266 314.72687ZM158.63216 308.385L159.35031 309.10315L155.32863 313.12482Q155.06348 312.85965 154.89774 312.51715Q154.64363 311.95367 154.57733 311.2245Q154.5221 310.48422 154.64363 309.32413Q154.8204 307.51218 154.68782 306.69458Q154.56628 305.86594 154.14644 305.44608Q153.7045 305.00415 153.08578 305.02625Q152.45601 305.0373 151.94778 305.54553Q151.4064 306.0869 151.4064 306.72772Q151.4064 307.36853 151.96988 307.9541L151.13019 308.63913Q150.34575 307.69998 150.41203 306.74982Q150.47832 305.77753 151.35117 304.9047Q152.224 304.03186 153.21837 304.00977Q154.21274 303.98767 154.9309 304.70584Q155.29549 305.07043 155.49437 305.57867Q155.69324 306.0648 155.73743 306.8161Q155.78163 307.54532 155.6601 309.01477Q155.5496 310.2522 155.56065 310.661Q155.5717 311.0477 155.64905 311.3681L158.63216 308.385ZM157.38367 305.08148Q156.3009 303.99872 155.87001 303.1259Q155.42807 302.242 155.50542 301.45755Q155.5938 300.66208 156.25671 299.99915Q156.74284 299.51303 157.30632 299.3473Q157.88084 299.1705 158.49957 299.3031Q159.10724 299.42462 159.77014 299.8224Q160.43306 300.22012 161.33904 301.1261Q162.41075 302.1978 162.84164 303.07065Q163.28358 303.93243 163.20625 304.73898Q163.1289 305.52344 162.45494 306.1974Q161.5821 307.07022 160.4441 306.9487Q159.09619 306.794 157.38367 305.08148ZM158.14601 304.31912Q159.63757 305.8107 160.48831 305.9543Q161.33904 306.09796 161.84727 305.58972Q162.36656 305.07043 162.21188 304.23074Q162.06825 303.38 160.57669 301.88846Q159.0741 300.38586 158.2344 300.25327Q157.39471 300.0986 156.86438 300.6289Q156.35616 301.13715 156.47768 301.8774Q156.64342 302.81653 158.14601 304.31912Z" fill-rule="nonzero"/><path fill="#000000" d="M165.94633 321.19028L165.19504 320.43896L167.49313 318.14087L168.24445 318.89215L165.94633 321.19028ZM167.69202 317.1023Q166.60925 316.01953 166.17836 315.1467Q165.73642 314.26282 165.81377 313.4784Q165.90215 312.6829 166.56506 312.01996Q167.0512 311.53384 167.61467 311.3681Q168.1892 311.19135 168.80792 311.3239Q169.41559 311.44543 170.07849 311.8432Q170.74141 312.24094 171.64738 313.1469Q172.7191 314.21863 173.15 315.09146Q173.59193 315.95325 173.51459 316.7598Q173.43726 317.54425 172.76329 318.2182Q171.89046 319.09103 170.75246 318.9695Q169.40454 318.81482 167.69202 317.1023ZM168.45436 316.33997Q169.9459 317.8315 170.79665 317.97513Q171.64738 318.11877 172.15562 317.61053Q172.67491 317.09125 172.52022 316.25156Q172.37659 315.40082 170.88504 313.90927Q169.38245 312.40668 168.54276 312.27408Q167.70306 312.11942 167.17273 312.64975Q166.6645 313.15796 166.78603 313.89822Q166.95177 314.83734 168.45436 316.33997ZM176.05576 314.72687L175.20502 313.87613L176.05576 313.0254L176.9065 313.87613L176.05576 314.72687ZM180.56357 310.21906L179.82332 310.95932L175.07243 306.20844Q175.05034 306.73877 174.87357 307.44586Q174.6968 308.1309 174.47581 308.5949L173.75766 307.87677Q174.07806 306.95975 174.13332 306.0869Q174.18855 305.192 173.98969 304.59534L174.46477 304.12027L180.56357 310.21906ZM177.46997 302.75024L176.75182 302.03207L180.6851 298.09882L181.27068 298.6844Q181.31487 299.87762 181.76785 301.47968Q182.22084 303.0596 182.99425 304.45172Q183.52458 305.44608 184.3753 306.40732L183.60191 307.1807Q182.8948 306.4515 182.14351 305.16986Q181.40326 303.8772 180.96132 302.4409Q180.53043 300.99353 180.45308 299.76715L177.46997 302.75024Z" fill-rule="nonzero"/><path fill="#000000" d="M188.27551 321.19025L187.52422 320.43896L189.82231 318.14087L190.57361 318.89215L188.27551 321.19025ZM190.02118 317.1023Q188.93843 316.01953 188.50754 315.1467Q188.0656 314.26282 188.14293 313.47836Q188.23132 312.68286 188.89424 312.01996Q189.38037 311.5338 189.94385 311.3681Q190.51837 311.1913 191.13708 311.3239Q191.74477 311.44543 192.40767 311.8432Q193.07059 312.24094 193.97656 313.1469Q195.04828 314.21863 195.47917 315.09146Q195.92111 315.95325 195.84377 316.7598Q195.76643 317.54425 195.09247 318.2182Q194.21964 319.09103 193.08163 318.96948Q191.7337 318.81482 190.02118 317.1023ZM190.78354 316.33994Q192.27509 317.8315 193.12582 317.97513Q193.97656 318.11877 194.4848 317.61053Q195.00407 317.09125 194.8494 316.25156Q194.70576 315.40082 193.21422 313.90927Q191.71161 312.40668 190.87192 312.27408Q190.03224 312.11942 189.5019 312.64972Q188.99367 313.15796 189.1152 313.89822Q189.28093 314.83734 190.78354 316.33994ZM198.38493 314.72687L197.5342 313.87613L198.38493 313.0254L199.23567 313.87613L198.38493 314.72687ZM202.89275 310.21906L202.15248 310.9593L197.40161 306.20844Q197.37952 306.73877 197.20274 307.44586Q197.02597 308.1309 196.805 308.5949L196.08684 307.87677Q196.40724 306.95972 196.4625 306.08688Q196.51773 305.19196 196.31886 304.59534L196.79395 304.12027L202.89275 310.21906ZM207.42264 305.68915L205.96423 304.23074L203.33469 306.8603L202.64967 306.1753L201.48958 299.4688L202.09724 298.86115L206.03053 302.79443L206.84811 301.97684L207.53313 302.66183L206.71553 303.47943L208.17395 304.93784L207.42264 305.68915ZM205.27922 303.54575L202.55023 300.81674L203.37888 305.44608L205.27922 303.54575Z" fill-rule="nonzero"/><path fill="#000000" d="M210.60468 321.19025L209.85338 320.43896L212.15147 318.14087L212.90277 318.89215L210.60468 321.19025ZM212.35036 317.1023Q211.2676 316.01953 210.8367 315.1467Q210.39476 314.26282 210.47209 313.47836Q210.56049 312.6829 211.2234 312.01996Q211.70953 311.53384 212.27301 311.3681Q212.84753 311.1913 213.46625 311.3239Q214.07393 311.44543 214.73683 311.8432Q215.39975 312.24094 216.30573 313.1469Q217.37744 314.21863 217.80833 315.09146Q218.25027 315.95325 218.17293 316.7598Q218.0956 317.54425 217.42163 318.2182Q216.5488 319.09103 215.4108 318.9695Q214.06288 318.81482 212.35036 317.1023ZM213.1127 316.33994Q214.60425 317.8315 215.45499 317.97513Q216.30573 318.11877 216.81396 317.61053Q217.33324 317.09125 217.17856 316.25156Q217.03493 315.40082 215.54338 313.90927Q214.04077 312.40668 213.2011 312.27408Q212.3614 312.11942 211.83107 312.64972Q211.32283 313.15796 211.44437 313.89822Q211.61009 314.83734 213.1127 316.33994ZM220.7141 314.72687L219.86336 313.87613L220.7141 313.0254L221.56483 313.87613L220.7141 314.72687ZM225.22191 310.21906L224.48164 310.95932L219.73077 306.20844Q219.70868 306.73877 219.5319 307.44586Q219.35513 308.1309 219.13416 308.5949L218.416 307.87677Q218.7364 306.95975 218.79166 306.08688Q218.8469 305.19196 218.64803 304.59534L219.12311 304.12027L225.22191 310.21906ZM230.17165 305.26932L229.4314 306.00955L224.68053 301.2587Q224.65843 301.789 224.48164 302.49612Q224.30487 303.18112 224.08391 303.64517L223.36575 302.927Q223.68616 302.00998 223.7414 301.13715Q223.79665 300.24222 223.59776 299.6456L224.07286 299.1705L230.17165 305.26932Z" fill-rule="nonzero"/><path fill="#000000" d="M232.93384 321.19025L232.18254 320.43896L234.48064 318.14087L235.23195 318.89215L232.93384 321.19025ZM234.67952 317.1023Q233.59676 316.01953 233.16586 315.1467Q232.72392 314.26282 232.80125 313.47836Q232.88965 312.6829 233.55257 312.01996Q234.0387 311.53384 234.60217 311.3681Q235.1767 311.1913 235.79541 311.3239Q236.40309 311.44543 237.066 311.8432Q237.72891 312.24094 238.63489 313.1469Q239.7066 314.21863 240.1375 315.09146Q240.57944 315.95325 240.50209 316.7598Q240.42476 317.54425 239.7508 318.2182Q238.87796 319.09103 237.73996 318.9695Q236.39204 318.81482 234.67952 317.1023ZM235.44186 316.33994Q236.93341 317.8315 237.78415 317.97513Q238.63489 318.11877 239.14313 317.61053Q239.66241 317.09125 239.50772 316.25156Q239.36409 315.40082 237.87254 313.90927Q236.36993 312.40668 235.53026 312.27408Q234.69057 312.11942 234.16023 312.64975Q233.652 313.15796 233.77353 313.89822Q233.93925 314.83734 235.44186 316.33994ZM243.04324 314.72687L242.19252 313.87613L243.04324 313.0254L243.89398 313.87613L243.04324 314.72687ZM241.75056 310.03125Q240.66782 308.9485 240.23692 308.07565Q239.79498 307.19177 239.87231 306.40732Q239.96071 305.61182 240.62363 304.9489Q241.10976 304.46277 241.67323 304.29706Q242.24776 304.12027 242.86647 304.25287Q243.47414 304.3744 244.13705 304.77213Q244.79997 305.1699 245.70595 306.07587Q246.77766 307.14758 247.20856 308.02042Q247.6505 308.8822 247.57315 309.68875Q247.49582 310.47318 246.82185 311.14716Q245.94902 312.02 244.81102 311.89844Q243.46309 311.74377 241.75056 310.03125ZM242.51292 309.2689Q244.00447 310.76044 244.85521 310.90408Q245.70595 311.0477 246.21419 310.5395Q246.73346 310.0202 246.57878 309.1805Q246.43515 308.32977 244.9436 306.83823Q243.441 305.3356 242.6013 305.20303Q241.76163 305.04834 241.2313 305.57867Q240.72305 306.0869 240.84459 306.82718Q241.01031 307.7663 242.51292 309.2689ZM247.55106 303.63412Q246.91025 303.9214 246.36887 303.84406Q245.82748 303.74463 245.39659 303.31372Q244.73367 302.65082 244.75577 301.72275Q244.78893 300.7836 245.57336 299.99918Q246.36887 299.20367 247.31903 299.18158Q248.26921 299.1595 248.93213 299.8224Q249.35197 300.24222 249.44035 300.77255Q249.52875 301.3029 249.25253 301.93265Q249.99278 301.54596 250.68884 301.66748Q251.3849 301.78903 251.94838 302.3525Q252.72177 303.12592 252.69968 304.20865Q252.68863 305.28036 251.78265 306.18634Q250.88771 307.08127 249.80496 307.1034Q248.7222 307.1255 247.92671 306.33Q247.33008 305.73337 247.23065 305.0373Q247.14226 304.3302 247.55106 303.63412ZM246.1258 302.51822Q246.55669 302.94913 247.10912 302.94913Q247.67259 302.93808 248.11453 302.49612Q248.54543 302.06525 248.55647 301.52386Q248.55647 300.97144 248.15872 300.5737Q247.74992 300.1649 247.18645 300.17593Q246.61192 300.17593 246.1921 300.5958Q245.7612 301.02667 245.75014 301.59015Q245.75014 302.14258 246.1258 302.51822ZM248.7001 305.55658Q249.02051 305.87698 249.46245 306.03168Q249.91545 306.1753 250.37949 306.04272Q250.84352 305.91013 251.18602 305.56763Q251.71635 305.0373 251.71635 304.3523Q251.7274 303.65622 251.19708 303.12592Q250.6557 302.58453 249.9486 302.58453Q249.24149 302.58453 248.7001 303.12592Q248.16977 303.65622 248.18082 304.3523Q248.18082 305.0373 248.7001 305.55658Z" fill-rule="nonzero"/><path fill="#000000" d="M255.26302 321.19025L254.51172 320.43896L256.8098 318.14087L257.56113 318.89215L255.26302 321.19025ZM257.0087 317.1023Q255.92593 316.01953 255.49504 315.1467Q255.0531 314.26282 255.13043 313.47836Q255.21883 312.68286 255.88174 312.01996Q256.36786 311.5338 256.93134 311.3681Q257.50586 311.1913 258.1246 311.3239Q258.73227 311.44543 259.39517 311.84317Q260.05807 312.24094 260.96408 313.1469Q262.03577 314.21863 262.46667 315.09146Q262.9086 315.95325 262.83127 316.7598Q262.75394 317.54422 262.07996 318.2182Q261.20712 319.09103 260.06912 318.96948Q258.72122 318.81482 257.0087 317.1023ZM257.77103 316.33994Q259.2626 317.83148 260.11334 317.97513Q260.96408 318.11874 261.4723 317.61053Q261.99158 317.09125 261.8369 316.25156Q261.69327 315.40082 260.20172 313.90927Q258.69913 312.40665 257.85944 312.27408Q257.01974 312.1194 256.4894 312.64972Q255.98117 313.15796 256.10272 313.89822Q256.26843 314.83734 257.77103 316.33994ZM265.37244 314.72687L264.5217 313.87613L265.37244 313.0254L266.22318 313.87613L265.37244 314.72687ZM264.07974 310.03122Q262.997 308.94846 262.5661 308.07562Q262.12418 307.19174 262.2015 306.4073Q262.2899 305.61182 262.95282 304.94888Q263.43893 304.46277 264.0024 304.29703Q264.57693 304.12024 265.19565 304.25284Q265.8033 304.37436 266.46625 304.77213Q267.12915 305.16986 268.03513 306.07584Q269.10684 307.14755 269.53775 308.0204Q269.97968 308.88217 269.90234 309.68872Q269.825 310.47318 269.15103 311.14713Q268.2782 312.01996 267.1402 311.89844Q265.79227 311.74374 264.07974 310.03122ZM264.8421 309.26886Q266.33365 310.76044 267.1844 310.90405Q268.03513 311.0477 268.54337 310.53946Q269.06265 310.02017 268.90796 309.18048Q268.76434 308.32974 267.2728 306.8382Q265.77017 305.3356 264.93048 305.203Q264.09082 305.04834 263.5605 305.57867Q263.05225 306.08688 263.17377 306.82715Q263.3395 307.76627 264.8421 309.26886ZM270.43268 306.48465L271.15082 305.6339Q271.81375 306.12003 272.41037 306.09793Q273.01804 306.0648 273.471 305.61182Q274.00134 305.08148 273.9682 304.29703Q273.93506 303.51257 273.27216 302.84967Q272.63132 302.20886 271.90213 302.20886Q271.1729 302.18677 270.58734 302.77234Q270.2338 303.1259 270.10123 303.58994Q269.97968 304.0429 270.06805 304.46277L269.28363 305.07043L266.7535 301.36917L269.7808 298.34186L270.4879 299.04898L268.05722 301.47964L269.372 303.43524Q269.5267 302.50717 270.12332 301.91055Q270.9188 301.11505 272.0126 301.1261Q273.11746 301.1261 273.9903 301.99893Q274.8079 302.81653 274.94046 303.8993Q275.0841 305.21405 274.07867 306.21948Q273.25006 307.04813 272.25568 307.1144Q271.27237 307.16965 270.43268 306.48465Z" fill-rule="nonzero"/><path fill="#000000" d="M277.5922 321.19025L276.84088 320.43896L279.13898 318.14087L279.8903 318.89215L277.5922 321.19025ZM279.33786 317.1023Q278.2551 316.01953 277.8242 315.1467Q277.38226 314.26282 277.4596 313.47836Q277.54797 312.6829 278.2109 312.01996Q278.69705 311.5338 279.2605 311.3681Q279.83502 311.1913 280.45377 311.3239Q281.06143 311.44543 281.72433 311.8432Q282.38724 312.24094 283.29324 313.1469Q284.36493 314.21863 284.79584 315.09146Q285.23776 315.95325 285.16043 316.7598Q285.0831 317.54425 284.40915 318.2182Q283.5363 319.09103 282.3983 318.9695Q281.05038 318.81482 279.33786 317.1023ZM280.1002 316.33994Q281.59177 317.8315 282.4425 317.97513Q283.29324 318.11877 283.80145 317.61053Q284.32074 317.09125 284.16608 316.25156Q284.02243 315.40082 282.53088 313.90927Q281.0283 312.40668 280.1886 312.27408Q279.3489 312.11942 278.81857 312.64972Q278.31033 313.15796 278.4319 313.89822Q278.5976 314.83734 280.1002 316.33994ZM287.7016 314.72687L286.85086 313.87613L287.7016 313.0254L288.55234 313.87613L287.7016 314.72687ZM286.40894 310.03122Q285.32617 308.94846 284.89526 308.07562Q284.45334 307.19174 284.53067 306.40732Q284.61905 305.61182 285.28198 304.94888Q285.7681 304.46277 286.33157 304.29703Q286.9061 304.12027 287.5248 304.25284Q288.1325 304.37436 288.7954 304.77213Q289.4583 305.16986 290.3643 306.07584Q291.436 307.14755 291.8669 308.0204Q292.30884 308.88217 292.2315 309.68872Q292.15417 310.47318 291.4802 311.14713Q290.60736 312.01996 289.46936 311.89844Q288.12143 311.74374 286.40894 310.03122ZM287.17126 309.2689Q288.6628 310.76044 289.51355 310.90405Q290.3643 311.0477 290.87253 310.53946Q291.3918 310.02017 291.23712 309.18048Q291.0935 308.32974 289.60196 306.8382Q288.09933 305.3356 287.25964 305.203Q286.41998 305.04834 285.88965 305.57867Q285.3814 306.08688 285.50293 306.82715Q285.66867 307.76627 287.17126 309.2689ZM297.55692 303.43524L298.27505 304.1534L294.2534 308.17508Q293.98822 307.9099 293.82248 307.5674Q293.5684 307.00394 293.50208 306.27472Q293.44684 305.53445 293.5684 304.37436Q293.74515 302.5624 293.61258 301.7448Q293.49103 300.91617 293.0712 300.49634Q292.62924 300.05438 292.01053 300.07648Q291.38077 300.08752 290.87253 300.59576Q290.33115 301.13715 290.33115 301.77795Q290.33115 302.4188 290.89462 303.00436L290.05493 303.68936Q289.2705 302.75024 289.3368 301.80005Q289.40308 300.8278 290.2759 299.95496Q291.14874 299.08212 292.14313 299.06003Q293.13748 299.03793 293.85565 299.75607Q294.22025 300.1207 294.41913 300.6289Q294.61798 301.11505 294.66217 301.86636Q294.7064 302.59555 294.58484 304.065Q294.47437 305.30246 294.4854 305.71124Q294.49646 306.09793 294.5738 306.41837L297.55692 303.43524Z" fill-rule="nonzero"/><path fill="#000000" d="M301.66702 317.1023Q300.58426 316.01953 300.15335 315.1467Q299.71143 314.26282 299.78876 313.47836Q299.87717 312.6829 300.54007 312.01996Q301.0262 311.53384 301.5897 311.3681Q302.1642 311.1913 302.78293 311.3239Q303.3906 311.44543 304.0535 311.8432Q304.7164 312.24094 305.6224 313.1469Q306.6941 314.21863 307.125 315.09146Q307.56693 315.95325 307.4896 316.7598Q307.41226 317.54425 306.7383 318.2182Q305.86545 319.09103 304.72748 318.9695Q303.37955 318.81482 301.66702 317.1023ZM302.42935 316.33994Q303.92093 317.8315 304.77167 317.97513Q305.6224 318.11877 306.1306 317.61053Q306.6499 317.09125 306.49524 316.25156Q306.3516 315.40082 304.86005 313.90927Q303.35745 312.40668 302.51776 312.27408Q301.67807 312.11942 301.14774 312.64972Q300.6395 313.15796 300.76105 313.89822Q300.92676 314.83734 302.42935 316.33994ZM310.03076 314.72687L309.18002 313.87613L310.03076 313.0254L310.8815 313.87613L310.03076 314.72687ZM308.7381 310.03122Q307.65533 308.9485 307.22443 308.07562Q306.7825 307.19174 306.85983 306.40732Q306.9482 305.61182 307.61115 304.9489Q308.09726 304.46277 308.66074 304.29703Q309.23526 304.12027 309.85397 304.25284Q310.46167 304.3744 311.12457 304.77213Q311.78748 305.16986 312.69345 306.07584Q313.76517 307.14755 314.19608 308.0204Q314.638 308.88217 314.56067 309.68872Q314.48334 310.47318 313.80936 311.14713Q312.93652 312.01996 311.79852 311.89844Q310.45062 311.74374 308.7381 310.03122ZM309.50043 309.2689Q310.99197 310.76044 311.8427 310.90405Q312.69345 311.0477 313.2017 310.53946Q313.72098 310.02017 313.56628 309.18048Q313.42267 308.32974 311.93112 306.8382Q310.4285 305.3356 309.58884 305.203Q308.74915 305.04834 308.2188 305.57867Q307.71057 306.0869 307.8321 306.82715Q307.99783 307.76627 309.50043 309.2689ZM319.4883 305.26932L318.74808 306.00955L313.9972 301.2587Q313.9751 301.789 313.7983 302.49612Q313.62155 303.18112 313.40057 303.64517L312.6824 302.927Q313.0028 302.00998 313.05807 301.13715Q313.1133 300.24222 312.91443 299.6456L313.38953 299.1705L319.4883 305.26932Z" fill-rule="nonzero"/><path fill="#000000" d="M323.9962 317.1023Q322.91342 316.01953 322.48254 315.1467Q322.0406 314.26282 322.11792 313.47836Q322.20633 312.6829 322.86923 312.01996Q323.35538 311.53384 323.91885 311.3681Q324.49338 311.1913 325.1121 311.3239Q325.71976 311.44543 326.38266 311.8432Q327.0456 312.24094 327.95157 313.1469Q329.02325 314.21863 329.45416 315.09146Q329.8961 315.95325 329.81876 316.7598Q329.74142 317.54425 329.06747 318.2182Q328.19464 319.09103 327.05664 318.9695Q325.7087 318.81482 323.9962 317.1023ZM324.7585 316.33997Q326.2501 317.8315 327.10083 317.97513Q327.95157 318.11877 328.45978 317.61053Q328.97906 317.09125 328.8244 316.25156Q328.68076 315.40082 327.1892 313.90927Q325.6866 312.40668 324.84692 312.27408Q324.00723 312.11942 323.4769 312.64975Q322.96866 313.15796 323.0902 313.89822Q323.25592 314.83734 324.7585 316.33997ZM332.35992 314.72687L331.5092 313.87613L332.35992 313.0254L333.21066 313.87613L332.35992 314.72687ZM331.06726 310.03122Q329.9845 308.9485 329.5536 308.07565Q329.11166 307.19174 329.189 306.40732Q329.27737 305.61182 329.9403 304.9489Q330.42642 304.46277 330.9899 304.29703Q331.56442 304.12027 332.18314 304.25284Q332.79083 304.3744 333.45374 304.77213Q334.11664 305.16986 335.0226 306.07587Q336.09433 307.14755 336.52524 308.0204Q336.96716 308.88217 336.88983 309.68872Q336.8125 310.47318 336.13852 311.14713Q335.2657 312.01996 334.1277 311.89844Q332.7798 311.74374 331.06726 310.03122ZM331.8296 309.2689Q333.32114 310.76044 334.17188 310.90405Q335.0226 311.0477 335.53085 310.53946Q336.05014 310.02017 335.89545 309.18048Q335.75183 308.32974 334.26028 306.8382Q332.75766 305.3356 331.918 305.20303Q331.0783 305.04834 330.54797 305.57867Q330.03973 306.0869 330.16125 306.82715Q330.327 307.76627 331.8296 309.2689ZM341.39764 305.68915L339.93924 304.23074L337.30966 306.8603L336.62466 306.1753L335.46457 299.4688L336.07224 298.86115L340.00552 302.79443L340.82312 301.97684L341.50812 302.66187L340.69052 303.47943L342.14893 304.93787L341.39764 305.68915ZM339.2542 303.54575L336.52524 300.81674L337.35388 305.44608L339.2542 303.54575Z" fill-rule="nonzero"/><path fill="#000000" d="M346.32535 317.1023Q345.24258 316.01953 344.8117 315.1467Q344.36975 314.26282 344.44708 313.4784Q344.5355 312.6829 345.1984 312.01996Q345.68454 311.53384 346.24802 311.3681Q346.82254 311.19135 347.44125 311.3239Q348.04892 311.44543 348.71182 311.8432Q349.37476 312.24094 350.28073 313.1469Q351.35242 314.21863 351.78333 315.09146Q352.22528 315.95325 352.14792 316.7598Q352.0706 317.54425 351.39664 318.2182Q350.5238 319.09103 349.3858 318.9695Q348.03787 318.81482 346.32535 317.1023ZM347.0877 316.33997Q348.57925 317.8315 349.43 317.97513Q350.28073 318.11877 350.78894 317.61053Q351.30823 317.09125 351.15356 316.25156Q351.00992 315.40082 349.51837 313.90927Q348.01578 312.40668 347.1761 312.27408Q346.3364 312.11942 345.80606 312.64975Q345.29782 313.15796 345.41937 313.89822Q345.58508 314.83734 347.0877 316.33997ZM354.6891 314.72687L353.83835 313.87613L354.6891 313.0254L355.53983 313.87613L354.6891 314.72687ZM353.39642 310.03125Q352.31366 308.9485 351.88275 308.07565Q351.44083 307.19177 351.51816 306.40732Q351.60654 305.61182 352.26947 304.9489Q352.75558 304.46277 353.31906 304.29703Q353.8936 304.12027 354.51233 304.25284Q355.12 304.3744 355.7829 304.77213Q356.4458 305.16986 357.35178 306.07587Q358.4235 307.14755 358.8544 308.0204Q359.29633 308.88217 359.219 309.68872Q359.14166 310.47318 358.46768 311.14713Q357.59485 312.01996 356.45685 311.89844Q355.10895 311.74377 353.39642 310.03125ZM354.15875 309.2689Q355.65033 310.76044 356.50104 310.90408Q357.35178 311.0477 357.86002 310.53946Q358.3793 310.02017 358.22464 309.1805Q358.081 308.32977 356.58945 306.8382Q355.08685 305.3356 354.24716 305.20303Q353.40747 305.04834 352.87714 305.57867Q352.3689 306.0869 352.49042 306.82715Q352.65616 307.7663 354.15875 309.2689ZM356.1033 302.75024L355.38516 302.0321L359.31842 298.09882L359.904 298.6844Q359.9482 299.87762 360.40118 301.47968Q360.8542 303.0596 361.62756 304.45172Q362.1579 305.44608 363.00864 306.40732L362.23526 307.18073Q361.52814 306.4515 360.77682 305.16986Q360.0366 303.8772 359.59464 302.4409Q359.16376 300.99353 359.08643 299.76715L356.1033 302.75024Z" fill-rule="nonzero"/><path fill="#000000" d="M368.6545 317.1023Q367.57175 316.01956 367.14087 315.14673Q366.6989 314.26282 366.77625 313.4784Q366.86465 312.6829 367.52756 312.02Q368.0137 311.53384 368.57718 311.3681Q369.1517 311.19135 369.77042 311.3239Q370.37808 311.44547 371.041 311.8432Q371.70392 312.24094 372.6099 313.14694Q373.6816 314.21863 374.1125 315.09146Q374.55444 315.95325 374.47708 316.7598Q374.39975 317.54425 373.7258 318.2182Q372.85297 319.09103 371.71497 318.9695Q370.36703 318.81482 368.6545 317.1023ZM369.41687 316.33997Q370.90842 317.8315 371.75916 317.97513Q372.6099 318.11877 373.11813 317.61053Q373.6374 317.09125 373.48273 316.25156Q373.33908 315.40082 371.84753 313.90927Q370.34494 312.40668 369.50525 312.27408Q368.66556 312.11942 368.13522 312.64975Q367.62698 313.158 367.74854 313.89822Q367.91425 314.83734 369.41687 316.33997ZM377.01825 314.72687L376.1675 313.87613L377.01825 313.0254L377.869 313.87613L377.01825 314.72687ZM381.52606 310.21906L380.7858 310.95932L376.03494 306.20844Q376.01285 306.73877 375.83606 307.4459Q375.65927 308.1309 375.43832 308.59494L374.72015 307.87677Q375.04056 306.95975 375.0958 306.0869Q375.15106 305.192 374.95218 304.59537L375.42728 304.12027L381.52606 310.21906ZM380.67532 305.08148Q379.59256 303.99872 379.16168 303.1259Q378.71973 302.242 378.79706 301.45758Q378.88547 300.66208 379.54837 299.99915Q380.03452 299.51303 380.598 299.3473Q381.17252 299.17053 381.79123 299.3031Q382.3989 299.42462 383.0618 299.8224Q383.72473 300.22012 384.6307 301.1261Q385.70242 302.1978 386.1333 303.07065Q386.57526 303.93243 386.4979 304.73898Q386.42056 305.52344 385.7466 306.1974Q384.87378 307.07022 383.73578 306.9487Q382.38785 306.794 380.67532 305.08148ZM381.43768 304.31915Q382.92923 305.8107 383.77997 305.9543Q384.6307 306.09796 385.13895 305.58972Q385.6582 305.07043 385.50354 304.23074Q385.3599 303.38 383.86835 301.88846Q382.36575 300.38586 381.52606 300.25327Q380.68637 300.0986 380.15604 300.62894Q379.6478 301.13715 379.76935 301.8774Q379.93506 302.81653 381.43768 304.31915Z" fill-rule="nonzero"/><path fill="#000000" d="M390.9837 317.1023Q389.90094 316.01953 389.47003 315.1467Q389.0281 314.26282 389.10544 313.47836Q389.19382 312.68286 389.85675 312.01996Q390.34286 311.5338 390.90634 311.3681Q391.48087 311.1913 392.0996 311.3239Q392.70728 311.44543 393.37018 311.84317Q394.03308 312.24094 394.93906 313.1469Q396.01077 314.21863 396.44168 315.09146Q396.8836 315.95325 396.80627 316.7598Q396.72894 317.54422 396.05496 318.2182Q395.18213 319.09103 394.04413 318.96948Q392.69623 318.81482 390.9837 317.1023ZM391.74603 316.33994Q393.2376 317.83148 394.08835 317.97513Q394.93906 318.11874 395.4473 317.61053Q395.96658 317.09125 395.81192 316.25156Q395.66827 315.40082 394.17673 313.90927Q392.67413 312.40665 391.83444 312.27408Q390.99475 312.1194 390.46442 312.64972Q389.95618 313.15796 390.0777 313.89822Q390.24344 314.83734 391.74603 316.33994ZM399.34744 314.72684L398.4967 313.8761L399.34744 313.02536L400.19818 313.8761L399.34744 314.72684ZM403.85526 310.21906L403.115 310.9593L398.3641 306.20844Q398.342 306.73874 398.16525 307.44586Q397.98846 308.13086 397.7675 308.5949L397.04935 307.87674Q397.36975 306.95972 397.425 306.08688Q397.48022 305.19196 397.28137 304.59534L397.75644 304.12024L403.85526 310.21906ZM404.39664 306.4736L405.0485 305.62286Q405.7998 306.13107 406.39642 306.10898Q406.982 306.07584 407.42392 305.6339Q407.95425 305.10358 407.95425 304.37436Q407.95425 303.64517 407.41287 303.1038Q406.90463 302.59555 406.23068 302.6066Q405.55673 302.59555 405.03745 303.11484Q404.8275 303.32477 404.5955 303.73355L404.02097 302.98224Q404.10938 302.91595 404.15356 302.87177Q404.62863 302.39667 404.76123 301.77795Q404.8938 301.13715 404.37454 300.61786Q403.96573 300.20908 403.42435 300.22012Q402.87192 300.22012 402.43 300.66205Q401.99908 301.09296 401.977 301.66748Q401.96594 302.23096 402.43 302.84967L401.5461 303.46838Q400.93842 302.59555 401.01578 301.70062Q401.08206 300.79465 401.80023 300.07648Q402.2974 299.57928 402.9382 299.38043Q403.568 299.1705 404.15356 299.31412Q404.73914 299.45776 405.15897 299.8776Q405.5457 300.2643 405.6672 300.8057Q405.77768 301.33603 405.55673 301.93265Q406.2086 301.52383 406.90463 301.6233Q407.58966 301.71167 408.18628 302.3083Q408.98178 303.1038 408.94864 304.2418Q408.9265 305.36874 408.04263 306.25262Q407.24716 307.04813 406.24173 307.10336Q405.22528 307.14755 404.39664 306.4736Z" fill-rule="nonzero"/><path fill="#000000" d="M413.31287 317.1023Q412.2301 316.01953 411.7992 315.1467Q411.35727 314.26282 411.4346 313.47836Q411.52298 312.68286 412.1859 312.01996Q412.67203 311.5338 413.2355 311.3681Q413.81003 311.1913 414.42877 311.3239Q415.03644 311.44543 415.69934 311.84317Q416.36224 312.24094 417.26825 313.1469Q418.33994 314.21863 418.77084 315.09146Q419.21277 315.95325 419.13544 316.7598Q419.0581 317.54422 418.38412 318.2182Q417.5113 319.09103 416.3733 318.96948Q415.0254 318.81482 413.31287 317.1023ZM414.0752 316.33994Q415.56677 317.83148 416.4175 317.97513Q417.26825 318.11874 417.77646 317.61053Q418.29575 317.09125 418.14108 316.25156Q417.99744 315.40082 416.5059 313.90927Q415.0033 312.40665 414.1636 312.27408Q413.3239 312.1194 412.79358 312.64972Q412.28534 313.15796 412.4069 313.89822Q412.5726 314.83734 414.0752 316.33994ZM421.6766 314.72687L420.82587 313.87613L421.6766 313.0254L422.52734 313.87613L421.6766 314.72687ZM426.18442 310.21906L425.44415 310.9593L420.6933 306.20844Q420.67117 306.73877 420.49442 307.44586Q420.31763 308.13086 420.09665 308.5949L419.3785 307.87677Q419.6989 306.95972 419.75415 306.08688Q419.8094 305.19196 419.61053 304.59534L420.0856 304.12024L426.18442 310.21906ZM427.60968 299.6235L426.92465 300.41898Q426.38327 300.07648 426.00763 300.05438Q425.37787 300.04333 424.9359 300.4853Q424.58237 300.83884 424.50504 301.31393Q424.4277 301.9216 424.71497 302.6287Q425.00223 303.31372 425.89716 304.23074Q425.7535 303.55676 425.94135 302.9712Q426.14023 302.37457 426.5711 301.9437Q427.31137 301.20343 428.38306 301.23657Q429.46582 301.25867 430.3276 302.12045Q430.90213 302.69498 431.1452 303.4463Q431.38828 304.1755 431.22253 304.87155Q431.04578 305.55655 430.5044 306.09793Q429.56528 307.03708 428.29468 306.93762Q427.0241 306.8382 425.4552 305.2693Q423.68744 303.50153 423.54382 302.05417Q423.41122 300.79465 424.37244 299.8334Q425.0906 299.11526 425.9524 299.07108Q426.81418 299.00476 427.60968 299.6235ZM427.18982 305.28033Q427.57654 305.66705 428.08475 305.86594Q428.593 306.0427 429.06808 305.94327Q429.55423 305.83276 429.88568 305.5013Q430.3497 305.0373 430.31656 304.31912Q430.27237 303.58994 429.6205 302.93805Q428.99075 302.3083 428.28363 302.2862Q427.5876 302.25305 427.07935 302.7613Q426.5711 303.2695 426.58215 303.98767Q426.60425 304.69476 427.18982 305.28033Z" fill-rule="nonzero"/><path fill="#000000" d="M435.64203 317.1023Q434.55927 316.01953 434.12836 315.1467Q433.68643 314.26282 433.76376 313.47836Q433.85214 312.68286 434.51508 312.01996Q435.0012 311.5338 435.56467 311.3681Q436.1392 311.1913 436.75793 311.3239Q437.3656 311.44543 438.0285 311.8432Q438.6914 312.24094 439.5974 313.1469Q440.6691 314.21863 441.1 315.09146Q441.54193 315.95325 441.4646 316.7598Q441.38727 317.54422 440.7133 318.2182Q439.84045 319.09103 438.70245 318.96948Q437.35455 318.81482 435.64203 317.1023ZM436.40436 316.33994Q437.89594 317.83148 438.74667 317.97513Q439.5974 318.11874 440.10562 317.61053Q440.6249 317.09125 440.47025 316.25156Q440.3266 315.40082 438.83505 313.90927Q437.33246 312.40665 436.49277 312.27408Q435.65308 312.1194 435.12274 312.64972Q434.6145 313.15796 434.73605 313.89822Q434.90176 314.83734 436.40436 316.33994ZM444.00577 314.72687L443.15503 313.87613L444.00577 313.0254L444.8565 313.87613L444.00577 314.72687ZM448.51358 310.21906L447.77332 310.9593L443.02246 306.20844Q443.00034 306.73877 442.82358 307.44586Q442.6468 308.1309 442.4258 308.5949L441.70767 307.87677Q442.02808 306.95972 442.0833 306.08688Q442.13855 305.19196 441.9397 304.59534L442.41476 304.12024L448.51358 310.21906ZM449.36432 306.56198L450.01617 305.77753Q450.6128 306.1974 451.09894 306.1753Q451.58508 306.1311 451.98282 305.73334Q452.32532 305.39084 452.42474 304.98206Q452.5242 304.55115 452.43582 304.13132Q452.33636 303.7004 452.0049 303.14798Q451.6624 302.5845 451.19836 302.12045Q451.14313 302.06522 451.0437 301.9658Q451.17627 302.5403 451.0216 303.15903Q450.85587 303.7667 450.40286 304.2197Q449.64053 304.98206 448.57986 304.95993Q447.50815 304.9268 446.61322 304.03186Q445.68515 303.1038 445.66306 301.99893Q445.652 300.88303 446.4696 300.06543Q447.05518 299.47986 447.86172 299.31415Q448.6793 299.13736 449.53003 299.47986Q450.36972 299.8113 451.48563 300.92722Q452.64572 302.0873 453.08768 303.0375Q453.5296 303.96558 453.386 304.8384Q453.24234 305.68915 452.57944 306.35205Q451.8613 307.07022 451.0216 307.1365Q450.17087 307.19174 449.36432 306.56198ZM449.7289 300.8278Q449.0881 300.18698 448.36993 300.15384Q447.66284 300.10962 447.1767 300.59576Q446.6795 301.09296 446.71265 301.8774Q446.74582 302.63974 447.39767 303.29163Q447.9722 303.86615 448.69034 303.8772Q449.4085 303.88824 449.91675 303.38Q450.43604 302.86072 450.40286 302.16467Q450.36972 301.4686 449.7289 300.8278Z" fill-rule="nonzero"/><path fill="#000000" d="M457.9712 317.1023Q456.88843 316.01953 456.45752 315.1467Q456.0156 314.26282 456.09293 313.47836Q456.18134 312.6829 456.84424 312.01996Q457.33038 311.53384 457.89383 311.3681Q458.46838 311.1913 459.0871 311.3239Q459.69476 311.44543 460.35767 311.8432Q461.02057 312.24094 461.92657 313.1469Q462.99826 314.21863 463.42917 315.09146Q463.8711 315.95325 463.79376 316.7598Q463.71643 317.54425 463.04248 318.2182Q462.16962 319.09103 461.03162 318.9695Q459.68372 318.81482 457.9712 317.1023ZM458.73352 316.33994Q460.2251 317.8315 461.07584 317.97513Q461.92657 318.11877 462.43478 317.61053Q462.95407 317.09125 462.7994 316.25156Q462.65576 315.40082 461.1642 313.90927Q459.66162 312.40668 458.82193 312.27408Q457.98224 312.11942 457.4519 312.64972Q456.94366 313.15796 457.06522 313.89822Q457.23093 314.83734 458.73352 316.33994ZM466.33493 314.72687L465.4842 313.87613L466.33493 313.0254L467.18567 313.87613L466.33493 314.72687ZM471.24048 308.385L471.95865 309.10315L467.93698 313.12482Q467.6718 312.85965 467.50607 312.51715Q467.25195 311.95367 467.18567 311.22446Q467.13043 310.48422 467.25195 309.32413Q467.42874 307.51215 467.29614 306.69458Q467.17462 305.86594 466.7548 305.44608Q466.31284 305.00415 465.69412 305.02625Q465.06436 305.0373 464.55612 305.54553Q464.01474 306.08688 464.01474 306.72772Q464.01474 307.36853 464.57822 307.9541L463.73853 308.6391Q462.95407 307.69998 463.02036 306.74982Q463.08667 305.77753 463.9595 304.9047Q464.83234 304.03186 465.8267 304.00977Q466.82108 303.98767 467.5392 304.70584Q467.90384 305.07043 468.1027 305.57867Q468.30157 306.0648 468.34576 306.8161Q468.38995 307.54532 468.26843 309.01477Q468.15793 310.2522 468.16898 310.66098Q468.18005 311.0477 468.2574 311.3681L471.24048 308.385ZM476.19025 303.43524L476.9084 304.1534L472.88672 308.17508Q472.62155 307.9099 472.4558 307.5674Q472.20172 307.00394 472.1354 306.27472Q472.08017 305.5345 472.20172 304.37436Q472.37848 302.5624 472.2459 301.7448Q472.12436 300.91617 471.70453 300.49634Q471.26257 300.05438 470.64386 300.07648Q470.0141 300.08752 469.50586 300.59576Q468.96448 301.13715 468.96448 301.77795Q468.96448 302.4188 469.52795 303.00436L468.68826 303.68936Q467.90384 302.75024 467.97012 301.80005Q468.0364 300.8278 468.90924 299.95496Q469.78207 299.08212 470.77646 299.06003Q471.7708 299.03793 472.48898 299.75607Q472.85358 300.1207 473.05246 300.6289Q473.2513 301.11505 473.2955 301.86636Q473.33972 302.59555 473.21817 304.065Q473.1077 305.30246 473.11874 305.71124Q473.1298 306.09796 473.20712 306.41837L476.19025 303.43524Z" fill-rule="nonzero"/><path fill="#000000" d="M480.30035 317.1023Q479.2176 316.01953 478.7867 315.1467Q478.34476 314.26282 478.4221 313.47836Q478.5105 312.6829 479.1734 312.01996Q479.65955 311.53384 480.22302 311.3681Q480.79755 311.1913 481.41626 311.3239Q482.02393 311.44543 482.68683 311.8432Q483.34973 312.24094 484.25574 313.1469Q485.32742 314.21863 485.75833 315.09146Q486.20026 315.95325 486.12292 316.7598Q486.0456 317.54425 485.37164 318.2182Q484.4988 319.09103 483.3608 318.9695Q482.01288 318.81482 480.30035 317.1023ZM481.06268 316.33994Q482.55426 317.8315 483.405 317.97513Q484.25574 318.11877 484.76395 317.61053Q485.28323 317.09125 485.12857 316.25156Q484.98492 315.40082 483.49338 313.90927Q481.99078 312.40668 481.1511 312.27408Q480.3114 312.11942 479.78107 312.64975Q479.27283 313.15796 479.39438 313.89822Q479.5601 314.83734 481.06268 316.33994ZM488.6641 314.72687L487.81335 313.87613L488.6641 313.0254L489.51483 313.87613L488.6641 314.72687ZM493.56964 308.385L494.2878 309.10315L490.26614 313.12482Q490.00098 312.85965 489.83524 312.51715Q489.58112 311.95367 489.51483 311.2245Q489.4596 310.48422 489.58112 309.32413Q489.7579 307.51218 489.6253 306.69458Q489.50378 305.86594 489.08395 305.44608Q488.642 305.00415 488.0233 305.02625Q487.39352 305.0373 486.88528 305.54553Q486.3439 306.0869 486.3439 306.72772Q486.3439 307.36853 486.90738 307.9541L486.0677 308.63913Q485.28323 307.69998 485.34952 306.74982Q485.41583 305.77753 486.28867 304.9047Q487.1615 304.03186 488.15585 304.00977Q489.15024 303.98767 489.86838 304.70584Q490.233 305.07043 490.43185 305.57867Q490.63074 306.0648 490.67493 306.8161Q490.71912 307.54532 490.5976 309.01477Q490.4871 310.2522 490.49817 310.661Q490.50922 311.0477 490.58655 311.3681L493.56964 308.385ZM493.72433 306.48465L494.44247 305.6339Q495.1054 306.12006 495.70203 306.09796Q496.3097 306.0648 496.76266 305.61182Q497.293 305.08148 497.25986 304.29703Q497.2267 303.5126 496.5638 302.84967Q495.92297 302.20886 495.1938 302.20886Q494.46457 302.18677 493.879 302.77234Q493.52545 303.1259 493.39288 303.58994Q493.27133 304.0429 493.35974 304.46277L492.5753 305.07043L490.04517 301.36917L493.07248 298.34186L493.77957 299.04898L491.34888 301.47964L492.66367 303.43524Q492.81836 302.50717 493.41498 301.91055Q494.21045 301.11505 495.30426 301.1261Q496.40912 301.1261 497.28195 301.99893Q498.09955 302.81653 498.23215 303.8993Q498.37576 305.21408 497.37036 306.21948Q496.54172 307.04813 495.54733 307.1144Q494.56403 307.16965 493.72433 306.48465Z" fill-rule="nonzero"/><path fill="#000000" d="M502.62952 317.1023Q501.54675 316.01953 501.11588 315.1467Q500.67392 314.26282 500.75125 313.4784Q500.83966 312.6829 501.50256 312.01996Q501.9887 311.53384 502.5522 311.3681Q503.1267 311.19135 503.74542 311.3239Q504.3531 311.44543 505.016 311.8432Q505.67892 312.24094 506.5849 313.1469Q507.6566 314.21863 508.0875 315.09146Q508.52942 315.95325 508.4521 316.7598Q508.37476 317.54425 507.7008 318.2182Q506.82797 319.09103 505.68997 318.9695Q504.34204 318.81482 502.62952 317.1023ZM503.39188 316.33997Q504.88342 317.8315 505.73416 317.97513Q506.5849 318.11877 507.0931 317.61053Q507.6124 317.09125 507.45773 316.25156Q507.3141 315.40082 505.82254 313.90927Q504.31995 312.40668 503.48026 312.27408Q502.64056 312.11942 502.11023 312.64975Q501.602 313.15796 501.72354 313.89822Q501.88925 314.83734 503.39188 316.33997ZM510.99326 314.72687L510.14252 313.87613L510.99326 313.0254L511.844 313.87613L510.99326 314.72687ZM515.8988 308.385L516.61694 309.10315L512.5953 313.12482Q512.33014 312.85965 512.1644 312.51715Q511.91028 311.95367 511.844 311.2245Q511.78876 310.48422 511.91028 309.32413Q512.08704 307.51218 511.95447 306.69458Q511.83295 305.86594 511.41312 305.44608Q510.97116 305.00415 510.35245 305.02625Q509.7227 305.0373 509.21445 305.54553Q508.67307 306.0869 508.67307 306.72772Q508.67307 307.36853 509.23654 307.9541L508.39685 308.63913Q507.6124 307.69998 507.6787 306.74982Q507.745 305.77756 508.61783 304.90472Q509.49066 304.03186 510.48502 304.00977Q511.4794 303.98767 512.1976 304.70584Q512.56213 305.07043 512.76105 305.57867Q512.9599 306.06482 513.0041 306.8161Q513.0483 307.54532 512.92676 309.01477Q512.8163 310.2522 512.82733 310.661Q512.8384 311.0477 512.9157 311.3681L515.8988 308.385ZM515.50104 303.63412Q514.8602 303.9214 514.31885 303.84406Q513.77747 303.7446 513.3466 303.31372Q512.6837 302.65082 512.7058 301.72272Q512.73895 300.7836 513.5234 299.99915Q514.31885 299.20367 515.26904 299.18155Q516.21924 299.15945 516.88214 299.8224Q517.302 300.24222 517.3904 300.77255Q517.47876 301.3029 517.2025 301.93265Q517.9428 301.54596 518.63885 301.66748Q519.3349 301.78903 519.8984 302.3525Q520.67175 303.1259 520.64966 304.20865Q520.6386 305.28036 519.73267 306.18634Q518.8377 307.08127 517.75494 307.10336Q516.67224 307.12546 515.8767 306.33Q515.2801 305.73334 515.18066 305.0373Q515.0923 304.3302 515.50104 303.63412ZM514.0758 302.51822Q514.5067 302.94913 515.05914 302.94913Q515.6226 302.93808 516.0645 302.49612Q516.4954 302.06525 516.5065 301.52386Q516.5065 300.97144 516.10876 300.57367Q515.69995 300.1649 515.1365 300.17593Q514.56195 300.17593 514.1421 300.59576Q513.7112 301.02667 513.70013 301.59015Q513.70013 302.14258 514.0758 302.51822ZM516.6501 305.55658Q516.9705 305.87698 517.4125 306.03165Q517.8655 306.1753 518.32947 306.04272Q518.7935 305.91013 519.13605 305.56763Q519.6664 305.0373 519.6664 304.3523Q519.6774 303.65622 519.1471 303.1259Q518.6057 302.5845 517.8986 302.5845Q517.19147 302.5845 516.6501 303.1259Q516.1198 303.65622 516.13086 304.3523Q516.13086 305.0373 516.6501 305.55658Z" fill-rule="nonzero"/><path fill="#000000" d="M524.9587 317.1023Q523.8759 316.01956 523.445 315.1467Q523.0031 314.26282 523.08044 313.4784Q523.1688 312.6829 523.8317 312.02Q524.3179 311.53384 524.88135 311.3681Q525.4559 311.19135 526.0746 311.3239Q526.68225 311.44547 527.34515 311.8432Q528.00806 312.24094 528.91406 313.1469Q529.9858 314.21863 530.4166 315.09146Q530.8586 315.95325 530.78125 316.7598Q530.7039 317.54425 530.02997 318.2182Q529.1571 319.09103 528.0191 318.9695Q526.6712 318.81482 524.9587 317.1023ZM525.721 316.33997Q527.2126 317.8315 528.0633 317.97513Q528.91406 318.11877 529.4223 317.61053Q529.9416 317.09125 529.78687 316.25156Q529.64325 315.40082 528.15173 313.90927Q526.6491 312.40668 525.8094 312.27408Q524.9697 312.11942 524.4394 312.64975Q523.93115 313.158 524.0527 313.89822Q524.21844 314.83734 525.721 316.33997ZM533.32245 314.72687L532.4717 313.87613L533.32245 313.0254L534.17316 313.87613L533.32245 314.72687ZM533.4219 311.42334L534.0737 310.5726Q534.825 311.08084 535.42163 311.05875Q536.0072 311.0256 536.44916 310.58365Q536.9795 310.05334 536.9795 309.32413Q536.9795 308.59494 536.4381 308.05356Q535.9299 307.54532 535.2559 307.55637Q534.582 307.54532 534.0627 308.0646Q533.8528 308.2745 533.6207 308.68332L533.0462 307.932Q533.1346 307.86572 533.1788 307.82153Q533.6539 307.34644 533.78644 306.72772Q533.91907 306.0869 533.3998 305.56763Q532.99097 305.15884 532.4496 305.1699Q531.89716 305.1699 531.4552 305.61182Q531.02435 306.04272 531.00226 306.61725Q530.9912 307.18073 531.4552 307.79944L530.57135 308.41815Q529.9637 307.54532 530.041 306.6504Q530.1073 305.74442 530.82544 305.02625Q531.32263 304.52905 531.96344 304.3302Q532.5932 304.12027 533.1788 304.2639Q533.76434 304.40753 534.1842 304.82736Q534.5709 305.21408 534.69244 305.75546Q534.8029 306.28577 534.582 306.88242Q535.2338 306.4736 535.9299 306.57303Q536.61487 306.66144 537.2115 307.25806Q538.007 308.05356 537.9739 309.19156Q537.9518 310.3185 537.0679 311.2024Q536.2724 311.99786 535.26697 312.05313Q534.2505 312.09732 533.4219 311.42334ZM542.77997 305.26932L542.03973 306.00955L537.2889 301.2587Q537.2667 301.78903 537.08997 302.49612Q536.9132 303.18115 536.6922 303.64517L535.97406 302.92703Q536.2945 302.00998 536.34973 301.13715Q536.40497 300.24222 536.2061 299.6456L536.68115 299.17053L542.77997 305.26932Z" fill-rule="nonzero"/><path fill="#000000" d="M547.28784 317.1023Q546.2051 316.01956 545.7742 315.14673Q545.3323 314.26282 545.4096 313.4784Q545.498 312.6829 546.1609 312.02Q546.64703 311.53384 547.2105 311.3681Q547.78503 311.19135 548.40375 311.3239Q549.0114 311.44547 549.6743 311.8432Q550.3372 312.24094 551.2432 313.14694Q552.31494 314.21863 552.74585 315.09146Q553.18774 315.95325 553.1104 316.7598Q553.0331 317.54425 552.35913 318.2182Q551.48627 319.09103 550.34827 318.9695Q549.00037 318.81482 547.28784 317.1023ZM548.0502 316.33997Q549.54175 317.8315 550.39246 317.97513Q551.2432 318.11877 551.75146 317.61053Q552.27075 317.09125 552.116 316.25156Q551.9724 315.40082 550.4809 313.90927Q548.9783 312.40668 548.13855 312.2741Q547.2989 312.11942 546.76855 312.64975Q546.2603 313.158 546.38184 313.89822Q546.5476 314.83734 548.0502 316.33997ZM555.6516 314.72687L554.80084 313.87613L555.6516 313.0254L556.5023 313.87613L555.6516 314.72687ZM555.75104 311.42337L556.4029 310.57263Q557.1542 311.08084 557.7508 311.05875Q558.33636 311.0256 558.7783 310.58368Q559.30865 310.05334 559.30865 309.32413Q559.30865 308.59494 558.7673 308.05356Q558.25903 307.54532 557.5851 307.55637Q556.91113 307.54532 556.39185 308.0646Q556.18195 308.27454 555.9499 308.68332L555.37537 307.932Q555.46375 307.86572 555.50793 307.82153Q555.98303 307.34644 556.1156 306.72772Q556.2482 306.0869 555.72894 305.56763Q555.3201 305.15884 554.77875 305.1699Q554.2263 305.1699 553.78436 305.61182Q553.3535 306.04272 553.3314 306.61725Q553.3204 307.18073 553.78436 307.79944L552.9005 308.41815Q552.29285 307.54532 552.3702 306.6504Q552.43646 305.74442 553.1546 305.02625Q553.6518 304.52905 554.2926 304.3302Q554.92236 304.12027 555.50793 304.2639Q556.0935 304.40753 556.51337 304.82736Q556.9001 305.21408 557.0216 305.75546Q557.1321 306.2858 556.91113 306.88242Q557.563 306.4736 558.25903 306.57306Q558.94403 306.66144 559.54065 307.25806Q560.3362 308.05356 560.30304 309.19156Q560.28094 310.3185 559.39703 311.2024Q558.60156 311.9979 557.5961 312.05313Q556.57965 312.09732 555.75104 311.42337ZM564.6893 305.68915L563.2309 304.23074L560.6013 306.86032L559.9163 306.1753L558.7562 299.46884L559.3639 298.86118L563.2972 302.79443L564.11475 301.97684L564.7998 302.66187L563.9822 303.47946L565.4406 304.93787L564.6893 305.68915ZM562.5459 303.54575L559.8169 300.81674L560.6455 305.4461L562.5459 303.54575Z" fill-rule="nonzero"/><path fill="#000000" d="M569.617 317.10233Q568.53424 316.01956 568.10333 315.14673Q567.66144 314.26285 567.7388 313.4784Q567.82715 312.6829 568.49005 312.02Q568.9762 311.53384 569.5397 311.3681Q570.1142 311.19135 570.7329 311.3239Q571.3406 311.44547 572.0035 311.8432Q572.6664 312.24094 573.5724 313.14694Q574.6441 314.21863 575.075 315.09146Q575.5169 315.95325 575.4396 316.7598Q575.36224 317.54425 574.6883 318.2182Q573.8154 319.09103 572.6774 318.9695Q571.3295 318.81482 569.617 317.10233ZM570.37933 316.33997Q571.8709 317.8315 572.7216 317.97516Q573.5724 318.11877 574.0806 317.61053Q574.5999 317.09125 574.4452 316.2516Q574.3016 315.40085 572.81006 313.90927Q571.30743 312.40668 570.4677 312.2741Q569.62805 312.11942 569.0977 312.64975Q568.5895 313.158 568.711 313.89822Q568.8768 314.83737 570.37933 316.33997ZM577.9808 314.72687L577.13 313.87613L577.9808 313.0254L578.8315 313.87613L577.9808 314.72687ZM578.0802 311.42337L578.73206 310.57263Q579.48334 311.08084 580.07996 311.05875Q580.6655 311.0256 581.1075 310.58368Q581.6378 310.05334 581.6378 309.32413Q581.6378 308.59494 581.09644 308.05356Q580.5882 307.54532 579.91425 307.55637Q579.2403 307.54532 578.721 308.0646Q578.5111 308.27454 578.27905 308.68332L577.7045 307.932Q577.7929 307.86572 577.8371 307.82153Q578.3122 307.34644 578.44476 306.72772Q578.5774 306.0869 578.0581 305.56763Q577.6493 305.15884 577.1079 305.1699Q576.5555 305.1699 576.1135 305.61182Q575.6827 306.04272 575.6606 306.61725Q575.64954 307.18073 576.1135 307.79944L575.2297 308.41815Q574.622 307.54532 574.69934 306.6504Q574.7656 305.74442 575.48376 305.02625Q575.98096 304.52905 576.62177 304.3302Q577.2515 304.12027 577.8371 304.26392Q578.42267 304.40753 578.8425 304.8274Q579.22925 305.21408 579.35077 305.75546Q579.46124 306.2858 579.2403 306.88242Q579.89215 306.4736 580.5882 306.57306Q581.2732 306.66144 581.8698 307.25806Q582.66534 308.05356 582.6322 309.19156Q582.6101 310.3185 581.7262 311.2024Q580.9307 311.9979 579.9253 312.05313Q578.9088 312.09732 578.0802 311.42337ZM583.04095 306.48465L583.75916 305.6339Q584.42206 306.12006 585.0187 306.09796Q585.62634 306.06482 586.07935 305.61182Q586.6097 305.08148 586.57654 304.29706Q586.5434 303.5126 585.88043 302.8497Q585.2396 302.20886 584.51044 302.20886Q583.78125 302.18677 583.1957 302.77234Q582.8421 303.12592 582.70953 303.58994Q582.588 304.04294 582.6764 304.46277L581.8919 305.07043L579.3618 301.36917L582.3891 298.3419L583.09625 299.04898L580.6655 301.47968L581.98035 303.43527Q582.135 302.50717 582.7316 301.91055Q583.5271 301.11508 584.6209 301.12613Q585.72577 301.12613 586.59863 301.99896Q587.4162 302.81653 587.54877 303.8993Q587.69244 305.21408 586.687 306.21948Q585.85834 307.04813 584.864 307.11444Q583.8807 307.16968 583.04095 306.48465Z" fill-rule="nonzero"/><path fill="#757575" d="M28.6125 35.8625L28.6125 37.55L19.159374 37.55Q19.14375 36.909374 19.3625 36.33125Q19.721874 35.3625 20.51875 34.425Q21.315624 33.4875 22.815624 32.253124Q25.159374 30.346874 25.971874 29.2375Q26.8 28.1125 26.8 27.1125Q26.8 26.065624 26.05 25.346874Q25.3 24.628124 24.096874 24.628124Q22.83125 24.628124 22.065624 25.39375Q21.3 26.159374 21.3 27.503124L19.4875 27.315624Q19.675 25.3 20.878124 24.2375Q22.096874 23.175 24.14375 23.175Q26.190624 23.175 27.39375 24.315624Q28.596874 25.45625 28.596874 27.14375Q28.596874 28.003124 28.2375 28.846874Q27.89375 29.675 27.08125 30.596874Q26.26875 31.503124 24.378124 33.1125Q22.784374 34.440624 22.33125 34.909374Q21.89375 35.378124 21.596874 35.8625L28.6125 35.8625ZM30.378124 30.4875Q30.378124 27.95625 30.89375 26.409374Q31.425 24.846874 32.45625 24.01875Q33.4875 23.175 35.05 23.175Q36.20625 23.175 37.065624 23.64375Q37.940624 24.096874 38.503124 24.971874Q39.065624 25.846874 39.39375 27.1125Q39.721874 28.3625 39.721874 30.4875Q39.721874 33.003124 39.190624 34.55Q38.675 36.096874 37.64375 36.95625Q36.628124 37.8 35.05 37.8Q32.971874 37.8 31.8 36.315624Q30.378124 34.51875 30.378124 30.4875ZM32.190624 30.4875Q32.190624 34.01875 33.003124 35.190624Q33.83125 36.346874 35.05 36.346874Q36.253124 36.346874 37.08125 35.175Q37.909374 34.003124 37.909374 30.4875Q37.909374 26.95625 37.08125 25.8Q36.253124 24.628124 35.034374 24.628124Q33.815624 24.628124 33.096874 25.659374Q32.190624 26.95625 32.190624 30.4875ZM50.6125 35.8625L50.6125 37.55L41.159374 37.55Q41.14375 36.909374 41.3625 36.33125Q41.721874 35.3625 42.51875 34.425Q43.315624 33.4875 44.815624 32.253124Q47.159374 30.346874 47.971874 29.2375Q48.8 28.1125 48.8 27.1125Q48.8 26.065624 48.05 25.346874Q47.3 24.628124 46.096874 24.628124Q44.83125 24.628124 44.065624 25.39375Q43.3 26.159374 43.3 27.503124L41.4875 27.315624Q41.675 25.3 42.878124 24.2375Q44.096874 23.175 46.14375 23.175Q48.190624 23.175 49.39375 24.315624Q50.596874 25.45625 50.596874 27.14375Q50.596874 28.003124 50.2375 28.846874Q49.89375 29.675 49.08125 30.596874Q48.26875 31.503124 46.378124 33.1125Q44.784374 34.440624 44.33125 34.909374Q43.89375 35.378124 43.596874 35.8625L50.6125 35.8625ZM52.39375 33.76875L54.14375 33.534374Q54.45625 35.034374 55.175 35.690624Q55.909374 36.346874 56.95625 36.346874Q58.190624 36.346874 59.034374 35.4875Q59.89375 34.628124 59.89375 33.3625Q59.89375 32.14375 59.096874 31.3625Q58.315624 30.58125 57.096874 30.58125Q56.596874 30.58125 55.8625 30.76875L56.05 29.221874Q56.221874 29.253124 56.33125 29.253124Q57.45625 29.253124 58.346874 28.675Q59.253124 28.08125 59.253124 26.8625Q59.253124 25.89375 58.596874 25.253124Q57.940624 24.6125 56.909374 24.6125Q55.89375 24.6125 55.20625 25.26875Q54.51875 25.909374 54.33125 27.190624L52.565624 26.878124Q52.89375 25.1125 54.034374 24.14375Q55.175 23.175 56.878124 23.175Q58.05 23.175 59.034374 23.675Q60.01875 24.175 60.534374 25.05Q61.065624 25.925 61.065624 26.89375Q61.065624 27.815624 60.565624 28.58125Q60.065624 29.346874 59.096874 29.8Q60.3625 30.08125 61.065624 31.01875Q61.76875 31.940624 61.76875 33.315624Q61.76875 35.190624 60.39375 36.503124Q59.034374 37.8 56.940624 37.8Q55.05 37.8 53.8 36.675Q52.565624 35.55 52.39375 33.76875ZM69.84688 37.55L69.84688 27.175L71.425 27.175L71.425 28.753124Q72.03438 27.64375 72.55 27.3Q73.06563 26.940624 73.675 26.940624Q74.56563 26.940624 75.4875 27.503124L74.87813 29.14375Q74.2375 28.753124 73.59688 28.753124Q73.01875 28.753124 72.55 29.1125Q72.09688 29.45625 71.89375 30.065624Q71.6125 31.003124 71.6125 32.1125L71.6125 37.55L69.84688 37.55ZM83.97188 34.20625L85.78438 34.440624Q85.3625 36.01875 84.19063 36.909374Q83.03438 37.784374 81.22188 37.784374Q78.95625 37.784374 77.6125 36.39375Q76.28438 34.9875 76.28438 32.45625Q76.28438 29.83125 77.62813 28.39375Q78.97188 26.940624 81.12813 26.940624Q83.20625 26.940624 84.51875 28.3625Q85.84688 29.76875 85.84688 32.346874Q85.84688 32.503124 85.83125 32.815624L78.09688 32.815624Q78.19063 34.51875 79.06563 35.425Q79.94063 36.33125 81.2375 36.33125Q82.20625 36.33125 82.87813 35.83125Q83.56563 35.315624 83.97188 34.20625ZM78.19063 31.3625L83.9875 31.3625Q83.87813 30.065624 83.33125 29.409374Q82.4875 28.39375 81.14375 28.39375Q79.94063 28.39375 79.1125 29.20625Q78.28438 30.003124 78.19063 31.3625ZM87.15938 34.45625L88.90938 34.175Q89.05 35.221874 89.72188 35.784374Q90.39375 36.33125 91.59688 36.33125Q92.8 36.33125 93.37813 35.846874Q93.97188 35.346874 93.97188 34.690624Q93.97188 34.096874 93.45625 33.753124Q93.09688 33.51875 91.65938 33.159374Q89.72188 32.659374 88.97188 32.315624Q88.2375 31.95625 87.84688 31.33125Q87.45625 30.690624 87.45625 29.925Q87.45625 29.2375 87.76875 28.64375Q88.09688 28.05 88.64375 27.659374Q89.05 27.3625 89.75313 27.159374Q90.47188 26.940624 91.28438 26.940624Q92.50313 26.940624 93.425 27.3Q94.34688 27.64375 94.78438 28.253124Q95.22188 28.846874 95.39375 29.846874L93.675 30.08125Q93.55 29.284374 92.9875 28.846874Q92.425 28.39375 91.40938 28.39375Q90.19063 28.39375 89.675 28.8Q89.15938 29.190624 89.15938 29.721874Q89.15938 30.065624 89.37813 30.346874Q89.58125 30.628124 90.05 30.815624Q90.31563 30.909374 91.59688 31.253124Q93.47188 31.753124 94.20625 32.08125Q94.94063 32.39375 95.3625 33.003124Q95.78438 33.596874 95.78438 34.503124Q95.78438 35.378124 95.26875 36.159374Q94.75313 36.940624 93.78438 37.3625Q92.81563 37.784374 91.59688 37.784374Q89.58125 37.784374 88.51875 36.940624Q87.45625 36.096874 87.15938 34.45625ZM104.65938 37.55L104.65938 36.01875Q103.45625 37.784374 101.37813 37.784374Q100.45625 37.784374 99.65938 37.440624Q98.8625 37.08125 98.47188 36.55Q98.09688 36.01875 97.94063 35.2375Q97.83125 34.721874 97.83125 33.596874L97.83125 27.175L99.58125 27.175L99.58125 32.925Q99.58125 34.3 99.69063 34.784374Q99.8625 35.471874 100.39375 35.878124Q100.94063 36.26875 101.72188 36.26875Q102.51875 36.26875 103.20625 35.8625Q103.90938 35.45625 104.19063 34.76875Q104.4875 34.065624 104.4875 32.7375L104.4875 27.175L106.2375 27.175L106.2375 37.55L104.65938 37.55ZM107.83125 37.55L107.83125 23.2375L109.58125 23.2375L109.58125 37.55L107.83125 37.55ZM115.70625 35.971874L115.95625 37.534374Q115.22188 37.690624 114.62813 37.690624Q113.675 37.690624 113.14375 37.39375Q112.62813 37.08125 112.40938 36.596874Q112.19063 36.096874 112.19063 34.51875L112.19063 28.55L110.90938 28.55L110.90938 27.175L112.19063 27.175L112.19063 24.6125L113.94063 23.55L113.94063 27.175L115.70625 27.175L115.70625 28.55L113.94063 28.55L113.94063 34.6125Q113.94063 35.3625 114.03438 35.58125Q114.12813 35.784374 114.33125 35.925Q114.55 36.05 114.94063 36.05Q115.22188 36.05 115.70625 35.971874ZM117.15938 34.45625L118.90938 34.175Q119.05 35.221874 119.72188 35.784374Q120.39375 36.33125 121.59688 36.33125Q122.8 36.33125 123.37813 35.846874Q123.97188 35.346874 123.97188 34.690624Q123.97188 34.096874 123.45625 33.753124Q123.09688 33.51875 121.65938 33.159374Q119.72188 32.659374 118.97188 32.315624Q118.2375 31.95625 117.84688 31.33125Q117.45625 30.690624 117.45625 29.925Q117.45625 29.2375 117.76875 28.64375Q118.09688 28.05 118.64375 27.659374Q119.05 27.3625 119.75313 27.159374Q120.47188 26.940624 121.28438 26.940624Q122.50313 26.940624 123.425 27.3Q124.34688 27.64375 124.78438 28.253124Q125.22188 28.846874 125.39375 29.846874L123.675 30.08125Q123.55 29.284374 122.9875 28.846874Q122.425 28.39375 121.40938 28.39375Q120.19063 28.39375 119.675 28.8Q119.15938 29.190624 119.15938 29.721874Q119.15938 30.065624 119.37813 30.346874Q119.58125 30.628124 120.05 30.815624Q120.31563 30.909374 121.59688 31.253124Q123.47188 31.753124 124.20625 32.08125Q124.94063 32.39375 125.3625 33.003124Q125.78438 33.596874 125.78438 34.503124Q125.78438 35.378124 125.26875 36.159374Q124.75313 36.940624 123.78438 37.3625Q122.81563 37.784374 121.59688 37.784374Q119.58125 37.784374 118.51875 36.940624Q117.45625 36.096874 117.15938 34.45625ZM137.70625 35.971874L137.95625 37.534374Q137.22188 37.690624 136.62813 37.690624Q135.675 37.690624 135.14375 37.39375Q134.62813 37.08125 134.40938 36.596874Q134.19063 36.096874 134.19063 34.51875L134.19063 28.55L132.90938 28.55L132.90938 27.175L134.19063 27.175L134.19063 24.6125L135.94063 23.55L135.94063 27.175L137.70625 27.175L137.70625 28.55L135.94063 28.55L135.94063 34.6125Q135.94063 35.3625 136.03438 35.58125Q136.12813 35.784374 136.33125 35.925Q136.55 36.05 136.94063 36.05Q137.22188 36.05 137.70625 35.971874ZM139.22188 32.3625Q139.22188 29.4875 140.81563 28.096874Q142.15938 26.940624 144.08125 26.940624Q146.22188 26.940624 147.56563 28.346874Q148.925 29.753124 148.925 32.221874Q148.925 34.221874 148.33125 35.378124Q147.7375 36.51875 146.58125 37.159374Q145.44063 37.784374 144.08125 37.784374Q141.89375 37.784374 140.55 36.39375Q139.22188 34.9875 139.22188 32.3625ZM141.01875 32.3625Q141.01875 34.3625 141.87813 35.346874Q142.75313 36.33125 144.08125 36.33125Q145.39375 36.33125 146.25313 35.346874Q147.12813 34.346874 147.12813 32.3Q147.12813 30.378124 146.25313 29.39375Q145.37813 28.39375 144.08125 28.39375Q142.75313 28.39375 141.87813 29.39375Q141.01875 30.378124 141.01875 32.3625ZM163.59688 37.55L163.59688 36.2375Q162.6125 37.784374 160.69063 37.784374Q159.45625 37.784374 158.40938 37.096874Q157.37813 36.409374 156.8 35.190624Q156.2375 33.971874 156.2375 32.378124Q156.2375 30.815624 156.75313 29.55Q157.26875 28.284374 158.3 27.6125Q159.34688 26.940624 160.6125 26.940624Q161.55 26.940624 162.28438 27.346874Q163.01875 27.7375 163.4875 28.3625L163.4875 23.2375L165.22188 23.2375L165.22188 37.55L163.59688 37.55ZM158.03438 32.378124Q158.03438 34.3625 158.87813 35.346874Q159.72188 36.33125 160.8625 36.33125Q162.01875 36.33125 162.81563 35.39375Q163.62813 34.45625 163.62813 32.51875Q163.62813 30.39375 162.8 29.39375Q161.9875 28.39375 160.78438 28.39375Q159.6125 28.39375 158.81563 29.3625Q158.03438 30.315624 158.03438 32.378124ZM174.64375 36.26875Q173.65938 37.096874 172.75313 37.440624Q171.84688 37.784374 170.81563 37.784374Q169.1125 37.784374 168.19063 36.95625Q167.26875 36.1125 167.26875 34.815624Q167.26875 34.05 167.6125 33.425Q167.97188 32.8 168.53438 32.425Q169.09688 32.034374 169.8 31.83125Q170.31563 31.70625 171.3625 31.565624Q173.4875 31.315624 174.4875 30.971874Q174.50313 30.6125 174.50313 30.503124Q174.50313 29.440624 174.00313 28.9875Q173.33125 28.39375 172.00313 28.39375Q170.75313 28.39375 170.15938 28.83125Q169.58125 29.26875 169.3 30.378124L167.58125 30.14375Q167.81563 29.034374 168.34688 28.3625Q168.87813 27.675 169.89375 27.315624Q170.90938 26.940624 172.25313 26.940624Q173.58125 26.940624 174.40938 27.253124Q175.2375 27.565624 175.62813 28.05Q176.01875 28.51875 176.175 29.2375Q176.26875 29.690624 176.26875 30.8625L176.26875 33.20625Q176.26875 35.659374 176.37813 36.315624Q176.4875 36.95625 176.83125 37.55L174.9875 37.55Q174.72188 37.003124 174.64375 36.26875ZM174.4875 32.346874Q173.53438 32.7375 171.6125 33.003124Q170.53438 33.159374 170.08125 33.3625Q169.64375 33.55 169.39375 33.925Q169.14375 34.3 169.14375 34.76875Q169.14375 35.471874 169.675 35.940624Q170.20625 36.409374 171.2375 36.409374Q172.25313 36.409374 173.03438 35.971874Q173.83125 35.51875 174.20625 34.753124Q174.4875 34.14375 174.4875 32.9875L174.4875 32.346874ZM182.70625 35.971874L182.95625 37.534374Q182.22188 37.690624 181.62813 37.690624Q180.675 37.690624 180.14375 37.39375Q179.62813 37.08125 179.40938 36.596874Q179.19063 36.096874 179.19063 34.51875L179.19063 28.55L177.90938 28.55L177.90938 27.175L179.19063 27.175L179.19063 24.6125L180.94063 23.55L180.94063 27.175L182.70625 27.175L182.70625 28.55L180.94063 28.55L180.94063 34.6125Q180.94063 35.3625 181.03438 35.58125Q181.12813 35.784374 181.33125 35.925Q181.55 36.05 181.94063 36.05Q182.22188 36.05 182.70625 35.971874ZM191.97188 34.20625L193.78438 34.440624Q193.3625 36.01875 192.19063 36.909374Q191.03438 37.784374 189.22188 37.784374Q186.95625 37.784374 185.6125 36.39375Q184.28438 34.9875 184.28438 32.45625Q184.28438 29.83125 185.62813 28.39375Q186.97188 26.940624 189.12813 26.940624Q191.20625 26.940624 192.51875 28.3625Q193.84688 29.76875 193.84688 32.346874Q193.84688 32.503124 193.83125 32.815624L186.09688 32.815624Q186.19063 34.51875 187.06563 35.425Q187.94063 36.33125 189.2375 36.33125Q190.20625 36.33125 190.87813 35.83125Q191.56563 35.315624 191.97188 34.20625ZM186.19063 31.3625L191.9875 31.3625Q191.87813 30.065624 191.33125 29.409374Q190.4875 28.39375 189.14375 28.39375Q187.94063 28.39375 187.1125 29.20625Q186.28438 30.003124 186.19063 31.3625Z" fill-rule="nonzero"/></svg>